<svg width="600" height="360" viewBox="0 0 600 360" fill="none" xmlns="http://www.w3.org/2000/svg">
<g clip-path="url(#clip0_870_20706)">
<rect width="600" height="360" rx="12" fill="#FDFCFA"/>
<rect width="600" height="56" fill="#D6E6F7"/>
<path d="M276.493 35.103C276.493 38.9482 274.155 41.5116 270.601 41.5116C268.835 41.5116 267.445 40.8008 266.519 39.5298V41.3716H262.889V23.8906H266.519V30.5685C267.413 29.2976 268.802 28.5867 270.526 28.5867C274.08 28.5759 276.493 31.1932 276.493 35.103ZM272.809 34.9845C272.809 32.9596 271.538 31.4948 269.675 31.4948C267.811 31.4948 266.519 32.9273 266.519 34.9845C266.519 37.0741 267.811 38.4958 269.675 38.4958C271.538 38.5066 272.809 37.0633 272.809 34.9845Z" fill="#314F8F"/>
<path d="M291.787 35.0386C291.787 38.9054 289.051 41.5226 285.001 41.5226C280.919 41.5226 278.194 38.9054 278.194 35.0386C278.194 31.1504 280.93 28.5762 285.001 28.5762C289.062 28.5762 291.787 31.1504 291.787 35.0386ZM281.835 35.0817C281.835 37.1497 283.106 38.5715 284.991 38.5715C286.854 38.5715 288.147 37.1605 288.147 35.0817C288.147 33.0137 286.854 31.592 284.991 31.592C283.117 31.592 281.835 33.0137 281.835 35.0817Z" fill="#314F8F"/>
<path d="M302.44 40.6606C301.492 41.2099 300.318 41.5331 299.144 41.5331C296.882 41.5331 295.159 40.2406 295.159 37.6233V31.7532H293.392V29.2544H295.159V25.7646H298.767V29.2544H302.213V31.7747H298.767V37.0094C298.767 38.0649 299.208 38.4957 299.995 38.4742C300.458 38.4742 301.029 38.3018 301.686 38.011L302.44 40.6606Z" fill="#314F8F"/>
<path d="M312.887 40.6606C311.939 41.2099 310.765 41.5331 309.591 41.5331C307.33 41.5331 305.606 40.2406 305.606 37.6233V31.7532H303.84V29.2544H305.606V25.7646H309.214V29.2544H312.661V31.7747H309.214V37.0094C309.214 38.0649 309.656 38.4957 310.442 38.4742C310.905 38.4742 311.476 38.3018 312.133 38.011L312.887 40.6606Z" fill="#314F8F"/>
<path d="M327.051 36.1373H317.95C318.37 37.7422 319.598 38.6792 321.224 38.6792C322.43 38.6792 323.561 38.2161 324.434 37.3329L326.34 39.2608C325.069 40.6718 323.206 41.5012 320.912 41.5012C316.851 41.5012 314.288 38.9054 314.288 35.0602C314.288 31.1504 316.948 28.5547 320.815 28.5547C325.285 28.5762 327.363 31.5166 327.051 36.1373ZM323.658 33.9939C323.615 32.3245 322.527 31.2366 320.847 31.2366C319.242 31.2366 318.165 32.3137 317.874 33.9939H323.658Z" fill="#314F8F"/>
<path d="M339.092 29.9433L337.843 32.4206C336.454 31.6451 335.032 31.1928 333.976 31.1928C333.125 31.1928 332.512 31.4728 332.512 32.1406C332.512 34.047 339.211 33.0884 339.189 37.5691C339.189 40.1648 336.906 41.5327 334.03 41.5327C331.984 41.5327 329.97 40.9188 328.537 39.7663L329.722 37.3106C331.047 38.323 332.738 38.8939 334.138 38.8939C335.053 38.8939 335.743 38.5923 335.743 37.9029C335.743 35.878 329.173 36.9551 329.173 32.5068C329.173 29.8895 331.413 28.5431 334.17 28.5431C335.894 28.5324 337.682 29.0494 339.092 29.9433Z" fill="#314F8F"/>
<path d="M349.874 40.6606C348.926 41.2099 347.752 41.5331 346.578 41.5331C344.316 41.5331 342.593 40.2406 342.593 37.6233V31.7532H340.827V29.2544H342.593V25.7646H346.201V29.2544H349.648V31.7747H346.201V37.0094C346.201 38.0649 346.643 38.4957 347.429 38.4742C347.892 38.4742 348.463 38.3018 349.12 38.011L349.874 40.6606Z" fill="#314F8F"/>
<path d="M353.665 40.6926C353.665 41.1881 353.288 41.5651 352.836 41.5651C352.384 41.5651 352.039 41.1881 352.039 40.6926C352.039 40.2295 352.395 39.8633 352.836 39.8633C353.278 39.8633 353.665 40.2187 353.665 40.6926Z" fill="#314F8F"/>
<path d="M364.652 38.9481C363.618 40.6391 361.862 41.4038 359.751 41.4038C357.317 41.4038 355.69 39.8744 355.69 37.7956C355.69 35.7491 357.435 34.4997 360.257 34.4997H364.619V33.2934C364.598 31.2254 363.392 29.976 360.947 29.976C359.417 29.976 358.114 30.5899 356.821 31.5809L356.358 30.8269C357.823 29.7714 359.234 29.082 361.097 29.082C363.995 29.082 365.578 30.6869 365.6 33.2288L365.643 41.3823H364.673L364.652 38.9481ZM364.652 37.3648V35.3614H360.365C357.963 35.3614 356.638 36.1908 356.638 37.7633C356.638 39.3897 357.888 40.4991 359.891 40.4991C362.174 40.4991 363.898 39.5189 364.652 37.3648Z" fill="#314F8F"/>
<path d="M370.802 25.5599C370.802 26.0553 370.425 26.4323 369.972 26.4323C369.531 26.4323 369.143 26.0553 369.143 25.5599C369.143 25.0967 369.52 24.709 369.972 24.709C370.425 24.709 370.802 25.086 370.802 25.5599ZM369.477 41.3822V29.1035H370.446V41.3822H369.477Z" fill="#314F8F"/>
<path d="M253.227 28.0703H252.549V30.623H253.227V28.0703Z" fill="black"/>
<path d="M247.939 39.0025L250.503 39.218V37.6777H247.939V39.0025Z" fill="black"/>
<path d="M239.215 38.3023L241.778 38.507V37.7207H239.215V38.3023Z" fill="black"/>
<path d="M240.497 44.0005H236.608C236.318 44.0005 236.081 43.7636 236.081 43.4728V43.462C236.081 42.3526 236.985 41.4478 238.095 41.4478H239.215V38.292L241.768 38.4859V42.7296C241.778 43.4297 241.207 44.0005 240.497 44.0005Z" fill="#388AEB"/>
<path d="M249.221 44.0007H253.11C253.4 44.0007 253.637 43.7638 253.637 43.4729V43.4622C253.637 42.3528 252.733 41.448 251.623 41.448H250.503V39.1431L247.95 38.9492V42.719C247.94 43.4299 248.51 44.0007 249.221 44.0007Z" fill="#388AEB"/>
<path d="M251.127 37.7535H238.59C237.782 37.7535 237.136 37.0965 237.136 36.2995V25.2917C237.136 21.705 240.066 18.7754 243.653 18.7754H246.087C249.673 18.7754 252.603 21.705 252.603 25.2917V36.2995C252.592 37.0965 251.925 37.7535 251.127 37.7535Z" fill="#388AEB"/>
<path d="M236.339 28.0596C233.13 28.0596 230.512 30.6769 230.512 33.8866V35.9977C229.726 36.5147 229.198 37.3979 229.198 38.4103C229.198 39.7782 230.168 40.9522 231.503 41.2323C231.568 41.243 231.622 41.243 231.686 41.243C232.117 41.243 232.494 40.9415 232.58 40.5106C232.623 40.2737 232.58 40.0259 232.451 39.8321C232.311 39.6274 232.117 39.4874 231.88 39.4443C231.385 39.3474 231.04 38.9058 231.04 38.4103C231.04 37.8287 231.514 37.3548 232.096 37.3548C232.537 37.3548 232.936 37.6348 233.086 38.0334C233.173 38.2595 233.345 38.4426 233.56 38.5396C233.787 38.6365 234.024 38.6473 234.261 38.5611C234.724 38.3888 234.971 37.8503 234.788 37.3871C234.487 36.5901 233.851 35.9869 233.076 35.6961V33.8758C233.076 32.0771 234.551 30.6015 236.35 30.6015H239.161V28.0488H236.339V28.0596Z" fill="#388AEB"/>
<path d="M260.509 20.2722C260.509 18.9043 259.539 17.7303 258.204 17.4502C258.139 17.4395 258.085 17.4395 258.021 17.4395C257.59 17.4395 257.213 17.741 257.127 18.1719C257.084 18.4088 257.127 18.6565 257.256 18.8504C257.396 19.0551 257.59 19.1951 257.827 19.2382C258.322 19.3351 258.667 19.7767 258.667 20.2722C258.667 20.8538 258.193 21.3277 257.611 21.3277C257.17 21.3277 256.771 21.0477 256.62 20.6492C256.534 20.423 256.362 20.2399 256.146 20.1429C255.931 20.046 255.683 20.0352 255.446 20.1214C254.983 20.2937 254.736 20.8323 254.919 21.2954C255.22 22.0924 255.856 22.6956 256.631 22.9864V24.8067C256.631 26.6054 255.156 28.081 253.357 28.081H253.206V30.6337H253.378C256.588 30.6337 259.205 28.0164 259.205 24.8067V22.6956C259.992 22.1678 260.509 21.2846 260.509 20.2722Z" fill="#388AEB"/>
<path d="M244.859 36.2131C245.287 36.2131 245.634 35.8659 245.634 35.4376C245.634 35.0093 245.287 34.6621 244.859 34.6621C244.431 34.6621 244.083 35.0093 244.083 35.4376C244.083 35.8659 244.431 36.2131 244.859 36.2131Z" fill="#314F8F"/>
<path d="M248.693 36.2131C249.122 36.2131 249.469 35.8659 249.469 35.4376C249.469 35.0093 249.122 34.6621 248.693 34.6621C248.265 34.6621 247.918 35.0093 247.918 35.4376C247.918 35.8659 248.265 36.2131 248.693 36.2131Z" fill="#314F8F"/>
<path d="M241.025 36.2131C241.453 36.2131 241.8 35.8659 241.8 35.4376C241.8 35.0093 241.453 34.6621 241.025 34.6621C240.596 34.6621 240.249 35.0093 240.249 35.4376C240.249 35.8659 240.596 36.2131 241.025 36.2131Z" fill="#314F8F"/>
<path d="M253.034 19.0979H251.709C251.117 16.4699 249.049 14.3911 246.421 13.8095V12.8509C246.421 12.3878 246.033 12 245.57 12H244.17C243.706 12 243.319 12.3878 243.319 12.8509V13.8095C243.168 13.9172 243.125 14.0141 242.985 14.0572C242.812 14.1003 242.565 14.1219 242.414 14.0788C240.217 14.8973 238.536 16.7822 238.019 19.1087H236.695C236.231 19.1087 235.844 19.4965 235.844 19.9596V21.3598C235.844 21.823 236.231 22.2107 236.695 22.2107H253.034C253.497 22.2107 253.885 21.823 253.885 21.3598V19.9596C253.874 19.4749 253.497 19.0979 253.034 19.0979Z" fill="#314F8F"/>
<path d="M243.319 17.127V13.7881C243.017 13.8527 242.705 13.9496 242.414 14.0574L243.319 17.127Z" fill="black"/>
<path d="M248.058 23.3848H241.649C240.357 23.3848 239.312 24.4295 239.312 25.722V29.2225C239.312 30.515 240.357 31.5598 241.649 31.5598H244.17L247.25 33.8109C247.509 34.0048 247.875 33.8216 247.875 33.4985V31.5706H248.047C249.34 31.5706 250.384 30.5258 250.384 29.2333V25.7328C250.395 24.4295 249.35 23.3848 248.058 23.3848Z" fill="white"/>
<path d="M242.22 28.5335C241.638 28.5335 241.154 28.0596 241.154 27.4672V26.5516C241.154 25.97 241.628 25.4854 242.22 25.4854C242.802 25.4854 243.286 25.9593 243.286 26.5516V27.4672C243.276 28.0596 242.802 28.5335 242.22 28.5335Z" fill="black"/>
<path d="M247.498 28.5335C248.08 28.5335 248.564 28.0596 248.564 27.4672V26.5516C248.564 25.97 248.09 25.4854 247.498 25.4854C246.916 25.4854 246.432 25.9593 246.432 26.5516V27.4672C246.442 28.0596 246.916 28.5335 247.498 28.5335Z" fill="black"/>
<path d="M254.839 163.018H248.728L247.678 166H245.179L250.408 151.384H253.18L258.409 166H255.889L254.839 163.018ZM254.167 161.065L251.794 154.282L249.4 161.065H254.167ZM276.222 154.429L272.631 166H270.111L267.78 157.453L265.449 166H262.929L259.317 154.429H261.753L264.168 163.732L266.625 154.429H269.124L271.476 163.69L273.87 154.429H276.222ZM288.617 159.931C288.617 160.365 288.589 160.757 288.533 161.107H279.692C279.762 162.031 280.105 162.773 280.721 163.333C281.337 163.893 282.093 164.173 282.989 164.173C284.277 164.173 285.187 163.634 285.719 162.556H288.302C287.952 163.62 287.315 164.495 286.391 165.181C285.481 165.853 284.347 166.189 282.989 166.189C281.883 166.189 280.889 165.944 280.007 165.454C279.139 164.95 278.453 164.25 277.949 163.354C277.459 162.444 277.214 161.394 277.214 160.204C277.214 159.014 277.452 157.971 277.928 157.075C278.418 156.165 279.097 155.465 279.965 154.975C280.847 154.485 281.855 154.24 282.989 154.24C284.081 154.24 285.054 154.478 285.908 154.954C286.762 155.43 287.427 156.102 287.903 156.97C288.379 157.824 288.617 158.811 288.617 159.931ZM286.118 159.175C286.104 158.293 285.789 157.586 285.173 157.054C284.557 156.522 283.794 156.256 282.884 156.256C282.058 156.256 281.351 156.522 280.763 157.054C280.175 157.572 279.825 158.279 279.713 159.175H286.118ZM295.172 166.189C294.262 166.189 293.443 166.028 292.715 165.706C292.001 165.37 291.434 164.922 291.014 164.362C290.594 163.788 290.37 163.151 290.342 162.451H292.82C292.862 162.941 293.093 163.354 293.513 163.69C293.947 164.012 294.486 164.173 295.13 164.173C295.802 164.173 296.32 164.047 296.684 163.795C297.062 163.529 297.251 163.193 297.251 162.787C297.251 162.353 297.041 162.031 296.621 161.821C296.215 161.611 295.564 161.38 294.668 161.128C293.8 160.89 293.093 160.659 292.547 160.435C292.001 160.211 291.525 159.868 291.119 159.406C290.727 158.944 290.531 158.335 290.531 157.579C290.531 156.963 290.713 156.403 291.077 155.899C291.441 155.381 291.959 154.975 292.631 154.681C293.317 154.387 294.101 154.24 294.983 154.24C296.299 154.24 297.356 154.576 298.154 155.248C298.966 155.906 299.4 156.809 299.456 157.957H297.062C297.02 157.439 296.81 157.026 296.432 156.718C296.054 156.41 295.543 156.256 294.899 156.256C294.269 156.256 293.786 156.375 293.45 156.613C293.114 156.851 292.946 157.166 292.946 157.558C292.946 157.866 293.058 158.125 293.282 158.335C293.506 158.545 293.779 158.713 294.101 158.839C294.423 158.951 294.899 159.098 295.529 159.28C296.369 159.504 297.055 159.735 297.587 159.973C298.133 160.197 298.602 160.533 298.994 160.981C299.386 161.429 299.589 162.024 299.603 162.766C299.603 163.424 299.421 164.012 299.057 164.53C298.693 165.048 298.175 165.454 297.503 165.748C296.845 166.042 296.068 166.189 295.172 166.189ZM307.209 166.189C306.117 166.189 305.13 165.944 304.248 165.454C303.366 164.95 302.673 164.25 302.169 163.354C301.665 162.444 301.413 161.394 301.413 160.204C301.413 159.028 301.672 157.985 302.19 157.075C302.708 156.165 303.415 155.465 304.311 154.975C305.207 154.485 306.208 154.24 307.314 154.24C308.42 154.24 309.421 154.485 310.317 154.975C311.213 155.465 311.92 156.165 312.438 157.075C312.956 157.985 313.215 159.028 313.215 160.204C313.215 161.38 312.949 162.423 312.417 163.333C311.885 164.243 311.157 164.95 310.233 165.454C309.323 165.944 308.315 166.189 307.209 166.189ZM307.209 164.11C307.825 164.11 308.399 163.963 308.931 163.669C309.477 163.375 309.918 162.934 310.254 162.346C310.59 161.758 310.758 161.044 310.758 160.204C310.758 159.364 310.597 158.657 310.275 158.083C309.953 157.495 309.526 157.054 308.994 156.76C308.462 156.466 307.888 156.319 307.272 156.319C306.656 156.319 306.082 156.466 305.55 156.76C305.032 157.054 304.619 157.495 304.311 158.083C304.003 158.657 303.849 159.364 303.849 160.204C303.849 161.45 304.164 162.416 304.794 163.102C305.438 163.774 306.243 164.11 307.209 164.11ZM329.589 154.24C330.499 154.24 331.311 154.429 332.025 154.807C332.753 155.185 333.32 155.745 333.726 156.487C334.146 157.229 334.356 158.125 334.356 159.175V166H331.983V159.532C331.983 158.496 331.724 157.705 331.206 157.159C330.688 156.599 329.981 156.319 329.085 156.319C328.189 156.319 327.475 156.599 326.943 157.159C326.425 157.705 326.166 158.496 326.166 159.532V166H323.793V159.532C323.793 158.496 323.534 157.705 323.016 157.159C322.498 156.599 321.791 156.319 320.895 156.319C319.999 156.319 319.285 156.599 318.753 157.159C318.235 157.705 317.976 158.496 317.976 159.532V166H315.582V154.429H317.976V155.752C318.368 155.276 318.865 154.905 319.467 154.639C320.069 154.373 320.713 154.24 321.399 154.24C322.323 154.24 323.149 154.436 323.877 154.828C324.605 155.22 325.165 155.787 325.557 156.529C325.907 155.829 326.453 155.276 327.195 154.87C327.937 154.45 328.735 154.24 329.589 154.24ZM348.007 159.931C348.007 160.365 347.979 160.757 347.923 161.107H339.082C339.152 162.031 339.495 162.773 340.111 163.333C340.727 163.893 341.483 164.173 342.379 164.173C343.667 164.173 344.577 163.634 345.109 162.556H347.692C347.342 163.62 346.705 164.495 345.781 165.181C344.871 165.853 343.737 166.189 342.379 166.189C341.273 166.189 340.279 165.944 339.397 165.454C338.529 164.95 337.843 164.25 337.339 163.354C336.849 162.444 336.604 161.394 336.604 160.204C336.604 159.014 336.842 157.971 337.318 157.075C337.808 156.165 338.487 155.465 339.355 154.975C340.237 154.485 341.245 154.24 342.379 154.24C343.471 154.24 344.444 154.478 345.298 154.954C346.152 155.43 346.817 156.102 347.293 156.97C347.769 157.824 348.007 158.811 348.007 159.931ZM345.508 159.175C345.494 158.293 345.179 157.586 344.563 157.054C343.947 156.522 343.184 156.256 342.274 156.256C341.448 156.256 340.741 156.522 340.153 157.054C339.565 157.572 339.215 158.279 339.103 159.175H345.508ZM353.366 151.405L353.093 161.59H351.098L350.825 151.405H353.366ZM352.169 166.147C351.735 166.147 351.371 166 351.077 165.706C350.783 165.412 350.636 165.048 350.636 164.614C350.636 164.18 350.783 163.816 351.077 163.522C351.371 163.228 351.735 163.081 352.169 163.081C352.589 163.081 352.946 163.228 353.24 163.522C353.534 163.816 353.681 164.18 353.681 164.614C353.681 165.048 353.534 165.412 353.24 165.706C352.946 166 352.589 166.147 352.169 166.147Z" fill="#212427"/>
<path d="M115.581 189.636L113.157 198H111.933L109.989 191.268L107.973 198L106.761 198.012L104.421 189.636H105.585L107.409 196.728L109.425 189.636H110.649L112.569 196.704L114.405 189.636H115.581ZM120.04 191.304C120.536 191.304 120.984 191.412 121.384 191.628C121.784 191.836 122.096 192.152 122.32 192.576C122.552 193 122.668 193.516 122.668 194.124V198H121.588V194.28C121.588 193.624 121.424 193.124 121.096 192.78C120.768 192.428 120.32 192.252 119.752 192.252C119.176 192.252 118.716 192.432 118.372 192.792C118.036 193.152 117.868 193.676 117.868 194.364V198H116.776V189.12H117.868V192.36C118.084 192.024 118.38 191.764 118.756 191.58C119.14 191.396 119.568 191.304 120.04 191.304ZM130.451 194.46C130.451 194.668 130.439 194.888 130.415 195.12H125.159C125.199 195.768 125.419 196.276 125.819 196.644C126.227 197.004 126.719 197.184 127.295 197.184C127.767 197.184 128.159 197.076 128.471 196.86C128.791 196.636 129.015 196.34 129.143 195.972H130.319C130.143 196.604 129.791 197.12 129.263 197.52C128.735 197.912 128.079 198.108 127.295 198.108C126.671 198.108 126.111 197.968 125.615 197.688C125.127 197.408 124.743 197.012 124.463 196.5C124.183 195.98 124.043 195.38 124.043 194.7C124.043 194.02 124.179 193.424 124.451 192.912C124.723 192.4 125.103 192.008 125.591 191.736C126.087 191.456 126.655 191.316 127.295 191.316C127.919 191.316 128.471 191.452 128.951 191.724C129.431 191.996 129.799 192.372 130.055 192.852C130.319 193.324 130.451 193.86 130.451 194.46ZM129.323 194.232C129.323 193.816 129.231 193.46 129.047 193.164C128.863 192.86 128.611 192.632 128.291 192.48C127.979 192.32 127.631 192.24 127.247 192.24C126.695 192.24 126.223 192.416 125.831 192.768C125.447 193.12 125.227 193.608 125.171 194.232H129.323ZM135.097 191.304C135.897 191.304 136.545 191.548 137.041 192.036C137.537 192.516 137.785 193.212 137.785 194.124V198H136.705V194.28C136.705 193.624 136.541 193.124 136.213 192.78C135.885 192.428 135.437 192.252 134.869 192.252C134.293 192.252 133.833 192.432 133.489 192.792C133.153 193.152 132.985 193.676 132.985 194.364V198H131.893V191.424H132.985V192.36C133.201 192.024 133.493 191.764 133.861 191.58C134.237 191.396 134.649 191.304 135.097 191.304ZM148.432 191.424L144.472 201.096H143.344L144.64 197.928L141.988 191.424H143.2L145.264 196.752L147.304 191.424H148.432ZM152.397 198.108C151.781 198.108 151.221 197.968 150.717 197.688C150.221 197.408 149.829 197.012 149.541 196.5C149.261 195.98 149.121 195.38 149.121 194.7C149.121 194.028 149.265 193.436 149.553 192.924C149.849 192.404 150.249 192.008 150.753 191.736C151.257 191.456 151.821 191.316 152.445 191.316C153.069 191.316 153.633 191.456 154.137 191.736C154.641 192.008 155.037 192.4 155.325 192.912C155.621 193.424 155.769 194.02 155.769 194.7C155.769 195.38 155.617 195.98 155.313 196.5C155.017 197.012 154.613 197.408 154.101 197.688C153.589 197.968 153.021 198.108 152.397 198.108ZM152.397 197.148C152.789 197.148 153.157 197.056 153.501 196.872C153.845 196.688 154.121 196.412 154.329 196.044C154.545 195.676 154.653 195.228 154.653 194.7C154.653 194.172 154.549 193.724 154.341 193.356C154.133 192.988 153.861 192.716 153.525 192.54C153.189 192.356 152.825 192.264 152.433 192.264C152.033 192.264 151.665 192.356 151.329 192.54C151.001 192.716 150.737 192.988 150.537 193.356C150.337 193.724 150.237 194.172 150.237 194.7C150.237 195.236 150.333 195.688 150.525 196.056C150.725 196.424 150.989 196.7 151.317 196.884C151.645 197.06 152.005 197.148 152.397 197.148ZM163.037 191.424V198H161.945V197.028C161.737 197.364 161.445 197.628 161.069 197.82C160.701 198.004 160.293 198.096 159.845 198.096C159.333 198.096 158.873 197.992 158.465 197.784C158.057 197.568 157.733 197.248 157.493 196.824C157.261 196.4 157.145 195.884 157.145 195.276V191.424H158.225V195.132C158.225 195.78 158.389 196.28 158.717 196.632C159.045 196.976 159.493 197.148 160.061 197.148C160.645 197.148 161.105 196.968 161.441 196.608C161.777 196.248 161.945 195.724 161.945 195.036V191.424H163.037ZM165.049 189.636H166.261L165.109 192.36H164.341L165.049 189.636ZM168.598 192.492C168.79 192.116 169.062 191.824 169.414 191.616C169.774 191.408 170.21 191.304 170.722 191.304V192.432H170.434C169.21 192.432 168.598 193.096 168.598 194.424V198H167.506V191.424H168.598V192.492ZM177.983 194.46C177.983 194.668 177.971 194.888 177.947 195.12H172.691C172.731 195.768 172.951 196.276 173.351 196.644C173.759 197.004 174.251 197.184 174.827 197.184C175.299 197.184 175.691 197.076 176.003 196.86C176.323 196.636 176.547 196.34 176.675 195.972H177.851C177.675 196.604 177.323 197.12 176.795 197.52C176.267 197.912 175.611 198.108 174.827 198.108C174.203 198.108 173.643 197.968 173.147 197.688C172.659 197.408 172.275 197.012 171.995 196.5C171.715 195.98 171.575 195.38 171.575 194.7C171.575 194.02 171.711 193.424 171.983 192.912C172.255 192.4 172.635 192.008 173.123 191.736C173.619 191.456 174.187 191.316 174.827 191.316C175.451 191.316 176.003 191.452 176.483 191.724C176.963 191.996 177.331 192.372 177.587 192.852C177.851 193.324 177.983 193.86 177.983 194.46ZM176.855 194.232C176.855 193.816 176.763 193.46 176.579 193.164C176.395 192.86 176.143 192.632 175.823 192.48C175.511 192.32 175.163 192.24 174.779 192.24C174.227 192.24 173.755 192.416 173.363 192.768C172.979 193.12 172.759 193.608 172.703 194.232H176.855ZM183.715 192.492C183.907 192.116 184.179 191.824 184.531 191.616C184.891 191.408 185.327 191.304 185.839 191.304V192.432H185.551C184.327 192.432 183.715 193.096 183.715 194.424V198H182.623V191.424H183.715V192.492ZM193.1 194.46C193.1 194.668 193.088 194.888 193.064 195.12H187.808C187.848 195.768 188.068 196.276 188.468 196.644C188.876 197.004 189.368 197.184 189.944 197.184C190.416 197.184 190.808 197.076 191.12 196.86C191.44 196.636 191.664 196.34 191.792 195.972H192.968C192.792 196.604 192.44 197.12 191.912 197.52C191.384 197.912 190.728 198.108 189.944 198.108C189.32 198.108 188.76 197.968 188.264 197.688C187.776 197.408 187.392 197.012 187.112 196.5C186.832 195.98 186.692 195.38 186.692 194.7C186.692 194.02 186.828 193.424 187.1 192.912C187.372 192.4 187.752 192.008 188.24 191.736C188.736 191.456 189.304 191.316 189.944 191.316C190.568 191.316 191.12 191.452 191.6 191.724C192.08 191.996 192.448 192.372 192.704 192.852C192.968 193.324 193.1 193.86 193.1 194.46ZM191.972 194.232C191.972 193.816 191.88 193.46 191.696 193.164C191.512 192.86 191.26 192.632 190.94 192.48C190.628 192.32 190.28 192.24 189.896 192.24C189.344 192.24 188.872 192.416 188.48 192.768C188.096 193.12 187.876 193.608 187.82 194.232H191.972ZM194.133 194.688C194.133 194.016 194.269 193.428 194.541 192.924C194.813 192.412 195.185 192.016 195.657 191.736C196.137 191.456 196.669 191.316 197.253 191.316C197.829 191.316 198.329 191.44 198.753 191.688C199.177 191.936 199.493 192.248 199.701 192.624V191.424H200.805V198H199.701V196.776C199.485 197.16 199.161 197.48 198.729 197.736C198.305 197.984 197.809 198.108 197.241 198.108C196.657 198.108 196.129 197.964 195.657 197.676C195.185 197.388 194.813 196.984 194.541 196.464C194.269 195.944 194.133 195.352 194.133 194.688ZM199.701 194.7C199.701 194.204 199.601 193.772 199.401 193.404C199.201 193.036 198.929 192.756 198.585 192.564C198.249 192.364 197.877 192.264 197.469 192.264C197.061 192.264 196.689 192.36 196.353 192.552C196.017 192.744 195.749 193.024 195.549 193.392C195.349 193.76 195.249 194.192 195.249 194.688C195.249 195.192 195.349 195.632 195.549 196.008C195.749 196.376 196.017 196.66 196.353 196.86C196.689 197.052 197.061 197.148 197.469 197.148C197.877 197.148 198.249 197.052 198.585 196.86C198.929 196.66 199.201 196.376 199.401 196.008C199.601 195.632 199.701 195.196 199.701 194.7ZM202.243 194.688C202.243 194.016 202.379 193.428 202.651 192.924C202.923 192.412 203.295 192.016 203.767 191.736C204.247 191.456 204.783 191.316 205.375 191.316C205.887 191.316 206.363 191.436 206.803 191.676C207.243 191.908 207.579 192.216 207.811 192.6V189.12H208.915V198H207.811V196.764C207.595 197.156 207.275 197.48 206.851 197.736C206.427 197.984 205.931 198.108 205.363 198.108C204.779 198.108 204.247 197.964 203.767 197.676C203.295 197.388 202.923 196.984 202.651 196.464C202.379 195.944 202.243 195.352 202.243 194.688ZM207.811 194.7C207.811 194.204 207.711 193.772 207.511 193.404C207.311 193.036 207.039 192.756 206.695 192.564C206.359 192.364 205.987 192.264 205.579 192.264C205.171 192.264 204.799 192.36 204.463 192.552C204.127 192.744 203.859 193.024 203.659 193.392C203.459 193.76 203.359 194.192 203.359 194.688C203.359 195.192 203.459 195.632 203.659 196.008C203.859 196.376 204.127 196.66 204.463 196.86C204.799 197.052 205.171 197.148 205.579 197.148C205.987 197.148 206.359 197.052 206.695 196.86C207.039 196.66 207.311 196.376 207.511 196.008C207.711 195.632 207.811 195.196 207.811 194.7ZM216.424 191.424L212.464 201.096H211.336L212.632 197.928L209.98 191.424H211.192L213.256 196.752L215.296 191.424H216.424ZM218.65 196.488L217.306 199.716H216.574L217.45 196.488H218.65ZM224.192 192.636C224.408 192.26 224.728 191.948 225.152 191.7C225.584 191.444 226.084 191.316 226.652 191.316C227.236 191.316 227.764 191.456 228.236 191.736C228.716 192.016 229.092 192.412 229.364 192.924C229.636 193.428 229.772 194.016 229.772 194.688C229.772 195.352 229.636 195.944 229.364 196.464C229.092 196.984 228.716 197.388 228.236 197.676C227.764 197.964 227.236 198.108 226.652 198.108C226.092 198.108 225.596 197.984 225.164 197.736C224.74 197.48 224.416 197.164 224.192 196.788V201.12H223.1V191.424H224.192V192.636ZM228.656 194.688C228.656 194.192 228.556 193.76 228.356 193.392C228.156 193.024 227.884 192.744 227.54 192.552C227.204 192.36 226.832 192.264 226.424 192.264C226.024 192.264 225.652 192.364 225.308 192.564C224.972 192.756 224.7 193.04 224.492 193.416C224.292 193.784 224.192 194.212 224.192 194.7C224.192 195.196 224.292 195.632 224.492 196.008C224.7 196.376 224.972 196.66 225.308 196.86C225.652 197.052 226.024 197.148 226.424 197.148C226.832 197.148 227.204 197.052 227.54 196.86C227.884 196.66 228.156 196.376 228.356 196.008C228.556 195.632 228.656 195.192 228.656 194.688ZM232.301 192.492C232.493 192.116 232.765 191.824 233.117 191.616C233.477 191.408 233.913 191.304 234.425 191.304V192.432H234.137C232.913 192.432 232.301 193.096 232.301 194.424V198H231.209V191.424H232.301V192.492ZM241.686 194.46C241.686 194.668 241.674 194.888 241.65 195.12H236.394C236.434 195.768 236.654 196.276 237.054 196.644C237.462 197.004 237.954 197.184 238.53 197.184C239.002 197.184 239.394 197.076 239.706 196.86C240.026 196.636 240.25 196.34 240.378 195.972H241.554C241.378 196.604 241.026 197.12 240.498 197.52C239.97 197.912 239.314 198.108 238.53 198.108C237.906 198.108 237.346 197.968 236.85 197.688C236.362 197.408 235.978 197.012 235.698 196.5C235.418 195.98 235.278 195.38 235.278 194.7C235.278 194.02 235.414 193.424 235.686 192.912C235.958 192.4 236.338 192.008 236.826 191.736C237.322 191.456 237.89 191.316 238.53 191.316C239.154 191.316 239.706 191.452 240.186 191.724C240.666 191.996 241.034 192.372 241.29 192.852C241.554 193.324 241.686 193.86 241.686 194.46ZM240.558 194.232C240.558 193.816 240.466 193.46 240.282 193.164C240.098 192.86 239.846 192.632 239.526 192.48C239.214 192.32 238.866 192.24 238.482 192.24C237.93 192.24 237.458 192.416 237.066 192.768C236.682 193.12 236.462 193.608 236.406 194.232H240.558ZM245.455 198.108C244.951 198.108 244.499 198.024 244.099 197.856C243.699 197.68 243.383 197.44 243.151 197.136C242.919 196.824 242.791 196.468 242.767 196.068H243.895C243.927 196.396 244.079 196.664 244.351 196.872C244.631 197.08 244.995 197.184 245.443 197.184C245.859 197.184 246.187 197.092 246.427 196.908C246.667 196.724 246.787 196.492 246.787 196.212C246.787 195.924 246.659 195.712 246.403 195.576C246.147 195.432 245.751 195.292 245.215 195.156C244.727 195.028 244.327 194.9 244.015 194.772C243.711 194.636 243.447 194.44 243.223 194.184C243.007 193.92 242.899 193.576 242.899 193.152C242.899 192.816 242.999 192.508 243.199 192.228C243.399 191.948 243.683 191.728 244.051 191.568C244.419 191.4 244.839 191.316 245.311 191.316C246.039 191.316 246.627 191.5 247.075 191.868C247.523 192.236 247.763 192.74 247.795 193.38H246.703C246.679 193.036 246.539 192.76 246.283 192.552C246.035 192.344 245.699 192.24 245.275 192.24C244.883 192.24 244.571 192.324 244.339 192.492C244.107 192.66 243.991 192.88 243.991 193.152C243.991 193.368 244.059 193.548 244.195 193.692C244.339 193.828 244.515 193.94 244.723 194.028C244.939 194.108 245.235 194.2 245.611 194.304C246.083 194.432 246.467 194.56 246.763 194.688C247.059 194.808 247.311 194.992 247.519 195.24C247.735 195.488 247.847 195.812 247.855 196.212C247.855 196.572 247.755 196.896 247.555 197.184C247.355 197.472 247.071 197.7 246.703 197.868C246.343 198.028 245.927 198.108 245.455 198.108ZM251.725 198.108C251.221 198.108 250.769 198.024 250.369 197.856C249.969 197.68 249.653 197.44 249.421 197.136C249.189 196.824 249.061 196.468 249.037 196.068H250.165C250.197 196.396 250.349 196.664 250.621 196.872C250.901 197.08 251.265 197.184 251.713 197.184C252.129 197.184 252.457 197.092 252.697 196.908C252.937 196.724 253.057 196.492 253.057 196.212C253.057 195.924 252.929 195.712 252.673 195.576C252.417 195.432 252.021 195.292 251.485 195.156C250.997 195.028 250.597 194.9 250.285 194.772C249.981 194.636 249.717 194.44 249.493 194.184C249.277 193.92 249.169 193.576 249.169 193.152C249.169 192.816 249.269 192.508 249.469 192.228C249.669 191.948 249.953 191.728 250.321 191.568C250.689 191.4 251.109 191.316 251.581 191.316C252.309 191.316 252.897 191.5 253.345 191.868C253.793 192.236 254.033 192.74 254.065 193.38H252.973C252.949 193.036 252.809 192.76 252.553 192.552C252.305 192.344 251.969 192.24 251.545 192.24C251.153 192.24 250.841 192.324 250.609 192.492C250.377 192.66 250.261 192.88 250.261 193.152C250.261 193.368 250.329 193.548 250.465 193.692C250.609 193.828 250.785 193.94 250.993 194.028C251.209 194.108 251.505 194.2 251.881 194.304C252.353 194.432 252.737 194.56 253.033 194.688C253.329 194.808 253.581 194.992 253.789 195.24C254.005 195.488 254.117 195.812 254.125 196.212C254.125 196.572 254.025 196.896 253.825 197.184C253.625 197.472 253.341 197.7 252.973 197.868C252.613 198.028 252.197 198.108 251.725 198.108ZM260.197 192.324V196.2C260.197 196.52 260.265 196.748 260.401 196.884C260.537 197.012 260.773 197.076 261.109 197.076H261.913V198H260.929C260.321 198 259.865 197.86 259.561 197.58C259.257 197.3 259.105 196.84 259.105 196.2V192.324H258.253V191.424H259.105V189.768H260.197V191.424H261.913V192.324H260.197ZM266.501 191.304C266.997 191.304 267.445 191.412 267.845 191.628C268.245 191.836 268.557 192.152 268.781 192.576C269.013 193 269.129 193.516 269.129 194.124V198H268.049V194.28C268.049 193.624 267.885 193.124 267.557 192.78C267.229 192.428 266.781 192.252 266.213 192.252C265.637 192.252 265.177 192.432 264.833 192.792C264.497 193.152 264.329 193.676 264.329 194.364V198H263.237V189.12H264.329V192.36C264.545 192.024 264.841 191.764 265.217 191.58C265.601 191.396 266.029 191.304 266.501 191.304ZM276.912 194.46C276.912 194.668 276.9 194.888 276.876 195.12H271.62C271.66 195.768 271.88 196.276 272.28 196.644C272.688 197.004 273.18 197.184 273.756 197.184C274.228 197.184 274.62 197.076 274.932 196.86C275.252 196.636 275.476 196.34 275.604 195.972H276.78C276.604 196.604 276.252 197.12 275.724 197.52C275.196 197.912 274.54 198.108 273.756 198.108C273.132 198.108 272.572 197.968 272.076 197.688C271.588 197.408 271.204 197.012 270.924 196.5C270.644 195.98 270.504 195.38 270.504 194.7C270.504 194.02 270.64 193.424 270.912 192.912C271.184 192.4 271.564 192.008 272.052 191.736C272.548 191.456 273.116 191.316 273.756 191.316C274.38 191.316 274.932 191.452 275.412 191.724C275.892 191.996 276.26 192.372 276.516 192.852C276.78 193.324 276.912 193.86 276.912 194.46ZM275.784 194.232C275.784 193.816 275.692 193.46 275.508 193.164C275.324 192.86 275.072 192.632 274.752 192.48C274.44 192.32 274.092 192.24 273.708 192.24C273.156 192.24 272.684 192.416 272.292 192.768C271.908 193.12 271.688 193.608 271.632 194.232H275.784ZM282.645 192.492C282.837 192.116 283.109 191.824 283.461 191.616C283.821 191.408 284.257 191.304 284.769 191.304V192.432H284.481C283.257 192.432 282.645 193.096 282.645 194.424V198H281.553V191.424H282.645V192.492ZM292.029 194.46C292.029 194.668 292.017 194.888 291.993 195.12H286.737C286.777 195.768 286.997 196.276 287.397 196.644C287.805 197.004 288.297 197.184 288.873 197.184C289.345 197.184 289.737 197.076 290.049 196.86C290.369 196.636 290.593 196.34 290.721 195.972H291.897C291.721 196.604 291.369 197.12 290.841 197.52C290.313 197.912 289.657 198.108 288.873 198.108C288.249 198.108 287.689 197.968 287.193 197.688C286.705 197.408 286.321 197.012 286.041 196.5C285.761 195.98 285.621 195.38 285.621 194.7C285.621 194.02 285.757 193.424 286.029 192.912C286.301 192.4 286.681 192.008 287.169 191.736C287.665 191.456 288.233 191.316 288.873 191.316C289.497 191.316 290.049 191.452 290.529 191.724C291.009 191.996 291.377 192.372 291.633 192.852C291.897 193.324 292.029 193.86 292.029 194.46ZM290.901 194.232C290.901 193.816 290.809 193.46 290.625 193.164C290.441 192.86 290.189 192.632 289.869 192.48C289.557 192.32 289.209 192.24 288.825 192.24C288.273 192.24 287.801 192.416 287.409 192.768C287.025 193.12 286.805 193.608 286.749 194.232H290.901ZM293.063 194.7C293.063 194.02 293.199 193.428 293.471 192.924C293.743 192.412 294.119 192.016 294.599 191.736C295.087 191.456 295.643 191.316 296.267 191.316C297.075 191.316 297.739 191.512 298.259 191.904C298.787 192.296 299.135 192.84 299.303 193.536H298.127C298.015 193.136 297.795 192.82 297.467 192.588C297.147 192.356 296.747 192.24 296.267 192.24C295.643 192.24 295.139 192.456 294.755 192.888C294.371 193.312 294.179 193.916 294.179 194.7C294.179 195.492 294.371 196.104 294.755 196.536C295.139 196.968 295.643 197.184 296.267 197.184C296.747 197.184 297.147 197.072 297.467 196.848C297.787 196.624 298.007 196.304 298.127 195.888H299.303C299.127 196.56 298.775 197.1 298.247 197.508C297.719 197.908 297.059 198.108 296.267 198.108C295.643 198.108 295.087 197.968 294.599 197.688C294.119 197.408 293.743 197.012 293.471 196.5C293.199 195.988 293.063 195.388 293.063 194.7ZM303.628 198.108C303.012 198.108 302.452 197.968 301.948 197.688C301.452 197.408 301.06 197.012 300.772 196.5C300.492 195.98 300.352 195.38 300.352 194.7C300.352 194.028 300.496 193.436 300.784 192.924C301.08 192.404 301.48 192.008 301.984 191.736C302.488 191.456 303.052 191.316 303.676 191.316C304.3 191.316 304.864 191.456 305.368 191.736C305.872 192.008 306.268 192.4 306.556 192.912C306.852 193.424 307 194.02 307 194.7C307 195.38 306.848 195.98 306.544 196.5C306.248 197.012 305.844 197.408 305.332 197.688C304.82 197.968 304.252 198.108 303.628 198.108ZM303.628 197.148C304.02 197.148 304.388 197.056 304.732 196.872C305.076 196.688 305.352 196.412 305.56 196.044C305.776 195.676 305.884 195.228 305.884 194.7C305.884 194.172 305.78 193.724 305.572 193.356C305.364 192.988 305.092 192.716 304.756 192.54C304.42 192.356 304.056 192.264 303.664 192.264C303.264 192.264 302.896 192.356 302.56 192.54C302.232 192.716 301.968 192.988 301.768 193.356C301.568 193.724 301.468 194.172 301.468 194.7C301.468 195.236 301.564 195.688 301.756 196.056C301.956 196.424 302.22 196.7 302.548 196.884C302.876 197.06 303.236 197.148 303.628 197.148ZM309.528 192.492C309.72 192.116 309.992 191.824 310.344 191.616C310.704 191.408 311.14 191.304 311.652 191.304V192.432H311.364C310.14 192.432 309.528 193.096 309.528 194.424V198H308.436V191.424H309.528V192.492ZM312.504 194.688C312.504 194.016 312.64 193.428 312.912 192.924C313.184 192.412 313.556 192.016 314.028 191.736C314.508 191.456 315.044 191.316 315.636 191.316C316.148 191.316 316.624 191.436 317.064 191.676C317.504 191.908 317.84 192.216 318.072 192.6V189.12H319.176V198H318.072V196.764C317.856 197.156 317.536 197.48 317.112 197.736C316.688 197.984 316.192 198.108 315.624 198.108C315.04 198.108 314.508 197.964 314.028 197.676C313.556 197.388 313.184 196.984 312.912 196.464C312.64 195.944 312.504 195.352 312.504 194.688ZM318.072 194.7C318.072 194.204 317.972 193.772 317.772 193.404C317.572 193.036 317.3 192.756 316.956 192.564C316.62 192.364 316.248 192.264 315.84 192.264C315.432 192.264 315.06 192.36 314.724 192.552C314.388 192.744 314.12 193.024 313.92 193.392C313.72 193.76 313.62 194.192 313.62 194.688C313.62 195.192 313.72 195.632 313.92 196.008C314.12 196.376 314.388 196.66 314.724 196.86C315.06 197.052 315.432 197.148 315.84 197.148C316.248 197.148 316.62 197.052 316.956 196.86C317.3 196.66 317.572 196.376 317.772 196.008C317.972 195.632 318.072 195.196 318.072 194.7ZM325.313 192.648C325.537 192.256 325.865 191.936 326.297 191.688C326.729 191.44 327.221 191.316 327.773 191.316C328.365 191.316 328.897 191.456 329.369 191.736C329.841 192.016 330.213 192.412 330.485 192.924C330.757 193.428 330.893 194.016 330.893 194.688C330.893 195.352 330.757 195.944 330.485 196.464C330.213 196.984 329.837 197.388 329.357 197.676C328.885 197.964 328.357 198.108 327.773 198.108C327.205 198.108 326.705 197.984 326.273 197.736C325.849 197.488 325.529 197.172 325.313 196.788V198H324.221V189.12H325.313V192.648ZM329.777 194.688C329.777 194.192 329.677 193.76 329.477 193.392C329.277 193.024 329.005 192.744 328.661 192.552C328.325 192.36 327.953 192.264 327.545 192.264C327.145 192.264 326.773 192.364 326.429 192.564C326.093 192.756 325.821 193.04 325.613 193.416C325.413 193.784 325.313 194.212 325.313 194.7C325.313 195.196 325.413 195.632 325.613 196.008C325.821 196.376 326.093 196.66 326.429 196.86C326.773 197.052 327.145 197.148 327.545 197.148C327.953 197.148 328.325 197.052 328.661 196.86C329.005 196.66 329.277 196.376 329.477 196.008C329.677 195.632 329.777 195.192 329.777 194.688ZM338.162 191.424V198H337.07V197.028C336.862 197.364 336.57 197.628 336.194 197.82C335.826 198.004 335.418 198.096 334.97 198.096C334.458 198.096 333.998 197.992 333.59 197.784C333.182 197.568 332.858 197.248 332.618 196.824C332.386 196.4 332.27 195.884 332.27 195.276V191.424H333.35V195.132C333.35 195.78 333.514 196.28 333.842 196.632C334.17 196.976 334.618 197.148 335.186 197.148C335.77 197.148 336.23 196.968 336.566 196.608C336.902 196.248 337.07 195.724 337.07 195.036V191.424H338.162ZM341.338 192.324V196.2C341.338 196.52 341.406 196.748 341.542 196.884C341.678 197.012 341.914 197.076 342.25 197.076H343.054V198H342.07C341.462 198 341.006 197.86 340.702 197.58C340.398 197.3 340.246 196.84 340.246 196.2V192.324H339.394V191.424H340.246V189.768H341.338V191.424H343.054V192.324H341.338ZM345.709 192.324V196.2C345.709 196.52 345.777 196.748 345.913 196.884C346.049 197.012 346.285 197.076 346.621 197.076H347.425V198H346.441C345.833 198 345.377 197.86 345.073 197.58C344.769 197.3 344.617 196.84 344.617 196.2V192.324H343.765V191.424H344.617V189.768H345.709V191.424H347.425V192.324H345.709ZM351.616 198.108C351 198.108 350.44 197.968 349.936 197.688C349.44 197.408 349.048 197.012 348.76 196.5C348.48 195.98 348.34 195.38 348.34 194.7C348.34 194.028 348.484 193.436 348.772 192.924C349.068 192.404 349.468 192.008 349.972 191.736C350.476 191.456 351.04 191.316 351.664 191.316C352.288 191.316 352.852 191.456 353.356 191.736C353.86 192.008 354.256 192.4 354.544 192.912C354.84 193.424 354.988 194.02 354.988 194.7C354.988 195.38 354.836 195.98 354.532 196.5C354.236 197.012 353.832 197.408 353.32 197.688C352.808 197.968 352.24 198.108 351.616 198.108ZM351.616 197.148C352.008 197.148 352.376 197.056 352.72 196.872C353.064 196.688 353.34 196.412 353.548 196.044C353.764 195.676 353.872 195.228 353.872 194.7C353.872 194.172 353.768 193.724 353.56 193.356C353.352 192.988 353.08 192.716 352.744 192.54C352.408 192.356 352.044 192.264 351.652 192.264C351.252 192.264 350.884 192.356 350.548 192.54C350.22 192.716 349.956 192.988 349.756 193.356C349.556 193.724 349.456 194.172 349.456 194.7C349.456 195.236 349.552 195.688 349.744 196.056C349.944 196.424 350.208 196.7 350.536 196.884C350.864 197.06 351.224 197.148 351.616 197.148ZM359.628 191.304C360.428 191.304 361.076 191.548 361.572 192.036C362.068 192.516 362.316 193.212 362.316 194.124V198H361.236V194.28C361.236 193.624 361.072 193.124 360.744 192.78C360.416 192.428 359.968 192.252 359.4 192.252C358.824 192.252 358.364 192.432 358.02 192.792C357.684 193.152 357.516 193.676 357.516 194.364V198H356.424V191.424H357.516V192.36C357.732 192.024 358.024 191.764 358.392 191.58C358.768 191.396 359.18 191.304 359.628 191.304ZM366.891 194.688C366.891 194.016 367.027 193.428 367.299 192.924C367.571 192.412 367.943 192.016 368.415 191.736C368.895 191.456 369.427 191.316 370.011 191.316C370.587 191.316 371.087 191.44 371.511 191.688C371.935 191.936 372.251 192.248 372.459 192.624V191.424H373.563V198H372.459V196.776C372.243 197.16 371.919 197.48 371.487 197.736C371.063 197.984 370.567 198.108 369.999 198.108C369.415 198.108 368.887 197.964 368.415 197.676C367.943 197.388 367.571 196.984 367.299 196.464C367.027 195.944 366.891 195.352 366.891 194.688ZM372.459 194.7C372.459 194.204 372.359 193.772 372.159 193.404C371.959 193.036 371.687 192.756 371.343 192.564C371.007 192.364 370.635 192.264 370.227 192.264C369.819 192.264 369.447 192.36 369.111 192.552C368.775 192.744 368.507 193.024 368.307 193.392C368.107 193.76 368.007 194.192 368.007 194.688C368.007 195.192 368.107 195.632 368.307 196.008C368.507 196.376 368.775 196.66 369.111 196.86C369.447 197.052 369.819 197.148 370.227 197.148C370.635 197.148 371.007 197.052 371.343 196.86C371.687 196.66 371.959 196.376 372.159 196.008C372.359 195.632 372.459 195.196 372.459 194.7ZM378.612 191.304C379.412 191.304 380.06 191.548 380.556 192.036C381.052 192.516 381.3 193.212 381.3 194.124V198H380.22V194.28C380.22 193.624 380.056 193.124 379.728 192.78C379.4 192.428 378.952 192.252 378.384 192.252C377.808 192.252 377.348 192.432 377.004 192.792C376.668 193.152 376.5 193.676 376.5 194.364V198H375.408V191.424H376.5V192.36C376.716 192.024 377.008 191.764 377.376 191.58C377.752 191.396 378.164 191.304 378.612 191.304ZM382.676 194.688C382.676 194.016 382.812 193.428 383.084 192.924C383.356 192.412 383.728 192.016 384.2 191.736C384.68 191.456 385.216 191.316 385.808 191.316C386.32 191.316 386.796 191.436 387.236 191.676C387.676 191.908 388.012 192.216 388.244 192.6V189.12H389.348V198H388.244V196.764C388.028 197.156 387.708 197.48 387.284 197.736C386.86 197.984 386.364 198.108 385.796 198.108C385.212 198.108 384.68 197.964 384.2 197.676C383.728 197.388 383.356 196.984 383.084 196.464C382.812 195.944 382.676 195.352 382.676 194.688ZM388.244 194.7C388.244 194.204 388.144 193.772 387.944 193.404C387.744 193.036 387.472 192.756 387.128 192.564C386.792 192.364 386.42 192.264 386.012 192.264C385.604 192.264 385.232 192.36 384.896 192.552C384.56 192.744 384.292 193.024 384.092 193.392C383.892 193.76 383.792 194.192 383.792 194.688C383.792 195.192 383.892 195.632 384.092 196.008C384.292 196.376 384.56 196.66 384.896 196.86C385.232 197.052 385.604 197.148 386.012 197.148C386.42 197.148 386.792 197.052 387.128 196.86C387.472 196.66 387.744 196.376 387.944 196.008C388.144 195.632 388.244 195.196 388.244 194.7ZM396.721 198.108C396.217 198.108 395.765 198.024 395.365 197.856C394.965 197.68 394.649 197.44 394.417 197.136C394.185 196.824 394.057 196.468 394.033 196.068H395.161C395.193 196.396 395.345 196.664 395.617 196.872C395.897 197.08 396.261 197.184 396.709 197.184C397.125 197.184 397.453 197.092 397.693 196.908C397.933 196.724 398.053 196.492 398.053 196.212C398.053 195.924 397.925 195.712 397.669 195.576C397.413 195.432 397.017 195.292 396.481 195.156C395.993 195.028 395.593 194.9 395.281 194.772C394.977 194.636 394.713 194.44 394.489 194.184C394.273 193.92 394.165 193.576 394.165 193.152C394.165 192.816 394.265 192.508 394.465 192.228C394.665 191.948 394.949 191.728 395.317 191.568C395.685 191.4 396.105 191.316 396.577 191.316C397.305 191.316 397.893 191.5 398.341 191.868C398.789 192.236 399.029 192.74 399.061 193.38H397.969C397.945 193.036 397.805 192.76 397.549 192.552C397.301 192.344 396.965 192.24 396.541 192.24C396.149 192.24 395.837 192.324 395.605 192.492C395.373 192.66 395.257 192.88 395.257 193.152C395.257 193.368 395.325 193.548 395.461 193.692C395.605 193.828 395.781 193.94 395.989 194.028C396.205 194.108 396.501 194.2 396.877 194.304C397.349 194.432 397.733 194.56 398.029 194.688C398.325 194.808 398.577 194.992 398.785 195.24C399.001 195.488 399.113 195.812 399.121 196.212C399.121 196.572 399.021 196.896 398.821 197.184C398.621 197.472 398.337 197.7 397.969 197.868C397.609 198.028 397.193 198.108 396.721 198.108ZM401.994 192.324V196.2C401.994 196.52 402.062 196.748 402.198 196.884C402.334 197.012 402.57 197.076 402.906 197.076H403.71V198H402.726C402.118 198 401.662 197.86 401.358 197.58C401.054 197.3 400.902 196.84 400.902 196.2V192.324H400.05V191.424H400.902V189.768H401.994V191.424H403.71V192.324H401.994ZM404.625 194.688C404.625 194.016 404.761 193.428 405.033 192.924C405.305 192.412 405.677 192.016 406.149 191.736C406.629 191.456 407.161 191.316 407.745 191.316C408.321 191.316 408.821 191.44 409.245 191.688C409.669 191.936 409.985 192.248 410.193 192.624V191.424H411.297V198H410.193V196.776C409.977 197.16 409.653 197.48 409.221 197.736C408.797 197.984 408.301 198.108 407.733 198.108C407.149 198.108 406.621 197.964 406.149 197.676C405.677 197.388 405.305 196.984 405.033 196.464C404.761 195.944 404.625 195.352 404.625 194.688ZM410.193 194.7C410.193 194.204 410.093 193.772 409.893 193.404C409.693 193.036 409.421 192.756 409.077 192.564C408.741 192.364 408.369 192.264 407.961 192.264C407.553 192.264 407.181 192.36 406.845 192.552C406.509 192.744 406.241 193.024 406.041 193.392C405.841 193.76 405.741 194.192 405.741 194.688C405.741 195.192 405.841 195.632 406.041 196.008C406.241 196.376 406.509 196.66 406.845 196.86C407.181 197.052 407.553 197.148 407.961 197.148C408.369 197.148 408.741 197.052 409.077 196.86C409.421 196.66 409.693 196.376 409.893 196.008C410.093 195.632 410.193 195.196 410.193 194.7ZM414.235 192.492C414.427 192.116 414.699 191.824 415.051 191.616C415.411 191.408 415.847 191.304 416.359 191.304V192.432H416.071C414.847 192.432 414.235 193.096 414.235 194.424V198H413.143V191.424H414.235V192.492ZM418.951 192.324V196.2C418.951 196.52 419.019 196.748 419.155 196.884C419.291 197.012 419.527 197.076 419.863 197.076H420.667V198H419.683C419.075 198 418.619 197.86 418.315 197.58C418.011 197.3 417.859 196.84 417.859 196.2V192.324H417.007V191.424H417.859V189.768H418.951V191.424H420.667V192.324H418.951ZM426.522 192.324V196.2C426.522 196.52 426.59 196.748 426.726 196.884C426.862 197.012 427.098 197.076 427.434 197.076H428.238V198H427.254C426.646 198 426.19 197.86 425.886 197.58C425.582 197.3 425.43 196.84 425.43 196.2V192.324H424.578V191.424H425.43V189.768H426.522V191.424H428.238V192.324H426.522ZM429.153 194.688C429.153 194.016 429.289 193.428 429.561 192.924C429.833 192.412 430.205 192.016 430.677 191.736C431.157 191.456 431.689 191.316 432.273 191.316C432.849 191.316 433.349 191.44 433.773 191.688C434.197 191.936 434.513 192.248 434.721 192.624V191.424H435.825V198H434.721V196.776C434.505 197.16 434.181 197.48 433.749 197.736C433.325 197.984 432.829 198.108 432.261 198.108C431.677 198.108 431.149 197.964 430.677 197.676C430.205 197.388 429.833 196.984 429.561 196.464C429.289 195.944 429.153 195.352 429.153 194.688ZM434.721 194.7C434.721 194.204 434.621 193.772 434.421 193.404C434.221 193.036 433.949 192.756 433.605 192.564C433.269 192.364 432.897 192.264 432.489 192.264C432.081 192.264 431.709 192.36 431.373 192.552C431.037 192.744 430.769 193.024 430.569 193.392C430.369 193.76 430.269 194.192 430.269 194.688C430.269 195.192 430.369 195.632 430.569 196.008C430.769 196.376 431.037 196.66 431.373 196.86C431.709 197.052 432.081 197.148 432.489 197.148C432.897 197.148 433.269 197.052 433.605 196.86C433.949 196.66 434.221 196.376 434.421 196.008C434.621 195.632 434.721 195.196 434.721 194.7ZM438.762 189.12V198H437.67V189.12H438.762ZM444.295 198L441.715 195.096V198H440.623V189.12H441.715V194.34L444.247 191.424H445.771L442.675 194.7L445.783 198H444.295ZM447.363 190.356C447.155 190.356 446.979 190.284 446.835 190.14C446.691 189.996 446.619 189.82 446.619 189.612C446.619 189.404 446.691 189.228 446.835 189.084C446.979 188.94 447.155 188.868 447.363 188.868C447.563 188.868 447.731 188.94 447.867 189.084C448.011 189.228 448.083 189.404 448.083 189.612C448.083 189.82 448.011 189.996 447.867 190.14C447.731 190.284 447.563 190.356 447.363 190.356ZM447.891 191.424V198H446.799V191.424H447.891ZM452.956 191.304C453.756 191.304 454.404 191.548 454.9 192.036C455.396 192.516 455.644 193.212 455.644 194.124V198H454.564V194.28C454.564 193.624 454.4 193.124 454.072 192.78C453.744 192.428 453.296 192.252 452.728 192.252C452.152 192.252 451.692 192.432 451.348 192.792C451.012 193.152 450.844 193.676 450.844 194.364V198H449.752V191.424H450.844V192.36C451.06 192.024 451.352 191.764 451.72 191.58C452.096 191.396 452.508 191.304 452.956 191.304ZM460.14 191.316C460.708 191.316 461.204 191.44 461.628 191.688C462.06 191.936 462.38 192.248 462.588 192.624V191.424H463.692V198.144C463.692 198.744 463.564 199.276 463.308 199.74C463.052 200.212 462.684 200.58 462.204 200.844C461.732 201.108 461.18 201.24 460.548 201.24C459.684 201.24 458.964 201.036 458.388 200.628C457.812 200.22 457.472 199.664 457.368 198.96H458.448C458.568 199.36 458.816 199.68 459.192 199.92C459.568 200.168 460.02 200.292 460.548 200.292C461.148 200.292 461.636 200.104 462.012 199.728C462.396 199.352 462.588 198.824 462.588 198.144V196.764C462.372 197.148 462.052 197.468 461.628 197.724C461.204 197.98 460.708 198.108 460.14 198.108C459.556 198.108 459.024 197.964 458.544 197.676C458.072 197.388 457.7 196.984 457.428 196.464C457.156 195.944 457.02 195.352 457.02 194.688C457.02 194.016 457.156 193.428 457.428 192.924C457.7 192.412 458.072 192.016 458.544 191.736C459.024 191.456 459.556 191.316 460.14 191.316ZM462.588 194.7C462.588 194.204 462.488 193.772 462.288 193.404C462.088 193.036 461.816 192.756 461.472 192.564C461.136 192.364 460.764 192.264 460.356 192.264C459.948 192.264 459.576 192.36 459.24 192.552C458.904 192.744 458.636 193.024 458.436 193.392C458.236 193.76 458.136 194.192 458.136 194.688C458.136 195.192 458.236 195.632 458.436 196.008C458.636 196.376 458.904 196.66 459.24 196.86C459.576 197.052 459.948 197.148 460.356 197.148C460.764 197.148 461.136 197.052 461.472 196.86C461.816 196.66 462.088 196.376 462.288 196.008C462.488 195.632 462.588 195.196 462.588 194.7ZM477.497 191.424L475.445 198H474.317L472.733 192.78L471.149 198H470.021L467.957 191.424H469.073L470.585 196.944L472.217 191.424H473.333L474.929 196.956L476.417 191.424H477.497ZM479.144 190.356C478.936 190.356 478.76 190.284 478.616 190.14C478.472 189.996 478.4 189.82 478.4 189.612C478.4 189.404 478.472 189.228 478.616 189.084C478.76 188.94 478.936 188.868 479.144 188.868C479.344 188.868 479.512 188.94 479.648 189.084C479.792 189.228 479.864 189.404 479.864 189.612C479.864 189.82 479.792 189.996 479.648 190.14C479.512 190.284 479.344 190.356 479.144 190.356ZM479.672 191.424V198H478.58V191.424H479.672ZM482.865 192.324V196.2C482.865 196.52 482.933 196.748 483.069 196.884C483.205 197.012 483.441 197.076 483.777 197.076H484.581V198H483.597C482.989 198 482.533 197.86 482.229 197.58C481.925 197.3 481.773 196.84 481.773 196.2V192.324H480.921V191.424H481.773V189.768H482.865V191.424H484.581V192.324H482.865ZM489.168 191.304C489.664 191.304 490.112 191.412 490.512 191.628C490.912 191.836 491.224 192.152 491.448 192.576C491.68 193 491.796 193.516 491.796 194.124V198H490.716V194.28C490.716 193.624 490.552 193.124 490.224 192.78C489.896 192.428 489.448 192.252 488.88 192.252C488.304 192.252 487.844 192.432 487.5 192.792C487.164 193.152 486.996 193.676 486.996 194.364V198H485.904V189.12H486.996V192.36C487.212 192.024 487.508 191.764 487.884 191.58C488.268 191.396 488.696 191.304 489.168 191.304ZM132.131 212.424L128.171 222.096H127.043L128.339 218.928L125.687 212.424H126.899L128.963 217.752L131.003 212.424H132.131ZM136.097 219.108C135.481 219.108 134.921 218.968 134.417 218.688C133.921 218.408 133.529 218.012 133.241 217.5C132.961 216.98 132.821 216.38 132.821 215.7C132.821 215.028 132.965 214.436 133.253 213.924C133.549 213.404 133.949 213.008 134.453 212.736C134.957 212.456 135.521 212.316 136.145 212.316C136.769 212.316 137.333 212.456 137.837 212.736C138.341 213.008 138.737 213.4 139.025 213.912C139.321 214.424 139.469 215.02 139.469 215.7C139.469 216.38 139.317 216.98 139.013 217.5C138.717 218.012 138.313 218.408 137.801 218.688C137.289 218.968 136.721 219.108 136.097 219.108ZM136.097 218.148C136.489 218.148 136.857 218.056 137.201 217.872C137.545 217.688 137.821 217.412 138.029 217.044C138.245 216.676 138.353 216.228 138.353 215.7C138.353 215.172 138.249 214.724 138.041 214.356C137.833 213.988 137.561 213.716 137.225 213.54C136.889 213.356 136.525 213.264 136.133 213.264C135.733 213.264 135.365 213.356 135.029 213.54C134.701 213.716 134.437 213.988 134.237 214.356C134.037 214.724 133.937 215.172 133.937 215.7C133.937 216.236 134.033 216.688 134.225 217.056C134.425 217.424 134.689 217.7 135.017 217.884C135.345 218.06 135.705 218.148 136.097 218.148ZM146.736 212.424V219H145.644V218.028C145.436 218.364 145.144 218.628 144.768 218.82C144.4 219.004 143.992 219.096 143.544 219.096C143.032 219.096 142.572 218.992 142.164 218.784C141.756 218.568 141.432 218.248 141.192 217.824C140.96 217.4 140.844 216.884 140.844 216.276V212.424H141.924V216.132C141.924 216.78 142.088 217.28 142.416 217.632C142.744 217.976 143.192 218.148 143.76 218.148C144.344 218.148 144.804 217.968 145.14 217.608C145.476 217.248 145.644 216.724 145.644 216.036V212.424H146.736ZM149.672 213.492C149.864 213.116 150.136 212.824 150.488 212.616C150.848 212.408 151.284 212.304 151.796 212.304V213.432H151.508C150.284 213.432 149.672 214.096 149.672 215.424V219H148.58V212.424H149.672V213.492ZM157.348 213.648C157.572 213.256 157.9 212.936 158.332 212.688C158.764 212.44 159.256 212.316 159.808 212.316C160.4 212.316 160.932 212.456 161.404 212.736C161.876 213.016 162.248 213.412 162.52 213.924C162.792 214.428 162.928 215.016 162.928 215.688C162.928 216.352 162.792 216.944 162.52 217.464C162.248 217.984 161.872 218.388 161.392 218.676C160.92 218.964 160.392 219.108 159.808 219.108C159.24 219.108 158.74 218.984 158.308 218.736C157.884 218.488 157.564 218.172 157.348 217.788V219H156.256V210.12H157.348V213.648ZM161.812 215.688C161.812 215.192 161.712 214.76 161.512 214.392C161.312 214.024 161.04 213.744 160.696 213.552C160.36 213.36 159.988 213.264 159.58 213.264C159.18 213.264 158.808 213.364 158.464 213.564C158.128 213.756 157.856 214.04 157.648 214.416C157.448 214.784 157.348 215.212 157.348 215.7C157.348 216.196 157.448 216.632 157.648 217.008C157.856 217.376 158.128 217.66 158.464 217.86C158.808 218.052 159.18 218.148 159.58 218.148C159.988 218.148 160.36 218.052 160.696 217.86C161.04 217.66 161.312 217.376 161.512 217.008C161.712 216.632 161.812 216.192 161.812 215.688ZM167.233 219.108C166.617 219.108 166.057 218.968 165.553 218.688C165.057 218.408 164.665 218.012 164.377 217.5C164.097 216.98 163.957 216.38 163.957 215.7C163.957 215.028 164.101 214.436 164.389 213.924C164.685 213.404 165.085 213.008 165.589 212.736C166.093 212.456 166.657 212.316 167.281 212.316C167.905 212.316 168.469 212.456 168.973 212.736C169.477 213.008 169.873 213.4 170.161 213.912C170.457 214.424 170.605 215.02 170.605 215.7C170.605 216.38 170.453 216.98 170.149 217.5C169.853 218.012 169.449 218.408 168.937 218.688C168.425 218.968 167.857 219.108 167.233 219.108ZM167.233 218.148C167.625 218.148 167.993 218.056 168.337 217.872C168.681 217.688 168.957 217.412 169.165 217.044C169.381 216.676 169.489 216.228 169.489 215.7C169.489 215.172 169.385 214.724 169.177 214.356C168.969 213.988 168.697 213.716 168.361 213.54C168.025 213.356 167.661 213.264 167.269 213.264C166.869 213.264 166.501 213.356 166.165 213.54C165.837 213.716 165.573 213.988 165.373 214.356C165.173 214.724 165.073 215.172 165.073 215.7C165.073 216.236 165.169 216.688 165.361 217.056C165.561 217.424 165.825 217.7 166.153 217.884C166.481 218.06 166.841 218.148 167.233 218.148ZM173.373 213.324V217.2C173.373 217.52 173.441 217.748 173.577 217.884C173.713 218.012 173.949 218.076 174.285 218.076H175.089V219H174.105C173.497 219 173.041 218.86 172.737 218.58C172.433 218.3 172.281 217.84 172.281 217.2V213.324H171.429V212.424H172.281V210.768H173.373V212.424H175.089V213.324H173.373ZM177.828 210.636L177.696 216.636H176.784L176.652 210.636H177.828ZM177.288 219.072C177.08 219.072 176.904 219 176.76 218.856C176.616 218.712 176.544 218.536 176.544 218.328C176.544 218.12 176.616 217.944 176.76 217.8C176.904 217.656 177.08 217.584 177.288 217.584C177.488 217.584 177.656 217.656 177.792 217.8C177.936 217.944 178.008 218.12 178.008 218.328C178.008 218.536 177.936 218.712 177.792 218.856C177.656 219 177.488 219.072 177.288 219.072ZM184.278 210.636V219H183.186V210.636H184.278ZM186.307 210.636H187.519L186.367 213.36H185.599L186.307 210.636ZM189.856 210.12V219H188.764V210.12H189.856ZM192.809 210.12V219H191.717V210.12H192.809ZM197.461 215.7C197.461 215.02 197.597 214.428 197.869 213.924C198.141 213.412 198.517 213.016 198.997 212.736C199.485 212.456 200.041 212.316 200.665 212.316C201.473 212.316 202.137 212.512 202.657 212.904C203.185 213.296 203.533 213.84 203.701 214.536H202.525C202.413 214.136 202.193 213.82 201.865 213.588C201.545 213.356 201.145 213.24 200.665 213.24C200.041 213.24 199.537 213.456 199.153 213.888C198.769 214.312 198.577 214.916 198.577 215.7C198.577 216.492 198.769 217.104 199.153 217.536C199.537 217.968 200.041 218.184 200.665 218.184C201.145 218.184 201.545 218.072 201.865 217.848C202.185 217.624 202.405 217.304 202.525 216.888H203.701C203.525 217.56 203.173 218.1 202.645 218.508C202.117 218.908 201.457 219.108 200.665 219.108C200.041 219.108 199.485 218.968 198.997 218.688C198.517 218.408 198.141 218.012 197.869 217.5C197.597 216.988 197.461 216.388 197.461 215.7ZM204.75 215.688C204.75 215.016 204.886 214.428 205.158 213.924C205.43 213.412 205.802 213.016 206.274 212.736C206.754 212.456 207.286 212.316 207.87 212.316C208.446 212.316 208.946 212.44 209.37 212.688C209.794 212.936 210.11 213.248 210.318 213.624V212.424H211.422V219H210.318V217.776C210.102 218.16 209.778 218.48 209.346 218.736C208.922 218.984 208.426 219.108 207.858 219.108C207.274 219.108 206.746 218.964 206.274 218.676C205.802 218.388 205.43 217.984 205.158 217.464C204.886 216.944 204.75 216.352 204.75 215.688ZM210.318 215.7C210.318 215.204 210.218 214.772 210.018 214.404C209.818 214.036 209.546 213.756 209.202 213.564C208.866 213.364 208.494 213.264 208.086 213.264C207.678 213.264 207.306 213.36 206.97 213.552C206.634 213.744 206.366 214.024 206.166 214.392C205.966 214.76 205.866 215.192 205.866 215.688C205.866 216.192 205.966 216.632 206.166 217.008C206.366 217.376 206.634 217.66 206.97 217.86C207.306 218.052 207.678 218.148 208.086 218.148C208.494 218.148 208.866 218.052 209.202 217.86C209.546 217.66 209.818 217.376 210.018 217.008C210.218 216.632 210.318 216.196 210.318 215.7ZM214.36 213.636C214.576 213.26 214.896 212.948 215.32 212.7C215.752 212.444 216.252 212.316 216.82 212.316C217.404 212.316 217.932 212.456 218.404 212.736C218.884 213.016 219.26 213.412 219.532 213.924C219.804 214.428 219.94 215.016 219.94 215.688C219.94 216.352 219.804 216.944 219.532 217.464C219.26 217.984 218.884 218.388 218.404 218.676C217.932 218.964 217.404 219.108 216.82 219.108C216.26 219.108 215.764 218.984 215.332 218.736C214.908 218.48 214.584 218.164 214.36 217.788V222.12H213.268V212.424H214.36V213.636ZM218.824 215.688C218.824 215.192 218.724 214.76 218.524 214.392C218.324 214.024 218.052 213.744 217.708 213.552C217.372 213.36 217 213.264 216.592 213.264C216.192 213.264 215.82 213.364 215.476 213.564C215.14 213.756 214.868 214.04 214.66 214.416C214.46 214.784 214.36 215.212 214.36 215.7C214.36 216.196 214.46 216.632 214.66 217.008C214.868 217.376 215.14 217.66 215.476 217.86C215.82 218.052 216.192 218.148 216.592 218.148C217 218.148 217.372 218.052 217.708 217.86C218.052 217.66 218.324 217.376 218.524 217.008C218.724 216.632 218.824 216.192 218.824 215.688ZM222.709 213.324V217.2C222.709 217.52 222.777 217.748 222.913 217.884C223.049 218.012 223.285 218.076 223.621 218.076H224.425V219H223.441C222.833 219 222.377 218.86 222.073 218.58C221.769 218.3 221.617 217.84 221.617 217.2V213.324H220.765V212.424H221.617V210.768H222.709V212.424H224.425V213.324H222.709ZM231.58 212.424V219H230.488V218.028C230.28 218.364 229.988 218.628 229.612 218.82C229.244 219.004 228.836 219.096 228.388 219.096C227.876 219.096 227.416 218.992 227.008 218.784C226.6 218.568 226.276 218.248 226.036 217.824C225.804 217.4 225.688 216.884 225.688 216.276V212.424H226.768V216.132C226.768 216.78 226.932 217.28 227.26 217.632C227.588 217.976 228.036 218.148 228.604 218.148C229.188 218.148 229.648 217.968 229.984 217.608C230.32 217.248 230.488 216.724 230.488 216.036V212.424H231.58ZM234.516 213.492C234.708 213.116 234.98 212.824 235.332 212.616C235.692 212.408 236.128 212.304 236.64 212.304V213.432H236.352C235.128 213.432 234.516 214.096 234.516 215.424V219H233.424V212.424H234.516V213.492ZM243.901 215.46C243.901 215.668 243.889 215.888 243.865 216.12H238.609C238.649 216.768 238.869 217.276 239.269 217.644C239.677 218.004 240.169 218.184 240.745 218.184C241.217 218.184 241.609 218.076 241.921 217.86C242.241 217.636 242.465 217.34 242.593 216.972H243.769C243.593 217.604 243.241 218.12 242.713 218.52C242.185 218.912 241.529 219.108 240.745 219.108C240.121 219.108 239.561 218.968 239.065 218.688C238.577 218.408 238.193 218.012 237.913 217.5C237.633 216.98 237.493 216.38 237.493 215.7C237.493 215.02 237.629 214.424 237.901 213.912C238.173 213.4 238.553 213.008 239.041 212.736C239.537 212.456 240.105 212.316 240.745 212.316C241.369 212.316 241.921 212.452 242.401 212.724C242.881 212.996 243.249 213.372 243.505 213.852C243.769 214.324 243.901 214.86 243.901 215.46ZM242.773 215.232C242.773 214.816 242.681 214.46 242.497 214.164C242.313 213.86 242.061 213.632 241.741 213.48C241.429 213.32 241.081 213.24 240.697 213.24C240.145 213.24 239.673 213.416 239.281 213.768C238.897 214.12 238.677 214.608 238.621 215.232H242.773ZM249.873 213.324V217.2C249.873 217.52 249.941 217.748 250.077 217.884C250.213 218.012 250.449 218.076 250.785 218.076H251.589V219H250.605C249.997 219 249.541 218.86 249.237 218.58C248.933 218.3 248.781 217.84 248.781 217.2V213.324H247.929V212.424H248.781V210.768H249.873V212.424H251.589V213.324H249.873ZM256.176 212.304C256.672 212.304 257.12 212.412 257.52 212.628C257.92 212.836 258.232 213.152 258.456 213.576C258.688 214 258.804 214.516 258.804 215.124V219H257.724V215.28C257.724 214.624 257.56 214.124 257.232 213.78C256.904 213.428 256.456 213.252 255.888 213.252C255.312 213.252 254.852 213.432 254.508 213.792C254.172 214.152 254.004 214.676 254.004 215.364V219H252.912V210.12H254.004V213.36C254.22 213.024 254.516 212.764 254.892 212.58C255.276 212.396 255.704 212.304 256.176 212.304ZM266.588 215.46C266.588 215.668 266.576 215.888 266.552 216.12H261.296C261.336 216.768 261.556 217.276 261.956 217.644C262.364 218.004 262.856 218.184 263.432 218.184C263.904 218.184 264.296 218.076 264.608 217.86C264.928 217.636 265.152 217.34 265.28 216.972H266.456C266.28 217.604 265.928 218.12 265.4 218.52C264.872 218.912 264.216 219.108 263.432 219.108C262.808 219.108 262.248 218.968 261.752 218.688C261.264 218.408 260.88 218.012 260.6 217.5C260.32 216.98 260.18 216.38 260.18 215.7C260.18 215.02 260.316 214.424 260.588 213.912C260.86 213.4 261.24 213.008 261.728 212.736C262.224 212.456 262.792 212.316 263.432 212.316C264.056 212.316 264.608 212.452 265.088 212.724C265.568 212.996 265.936 213.372 266.192 213.852C266.456 214.324 266.588 214.86 266.588 215.46ZM265.46 215.232C265.46 214.816 265.368 214.46 265.184 214.164C265 213.86 264.748 213.632 264.428 213.48C264.116 213.32 263.768 213.24 263.384 213.24C262.832 213.24 262.36 213.416 261.968 213.768C261.584 214.12 261.364 214.608 261.308 215.232H265.46ZM270.821 215.7C270.821 215.02 270.957 214.428 271.229 213.924C271.501 213.412 271.877 213.016 272.357 212.736C272.845 212.456 273.401 212.316 274.025 212.316C274.833 212.316 275.497 212.512 276.017 212.904C276.545 213.296 276.893 213.84 277.061 214.536H275.885C275.773 214.136 275.553 213.82 275.225 213.588C274.905 213.356 274.505 213.24 274.025 213.24C273.401 213.24 272.897 213.456 272.513 213.888C272.129 214.312 271.937 214.916 271.937 215.7C271.937 216.492 272.129 217.104 272.513 217.536C272.897 217.968 273.401 218.184 274.025 218.184C274.505 218.184 274.905 218.072 275.225 217.848C275.545 217.624 275.765 217.304 275.885 216.888H277.061C276.885 217.56 276.533 218.1 276.005 218.508C275.477 218.908 274.817 219.108 274.025 219.108C273.401 219.108 272.845 218.968 272.357 218.688C271.877 218.408 271.501 218.012 271.229 217.5C270.957 216.988 270.821 216.388 270.821 215.7ZM281.386 219.108C280.77 219.108 280.21 218.968 279.706 218.688C279.21 218.408 278.818 218.012 278.53 217.5C278.25 216.98 278.11 216.38 278.11 215.7C278.11 215.028 278.254 214.436 278.542 213.924C278.838 213.404 279.238 213.008 279.742 212.736C280.246 212.456 280.81 212.316 281.434 212.316C282.058 212.316 282.622 212.456 283.126 212.736C283.63 213.008 284.026 213.4 284.314 213.912C284.61 214.424 284.758 215.02 284.758 215.7C284.758 216.38 284.606 216.98 284.302 217.5C284.006 218.012 283.602 218.408 283.09 218.688C282.578 218.968 282.01 219.108 281.386 219.108ZM281.386 218.148C281.778 218.148 282.146 218.056 282.49 217.872C282.834 217.688 283.11 217.412 283.318 217.044C283.534 216.676 283.642 216.228 283.642 215.7C283.642 215.172 283.538 214.724 283.33 214.356C283.122 213.988 282.85 213.716 282.514 213.54C282.178 213.356 281.814 213.264 281.422 213.264C281.022 213.264 280.654 213.356 280.318 213.54C279.99 213.716 279.726 213.988 279.526 214.356C279.326 214.724 279.226 215.172 279.226 215.7C279.226 216.236 279.322 216.688 279.514 217.056C279.714 217.424 279.978 217.7 280.306 217.884C280.634 218.06 280.994 218.148 281.386 218.148ZM289.398 212.304C290.198 212.304 290.846 212.548 291.342 213.036C291.838 213.516 292.086 214.212 292.086 215.124V219H291.006V215.28C291.006 214.624 290.842 214.124 290.514 213.78C290.186 213.428 289.738 213.252 289.17 213.252C288.594 213.252 288.134 213.432 287.79 213.792C287.454 214.152 287.286 214.676 287.286 215.364V219H286.194V212.424H287.286V213.36C287.502 213.024 287.794 212.764 288.162 212.58C288.538 212.396 288.95 212.304 289.398 212.304ZM296.317 217.992L298.357 212.424H299.521L296.941 219H295.669L293.089 212.424H294.265L296.317 217.992ZM306.596 215.46C306.596 215.668 306.584 215.888 306.56 216.12H301.304C301.344 216.768 301.564 217.276 301.964 217.644C302.372 218.004 302.864 218.184 303.44 218.184C303.912 218.184 304.304 218.076 304.616 217.86C304.936 217.636 305.16 217.34 305.288 216.972H306.464C306.288 217.604 305.936 218.12 305.408 218.52C304.88 218.912 304.224 219.108 303.44 219.108C302.816 219.108 302.256 218.968 301.76 218.688C301.272 218.408 300.888 218.012 300.608 217.5C300.328 216.98 300.188 216.38 300.188 215.7C300.188 215.02 300.324 214.424 300.596 213.912C300.868 213.4 301.248 213.008 301.736 212.736C302.232 212.456 302.8 212.316 303.44 212.316C304.064 212.316 304.616 212.452 305.096 212.724C305.576 212.996 305.944 213.372 306.2 213.852C306.464 214.324 306.596 214.86 306.596 215.46ZM305.468 215.232C305.468 214.816 305.376 214.46 305.192 214.164C305.008 213.86 304.756 213.632 304.436 213.48C304.124 213.32 303.776 213.24 303.392 213.24C302.84 213.24 302.368 213.416 301.976 213.768C301.592 214.12 301.372 214.608 301.316 215.232H305.468ZM309.129 213.492C309.321 213.116 309.593 212.824 309.945 212.616C310.305 212.408 310.741 212.304 311.253 212.304V213.432H310.965C309.741 213.432 309.129 214.096 309.129 215.424V219H308.037V212.424H309.129V213.492ZM314.842 219.108C314.338 219.108 313.886 219.024 313.486 218.856C313.086 218.68 312.77 218.44 312.538 218.136C312.306 217.824 312.178 217.468 312.154 217.068H313.282C313.314 217.396 313.466 217.664 313.738 217.872C314.018 218.08 314.382 218.184 314.83 218.184C315.246 218.184 315.574 218.092 315.814 217.908C316.054 217.724 316.174 217.492 316.174 217.212C316.174 216.924 316.046 216.712 315.79 216.576C315.534 216.432 315.138 216.292 314.602 216.156C314.114 216.028 313.714 215.9 313.402 215.772C313.098 215.636 312.834 215.44 312.61 215.184C312.394 214.92 312.286 214.576 312.286 214.152C312.286 213.816 312.386 213.508 312.586 213.228C312.786 212.948 313.07 212.728 313.438 212.568C313.806 212.4 314.226 212.316 314.698 212.316C315.426 212.316 316.014 212.5 316.462 212.868C316.91 213.236 317.15 213.74 317.182 214.38H316.09C316.066 214.036 315.926 213.76 315.67 213.552C315.422 213.344 315.086 213.24 314.662 213.24C314.27 213.24 313.958 213.324 313.726 213.492C313.494 213.66 313.378 213.88 313.378 214.152C313.378 214.368 313.446 214.548 313.582 214.692C313.726 214.828 313.902 214.94 314.11 215.028C314.326 215.108 314.622 215.2 314.998 215.304C315.47 215.432 315.854 215.56 316.15 215.688C316.446 215.808 316.698 215.992 316.906 216.24C317.122 216.488 317.234 216.812 317.242 217.212C317.242 217.572 317.142 217.896 316.942 218.184C316.742 218.472 316.458 218.7 316.09 218.868C315.73 219.028 315.314 219.108 314.842 219.108ZM318.375 215.688C318.375 215.016 318.511 214.428 318.783 213.924C319.055 213.412 319.427 213.016 319.899 212.736C320.379 212.456 320.911 212.316 321.495 212.316C322.071 212.316 322.571 212.44 322.995 212.688C323.419 212.936 323.735 213.248 323.943 213.624V212.424H325.047V219H323.943V217.776C323.727 218.16 323.403 218.48 322.971 218.736C322.547 218.984 322.051 219.108 321.483 219.108C320.899 219.108 320.371 218.964 319.899 218.676C319.427 218.388 319.055 217.984 318.783 217.464C318.511 216.944 318.375 216.352 318.375 215.688ZM323.943 215.7C323.943 215.204 323.843 214.772 323.643 214.404C323.443 214.036 323.171 213.756 322.827 213.564C322.491 213.364 322.119 213.264 321.711 213.264C321.303 213.264 320.931 213.36 320.595 213.552C320.259 213.744 319.991 214.024 319.791 214.392C319.591 214.76 319.491 215.192 319.491 215.688C319.491 216.192 319.591 216.632 319.791 217.008C319.991 217.376 320.259 217.66 320.595 217.86C320.931 218.052 321.303 218.148 321.711 218.148C322.119 218.148 322.491 218.052 322.827 217.86C323.171 217.66 323.443 217.376 323.643 217.008C323.843 216.632 323.943 216.196 323.943 215.7ZM328.225 213.324V217.2C328.225 217.52 328.293 217.748 328.429 217.884C328.565 218.012 328.801 218.076 329.137 218.076H329.941V219H328.957C328.349 219 327.893 218.86 327.589 218.58C327.285 218.3 327.133 217.84 327.133 217.2V213.324H326.281V212.424H327.133V210.768H328.225V212.424H329.941V213.324H328.225ZM331.828 211.356C331.62 211.356 331.444 211.284 331.3 211.14C331.156 210.996 331.084 210.82 331.084 210.612C331.084 210.404 331.156 210.228 331.3 210.084C331.444 209.94 331.62 209.868 331.828 209.868C332.028 209.868 332.196 209.94 332.332 210.084C332.476 210.228 332.548 210.404 332.548 210.612C332.548 210.82 332.476 210.996 332.332 211.14C332.196 211.284 332.028 211.356 331.828 211.356ZM332.356 212.424V219H331.264V212.424H332.356ZM337.085 219.108C336.469 219.108 335.909 218.968 335.405 218.688C334.909 218.408 334.517 218.012 334.229 217.5C333.949 216.98 333.809 216.38 333.809 215.7C333.809 215.028 333.953 214.436 334.241 213.924C334.537 213.404 334.937 213.008 335.441 212.736C335.945 212.456 336.509 212.316 337.133 212.316C337.757 212.316 338.321 212.456 338.825 212.736C339.329 213.008 339.725 213.4 340.013 213.912C340.309 214.424 340.457 215.02 340.457 215.7C340.457 216.38 340.305 216.98 340.001 217.5C339.705 218.012 339.301 218.408 338.789 218.688C338.277 218.968 337.709 219.108 337.085 219.108ZM337.085 218.148C337.477 218.148 337.845 218.056 338.189 217.872C338.533 217.688 338.809 217.412 339.017 217.044C339.233 216.676 339.341 216.228 339.341 215.7C339.341 215.172 339.237 214.724 339.029 214.356C338.821 213.988 338.549 213.716 338.213 213.54C337.877 213.356 337.513 213.264 337.121 213.264C336.721 213.264 336.353 213.356 336.017 213.54C335.689 213.716 335.425 213.988 335.225 214.356C335.025 214.724 334.925 215.172 334.925 215.7C334.925 216.236 335.021 216.688 335.213 217.056C335.413 217.424 335.677 217.7 336.005 217.884C336.333 218.06 336.693 218.148 337.085 218.148ZM345.097 212.304C345.897 212.304 346.545 212.548 347.041 213.036C347.537 213.516 347.785 214.212 347.785 215.124V219H346.705V215.28C346.705 214.624 346.541 214.124 346.213 213.78C345.885 213.428 345.437 213.252 344.869 213.252C344.293 213.252 343.833 213.432 343.489 213.792C343.153 214.152 342.985 214.676 342.985 215.364V219H341.893V212.424H342.985V213.36C343.201 213.024 343.493 212.764 343.861 212.58C344.237 212.396 344.649 212.304 345.097 212.304ZM355.444 213.324H354.064V219H352.972V213.324H352.12V212.424H352.972V211.956C352.972 211.22 353.16 210.684 353.536 210.348C353.92 210.004 354.532 209.832 355.372 209.832V210.744C354.892 210.744 354.552 210.84 354.352 211.032C354.16 211.216 354.064 211.524 354.064 211.956V212.424H355.444V213.324ZM359.585 219.108C358.969 219.108 358.409 218.968 357.905 218.688C357.409 218.408 357.017 218.012 356.729 217.5C356.449 216.98 356.309 216.38 356.309 215.7C356.309 215.028 356.453 214.436 356.741 213.924C357.037 213.404 357.437 213.008 357.941 212.736C358.445 212.456 359.009 212.316 359.633 212.316C360.257 212.316 360.821 212.456 361.325 212.736C361.829 213.008 362.225 213.4 362.513 213.912C362.809 214.424 362.957 215.02 362.957 215.7C362.957 216.38 362.805 216.98 362.501 217.5C362.205 218.012 361.801 218.408 361.289 218.688C360.777 218.968 360.209 219.108 359.585 219.108ZM359.585 218.148C359.977 218.148 360.345 218.056 360.689 217.872C361.033 217.688 361.309 217.412 361.517 217.044C361.733 216.676 361.841 216.228 361.841 215.7C361.841 215.172 361.737 214.724 361.529 214.356C361.321 213.988 361.049 213.716 360.713 213.54C360.377 213.356 360.013 213.264 359.621 213.264C359.221 213.264 358.853 213.356 358.517 213.54C358.189 213.716 357.925 213.988 357.725 214.356C357.525 214.724 357.425 215.172 357.425 215.7C357.425 216.236 357.521 216.688 357.713 217.056C357.913 217.424 358.177 217.7 358.505 217.884C358.833 218.06 359.193 218.148 359.585 218.148ZM365.485 213.492C365.677 213.116 365.949 212.824 366.301 212.616C366.661 212.408 367.097 212.304 367.609 212.304V213.432H367.321C366.097 213.432 365.485 214.096 365.485 215.424V219H364.393V212.424H365.485V213.492ZM377.901 212.424V219H376.809V218.028C376.601 218.364 376.309 218.628 375.933 218.82C375.565 219.004 375.157 219.096 374.709 219.096C374.197 219.096 373.737 218.992 373.329 218.784C372.921 218.568 372.597 218.248 372.357 217.824C372.125 217.4 372.009 216.884 372.009 216.276V212.424H373.089V216.132C373.089 216.78 373.253 217.28 373.581 217.632C373.909 217.976 374.357 218.148 374.925 218.148C375.509 218.148 375.969 217.968 376.305 217.608C376.641 217.248 376.809 216.724 376.809 216.036V212.424H377.901ZM382.072 219.108C381.568 219.108 381.116 219.024 380.716 218.856C380.316 218.68 380 218.44 379.768 218.136C379.536 217.824 379.408 217.468 379.384 217.068H380.512C380.544 217.396 380.696 217.664 380.968 217.872C381.248 218.08 381.612 218.184 382.06 218.184C382.476 218.184 382.804 218.092 383.044 217.908C383.284 217.724 383.404 217.492 383.404 217.212C383.404 216.924 383.276 216.712 383.02 216.576C382.764 216.432 382.368 216.292 381.832 216.156C381.344 216.028 380.944 215.9 380.632 215.772C380.328 215.636 380.064 215.44 379.84 215.184C379.624 214.92 379.516 214.576 379.516 214.152C379.516 213.816 379.616 213.508 379.816 213.228C380.016 212.948 380.3 212.728 380.668 212.568C381.036 212.4 381.456 212.316 381.928 212.316C382.656 212.316 383.244 212.5 383.692 212.868C384.14 213.236 384.38 213.74 384.412 214.38H383.32C383.296 214.036 383.156 213.76 382.9 213.552C382.652 213.344 382.316 213.24 381.892 213.24C381.5 213.24 381.188 213.324 380.956 213.492C380.724 213.66 380.608 213.88 380.608 214.152C380.608 214.368 380.676 214.548 380.812 214.692C380.956 214.828 381.132 214.94 381.34 215.028C381.556 215.108 381.852 215.2 382.228 215.304C382.7 215.432 383.084 215.56 383.38 215.688C383.676 215.808 383.928 215.992 384.136 216.24C384.352 216.488 384.464 216.812 384.472 217.212C384.472 217.572 384.372 217.896 384.172 218.184C383.972 218.472 383.688 218.7 383.32 218.868C382.96 219.028 382.544 219.108 382.072 219.108ZM390.545 213.324V217.2C390.545 217.52 390.613 217.748 390.749 217.884C390.885 218.012 391.121 218.076 391.457 218.076H392.261V219H391.277C390.669 219 390.213 218.86 389.909 218.58C389.605 218.3 389.453 217.84 389.453 217.2V213.324H388.601V212.424H389.453V210.768H390.545V212.424H392.261V213.324H390.545ZM396.452 219.108C395.836 219.108 395.276 218.968 394.772 218.688C394.276 218.408 393.884 218.012 393.596 217.5C393.316 216.98 393.176 216.38 393.176 215.7C393.176 215.028 393.32 214.436 393.608 213.924C393.904 213.404 394.304 213.008 394.808 212.736C395.312 212.456 395.876 212.316 396.5 212.316C397.124 212.316 397.688 212.456 398.192 212.736C398.696 213.008 399.092 213.4 399.38 213.912C399.676 214.424 399.824 215.02 399.824 215.7C399.824 216.38 399.672 216.98 399.368 217.5C399.072 218.012 398.668 218.408 398.156 218.688C397.644 218.968 397.076 219.108 396.452 219.108ZM396.452 218.148C396.844 218.148 397.212 218.056 397.556 217.872C397.9 217.688 398.176 217.412 398.384 217.044C398.6 216.676 398.708 216.228 398.708 215.7C398.708 215.172 398.604 214.724 398.396 214.356C398.188 213.988 397.916 213.716 397.58 213.54C397.244 213.356 396.88 213.264 396.488 213.264C396.088 213.264 395.72 213.356 395.384 213.54C395.056 213.716 394.792 213.988 394.592 214.356C394.392 214.724 394.292 215.172 394.292 215.7C394.292 216.236 394.388 216.688 394.58 217.056C394.78 217.424 395.044 217.7 395.372 217.884C395.7 218.06 396.06 218.148 396.452 218.148ZM405.551 213.492C405.743 213.116 406.015 212.824 406.367 212.616C406.727 212.408 407.163 212.304 407.675 212.304V213.432H407.387C406.163 213.432 405.551 214.096 405.551 215.424V219H404.459V212.424H405.551V213.492ZM414.936 215.46C414.936 215.668 414.924 215.888 414.9 216.12H409.644C409.684 216.768 409.904 217.276 410.304 217.644C410.712 218.004 411.204 218.184 411.78 218.184C412.252 218.184 412.644 218.076 412.956 217.86C413.276 217.636 413.5 217.34 413.628 216.972H414.804C414.628 217.604 414.276 218.12 413.748 218.52C413.22 218.912 412.564 219.108 411.78 219.108C411.156 219.108 410.596 218.968 410.1 218.688C409.612 218.408 409.228 218.012 408.948 217.5C408.668 216.98 408.528 216.38 408.528 215.7C408.528 215.02 408.664 214.424 408.936 213.912C409.208 213.4 409.588 213.008 410.076 212.736C410.572 212.456 411.14 212.316 411.78 212.316C412.404 212.316 412.956 212.452 413.436 212.724C413.916 212.996 414.284 213.372 414.54 213.852C414.804 214.324 414.936 214.86 414.936 215.46ZM413.808 215.232C413.808 214.816 413.716 214.46 413.532 214.164C413.348 213.86 413.096 213.632 412.776 213.48C412.464 213.32 412.116 213.24 411.732 213.24C411.18 213.24 410.708 213.416 410.316 213.768C409.932 214.12 409.712 214.608 409.656 215.232H413.808ZM417.469 213.636C417.685 213.26 418.005 212.948 418.429 212.7C418.861 212.444 419.361 212.316 419.929 212.316C420.513 212.316 421.041 212.456 421.513 212.736C421.993 213.016 422.369 213.412 422.641 213.924C422.913 214.428 423.049 215.016 423.049 215.688C423.049 216.352 422.913 216.944 422.641 217.464C422.369 217.984 421.993 218.388 421.513 218.676C421.041 218.964 420.513 219.108 419.929 219.108C419.369 219.108 418.873 218.984 418.441 218.736C418.017 218.48 417.693 218.164 417.469 217.788V222.12H416.377V212.424H417.469V213.636ZM421.933 215.688C421.933 215.192 421.833 214.76 421.633 214.392C421.433 214.024 421.161 213.744 420.817 213.552C420.481 213.36 420.109 213.264 419.701 213.264C419.301 213.264 418.929 213.364 418.585 213.564C418.249 213.756 417.977 214.04 417.769 214.416C417.569 214.784 417.469 215.212 417.469 215.7C417.469 216.196 417.569 216.632 417.769 217.008C417.977 217.376 418.249 217.66 418.585 217.86C418.929 218.052 419.301 218.148 419.701 218.148C420.109 218.148 420.481 218.052 420.817 217.86C421.161 217.66 421.433 217.376 421.633 217.008C421.833 216.632 421.933 216.192 421.933 215.688ZM425.579 210.12V219H424.487V210.12H425.579ZM427.032 215.688C427.032 215.016 427.168 214.428 427.44 213.924C427.712 213.412 428.084 213.016 428.556 212.736C429.036 212.456 429.568 212.316 430.152 212.316C430.728 212.316 431.228 212.44 431.652 212.688C432.076 212.936 432.392 213.248 432.6 213.624V212.424H433.704V219H432.6V217.776C432.384 218.16 432.06 218.48 431.628 218.736C431.204 218.984 430.708 219.108 430.14 219.108C429.556 219.108 429.028 218.964 428.556 218.676C428.084 218.388 427.712 217.984 427.44 217.464C427.168 216.944 427.032 216.352 427.032 215.688ZM432.6 215.7C432.6 215.204 432.5 214.772 432.3 214.404C432.1 214.036 431.828 213.756 431.484 213.564C431.148 213.364 430.776 213.264 430.368 213.264C429.96 213.264 429.588 213.36 429.252 213.552C428.916 213.744 428.648 214.024 428.448 214.392C428.248 214.76 428.148 215.192 428.148 215.688C428.148 216.192 428.248 216.632 428.448 217.008C428.648 217.376 428.916 217.66 429.252 217.86C429.588 218.052 429.96 218.148 430.368 218.148C430.776 218.148 431.148 218.052 431.484 217.86C431.828 217.66 432.1 217.376 432.3 217.008C432.5 216.632 432.6 216.196 432.6 215.7ZM441.213 212.424L437.253 222.096H436.125L437.421 218.928L434.769 212.424H435.981L438.045 217.752L440.085 212.424H441.213ZM446.602 210.12V219H445.51V210.12H446.602ZM448.055 215.688C448.055 215.016 448.191 214.428 448.463 213.924C448.735 213.412 449.107 213.016 449.579 212.736C450.059 212.456 450.591 212.316 451.175 212.316C451.751 212.316 452.251 212.44 452.675 212.688C453.099 212.936 453.415 213.248 453.623 213.624V212.424H454.727V219H453.623V217.776C453.407 218.16 453.083 218.48 452.651 218.736C452.227 218.984 451.731 219.108 451.163 219.108C450.579 219.108 450.051 218.964 449.579 218.676C449.107 218.388 448.735 217.984 448.463 217.464C448.191 216.944 448.055 216.352 448.055 215.688ZM453.623 215.7C453.623 215.204 453.523 214.772 453.323 214.404C453.123 214.036 452.851 213.756 452.507 213.564C452.171 213.364 451.799 213.264 451.391 213.264C450.983 213.264 450.611 213.36 450.275 213.552C449.939 213.744 449.671 214.024 449.471 214.392C449.271 214.76 449.171 215.192 449.171 215.688C449.171 216.192 449.271 216.632 449.471 217.008C449.671 217.376 449.939 217.66 450.275 217.86C450.611 218.052 450.983 218.148 451.391 218.148C451.799 218.148 452.171 218.052 452.507 217.86C452.851 217.66 453.123 217.376 453.323 217.008C453.523 216.632 453.623 216.196 453.623 215.7ZM457.904 213.324V217.2C457.904 217.52 457.972 217.748 458.108 217.884C458.244 218.012 458.48 218.076 458.816 218.076H459.62V219H458.636C458.028 219 457.572 218.86 457.268 218.58C456.964 218.3 456.812 217.84 456.812 217.2V213.324H455.96V212.424H456.812V210.768H457.904V212.424H459.62V213.324H457.904ZM466.944 215.46C466.944 215.668 466.932 215.888 466.908 216.12H461.652C461.692 216.768 461.912 217.276 462.312 217.644C462.72 218.004 463.212 218.184 463.788 218.184C464.26 218.184 464.652 218.076 464.964 217.86C465.284 217.636 465.508 217.34 465.636 216.972H466.812C466.636 217.604 466.284 218.12 465.756 218.52C465.228 218.912 464.572 219.108 463.788 219.108C463.164 219.108 462.604 218.968 462.108 218.688C461.62 218.408 461.236 218.012 460.956 217.5C460.676 216.98 460.536 216.38 460.536 215.7C460.536 215.02 460.672 214.424 460.944 213.912C461.216 213.4 461.596 213.008 462.084 212.736C462.58 212.456 463.148 212.316 463.788 212.316C464.412 212.316 464.964 212.452 465.444 212.724C465.924 212.996 466.292 213.372 466.548 213.852C466.812 214.324 466.944 214.86 466.944 215.46ZM465.816 215.232C465.816 214.816 465.724 214.46 465.54 214.164C465.356 213.86 465.104 213.632 464.784 213.48C464.472 213.32 464.124 213.24 463.74 213.24C463.188 213.24 462.716 213.416 462.324 213.768C461.94 214.12 461.72 214.608 461.664 215.232H465.816ZM469.477 213.492C469.669 213.116 469.941 212.824 470.293 212.616C470.653 212.408 471.089 212.304 471.601 212.304V213.432H471.313C470.089 213.432 469.477 214.096 469.477 215.424V219H468.385V212.424H469.477V213.492ZM473.21 219.072C473.002 219.072 472.826 219 472.682 218.856C472.538 218.712 472.466 218.536 472.466 218.328C472.466 218.12 472.538 217.944 472.682 217.8C472.826 217.656 473.002 217.584 473.21 217.584C473.41 217.584 473.578 217.656 473.714 217.8C473.858 217.944 473.93 218.12 473.93 218.328C473.93 218.536 473.858 218.712 473.714 218.856C473.578 219 473.41 219.072 473.21 219.072Z" fill="#212427"/>
<g filter="url(#filter0_d_870_20706)">
<rect x="217.5" y="241" width="165" height="32" rx="6" fill="#388AEB" shape-rendering="crispEdges"/>
<rect x="218" y="241.5" width="164" height="31" rx="5.5" stroke="#388AEB" shape-rendering="crispEdges"/>
<path d="M241.5 263.666C245.182 263.666 248.167 260.682 248.167 257C248.167 253.318 245.182 250.333 241.5 250.333C237.818 250.333 234.833 253.318 234.833 257C234.833 260.682 237.818 263.666 241.5 263.666Z" stroke="#FDFCFA" stroke-width="1.33333" stroke-linecap="round" stroke-linejoin="round"/>
<path d="M240.167 254.333L244.167 257L240.167 259.666V254.333Z" stroke="#FDFCFA" stroke-width="1.33333" stroke-linecap="round" stroke-linejoin="round"/>
<path d="M261.672 262.098C261.028 262.098 260.449 261.986 259.936 261.762C259.432 261.529 259.035 261.211 258.746 260.81C258.457 260.399 258.307 259.928 258.298 259.396H259.656C259.703 259.853 259.889 260.241 260.216 260.558C260.552 260.866 261.037 261.02 261.672 261.02C262.279 261.02 262.755 260.871 263.1 260.572C263.455 260.264 263.632 259.872 263.632 259.396C263.632 259.023 263.529 258.719 263.324 258.486C263.119 258.253 262.862 258.075 262.554 257.954C262.246 257.833 261.831 257.702 261.308 257.562C260.664 257.394 260.146 257.226 259.754 257.058C259.371 256.89 259.04 256.629 258.76 256.274C258.489 255.91 258.354 255.425 258.354 254.818C258.354 254.286 258.489 253.815 258.76 253.404C259.031 252.993 259.409 252.676 259.894 252.452C260.389 252.228 260.953 252.116 261.588 252.116C262.503 252.116 263.249 252.345 263.828 252.802C264.416 253.259 264.747 253.866 264.822 254.622H263.422C263.375 254.249 263.179 253.922 262.834 253.642C262.489 253.353 262.031 253.208 261.462 253.208C260.93 253.208 260.496 253.348 260.16 253.628C259.824 253.899 259.656 254.281 259.656 254.776C259.656 255.131 259.754 255.42 259.95 255.644C260.155 255.868 260.403 256.041 260.692 256.162C260.991 256.274 261.406 256.405 261.938 256.554C262.582 256.731 263.1 256.909 263.492 257.086C263.884 257.254 264.22 257.52 264.5 257.884C264.78 258.239 264.92 258.724 264.92 259.34C264.92 259.816 264.794 260.264 264.542 260.684C264.29 261.104 263.917 261.445 263.422 261.706C262.927 261.967 262.344 262.098 261.672 262.098ZM268.349 255.378V259.9C268.349 260.273 268.428 260.539 268.587 260.698C268.745 260.847 269.021 260.922 269.413 260.922H270.351V262H269.203C268.493 262 267.961 261.837 267.607 261.51C267.252 261.183 267.075 260.647 267.075 259.9V255.378H266.081V254.328H267.075V252.396H268.349V254.328H270.351V255.378H268.349ZM271.418 258.136C271.418 257.352 271.577 256.666 271.894 256.078C272.212 255.481 272.646 255.019 273.196 254.692C273.756 254.365 274.377 254.202 275.058 254.202C275.73 254.202 276.314 254.347 276.808 254.636C277.303 254.925 277.672 255.289 277.914 255.728V254.328H279.202V262H277.914V260.572C277.662 261.02 277.284 261.393 276.78 261.692C276.286 261.981 275.707 262.126 275.044 262.126C274.363 262.126 273.747 261.958 273.196 261.622C272.646 261.286 272.212 260.815 271.894 260.208C271.577 259.601 271.418 258.911 271.418 258.136ZM277.914 258.15C277.914 257.571 277.798 257.067 277.564 256.638C277.331 256.209 277.014 255.882 276.612 255.658C276.22 255.425 275.786 255.308 275.31 255.308C274.834 255.308 274.4 255.42 274.008 255.644C273.616 255.868 273.304 256.195 273.07 256.624C272.837 257.053 272.72 257.557 272.72 258.136C272.72 258.724 272.837 259.237 273.07 259.676C273.304 260.105 273.616 260.437 274.008 260.67C274.4 260.894 274.834 261.006 275.31 261.006C275.786 261.006 276.22 260.894 276.612 260.67C277.014 260.437 277.331 260.105 277.564 259.676C277.798 259.237 277.914 258.729 277.914 258.15ZM282.629 255.574C282.853 255.135 283.171 254.795 283.581 254.552C284.001 254.309 284.51 254.188 285.107 254.188V255.504H284.771C283.343 255.504 282.629 256.279 282.629 257.828V262H281.355V254.328H282.629V255.574ZM288.132 255.378V259.9C288.132 260.273 288.211 260.539 288.37 260.698C288.529 260.847 288.804 260.922 289.196 260.922H290.134V262H288.986C288.277 262 287.745 261.837 287.39 261.51C287.035 261.183 286.858 260.647 286.858 259.9V255.378H285.864V254.328H286.858V252.396H288.132V254.328H290.134V255.378H288.132ZM300.548 262L298.224 258.01H296.684V262H295.41V252.242H298.56C299.297 252.242 299.918 252.368 300.422 252.62C300.935 252.872 301.318 253.213 301.57 253.642C301.822 254.071 301.948 254.561 301.948 255.112C301.948 255.784 301.752 256.377 301.36 256.89C300.977 257.403 300.399 257.744 299.624 257.912L302.074 262H300.548ZM296.684 256.988H298.56C299.251 256.988 299.769 256.82 300.114 256.484C300.459 256.139 300.632 255.681 300.632 255.112C300.632 254.533 300.459 254.085 300.114 253.768C299.778 253.451 299.26 253.292 298.56 253.292H296.684V256.988ZM310.928 257.87C310.928 258.113 310.914 258.369 310.886 258.64H304.754C304.8 259.396 305.057 259.989 305.524 260.418C306 260.838 306.574 261.048 307.246 261.048C307.796 261.048 308.254 260.922 308.618 260.67C308.991 260.409 309.252 260.063 309.402 259.634H310.774C310.568 260.371 310.158 260.973 309.542 261.44C308.926 261.897 308.16 262.126 307.246 262.126C306.518 262.126 305.864 261.963 305.286 261.636C304.716 261.309 304.268 260.847 303.942 260.25C303.615 259.643 303.452 258.943 303.452 258.15C303.452 257.357 303.61 256.661 303.928 256.064C304.245 255.467 304.688 255.009 305.258 254.692C305.836 254.365 306.499 254.202 307.246 254.202C307.974 254.202 308.618 254.361 309.178 254.678C309.738 254.995 310.167 255.434 310.466 255.994C310.774 256.545 310.928 257.17 310.928 257.87ZM309.612 257.604C309.612 257.119 309.504 256.703 309.29 256.358C309.075 256.003 308.781 255.737 308.408 255.56C308.044 255.373 307.638 255.28 307.19 255.28C306.546 255.28 305.995 255.485 305.538 255.896C305.09 256.307 304.833 256.876 304.768 257.604H309.612ZM312.133 258.15C312.133 257.357 312.292 256.666 312.609 256.078C312.927 255.481 313.365 255.019 313.925 254.692C314.495 254.365 315.143 254.202 315.871 254.202C316.814 254.202 317.589 254.431 318.195 254.888C318.811 255.345 319.217 255.98 319.413 256.792H318.041C317.911 256.325 317.654 255.957 317.271 255.686C316.898 255.415 316.431 255.28 315.871 255.28C315.143 255.28 314.555 255.532 314.107 256.036C313.659 256.531 313.435 257.235 313.435 258.15C313.435 259.074 313.659 259.788 314.107 260.292C314.555 260.796 315.143 261.048 315.871 261.048C316.431 261.048 316.898 260.917 317.271 260.656C317.645 260.395 317.901 260.021 318.041 259.536H319.413C319.208 260.32 318.797 260.95 318.181 261.426C317.565 261.893 316.795 262.126 315.871 262.126C315.143 262.126 314.495 261.963 313.925 261.636C313.365 261.309 312.927 260.847 312.609 260.25C312.292 259.653 312.133 258.953 312.133 258.15ZM324.459 262.126C323.74 262.126 323.087 261.963 322.499 261.636C321.92 261.309 321.463 260.847 321.127 260.25C320.8 259.643 320.637 258.943 320.637 258.15C320.637 257.366 320.805 256.675 321.141 256.078C321.486 255.471 321.953 255.009 322.541 254.692C323.129 254.365 323.787 254.202 324.515 254.202C325.243 254.202 325.901 254.365 326.489 254.692C327.077 255.009 327.539 255.467 327.875 256.064C328.22 256.661 328.393 257.357 328.393 258.15C328.393 258.943 328.216 259.643 327.861 260.25C327.516 260.847 327.044 261.309 326.447 261.636C325.85 261.963 325.187 262.126 324.459 262.126ZM324.459 261.006C324.916 261.006 325.346 260.899 325.747 260.684C326.148 260.469 326.47 260.147 326.713 259.718C326.965 259.289 327.091 258.766 327.091 258.15C327.091 257.534 326.97 257.011 326.727 256.582C326.484 256.153 326.167 255.835 325.775 255.63C325.383 255.415 324.958 255.308 324.501 255.308C324.034 255.308 323.605 255.415 323.213 255.63C322.83 255.835 322.522 256.153 322.289 256.582C322.056 257.011 321.939 257.534 321.939 258.15C321.939 258.775 322.051 259.303 322.275 259.732C322.508 260.161 322.816 260.483 323.199 260.698C323.582 260.903 324.002 261.006 324.459 261.006ZM331.342 255.574C331.566 255.135 331.884 254.795 332.294 254.552C332.714 254.309 333.223 254.188 333.82 254.188V255.504H333.484C332.056 255.504 331.342 256.279 331.342 257.828V262H330.068V254.328H331.342V255.574ZM334.815 258.136C334.815 257.352 334.974 256.666 335.291 256.078C335.608 255.481 336.042 255.019 336.593 254.692C337.153 254.365 337.778 254.202 338.469 254.202C339.066 254.202 339.622 254.342 340.135 254.622C340.648 254.893 341.04 255.252 341.311 255.7V251.64H342.599V262H341.311V260.558C341.059 261.015 340.686 261.393 340.191 261.692C339.696 261.981 339.118 262.126 338.455 262.126C337.774 262.126 337.153 261.958 336.593 261.622C336.042 261.286 335.608 260.815 335.291 260.208C334.974 259.601 334.815 258.911 334.815 258.136ZM341.311 258.15C341.311 257.571 341.194 257.067 340.961 256.638C340.728 256.209 340.41 255.882 340.009 255.658C339.617 255.425 339.183 255.308 338.707 255.308C338.231 255.308 337.797 255.42 337.405 255.644C337.013 255.868 336.7 256.195 336.467 256.624C336.234 257.053 336.117 257.557 336.117 258.136C336.117 258.724 336.234 259.237 336.467 259.676C336.7 260.105 337.013 260.437 337.405 260.67C337.797 260.894 338.231 261.006 338.707 261.006C339.183 261.006 339.617 260.894 340.009 260.67C340.41 260.437 340.728 260.105 340.961 259.676C341.194 259.237 341.311 258.729 341.311 258.15ZM345.41 253.082C345.167 253.082 344.962 252.998 344.794 252.83C344.626 252.662 344.542 252.457 344.542 252.214C344.542 251.971 344.626 251.766 344.794 251.598C344.962 251.43 345.167 251.346 345.41 251.346C345.643 251.346 345.839 251.43 345.998 251.598C346.166 251.766 346.25 251.971 346.25 252.214C346.25 252.457 346.166 252.662 345.998 252.83C345.839 252.998 345.643 253.082 345.41 253.082ZM346.026 254.328V262H344.752V254.328H346.026ZM351.935 254.188C352.868 254.188 353.624 254.473 354.203 255.042C354.782 255.602 355.071 256.414 355.071 257.478V262H353.811V257.66C353.811 256.895 353.62 256.311 353.237 255.91C352.854 255.499 352.332 255.294 351.669 255.294C350.997 255.294 350.46 255.504 350.059 255.924C349.667 256.344 349.471 256.955 349.471 257.758V262H348.197V254.328H349.471V255.42C349.723 255.028 350.064 254.725 350.493 254.51C350.932 254.295 351.412 254.188 351.935 254.188ZM360.316 254.202C360.979 254.202 361.558 254.347 362.052 254.636C362.556 254.925 362.93 255.289 363.172 255.728V254.328H364.46V262.168C364.46 262.868 364.311 263.489 364.012 264.03C363.714 264.581 363.284 265.01 362.724 265.318C362.174 265.626 361.53 265.78 360.792 265.78C359.784 265.78 358.944 265.542 358.272 265.066C357.6 264.59 357.204 263.941 357.082 263.12H358.342C358.482 263.587 358.772 263.96 359.21 264.24C359.649 264.529 360.176 264.674 360.792 264.674C361.492 264.674 362.062 264.455 362.5 264.016C362.948 263.577 363.172 262.961 363.172 262.168V260.558C362.92 261.006 362.547 261.379 362.052 261.678C361.558 261.977 360.979 262.126 360.316 262.126C359.635 262.126 359.014 261.958 358.454 261.622C357.904 261.286 357.47 260.815 357.152 260.208C356.835 259.601 356.676 258.911 356.676 258.136C356.676 257.352 356.835 256.666 357.152 256.078C357.47 255.481 357.904 255.019 358.454 254.692C359.014 254.365 359.635 254.202 360.316 254.202ZM363.172 258.15C363.172 257.571 363.056 257.067 362.822 256.638C362.589 256.209 362.272 255.882 361.87 255.658C361.478 255.425 361.044 255.308 360.568 255.308C360.092 255.308 359.658 255.42 359.266 255.644C358.874 255.868 358.562 256.195 358.328 256.624C358.095 257.053 357.978 257.557 357.978 258.136C357.978 258.724 358.095 259.237 358.328 259.676C358.562 260.105 358.874 260.437 359.266 260.67C359.658 260.894 360.092 261.006 360.568 261.006C361.044 261.006 361.478 260.894 361.87 260.67C362.272 260.437 362.589 260.105 362.822 259.676C363.056 259.237 363.172 258.729 363.172 258.15Z" fill="#FDFCFA"/>
</g>
</g>
<rect x="0.5" y="0.5" width="599" height="359" rx="11.5" stroke="#388AEB" stroke-dasharray="4 4"/>
<defs>
<filter id="filter0_d_870_20706" x="217.5" y="241" width="165" height="34" filterUnits="userSpaceOnUse" color-interpolation-filters="sRGB">
<feFlood flood-opacity="0" result="BackgroundImageFix"/>
<feColorMatrix in="SourceAlpha" type="matrix" values="0 0 0 0 0 0 0 0 0 0 0 0 0 0 0 0 0 0 127 0" result="hardAlpha"/>
<feOffset dy="2"/>
<feComposite in2="hardAlpha" operator="out"/>
<feColorMatrix type="matrix" values="0 0 0 0 0 0 0 0 0 0 0 0 0 0 0 0 0 0 0.02 0"/>
<feBlend mode="normal" in2="BackgroundImageFix" result="effect1_dropShadow_870_20706"/>
<feBlend mode="normal" in="SourceGraphic" in2="effect1_dropShadow_870_20706" result="shape"/>
</filter>
<clipPath id="clip0_870_20706">
<rect width="600" height="360" rx="12" fill="white"/>
</clipPath>
</defs>
</svg>
