<svg width="600" height="360" viewBox="0 0 600 360" fill="none" xmlns="http://www.w3.org/2000/svg">
<g clip-path="url(#clip0_871_20474)">
<rect width="600" height="360" rx="12" fill="#FDFCFA"/>
<rect width="600" height="56" fill="#D6E6F7"/>
<path d="M276.493 35.103C276.493 38.9482 274.155 41.5116 270.601 41.5116C268.835 41.5116 267.445 40.8008 266.519 39.5298V41.3716H262.889V23.8906H266.519V30.5685C267.413 29.2976 268.802 28.5867 270.526 28.5867C274.08 28.5759 276.493 31.1932 276.493 35.103ZM272.809 34.9845C272.809 32.9596 271.538 31.4948 269.675 31.4948C267.811 31.4948 266.519 32.9273 266.519 34.9845C266.519 37.0741 267.811 38.4958 269.675 38.4958C271.538 38.5066 272.809 37.0633 272.809 34.9845Z" fill="#314F8F"/>
<path d="M291.787 35.0386C291.787 38.9054 289.051 41.5226 285.001 41.5226C280.919 41.5226 278.194 38.9054 278.194 35.0386C278.194 31.1504 280.93 28.5762 285.001 28.5762C289.062 28.5762 291.787 31.1504 291.787 35.0386ZM281.835 35.0817C281.835 37.1497 283.106 38.5715 284.991 38.5715C286.854 38.5715 288.147 37.1605 288.147 35.0817C288.147 33.0137 286.854 31.592 284.991 31.592C283.117 31.592 281.835 33.0137 281.835 35.0817Z" fill="#314F8F"/>
<path d="M302.44 40.6606C301.492 41.2099 300.318 41.5331 299.144 41.5331C296.882 41.5331 295.159 40.2406 295.159 37.6233V31.7532H293.392V29.2544H295.159V25.7646H298.767V29.2544H302.213V31.7747H298.767V37.0094C298.767 38.0649 299.208 38.4957 299.995 38.4742C300.458 38.4742 301.029 38.3018 301.686 38.011L302.44 40.6606Z" fill="#314F8F"/>
<path d="M312.887 40.6606C311.939 41.2099 310.765 41.5331 309.591 41.5331C307.33 41.5331 305.606 40.2406 305.606 37.6233V31.7532H303.84V29.2544H305.606V25.7646H309.214V29.2544H312.661V31.7747H309.214V37.0094C309.214 38.0649 309.656 38.4957 310.442 38.4742C310.905 38.4742 311.476 38.3018 312.133 38.011L312.887 40.6606Z" fill="#314F8F"/>
<path d="M327.051 36.1373H317.95C318.37 37.7422 319.598 38.6792 321.224 38.6792C322.43 38.6792 323.561 38.2161 324.434 37.3329L326.34 39.2608C325.069 40.6718 323.206 41.5012 320.912 41.5012C316.851 41.5012 314.288 38.9054 314.288 35.0602C314.288 31.1504 316.948 28.5547 320.815 28.5547C325.285 28.5762 327.363 31.5166 327.051 36.1373ZM323.658 33.9939C323.615 32.3245 322.527 31.2366 320.847 31.2366C319.242 31.2366 318.165 32.3137 317.874 33.9939H323.658Z" fill="#314F8F"/>
<path d="M339.092 29.9433L337.843 32.4206C336.454 31.6451 335.032 31.1928 333.976 31.1928C333.125 31.1928 332.512 31.4728 332.512 32.1406C332.512 34.047 339.211 33.0884 339.189 37.5691C339.189 40.1648 336.906 41.5327 334.03 41.5327C331.984 41.5327 329.97 40.9188 328.537 39.7663L329.722 37.3106C331.047 38.323 332.738 38.8939 334.138 38.8939C335.053 38.8939 335.743 38.5923 335.743 37.9029C335.743 35.878 329.173 36.9551 329.173 32.5068C329.173 29.8895 331.413 28.5431 334.17 28.5431C335.894 28.5324 337.682 29.0494 339.092 29.9433Z" fill="#314F8F"/>
<path d="M349.874 40.6606C348.926 41.2099 347.752 41.5331 346.578 41.5331C344.316 41.5331 342.593 40.2406 342.593 37.6233V31.7532H340.827V29.2544H342.593V25.7646H346.201V29.2544H349.648V31.7747H346.201V37.0094C346.201 38.0649 346.643 38.4957 347.429 38.4742C347.892 38.4742 348.463 38.3018 349.12 38.011L349.874 40.6606Z" fill="#314F8F"/>
<path d="M353.665 40.6926C353.665 41.1881 353.288 41.5651 352.836 41.5651C352.384 41.5651 352.039 41.1881 352.039 40.6926C352.039 40.2295 352.395 39.8633 352.836 39.8633C353.278 39.8633 353.665 40.2187 353.665 40.6926Z" fill="#314F8F"/>
<path d="M364.652 38.9481C363.618 40.6391 361.862 41.4038 359.751 41.4038C357.317 41.4038 355.69 39.8744 355.69 37.7956C355.69 35.7491 357.435 34.4997 360.257 34.4997H364.619V33.2934C364.598 31.2254 363.392 29.976 360.947 29.976C359.417 29.976 358.114 30.5899 356.821 31.5809L356.358 30.8269C357.823 29.7714 359.234 29.082 361.097 29.082C363.995 29.082 365.578 30.6869 365.6 33.2288L365.643 41.3823H364.673L364.652 38.9481ZM364.652 37.3648V35.3614H360.365C357.963 35.3614 356.638 36.1908 356.638 37.7633C356.638 39.3897 357.888 40.4991 359.891 40.4991C362.174 40.4991 363.898 39.5189 364.652 37.3648Z" fill="#314F8F"/>
<path d="M370.802 25.5599C370.802 26.0553 370.425 26.4323 369.972 26.4323C369.531 26.4323 369.143 26.0553 369.143 25.5599C369.143 25.0967 369.52 24.709 369.972 24.709C370.425 24.709 370.802 25.086 370.802 25.5599ZM369.477 41.3822V29.1035H370.446V41.3822H369.477Z" fill="#314F8F"/>
<path d="M253.227 28.0703H252.549V30.623H253.227V28.0703Z" fill="black"/>
<path d="M247.939 39.0025L250.503 39.218V37.6777H247.939V39.0025Z" fill="black"/>
<path d="M239.215 38.3023L241.778 38.507V37.7207H239.215V38.3023Z" fill="black"/>
<path d="M240.497 44.0005H236.608C236.318 44.0005 236.081 43.7636 236.081 43.4728V43.462C236.081 42.3526 236.985 41.4478 238.095 41.4478H239.215V38.292L241.768 38.4859V42.7296C241.778 43.4297 241.207 44.0005 240.497 44.0005Z" fill="#388AEB"/>
<path d="M249.221 44.0007H253.11C253.4 44.0007 253.637 43.7638 253.637 43.4729V43.4622C253.637 42.3528 252.733 41.448 251.623 41.448H250.503V39.1431L247.95 38.9492V42.719C247.94 43.4299 248.51 44.0007 249.221 44.0007Z" fill="#388AEB"/>
<path d="M251.127 37.7535H238.59C237.782 37.7535 237.136 37.0965 237.136 36.2995V25.2917C237.136 21.705 240.066 18.7754 243.653 18.7754H246.087C249.673 18.7754 252.603 21.705 252.603 25.2917V36.2995C252.592 37.0965 251.925 37.7535 251.127 37.7535Z" fill="#388AEB"/>
<path d="M236.339 28.0596C233.13 28.0596 230.512 30.6769 230.512 33.8866V35.9977C229.726 36.5147 229.198 37.3979 229.198 38.4103C229.198 39.7782 230.168 40.9522 231.503 41.2323C231.568 41.243 231.622 41.243 231.686 41.243C232.117 41.243 232.494 40.9415 232.58 40.5106C232.623 40.2737 232.58 40.0259 232.451 39.8321C232.311 39.6274 232.117 39.4874 231.88 39.4443C231.385 39.3474 231.04 38.9058 231.04 38.4103C231.04 37.8287 231.514 37.3548 232.096 37.3548C232.537 37.3548 232.936 37.6348 233.086 38.0334C233.173 38.2595 233.345 38.4426 233.56 38.5396C233.787 38.6365 234.024 38.6473 234.261 38.5611C234.724 38.3888 234.971 37.8503 234.788 37.3871C234.487 36.5901 233.851 35.9869 233.076 35.6961V33.8758C233.076 32.0771 234.551 30.6015 236.35 30.6015H239.161V28.0488H236.339V28.0596Z" fill="#388AEB"/>
<path d="M260.509 20.2722C260.509 18.9043 259.539 17.7303 258.204 17.4502C258.139 17.4395 258.085 17.4395 258.021 17.4395C257.59 17.4395 257.213 17.741 257.127 18.1719C257.084 18.4088 257.127 18.6565 257.256 18.8504C257.396 19.0551 257.59 19.1951 257.827 19.2382C258.322 19.3351 258.667 19.7767 258.667 20.2722C258.667 20.8538 258.193 21.3277 257.611 21.3277C257.17 21.3277 256.771 21.0477 256.62 20.6492C256.534 20.423 256.362 20.2399 256.146 20.1429C255.931 20.046 255.683 20.0352 255.446 20.1214C254.983 20.2937 254.736 20.8323 254.919 21.2954C255.22 22.0924 255.856 22.6956 256.631 22.9864V24.8067C256.631 26.6054 255.156 28.081 253.357 28.081H253.206V30.6337H253.378C256.588 30.6337 259.205 28.0164 259.205 24.8067V22.6956C259.992 22.1678 260.509 21.2846 260.509 20.2722Z" fill="#388AEB"/>
<path d="M244.859 36.2131C245.287 36.2131 245.634 35.8659 245.634 35.4376C245.634 35.0093 245.287 34.6621 244.859 34.6621C244.431 34.6621 244.083 35.0093 244.083 35.4376C244.083 35.8659 244.431 36.2131 244.859 36.2131Z" fill="#314F8F"/>
<path d="M248.693 36.2131C249.122 36.2131 249.469 35.8659 249.469 35.4376C249.469 35.0093 249.122 34.6621 248.693 34.6621C248.265 34.6621 247.918 35.0093 247.918 35.4376C247.918 35.8659 248.265 36.2131 248.693 36.2131Z" fill="#314F8F"/>
<path d="M241.025 36.2131C241.453 36.2131 241.8 35.8659 241.8 35.4376C241.8 35.0093 241.453 34.6621 241.025 34.6621C240.596 34.6621 240.249 35.0093 240.249 35.4376C240.249 35.8659 240.596 36.2131 241.025 36.2131Z" fill="#314F8F"/>
<path d="M253.034 19.0979H251.709C251.117 16.4699 249.049 14.3911 246.421 13.8095V12.8509C246.421 12.3878 246.033 12 245.57 12H244.17C243.706 12 243.319 12.3878 243.319 12.8509V13.8095C243.168 13.9172 243.125 14.0141 242.985 14.0572C242.812 14.1003 242.565 14.1218 242.414 14.0788C240.217 14.8973 238.536 16.7822 238.019 19.1087H236.695C236.231 19.1087 235.844 19.4965 235.844 19.9596V21.3598C235.844 21.823 236.231 22.2107 236.695 22.2107H253.034C253.497 22.2107 253.885 21.823 253.885 21.3598V19.9596C253.874 19.4749 253.497 19.0979 253.034 19.0979Z" fill="#314F8F"/>
<path d="M243.319 17.127V13.7881C243.017 13.8527 242.705 13.9496 242.414 14.0574L243.319 17.127Z" fill="black"/>
<path d="M248.058 23.3848H241.649C240.357 23.3848 239.312 24.4295 239.312 25.722V29.2225C239.312 30.515 240.357 31.5598 241.649 31.5598H244.17L247.25 33.8109C247.509 34.0048 247.875 33.8216 247.875 33.4985V31.5706H248.047C249.34 31.5706 250.384 30.5258 250.384 29.2333V25.7328C250.395 24.4295 249.35 23.3848 248.058 23.3848Z" fill="white"/>
<path d="M242.22 28.5335C241.638 28.5335 241.154 28.0596 241.154 27.4672V26.5516C241.154 25.97 241.628 25.4854 242.22 25.4854C242.802 25.4854 243.286 25.9593 243.286 26.5516V27.4672C243.276 28.0596 242.802 28.5335 242.22 28.5335Z" fill="black"/>
<path d="M247.498 28.5335C248.08 28.5335 248.564 28.0596 248.564 27.4672V26.5516C248.564 25.97 248.09 25.4854 247.498 25.4854C246.916 25.4854 246.432 25.9593 246.432 26.5516V27.4672C246.442 28.0596 246.916 28.5335 247.498 28.5335Z" fill="black"/>
<path d="M196.619 152.5L193.259 146.662H191.432V152.5H189.038V137.905H194.078C195.198 137.905 196.143 138.101 196.913 138.493C197.697 138.885 198.278 139.41 198.656 140.068C199.048 140.726 199.244 141.461 199.244 142.273C199.244 143.225 198.964 144.093 198.404 144.877C197.858 145.647 197.011 146.172 195.863 146.452L199.475 152.5H196.619ZM191.432 144.751H194.078C194.974 144.751 195.646 144.527 196.094 144.079C196.556 143.631 196.787 143.029 196.787 142.273C196.787 141.517 196.563 140.929 196.115 140.509C195.667 140.075 194.988 139.858 194.078 139.858H191.432V144.751ZM212.912 146.431C212.912 146.865 212.884 147.257 212.828 147.607H203.987C204.057 148.531 204.4 149.273 205.016 149.833C205.632 150.393 206.388 150.673 207.284 150.673C208.572 150.673 209.482 150.134 210.014 149.056H212.597C212.247 150.12 211.61 150.995 210.686 151.681C209.776 152.353 208.642 152.689 207.284 152.689C206.178 152.689 205.184 152.444 204.302 151.954C203.434 151.45 202.748 150.75 202.244 149.854C201.754 148.944 201.509 147.894 201.509 146.704C201.509 145.514 201.747 144.471 202.223 143.575C202.713 142.665 203.392 141.965 204.26 141.475C205.142 140.985 206.15 140.74 207.284 140.74C208.376 140.74 209.349 140.978 210.203 141.454C211.057 141.93 211.722 142.602 212.198 143.47C212.674 144.324 212.912 145.311 212.912 146.431ZM210.413 145.675C210.399 144.793 210.084 144.086 209.468 143.554C208.852 143.022 208.089 142.756 207.179 142.756C206.353 142.756 205.646 143.022 205.058 143.554C204.47 144.072 204.12 144.779 204.008 145.675H210.413ZM214.47 146.704C214.47 145.514 214.708 144.471 215.184 143.575C215.674 142.665 216.346 141.965 217.2 141.475C218.054 140.985 219.034 140.74 220.14 140.74C221.54 140.74 222.695 141.076 223.605 141.748C224.529 142.406 225.152 143.351 225.474 144.583H222.891C222.681 144.009 222.345 143.561 221.883 143.239C221.421 142.917 220.84 142.756 220.14 142.756C219.16 142.756 218.376 143.106 217.788 143.806C217.214 144.492 216.927 145.458 216.927 146.704C216.927 147.95 217.214 148.923 217.788 149.623C218.376 150.323 219.16 150.673 220.14 150.673C221.526 150.673 222.443 150.064 222.891 148.846H225.474C225.138 150.022 224.508 150.96 223.584 151.66C222.66 152.346 221.512 152.689 220.14 152.689C219.034 152.689 218.054 152.444 217.2 151.954C216.346 151.45 215.674 150.75 215.184 149.854C214.708 148.944 214.47 147.894 214.47 146.704ZM232.879 152.689C231.787 152.689 230.8 152.444 229.918 151.954C229.036 151.45 228.343 150.75 227.839 149.854C227.335 148.944 227.083 147.894 227.083 146.704C227.083 145.528 227.342 144.485 227.86 143.575C228.378 142.665 229.085 141.965 229.981 141.475C230.877 140.985 231.878 140.74 232.984 140.74C234.09 140.74 235.091 140.985 235.987 141.475C236.883 141.965 237.59 142.665 238.108 143.575C238.626 144.485 238.885 145.528 238.885 146.704C238.885 147.88 238.619 148.923 238.087 149.833C237.555 150.743 236.827 151.45 235.903 151.954C234.993 152.444 233.985 152.689 232.879 152.689ZM232.879 150.61C233.495 150.61 234.069 150.463 234.601 150.169C235.147 149.875 235.588 149.434 235.924 148.846C236.26 148.258 236.428 147.544 236.428 146.704C236.428 145.864 236.267 145.157 235.945 144.583C235.623 143.995 235.196 143.554 234.664 143.26C234.132 142.966 233.558 142.819 232.942 142.819C232.326 142.819 231.752 142.966 231.22 143.26C230.702 143.554 230.289 143.995 229.981 144.583C229.673 145.157 229.519 145.864 229.519 146.704C229.519 147.95 229.834 148.916 230.464 149.602C231.108 150.274 231.913 150.61 232.879 150.61ZM243.645 142.609C243.995 142.021 244.457 141.566 245.031 141.244C245.619 140.908 246.312 140.74 247.11 140.74V143.218H246.501C245.563 143.218 244.849 143.456 244.359 143.932C243.883 144.408 243.645 145.234 243.645 146.41V152.5H241.251V140.929H243.645V142.609ZM248.513 146.662C248.513 145.5 248.751 144.471 249.227 143.575C249.717 142.679 250.375 141.986 251.201 141.496C252.041 140.992 252.972 140.74 253.994 140.74C254.75 140.74 255.492 140.908 256.22 141.244C256.962 141.566 257.55 142 257.984 142.546V136.96H260.399V152.5H257.984V150.757C257.592 151.317 257.046 151.779 256.346 152.143C255.66 152.507 254.869 152.689 253.973 152.689C252.965 152.689 252.041 152.437 251.201 151.933C250.375 151.415 249.717 150.701 249.227 149.791C248.751 148.867 248.513 147.824 248.513 146.662ZM257.984 146.704C257.984 145.906 257.816 145.213 257.48 144.625C257.158 144.037 256.731 143.589 256.199 143.281C255.667 142.973 255.093 142.819 254.477 142.819C253.861 142.819 253.287 142.973 252.755 143.281C252.223 143.575 251.789 144.016 251.453 144.604C251.131 145.178 250.97 145.864 250.97 146.662C250.97 147.46 251.131 148.16 251.453 148.762C251.789 149.364 252.223 149.826 252.755 150.148C253.301 150.456 253.875 150.61 254.477 150.61C255.093 150.61 255.667 150.456 256.199 150.148C256.731 149.84 257.158 149.392 257.48 148.804C257.816 148.202 257.984 147.502 257.984 146.704ZM264.761 139.396C264.327 139.396 263.963 139.249 263.669 138.955C263.375 138.661 263.228 138.297 263.228 137.863C263.228 137.429 263.375 137.065 263.669 136.771C263.963 136.477 264.327 136.33 264.761 136.33C265.181 136.33 265.538 136.477 265.832 136.771C266.126 137.065 266.273 137.429 266.273 137.863C266.273 138.297 266.126 138.661 265.832 138.955C265.538 139.249 265.181 139.396 264.761 139.396ZM265.937 140.929V152.5H263.543V140.929H265.937ZM274.918 140.74C275.828 140.74 276.64 140.929 277.354 141.307C278.082 141.685 278.649 142.245 279.055 142.987C279.461 143.729 279.664 144.625 279.664 145.675V152.5H277.291V146.032C277.291 144.996 277.032 144.205 276.514 143.659C275.996 143.099 275.289 142.819 274.393 142.819C273.497 142.819 272.783 143.099 272.251 143.659C271.733 144.205 271.474 144.996 271.474 146.032V152.5H269.08V140.929H271.474V142.252C271.866 141.776 272.363 141.405 272.965 141.139C273.581 140.873 274.232 140.74 274.918 140.74ZM287.38 140.74C288.276 140.74 289.067 140.922 289.753 141.286C290.453 141.636 290.999 142.077 291.391 142.609V140.929H293.806V152.689C293.806 153.753 293.582 154.698 293.134 155.524C292.686 156.364 292.035 157.022 291.181 157.498C290.341 157.974 289.333 158.212 288.157 158.212C286.589 158.212 285.287 157.841 284.251 157.099C283.215 156.371 282.627 155.377 282.487 154.117H284.86C285.042 154.719 285.427 155.202 286.015 155.566C286.617 155.944 287.331 156.133 288.157 156.133C289.123 156.133 289.9 155.839 290.488 155.251C291.09 154.663 291.391 153.809 291.391 152.689V150.757C290.985 151.303 290.432 151.765 289.732 152.143C289.046 152.507 288.262 152.689 287.38 152.689C286.372 152.689 285.448 152.437 284.608 151.933C283.782 151.415 283.124 150.701 282.634 149.791C282.158 148.867 281.92 147.824 281.92 146.662C281.92 145.5 282.158 144.471 282.634 143.575C283.124 142.679 283.782 141.986 284.608 141.496C285.448 140.992 286.372 140.74 287.38 140.74ZM291.391 146.704C291.391 145.906 291.223 145.213 290.887 144.625C290.565 144.037 290.138 143.589 289.606 143.281C289.074 142.973 288.5 142.819 287.884 142.819C287.268 142.819 286.694 142.973 286.162 143.281C285.63 143.575 285.196 144.016 284.86 144.604C284.538 145.178 284.377 145.864 284.377 146.662C284.377 147.46 284.538 148.16 284.86 148.762C285.196 149.364 285.63 149.826 286.162 150.148C286.708 150.456 287.282 150.61 287.884 150.61C288.5 150.61 289.074 150.456 289.606 150.148C290.138 149.84 290.565 149.392 290.887 148.804C291.223 148.202 291.391 147.502 291.391 146.704ZM301.608 145.171C301.608 143.743 301.937 142.462 302.595 141.328C303.267 140.194 304.17 139.312 305.304 138.682C306.452 138.038 307.705 137.716 309.063 137.716C310.617 137.716 311.996 138.101 313.2 138.871C314.418 139.627 315.3 140.705 315.846 142.105H312.969C312.591 141.335 312.066 140.761 311.394 140.383C310.722 140.005 309.945 139.816 309.063 139.816C308.097 139.816 307.236 140.033 306.48 140.467C305.724 140.901 305.129 141.524 304.695 142.336C304.275 143.148 304.065 144.093 304.065 145.171C304.065 146.249 304.275 147.194 304.695 148.006C305.129 148.818 305.724 149.448 306.48 149.896C307.236 150.33 308.097 150.547 309.063 150.547C309.945 150.547 310.722 150.358 311.394 149.98C312.066 149.602 312.591 149.028 312.969 148.258H315.846C315.3 149.658 314.418 150.736 313.2 151.492C311.996 152.248 310.617 152.626 309.063 152.626C307.691 152.626 306.438 152.311 305.304 151.681C304.17 151.037 303.267 150.148 302.595 149.014C301.937 147.88 301.608 146.599 301.608 145.171ZM323.667 152.689C322.575 152.689 321.588 152.444 320.706 151.954C319.824 151.45 319.131 150.75 318.627 149.854C318.123 148.944 317.871 147.894 317.871 146.704C317.871 145.528 318.13 144.485 318.648 143.575C319.166 142.665 319.873 141.965 320.769 141.475C321.665 140.985 322.666 140.74 323.772 140.74C324.878 140.74 325.879 140.985 326.775 141.475C327.671 141.965 328.378 142.665 328.896 143.575C329.414 144.485 329.673 145.528 329.673 146.704C329.673 147.88 329.407 148.923 328.875 149.833C328.343 150.743 327.615 151.45 326.691 151.954C325.781 152.444 324.773 152.689 323.667 152.689ZM323.667 150.61C324.283 150.61 324.857 150.463 325.389 150.169C325.935 149.875 326.376 149.434 326.712 148.846C327.048 148.258 327.216 147.544 327.216 146.704C327.216 145.864 327.055 145.157 326.733 144.583C326.411 143.995 325.984 143.554 325.452 143.26C324.92 142.966 324.346 142.819 323.73 142.819C323.114 142.819 322.54 142.966 322.008 143.26C321.49 143.554 321.077 143.995 320.769 144.583C320.461 145.157 320.307 145.864 320.307 146.704C320.307 147.95 320.622 148.916 321.252 149.602C321.896 150.274 322.701 150.61 323.667 150.61ZM346.046 140.74C346.956 140.74 347.768 140.929 348.482 141.307C349.21 141.685 349.777 142.245 350.183 142.987C350.603 143.729 350.813 144.625 350.813 145.675V152.5H348.44V146.032C348.44 144.996 348.181 144.205 347.663 143.659C347.145 143.099 346.438 142.819 345.542 142.819C344.646 142.819 343.932 143.099 343.4 143.659C342.882 144.205 342.623 144.996 342.623 146.032V152.5H340.25V146.032C340.25 144.996 339.991 144.205 339.473 143.659C338.955 143.099 338.248 142.819 337.352 142.819C336.456 142.819 335.742 143.099 335.21 143.659C334.692 144.205 334.433 144.996 334.433 146.032V152.5H332.039V140.929H334.433V142.252C334.825 141.776 335.322 141.405 335.924 141.139C336.526 140.873 337.17 140.74 337.856 140.74C338.78 140.74 339.606 140.936 340.334 141.328C341.062 141.72 341.622 142.287 342.014 143.029C342.364 142.329 342.91 141.776 343.652 141.37C344.394 140.95 345.192 140.74 346.046 140.74ZM356.254 142.63C356.66 142.098 357.213 141.65 357.913 141.286C358.613 140.922 359.404 140.74 360.286 140.74C361.294 140.74 362.211 140.992 363.037 141.496C363.877 141.986 364.535 142.679 365.011 143.575C365.487 144.471 365.725 145.5 365.725 146.662C365.725 147.824 365.487 148.867 365.011 149.791C364.535 150.701 363.877 151.415 363.037 151.933C362.211 152.437 361.294 152.689 360.286 152.689C359.404 152.689 358.62 152.514 357.934 152.164C357.248 151.8 356.688 151.352 356.254 150.82V158.002H353.86V140.929H356.254V142.63ZM363.289 146.662C363.289 145.864 363.121 145.178 362.785 144.604C362.463 144.016 362.029 143.575 361.483 143.281C360.951 142.973 360.377 142.819 359.761 142.819C359.159 142.819 358.585 142.973 358.039 143.281C357.507 143.589 357.073 144.037 356.737 144.625C356.415 145.213 356.254 145.906 356.254 146.704C356.254 147.502 356.415 148.202 356.737 148.804C357.073 149.392 357.507 149.84 358.039 150.148C358.585 150.456 359.159 150.61 359.761 150.61C360.377 150.61 360.951 150.456 361.483 150.148C362.029 149.826 362.463 149.364 362.785 148.762C363.121 148.16 363.289 147.46 363.289 146.662ZM370.486 136.96V152.5H368.092V136.96H370.486ZM384.234 146.431C384.234 146.865 384.206 147.257 384.15 147.607H375.309C375.379 148.531 375.722 149.273 376.338 149.833C376.954 150.393 377.71 150.673 378.606 150.673C379.894 150.673 380.804 150.134 381.336 149.056H383.919C383.569 150.12 382.932 150.995 382.008 151.681C381.098 152.353 379.964 152.689 378.606 152.689C377.5 152.689 376.506 152.444 375.624 151.954C374.756 151.45 374.07 150.75 373.566 149.854C373.076 148.944 372.831 147.894 372.831 146.704C372.831 145.514 373.069 144.471 373.545 143.575C374.035 142.665 374.714 141.965 375.582 141.475C376.464 140.985 377.472 140.74 378.606 140.74C379.698 140.74 380.671 140.978 381.525 141.454C382.379 141.93 383.044 142.602 383.52 143.47C383.996 144.324 384.234 145.311 384.234 146.431ZM381.735 145.675C381.721 144.793 381.406 144.086 380.79 143.554C380.174 143.022 379.411 142.756 378.501 142.756C377.675 142.756 376.968 143.022 376.38 143.554C375.792 144.072 375.442 144.779 375.33 145.675H381.735ZM389.383 142.882V149.287C389.383 149.721 389.481 150.036 389.677 150.232C389.887 150.414 390.237 150.505 390.727 150.505H392.197V152.5H390.307C389.229 152.5 388.403 152.248 387.829 151.744C387.255 151.24 386.968 150.421 386.968 149.287V142.882H385.603V140.929H386.968V138.052H389.383V140.929H392.197V142.882H389.383ZM405.009 146.431C405.009 146.865 404.981 147.257 404.925 147.607H396.084C396.154 148.531 396.497 149.273 397.113 149.833C397.729 150.393 398.485 150.673 399.381 150.673C400.669 150.673 401.579 150.134 402.111 149.056H404.694C404.344 150.12 403.707 150.995 402.783 151.681C401.873 152.353 400.739 152.689 399.381 152.689C398.275 152.689 397.281 152.444 396.399 151.954C395.531 151.45 394.845 150.75 394.341 149.854C393.851 148.944 393.606 147.894 393.606 146.704C393.606 145.514 393.844 144.471 394.32 143.575C394.81 142.665 395.489 141.965 396.357 141.475C397.239 140.985 398.247 140.74 399.381 140.74C400.473 140.74 401.446 140.978 402.3 141.454C403.154 141.93 403.819 142.602 404.295 143.47C404.771 144.324 405.009 145.311 405.009 146.431ZM402.51 145.675C402.496 144.793 402.181 144.086 401.565 143.554C400.949 143.022 400.186 142.756 399.276 142.756C398.45 142.756 397.743 143.022 397.155 143.554C396.567 144.072 396.217 144.779 396.105 145.675H402.51ZM410.368 137.905L410.095 148.09H408.1L407.827 137.905H410.368ZM409.171 152.647C408.737 152.647 408.373 152.5 408.079 152.206C407.785 151.912 407.638 151.548 407.638 151.114C407.638 150.68 407.785 150.316 408.079 150.022C408.373 149.728 408.737 149.581 409.171 149.581C409.591 149.581 409.948 149.728 410.242 150.022C410.536 150.316 410.683 150.68 410.683 151.114C410.683 151.548 410.536 151.912 410.242 152.206C409.948 152.5 409.591 152.647 409.171 152.647Z" fill="#212427"/>
<path d="M215.881 176.136L213.457 184.5H212.233L210.289 177.768L208.273 184.5L207.061 184.512L204.721 176.136H205.885L207.709 183.228L209.725 176.136H210.949L212.869 183.204L214.705 176.136H215.881ZM220.34 177.804C220.836 177.804 221.284 177.912 221.684 178.128C222.084 178.336 222.396 178.652 222.62 179.076C222.852 179.5 222.968 180.016 222.968 180.624V184.5H221.888V180.78C221.888 180.124 221.724 179.624 221.396 179.28C221.068 178.928 220.62 178.752 220.052 178.752C219.476 178.752 219.016 178.932 218.672 179.292C218.336 179.652 218.168 180.176 218.168 180.864V184.5H217.076V175.62H218.168V178.86C218.384 178.524 218.68 178.264 219.056 178.08C219.44 177.896 219.868 177.804 220.34 177.804ZM224.344 181.188C224.344 180.516 224.48 179.928 224.752 179.424C225.024 178.912 225.396 178.516 225.868 178.236C226.348 177.956 226.88 177.816 227.464 177.816C228.04 177.816 228.54 177.94 228.964 178.188C229.388 178.436 229.704 178.748 229.912 179.124V177.924H231.016V184.5H229.912V183.276C229.696 183.66 229.372 183.98 228.94 184.236C228.516 184.484 228.02 184.608 227.452 184.608C226.868 184.608 226.34 184.464 225.868 184.176C225.396 183.888 225.024 183.484 224.752 182.964C224.48 182.444 224.344 181.852 224.344 181.188ZM229.912 181.2C229.912 180.704 229.812 180.272 229.612 179.904C229.412 179.536 229.14 179.256 228.796 179.064C228.46 178.864 228.088 178.764 227.68 178.764C227.272 178.764 226.9 178.86 226.564 179.052C226.228 179.244 225.96 179.524 225.76 179.892C225.56 180.26 225.46 180.692 225.46 181.188C225.46 181.692 225.56 182.132 225.76 182.508C225.96 182.876 226.228 183.16 226.564 183.36C226.9 183.552 227.272 183.648 227.68 183.648C228.088 183.648 228.46 183.552 228.796 183.36C229.14 183.16 229.412 182.876 229.612 182.508C229.812 182.132 229.912 181.696 229.912 181.2ZM234.194 178.824V182.7C234.194 183.02 234.262 183.248 234.398 183.384C234.534 183.512 234.77 183.576 235.105 183.576H235.91V184.5H234.926C234.318 184.5 233.862 184.36 233.558 184.08C233.254 183.8 233.102 183.34 233.102 182.7V178.824H232.25V177.924H233.102V176.268H234.194V177.924H235.91V178.824H234.194ZM242.76 184.608C242.256 184.608 241.804 184.524 241.404 184.356C241.004 184.18 240.688 183.94 240.456 183.636C240.224 183.324 240.096 182.968 240.072 182.568H241.2C241.232 182.896 241.384 183.164 241.656 183.372C241.936 183.58 242.3 183.684 242.748 183.684C243.164 183.684 243.492 183.592 243.732 183.408C243.972 183.224 244.092 182.992 244.092 182.712C244.092 182.424 243.964 182.212 243.708 182.076C243.452 181.932 243.056 181.792 242.52 181.656C242.032 181.528 241.632 181.4 241.32 181.272C241.016 181.136 240.752 180.94 240.528 180.684C240.312 180.42 240.204 180.076 240.204 179.652C240.204 179.316 240.304 179.008 240.504 178.728C240.704 178.448 240.988 178.228 241.356 178.068C241.724 177.9 242.144 177.816 242.616 177.816C243.344 177.816 243.932 178 244.38 178.368C244.828 178.736 245.068 179.24 245.1 179.88H244.008C243.984 179.536 243.844 179.26 243.588 179.052C243.34 178.844 243.004 178.74 242.58 178.74C242.188 178.74 241.876 178.824 241.644 178.992C241.412 179.16 241.296 179.38 241.296 179.652C241.296 179.868 241.364 180.048 241.5 180.192C241.644 180.328 241.82 180.44 242.028 180.528C242.244 180.608 242.54 180.7 242.916 180.804C243.388 180.932 243.772 181.06 244.068 181.188C244.364 181.308 244.616 181.492 244.824 181.74C245.04 181.988 245.152 182.312 245.16 182.712C245.16 183.072 245.06 183.396 244.86 183.684C244.66 183.972 244.376 184.2 244.008 184.368C243.648 184.528 243.232 184.608 242.76 184.608ZM249.965 177.804C250.461 177.804 250.909 177.912 251.309 178.128C251.709 178.336 252.021 178.652 252.245 179.076C252.477 179.5 252.593 180.016 252.593 180.624V184.5H251.513V180.78C251.513 180.124 251.349 179.624 251.021 179.28C250.693 178.928 250.245 178.752 249.677 178.752C249.101 178.752 248.641 178.932 248.297 179.292C247.961 179.652 247.793 180.176 247.793 180.864V184.5H246.701V175.62H247.793V178.86C248.009 178.524 248.305 178.264 248.681 178.08C249.065 177.896 249.493 177.804 249.965 177.804ZM257.245 184.608C256.629 184.608 256.069 184.468 255.565 184.188C255.069 183.908 254.677 183.512 254.389 183C254.109 182.48 253.969 181.88 253.969 181.2C253.969 180.528 254.113 179.936 254.401 179.424C254.697 178.904 255.097 178.508 255.601 178.236C256.105 177.956 256.669 177.816 257.293 177.816C257.917 177.816 258.481 177.956 258.985 178.236C259.489 178.508 259.885 178.9 260.173 179.412C260.469 179.924 260.617 180.52 260.617 181.2C260.617 181.88 260.465 182.48 260.161 183C259.865 183.512 259.461 183.908 258.949 184.188C258.437 184.468 257.869 184.608 257.245 184.608ZM257.245 183.648C257.637 183.648 258.005 183.556 258.349 183.372C258.693 183.188 258.969 182.912 259.177 182.544C259.393 182.176 259.501 181.728 259.501 181.2C259.501 180.672 259.397 180.224 259.189 179.856C258.981 179.488 258.709 179.216 258.373 179.04C258.037 178.856 257.673 178.764 257.281 178.764C256.881 178.764 256.513 178.856 256.177 179.04C255.849 179.216 255.585 179.488 255.385 179.856C255.185 180.224 255.085 180.672 255.085 181.2C255.085 181.736 255.181 182.188 255.373 182.556C255.573 182.924 255.837 183.2 256.165 183.384C256.493 183.56 256.853 183.648 257.245 183.648ZM267.885 177.924V184.5H266.793V183.528C266.585 183.864 266.293 184.128 265.917 184.32C265.549 184.504 265.141 184.596 264.693 184.596C264.181 184.596 263.721 184.492 263.313 184.284C262.905 184.068 262.581 183.748 262.341 183.324C262.109 182.9 261.993 182.384 261.993 181.776V177.924H263.073V181.632C263.073 182.28 263.237 182.78 263.565 183.132C263.893 183.476 264.341 183.648 264.909 183.648C265.493 183.648 265.953 183.468 266.289 183.108C266.625 182.748 266.793 182.224 266.793 181.536V177.924H267.885ZM270.821 175.62V184.5H269.729V175.62H270.821ZM272.274 181.188C272.274 180.516 272.41 179.928 272.682 179.424C272.954 178.912 273.326 178.516 273.798 178.236C274.278 177.956 274.814 177.816 275.406 177.816C275.918 177.816 276.394 177.936 276.834 178.176C277.274 178.408 277.61 178.716 277.842 179.1V175.62H278.946V184.5H277.842V183.264C277.626 183.656 277.306 183.98 276.882 184.236C276.458 184.484 275.962 184.608 275.394 184.608C274.81 184.608 274.278 184.464 273.798 184.176C273.326 183.888 272.954 183.484 272.682 182.964C272.41 182.444 272.274 181.852 272.274 181.188ZM277.842 181.2C277.842 180.704 277.742 180.272 277.542 179.904C277.342 179.536 277.07 179.256 276.726 179.064C276.39 178.864 276.018 178.764 275.61 178.764C275.202 178.764 274.83 178.86 274.494 179.052C274.158 179.244 273.89 179.524 273.69 179.892C273.49 180.26 273.39 180.692 273.39 181.188C273.39 181.692 273.49 182.132 273.69 182.508C273.89 182.876 274.158 183.16 274.494 183.36C274.83 183.552 275.202 183.648 275.61 183.648C276.018 183.648 276.39 183.552 276.726 183.36C277.07 183.16 277.342 182.876 277.542 182.508C277.742 182.132 277.842 181.696 277.842 181.2ZM292.75 177.924L290.698 184.5H289.57L287.986 179.28L286.402 184.5H285.274L283.21 177.924H284.326L285.838 183.444L287.47 177.924H288.586L290.182 183.456L291.67 177.924H292.75ZM299.834 180.96C299.834 181.168 299.822 181.388 299.798 181.62H294.542C294.582 182.268 294.802 182.776 295.202 183.144C295.61 183.504 296.102 183.684 296.678 183.684C297.15 183.684 297.542 183.576 297.854 183.36C298.174 183.136 298.398 182.84 298.526 182.472H299.702C299.526 183.104 299.174 183.62 298.646 184.02C298.118 184.412 297.462 184.608 296.678 184.608C296.054 184.608 295.494 184.468 294.998 184.188C294.51 183.908 294.126 183.512 293.846 183C293.566 182.48 293.426 181.88 293.426 181.2C293.426 180.52 293.562 179.924 293.834 179.412C294.106 178.9 294.486 178.508 294.974 178.236C295.47 177.956 296.038 177.816 296.678 177.816C297.302 177.816 297.854 177.952 298.334 178.224C298.814 178.496 299.182 178.872 299.438 179.352C299.702 179.824 299.834 180.36 299.834 180.96ZM298.706 180.732C298.706 180.316 298.614 179.96 298.43 179.664C298.246 179.36 297.994 179.132 297.674 178.98C297.362 178.82 297.014 178.74 296.63 178.74C296.078 178.74 295.606 178.916 295.214 179.268C294.83 179.62 294.61 180.108 294.554 180.732H298.706ZM307.679 177.804C308.479 177.804 309.127 178.048 309.623 178.536C310.119 179.016 310.367 179.712 310.367 180.624V184.5H309.287V180.78C309.287 180.124 309.123 179.624 308.795 179.28C308.467 178.928 308.019 178.752 307.451 178.752C306.875 178.752 306.415 178.932 306.071 179.292C305.735 179.652 305.567 180.176 305.567 180.864V184.5H304.475V177.924H305.567V178.86C305.783 178.524 306.075 178.264 306.443 178.08C306.819 177.896 307.231 177.804 307.679 177.804ZM311.743 181.188C311.743 180.516 311.879 179.928 312.151 179.424C312.423 178.912 312.795 178.516 313.267 178.236C313.747 177.956 314.279 177.816 314.863 177.816C315.439 177.816 315.939 177.94 316.363 178.188C316.787 178.436 317.103 178.748 317.311 179.124V177.924H318.415V184.5H317.311V183.276C317.095 183.66 316.771 183.98 316.339 184.236C315.915 184.484 315.419 184.608 314.851 184.608C314.267 184.608 313.739 184.464 313.267 184.176C312.795 183.888 312.423 183.484 312.151 182.964C311.879 182.444 311.743 181.852 311.743 181.188ZM317.311 181.2C317.311 180.704 317.211 180.272 317.011 179.904C316.811 179.536 316.539 179.256 316.195 179.064C315.859 178.864 315.487 178.764 315.079 178.764C314.671 178.764 314.299 178.86 313.963 179.052C313.627 179.244 313.359 179.524 313.159 179.892C312.959 180.26 312.859 180.692 312.859 181.188C312.859 181.692 312.959 182.132 313.159 182.508C313.359 182.876 313.627 183.16 313.963 183.36C314.299 183.552 314.671 183.648 315.079 183.648C315.487 183.648 315.859 183.552 316.195 183.36C316.539 183.16 316.811 182.876 317.011 182.508C317.211 182.132 317.311 181.696 317.311 181.2ZM328.168 177.804C328.68 177.804 329.136 177.912 329.536 178.128C329.936 178.336 330.252 178.652 330.484 179.076C330.716 179.5 330.832 180.016 330.832 180.624V184.5H329.752V180.78C329.752 180.124 329.588 179.624 329.26 179.28C328.94 178.928 328.504 178.752 327.952 178.752C327.384 178.752 326.932 178.936 326.596 179.304C326.26 179.664 326.092 180.188 326.092 180.876V184.5H325.012V180.78C325.012 180.124 324.848 179.624 324.52 179.28C324.2 178.928 323.764 178.752 323.212 178.752C322.644 178.752 322.192 178.936 321.856 179.304C321.52 179.664 321.352 180.188 321.352 180.876V184.5H320.26V177.924H321.352V178.872C321.568 178.528 321.856 178.264 322.216 178.08C322.584 177.896 322.988 177.804 323.428 177.804C323.98 177.804 324.468 177.928 324.892 178.176C325.316 178.424 325.632 178.788 325.84 179.268C326.024 178.804 326.328 178.444 326.752 178.188C327.176 177.932 327.648 177.804 328.168 177.804ZM338.623 180.96C338.623 181.168 338.611 181.388 338.587 181.62H333.331C333.371 182.268 333.591 182.776 333.991 183.144C334.399 183.504 334.891 183.684 335.467 183.684C335.939 183.684 336.331 183.576 336.643 183.36C336.963 183.136 337.187 182.84 337.315 182.472H338.491C338.315 183.104 337.963 183.62 337.435 184.02C336.907 184.412 336.251 184.608 335.467 184.608C334.843 184.608 334.283 184.468 333.787 184.188C333.299 183.908 332.915 183.512 332.635 183C332.355 182.48 332.215 181.88 332.215 181.2C332.215 180.52 332.351 179.924 332.623 179.412C332.895 178.9 333.275 178.508 333.763 178.236C334.259 177.956 334.827 177.816 335.467 177.816C336.091 177.816 336.643 177.952 337.123 178.224C337.603 178.496 337.971 178.872 338.227 179.352C338.491 179.824 338.623 180.36 338.623 180.96ZM337.495 180.732C337.495 180.316 337.403 179.96 337.219 179.664C337.035 179.36 336.783 179.132 336.463 178.98C336.151 178.82 335.803 178.74 335.419 178.74C334.867 178.74 334.395 178.916 334.003 179.268C333.619 179.62 333.399 180.108 333.343 180.732H337.495ZM344.596 178.824V182.7C344.596 183.02 344.664 183.248 344.8 183.384C344.936 183.512 345.172 183.576 345.508 183.576H346.312V184.5H345.328C344.72 184.5 344.264 184.36 343.96 184.08C343.656 183.8 343.504 183.34 343.504 182.7V178.824H342.652V177.924H343.504V176.268H344.596V177.924H346.312V178.824H344.596ZM350.899 177.804C351.395 177.804 351.843 177.912 352.243 178.128C352.643 178.336 352.955 178.652 353.179 179.076C353.411 179.5 353.527 180.016 353.527 180.624V184.5H352.447V180.78C352.447 180.124 352.283 179.624 351.955 179.28C351.627 178.928 351.179 178.752 350.611 178.752C350.035 178.752 349.575 178.932 349.231 179.292C348.895 179.652 348.727 180.176 348.727 180.864V184.5H347.635V175.62H348.727V178.86C348.943 178.524 349.239 178.264 349.615 178.08C349.999 177.896 350.427 177.804 350.899 177.804ZM355.875 176.856C355.667 176.856 355.491 176.784 355.347 176.64C355.203 176.496 355.131 176.32 355.131 176.112C355.131 175.904 355.203 175.728 355.347 175.584C355.491 175.44 355.667 175.368 355.875 175.368C356.075 175.368 356.243 175.44 356.379 175.584C356.523 175.728 356.595 175.904 356.595 176.112C356.595 176.32 356.523 176.496 356.379 176.64C356.243 176.784 356.075 176.856 355.875 176.856ZM356.403 177.924V184.5H355.311V177.924H356.403ZM360.592 184.608C360.088 184.608 359.636 184.524 359.236 184.356C358.836 184.18 358.52 183.94 358.288 183.636C358.056 183.324 357.928 182.968 357.904 182.568H359.032C359.064 182.896 359.216 183.164 359.488 183.372C359.768 183.58 360.132 183.684 360.58 183.684C360.996 183.684 361.324 183.592 361.564 183.408C361.804 183.224 361.924 182.992 361.924 182.712C361.924 182.424 361.796 182.212 361.54 182.076C361.284 181.932 360.888 181.792 360.352 181.656C359.864 181.528 359.464 181.4 359.152 181.272C358.848 181.136 358.584 180.94 358.36 180.684C358.144 180.42 358.036 180.076 358.036 179.652C358.036 179.316 358.136 179.008 358.336 178.728C358.536 178.448 358.82 178.228 359.188 178.068C359.556 177.9 359.976 177.816 360.448 177.816C361.176 177.816 361.764 178 362.212 178.368C362.66 178.736 362.9 179.24 362.932 179.88H361.84C361.816 179.536 361.676 179.26 361.42 179.052C361.172 178.844 360.836 178.74 360.412 178.74C360.02 178.74 359.708 178.824 359.476 178.992C359.244 179.16 359.128 179.38 359.128 179.652C359.128 179.868 359.196 180.048 359.332 180.192C359.476 180.328 359.652 180.44 359.86 180.528C360.076 180.608 360.372 180.7 360.748 180.804C361.22 180.932 361.604 181.06 361.9 181.188C362.196 181.308 362.448 181.492 362.656 181.74C362.872 181.988 362.984 182.312 362.992 182.712C362.992 183.072 362.892 183.396 362.692 183.684C362.492 183.972 362.208 184.2 361.84 184.368C361.48 184.528 361.064 184.608 360.592 184.608ZM369.065 178.824V182.7C369.065 183.02 369.133 183.248 369.269 183.384C369.405 183.512 369.641 183.576 369.977 183.576H370.781V184.5H369.797C369.189 184.5 368.733 184.36 368.429 184.08C368.125 183.8 367.973 183.34 367.973 182.7V178.824H367.121V177.924H367.973V176.268H369.065V177.924H370.781V178.824H369.065ZM378.104 180.96C378.104 181.168 378.092 181.388 378.068 181.62H372.812C372.852 182.268 373.072 182.776 373.472 183.144C373.88 183.504 374.372 183.684 374.948 183.684C375.42 183.684 375.812 183.576 376.124 183.36C376.444 183.136 376.668 182.84 376.796 182.472H377.972C377.796 183.104 377.444 183.62 376.916 184.02C376.388 184.412 375.732 184.608 374.948 184.608C374.324 184.608 373.764 184.468 373.268 184.188C372.78 183.908 372.396 183.512 372.116 183C371.836 182.48 371.696 181.88 371.696 181.2C371.696 180.52 371.832 179.924 372.104 179.412C372.376 178.9 372.756 178.508 373.244 178.236C373.74 177.956 374.308 177.816 374.948 177.816C375.572 177.816 376.124 177.952 376.604 178.224C377.084 178.496 377.452 178.872 377.708 179.352C377.972 179.824 378.104 180.36 378.104 180.96ZM376.976 180.732C376.976 180.316 376.884 179.96 376.7 179.664C376.516 179.36 376.264 179.132 375.944 178.98C375.632 178.82 375.284 178.74 374.9 178.74C374.348 178.74 373.876 178.916 373.484 179.268C373.1 179.62 372.88 180.108 372.824 180.732H376.976ZM381.873 184.608C381.369 184.608 380.917 184.524 380.517 184.356C380.117 184.18 379.801 183.94 379.569 183.636C379.337 183.324 379.209 182.968 379.185 182.568H380.313C380.345 182.896 380.497 183.164 380.769 183.372C381.049 183.58 381.413 183.684 381.861 183.684C382.277 183.684 382.605 183.592 382.845 183.408C383.085 183.224 383.205 182.992 383.205 182.712C383.205 182.424 383.077 182.212 382.821 182.076C382.565 181.932 382.169 181.792 381.633 181.656C381.145 181.528 380.745 181.4 380.433 181.272C380.129 181.136 379.865 180.94 379.641 180.684C379.425 180.42 379.317 180.076 379.317 179.652C379.317 179.316 379.417 179.008 379.617 178.728C379.817 178.448 380.101 178.228 380.469 178.068C380.837 177.9 381.257 177.816 381.729 177.816C382.457 177.816 383.045 178 383.493 178.368C383.941 178.736 384.181 179.24 384.213 179.88H383.121C383.097 179.536 382.957 179.26 382.701 179.052C382.453 178.844 382.117 178.74 381.693 178.74C381.301 178.74 380.989 178.824 380.757 178.992C380.525 179.16 380.409 179.38 380.409 179.652C380.409 179.868 380.477 180.048 380.613 180.192C380.757 180.328 380.933 180.44 381.141 180.528C381.357 180.608 381.653 180.7 382.029 180.804C382.501 180.932 382.885 181.06 383.181 181.188C383.477 181.308 383.729 181.492 383.937 181.74C384.153 181.988 384.265 182.312 384.273 182.712C384.273 183.072 384.173 183.396 383.973 183.684C383.773 183.972 383.489 184.2 383.121 184.368C382.761 184.528 382.345 184.608 381.873 184.608ZM387.147 178.824V182.7C387.147 183.02 387.215 183.248 387.351 183.384C387.487 183.512 387.723 183.576 388.059 183.576H388.863V184.5H387.879C387.271 184.5 386.815 184.36 386.511 184.08C386.207 183.8 386.055 183.34 386.055 182.7V178.824H385.203V177.924H386.055V176.268H387.147V177.924H388.863V178.824H387.147ZM392.322 176.028C393.114 176.028 393.754 176.252 394.242 176.7C394.73 177.148 394.974 177.748 394.974 178.5C394.974 179.34 394.714 179.964 394.194 180.372C393.674 180.772 392.97 180.972 392.082 180.972L392.046 182.112H391.098L391.05 180.216H391.398C392.19 180.216 392.81 180.096 393.258 179.856C393.706 179.616 393.93 179.164 393.93 178.5C393.93 178.02 393.786 177.64 393.498 177.36C393.21 177.08 392.822 176.94 392.334 176.94C391.838 176.94 391.446 177.076 391.158 177.348C390.878 177.612 390.738 177.976 390.738 178.44H389.706C389.706 177.96 389.814 177.54 390.03 177.18C390.246 176.812 390.55 176.528 390.942 176.328C391.342 176.128 391.802 176.028 392.322 176.028ZM391.566 184.572C391.358 184.572 391.182 184.5 391.038 184.356C390.894 184.212 390.822 184.036 390.822 183.828C390.822 183.62 390.894 183.444 391.038 183.3C391.182 183.156 391.358 183.084 391.566 183.084C391.766 183.084 391.934 183.156 392.07 183.3C392.214 183.444 392.286 183.62 392.286 183.828C392.286 184.036 392.214 184.212 392.07 184.356C391.934 184.5 391.766 184.572 391.566 184.572Z" fill="#212427"/>
<g clip-path="url(#clip1_871_20474)">
<path opacity="0.25" d="M194.324 217.742V223.916C194.324 224.784 194.534 225.428 194.954 225.848C195.383 226.268 195.976 226.478 196.732 226.478C197.479 226.478 198.062 226.268 198.482 225.848C198.911 225.428 199.126 224.784 199.126 223.916V217.742H200.4V223.902C200.4 224.714 200.237 225.4 199.91 225.96C199.583 226.511 199.14 226.921 198.58 227.192C198.029 227.463 197.409 227.598 196.718 227.598C196.027 227.598 195.402 227.463 194.842 227.192C194.291 226.921 193.853 226.511 193.526 225.96C193.209 225.4 193.05 224.714 193.05 223.902V217.742H194.324ZM206.263 219.688C207.197 219.688 207.953 219.973 208.531 220.542C209.11 221.102 209.399 221.914 209.399 222.978V227.5H208.139V223.16C208.139 222.395 207.948 221.811 207.565 221.41C207.183 220.999 206.66 220.794 205.997 220.794C205.325 220.794 204.789 221.004 204.387 221.424C203.995 221.844 203.799 222.455 203.799 223.258V227.5H202.525V219.828H203.799V220.92C204.051 220.528 204.392 220.225 204.821 220.01C205.26 219.795 205.741 219.688 206.263 219.688ZM213.034 220.878V225.4C213.034 225.773 213.114 226.039 213.272 226.198C213.431 226.347 213.706 226.422 214.098 226.422H215.036V227.5H213.888C213.179 227.5 212.647 227.337 212.292 227.01C211.938 226.683 211.76 226.147 211.76 225.4V220.878H210.766V219.828H211.76V217.896H213.034V219.828H215.036V220.878H213.034ZM217.238 218.582C216.995 218.582 216.79 218.498 216.622 218.33C216.454 218.162 216.37 217.957 216.37 217.714C216.37 217.471 216.454 217.266 216.622 217.098C216.79 216.93 216.995 216.846 217.238 216.846C217.471 216.846 217.667 216.93 217.826 217.098C217.994 217.266 218.078 217.471 218.078 217.714C218.078 217.957 217.994 218.162 217.826 218.33C217.667 218.498 217.471 218.582 217.238 218.582ZM217.854 219.828V227.5H216.58V219.828H217.854ZM221.579 220.878V225.4C221.579 225.773 221.659 226.039 221.817 226.198C221.976 226.347 222.251 226.422 222.643 226.422H223.581V227.5H222.433C221.724 227.5 221.192 227.337 220.837 227.01C220.483 226.683 220.305 226.147 220.305 225.4V220.878H219.311V219.828H220.305V217.896H221.579V219.828H223.581V220.878H221.579ZM226.399 217.14V227.5H225.125V217.14H226.399ZM235.57 223.37C235.57 223.613 235.556 223.869 235.528 224.14H229.396C229.443 224.896 229.7 225.489 230.166 225.918C230.642 226.338 231.216 226.548 231.888 226.548C232.439 226.548 232.896 226.422 233.26 226.17C233.634 225.909 233.895 225.563 234.044 225.134H235.416C235.211 225.871 234.8 226.473 234.184 226.94C233.568 227.397 232.803 227.626 231.888 227.626C231.16 227.626 230.507 227.463 229.928 227.136C229.359 226.809 228.911 226.347 228.584 225.75C228.258 225.143 228.094 224.443 228.094 223.65C228.094 222.857 228.253 222.161 228.57 221.564C228.888 220.967 229.331 220.509 229.9 220.192C230.479 219.865 231.142 219.702 231.888 219.702C232.616 219.702 233.26 219.861 233.82 220.178C234.38 220.495 234.81 220.934 235.108 221.494C235.416 222.045 235.57 222.67 235.57 223.37ZM234.254 223.104C234.254 222.619 234.147 222.203 233.932 221.858C233.718 221.503 233.424 221.237 233.05 221.06C232.686 220.873 232.28 220.78 231.832 220.78C231.188 220.78 230.638 220.985 230.18 221.396C229.732 221.807 229.476 222.376 229.41 223.104H234.254ZM236.776 223.636C236.776 222.852 236.934 222.166 237.252 221.578C237.569 220.981 238.003 220.519 238.554 220.192C239.114 219.865 239.739 219.702 240.43 219.702C241.027 219.702 241.582 219.842 242.096 220.122C242.609 220.393 243.001 220.752 243.272 221.2V217.14H244.56V227.5H243.272V226.058C243.02 226.515 242.646 226.893 242.152 227.192C241.657 227.481 241.078 227.626 240.416 227.626C239.734 227.626 239.114 227.458 238.554 227.122C238.003 226.786 237.569 226.315 237.252 225.708C236.934 225.101 236.776 224.411 236.776 223.636ZM243.272 223.65C243.272 223.071 243.155 222.567 242.922 222.138C242.688 221.709 242.371 221.382 241.97 221.158C241.578 220.925 241.144 220.808 240.668 220.808C240.192 220.808 239.758 220.92 239.366 221.144C238.974 221.368 238.661 221.695 238.428 222.124C238.194 222.553 238.078 223.057 238.078 223.636C238.078 224.224 238.194 224.737 238.428 225.176C238.661 225.605 238.974 225.937 239.366 226.17C239.758 226.394 240.192 226.506 240.668 226.506C241.144 226.506 241.578 226.394 241.97 226.17C242.371 225.937 242.688 225.605 242.922 225.176C243.155 224.737 243.272 224.229 243.272 223.65ZM251.999 220.878V225.4C251.999 225.773 252.079 226.039 252.237 226.198C252.396 226.347 252.671 226.422 253.063 226.422H254.001V227.5H252.853C252.144 227.5 251.612 227.337 251.257 227.01C250.903 226.683 250.725 226.147 250.725 225.4V220.878H249.731V219.828H250.725V217.896H251.999V219.828H254.001V220.878H251.999ZM262.545 223.37C262.545 223.613 262.531 223.869 262.503 224.14H256.371C256.417 224.896 256.674 225.489 257.141 225.918C257.617 226.338 258.191 226.548 258.863 226.548C259.413 226.548 259.871 226.422 260.235 226.17C260.608 225.909 260.869 225.563 261.019 225.134H262.391C262.185 225.871 261.775 226.473 261.159 226.94C260.543 227.397 259.777 227.626 258.863 227.626C258.135 227.626 257.481 227.463 256.903 227.136C256.333 226.809 255.885 226.347 255.559 225.75C255.232 225.143 255.069 224.443 255.069 223.65C255.069 222.857 255.227 222.161 255.545 221.564C255.862 220.967 256.305 220.509 256.875 220.192C257.453 219.865 258.116 219.702 258.863 219.702C259.591 219.702 260.235 219.861 260.795 220.178C261.355 220.495 261.784 220.934 262.083 221.494C262.391 222.045 262.545 222.67 262.545 223.37ZM261.229 223.104C261.229 222.619 261.121 222.203 260.907 221.858C260.692 221.503 260.398 221.237 260.025 221.06C259.661 220.873 259.255 220.78 258.807 220.78C258.163 220.78 257.612 220.985 257.155 221.396C256.707 221.807 256.45 222.376 256.385 223.104H261.229ZM266.942 227.626C266.354 227.626 265.827 227.528 265.36 227.332C264.894 227.127 264.525 226.847 264.254 226.492C263.984 226.128 263.834 225.713 263.806 225.246H265.122C265.16 225.629 265.337 225.941 265.654 226.184C265.981 226.427 266.406 226.548 266.928 226.548C267.414 226.548 267.796 226.441 268.076 226.226C268.356 226.011 268.496 225.741 268.496 225.414C268.496 225.078 268.347 224.831 268.048 224.672C267.75 224.504 267.288 224.341 266.662 224.182C266.093 224.033 265.626 223.883 265.262 223.734C264.908 223.575 264.6 223.347 264.338 223.048C264.086 222.74 263.96 222.339 263.96 221.844C263.96 221.452 264.077 221.093 264.31 220.766C264.544 220.439 264.875 220.183 265.304 219.996C265.734 219.8 266.224 219.702 266.774 219.702C267.624 219.702 268.31 219.917 268.832 220.346C269.355 220.775 269.635 221.363 269.672 222.11H268.398C268.37 221.709 268.207 221.387 267.908 221.144C267.619 220.901 267.227 220.78 266.732 220.78C266.275 220.78 265.911 220.878 265.64 221.074C265.37 221.27 265.234 221.527 265.234 221.844C265.234 222.096 265.314 222.306 265.472 222.474C265.64 222.633 265.846 222.763 266.088 222.866C266.34 222.959 266.686 223.067 267.124 223.188C267.675 223.337 268.123 223.487 268.468 223.636C268.814 223.776 269.108 223.991 269.35 224.28C269.602 224.569 269.733 224.947 269.742 225.414C269.742 225.834 269.626 226.212 269.392 226.548C269.159 226.884 268.828 227.15 268.398 227.346C267.978 227.533 267.493 227.626 266.942 227.626ZM273.095 220.878V225.4C273.095 225.773 273.174 226.039 273.333 226.198C273.492 226.347 273.767 226.422 274.159 226.422H275.097V227.5H273.949C273.24 227.5 272.708 227.337 272.353 227.01C271.998 226.683 271.821 226.147 271.821 225.4V220.878H270.827V219.828H271.821V217.896H273.095V219.828H275.097V220.878H273.095Z" fill="#212427"/>
</g>
<rect x="180.5" y="207" width="239" height="31" rx="5.5" stroke="black" stroke-opacity="0.15"/>
<g filter="url(#filter0_d_871_20474)">
<rect x="268.5" y="254.5" width="63" height="32" rx="6" fill="#388AEB" shape-rendering="crispEdges"/>
<rect x="269" y="255" width="62" height="31" rx="5.5" stroke="#388AEB" shape-rendering="crispEdges"/>
<path d="M293.25 275.5H291.976L286.852 267.73V275.5H285.578V265.728H286.852L291.976 273.484V265.728H293.25V275.5ZM302.422 271.37C302.422 271.613 302.408 271.869 302.38 272.14H296.248C296.294 272.896 296.551 273.489 297.018 273.918C297.494 274.338 298.068 274.548 298.74 274.548C299.29 274.548 299.748 274.422 300.112 274.17C300.485 273.909 300.746 273.563 300.896 273.134H302.268C302.062 273.871 301.652 274.473 301.036 274.94C300.42 275.397 299.654 275.626 298.74 275.626C298.012 275.626 297.358 275.463 296.78 275.136C296.21 274.809 295.762 274.347 295.436 273.75C295.109 273.143 294.946 272.443 294.946 271.65C294.946 270.857 295.104 270.161 295.422 269.564C295.739 268.967 296.182 268.509 296.752 268.192C297.33 267.865 297.993 267.702 298.74 267.702C299.468 267.702 300.112 267.861 300.672 268.178C301.232 268.495 301.661 268.934 301.96 269.494C302.268 270.045 302.422 270.67 302.422 271.37ZM301.106 271.104C301.106 270.619 300.998 270.203 300.784 269.858C300.569 269.503 300.275 269.237 299.902 269.06C299.538 268.873 299.132 268.78 298.684 268.78C298.04 268.78 297.489 268.985 297.032 269.396C296.584 269.807 296.327 270.376 296.262 271.104H301.106ZM308.107 275.5L306.287 272.644L304.537 275.5H303.207L305.685 271.692L303.207 267.828H304.649L306.469 270.67L308.205 267.828H309.535L307.071 271.622L309.549 275.5H308.107ZM312.357 268.878V273.4C312.357 273.773 312.436 274.039 312.595 274.198C312.753 274.347 313.029 274.422 313.421 274.422H314.359V275.5H313.211C312.501 275.5 311.969 275.337 311.615 275.01C311.26 274.683 311.083 274.147 311.083 273.4V268.878H310.089V267.828H311.083V265.896H312.357V267.828H314.359V268.878H312.357Z" fill="#FDFCFA"/>
</g>
</g>
<rect x="0.5" y="0.5" width="599" height="359" rx="11.5" stroke="#388AEB" stroke-dasharray="4 4"/>
<defs>
<filter id="filter0_d_871_20474" x="268.5" y="254.5" width="63" height="34" filterUnits="userSpaceOnUse" color-interpolation-filters="sRGB">
<feFlood flood-opacity="0" result="BackgroundImageFix"/>
<feColorMatrix in="SourceAlpha" type="matrix" values="0 0 0 0 0 0 0 0 0 0 0 0 0 0 0 0 0 0 127 0" result="hardAlpha"/>
<feOffset dy="2"/>
<feComposite in2="hardAlpha" operator="out"/>
<feColorMatrix type="matrix" values="0 0 0 0 0 0 0 0 0 0 0 0 0 0 0 0 0 0 0.02 0"/>
<feBlend mode="normal" in2="BackgroundImageFix" result="effect1_dropShadow_871_20474"/>
<feBlend mode="normal" in="SourceGraphic" in2="effect1_dropShadow_871_20474" result="shape"/>
</filter>
<clipPath id="clip0_871_20474">
<rect width="600" height="360" rx="12" fill="white"/>
</clipPath>
<clipPath id="clip1_871_20474">
<rect x="180" y="206.5" width="240" height="32" rx="6" fill="white"/>
</clipPath>
</defs>
</svg>
