<svg width="600" height="360" viewBox="0 0 600 360" fill="none" xmlns="http://www.w3.org/2000/svg">
<g clip-path="url(#clip0_871_20536)">
<rect width="600" height="360" rx="12" fill="#FDFCFA"/>
<rect width="600" height="56" fill="#D6E6F7"/>
<path d="M71.2944 35.103C71.2944 38.9482 68.9572 41.5116 65.4028 41.5116C63.6364 41.5116 62.247 40.8008 61.3207 39.5298V41.3716H57.6909V23.8906H61.3207V30.5685C62.2146 29.2976 63.6041 28.5867 65.3274 28.5867C68.8818 28.5759 71.2944 31.1932 71.2944 35.103ZM67.6108 34.9845C67.6108 32.9596 66.3399 31.4948 64.4765 31.4948C62.6132 31.4948 61.3207 32.9273 61.3207 34.9845C61.3207 37.0741 62.6132 38.4958 64.4765 38.4958C66.3399 38.5066 67.6108 37.0633 67.6108 34.9845Z" fill="#314F8F"/>
<path d="M86.5888 35.0386C86.5888 38.9054 83.853 41.5226 79.8032 41.5226C75.7211 41.5226 72.9961 38.9054 72.9961 35.0386C72.9961 31.1504 75.7319 28.5762 79.8032 28.5762C83.8638 28.5762 86.5888 31.1504 86.5888 35.0386ZM76.6366 35.0817C76.6366 37.1497 77.9076 38.5715 79.7925 38.5715C81.6558 38.5715 82.9483 37.1605 82.9483 35.0817C82.9483 33.0137 81.6558 31.592 79.7925 31.592C77.9183 31.592 76.6366 33.0137 76.6366 35.0817Z" fill="#314F8F"/>
<path d="M97.2413 40.6606C96.2935 41.2099 95.1195 41.5331 93.9454 41.5331C91.6836 41.5331 89.9603 40.2406 89.9603 37.6233V31.7532H88.1938V29.2544H89.9603V25.7646H93.5685V29.2544H97.0151V31.7747H93.5685V37.0094C93.5685 38.0649 94.0101 38.4957 94.7963 38.4742C95.2595 38.4742 95.8303 38.3018 96.4873 38.011L97.2413 40.6606Z" fill="#314F8F"/>
<path d="M107.689 40.6606C106.741 41.2099 105.567 41.5331 104.393 41.5331C102.131 41.5331 100.408 40.2406 100.408 37.6233V31.7532H98.6416V29.2544H100.408V25.7646H104.016V29.2544H107.463V31.7747H104.016V37.0094C104.016 38.0649 104.458 38.4957 105.244 38.4742C105.707 38.4742 106.278 38.3018 106.935 38.011L107.689 40.6606Z" fill="#314F8F"/>
<path d="M121.853 36.1373H112.751C113.171 37.7422 114.399 38.6792 116.026 38.6792C117.232 38.6792 118.363 38.2161 119.235 37.3329L121.142 39.2608C119.871 40.6718 118.008 41.5012 115.713 41.5012C111.653 41.5012 109.089 38.9054 109.089 35.0602C109.089 31.1504 111.75 28.5547 115.616 28.5547C120.086 28.5762 122.165 31.5166 121.853 36.1373ZM118.46 33.9939C118.417 32.3245 117.329 31.2366 115.649 31.2366C114.044 31.2366 112.967 32.3137 112.676 33.9939H118.46Z" fill="#314F8F"/>
<path d="M133.894 29.9433L132.645 32.4206C131.255 31.6451 129.834 31.1928 128.778 31.1928C127.927 31.1928 127.313 31.4728 127.313 32.1406C127.313 34.047 134.013 33.0884 133.991 37.5691C133.991 40.1648 131.708 41.5327 128.832 41.5327C126.786 41.5327 124.771 40.9188 123.339 39.7663L124.524 37.3106C125.848 38.323 127.539 38.8939 128.94 38.8939C129.855 38.8939 130.545 38.5923 130.545 37.9029C130.545 35.878 123.974 36.9551 123.974 32.5068C123.974 29.8895 126.215 28.5431 128.972 28.5431C130.695 28.5324 132.483 29.0494 133.894 29.9433Z" fill="#314F8F"/>
<path d="M144.676 40.6606C143.728 41.2099 142.554 41.5331 141.38 41.5331C139.118 41.5331 137.395 40.2406 137.395 37.6233V31.7532H135.628V29.2544H137.395V25.7646H141.003V29.2544H144.45V31.7747H141.003V37.0094C141.003 38.0649 141.445 38.4957 142.231 38.4742C142.694 38.4742 143.265 38.3018 143.922 38.011L144.676 40.6606Z" fill="#314F8F"/>
<path d="M148.467 40.6926C148.467 41.1881 148.09 41.5651 147.638 41.5651C147.185 41.5651 146.841 41.1881 146.841 40.6926C146.841 40.2295 147.196 39.8633 147.638 39.8633C148.079 39.8633 148.467 40.2187 148.467 40.6926Z" fill="#314F8F"/>
<path d="M159.453 38.9481C158.419 40.6391 156.664 41.4038 154.553 41.4038C152.119 41.4038 150.492 39.8744 150.492 37.7956C150.492 35.7491 152.237 34.4997 155.059 34.4997H159.421V33.2934C159.4 31.2254 158.193 29.976 155.748 29.976C154.219 29.976 152.916 30.5899 151.623 31.5809L151.16 30.8269C152.625 29.7714 154.036 29.082 155.899 29.082C158.796 29.082 160.38 30.6869 160.401 33.2288L160.444 41.3823H159.475L159.453 38.9481ZM159.453 37.3648V35.3614H155.167C152.765 35.3614 151.44 36.1908 151.44 37.7633C151.44 39.3897 152.689 40.4991 154.693 40.4991C156.976 40.4991 158.7 39.5189 159.453 37.3648Z" fill="#314F8F"/>
<path d="M165.604 25.5599C165.604 26.0553 165.227 26.4323 164.774 26.4323C164.333 26.4323 163.945 26.0553 163.945 25.5599C163.945 25.0967 164.322 24.709 164.774 24.709C165.227 24.709 165.604 25.086 165.604 25.5599ZM164.279 41.3822V29.1035H165.248V41.3822H164.279Z" fill="#314F8F"/>
<path d="M48.0291 28.0703H47.3506V30.623H48.0291V28.0703Z" fill="black"/>
<path d="M42.7412 39.0025L45.3047 39.218V37.6777H42.7412V39.0025Z" fill="black"/>
<path d="M34.0166 38.3023L36.58 38.507V37.7207H34.0166V38.3023Z" fill="black"/>
<path d="M35.2983 44.0005H31.4101C31.1193 44.0005 30.8823 43.7636 30.8823 43.4728V43.462C30.8823 42.3526 31.7871 41.4478 32.8965 41.4478H34.0166V38.292L36.5693 38.4859V42.7296C36.5801 43.4297 36.0092 44.0005 35.2983 44.0005Z" fill="#388AEB"/>
<path d="M44.0231 44.0007H47.9113C48.2021 44.0007 48.4391 43.7638 48.4391 43.4729V43.4622C48.4391 42.3528 47.5343 41.448 46.4249 41.448H45.3048V39.1431L42.7521 38.9492V42.719C42.7413 43.4299 43.3122 44.0007 44.0231 44.0007Z" fill="#388AEB"/>
<path d="M45.9292 37.7535H33.392C32.5842 37.7535 31.938 37.0965 31.938 36.2995V25.2917C31.938 21.705 34.8676 18.7754 38.4543 18.7754H40.8885C44.4752 18.7754 47.4048 21.705 47.4048 25.2917V36.2995C47.3941 37.0965 46.7263 37.7535 45.9292 37.7535Z" fill="#388AEB"/>
<path d="M31.141 28.0596C27.9313 28.0596 25.314 30.6769 25.314 33.8866V35.9977C24.5278 36.5147 24 37.3979 24 38.4103C24 39.7782 24.9694 40.9522 26.3049 41.2323C26.3696 41.243 26.4234 41.243 26.488 41.243C26.9189 41.243 27.2959 40.9415 27.382 40.5106C27.4251 40.2737 27.382 40.0259 27.2528 39.8321C27.1128 39.6274 26.9189 39.4874 26.6819 39.4443C26.1865 39.3474 25.8418 38.9058 25.8418 38.4103C25.8418 37.8287 26.3157 37.3548 26.8973 37.3548C27.3389 37.3548 27.7375 37.6348 27.8883 38.0334C27.9744 38.2595 28.1468 38.4426 28.3622 38.5396C28.5884 38.6365 28.8253 38.6473 29.0623 38.5611C29.5254 38.3888 29.7731 37.8503 29.59 37.3871C29.2885 36.5901 28.653 35.9869 27.8775 35.6961V33.8758C27.8775 32.0771 29.3531 30.6015 31.1518 30.6015H33.963V28.0488H31.141V28.0596Z" fill="#388AEB"/>
<path d="M55.3104 20.2722C55.3104 18.9043 54.341 17.7303 53.0055 17.4502C52.9408 17.4395 52.887 17.4395 52.8224 17.4395C52.3915 17.4395 52.0145 17.741 51.9284 18.1719C51.8853 18.4088 51.9284 18.6565 52.0576 18.8504C52.1976 19.0551 52.3915 19.1951 52.6285 19.2382C53.1239 19.3351 53.4686 19.7767 53.4686 20.2722C53.4686 20.8538 52.9947 21.3277 52.4131 21.3277C51.9715 21.3277 51.5729 21.0477 51.4222 20.6492C51.336 20.423 51.1637 20.2399 50.9482 20.1429C50.7328 20.046 50.4851 20.0352 50.2481 20.1214C49.785 20.2937 49.5373 20.8323 49.7204 21.2954C50.0219 22.0924 50.6574 22.6956 51.4329 22.9864V24.8067C51.4329 26.6054 49.9573 28.081 48.1586 28.081H48.0078V30.6337H48.1801C51.3898 30.6337 54.0071 28.0164 54.0071 24.8067V22.6956C54.7934 22.1678 55.3104 21.2846 55.3104 20.2722Z" fill="#388AEB"/>
<path d="M39.6608 36.2131C40.089 36.2131 40.4362 35.8659 40.4362 35.4376C40.4362 35.0093 40.089 34.6621 39.6608 34.6621C39.2325 34.6621 38.8853 35.0093 38.8853 35.4376C38.8853 35.8659 39.2325 36.2131 39.6608 36.2131Z" fill="#314F8F"/>
<path d="M43.4952 36.2131C43.9235 36.2131 44.2707 35.8659 44.2707 35.4376C44.2707 35.0093 43.9235 34.6621 43.4952 34.6621C43.0669 34.6621 42.7197 35.0093 42.7197 35.4376C42.7197 35.8659 43.0669 36.2131 43.4952 36.2131Z" fill="#314F8F"/>
<path d="M35.8263 36.2131C36.2546 36.2131 36.6018 35.8659 36.6018 35.4376C36.6018 35.0093 36.2546 34.6621 35.8263 34.6621C35.398 34.6621 35.0508 35.0093 35.0508 35.4376C35.0508 35.8659 35.398 36.2131 35.8263 36.2131Z" fill="#314F8F"/>
<path d="M47.8357 19.0979H46.5109C45.9185 16.4699 43.8505 14.3911 41.2224 13.8095V12.8509C41.2224 12.3878 40.8347 12 40.3715 12H38.9713C38.5082 12 38.1204 12.3878 38.1204 12.8509V13.8095C37.9696 13.9172 37.9266 14.0141 37.7865 14.0572C37.6142 14.1003 37.3665 14.1218 37.2157 14.0788C35.0184 14.8973 33.3382 16.7822 32.8212 19.1087H31.4964C31.0333 19.1087 30.6455 19.4965 30.6455 19.9596V21.3598C30.6455 21.823 31.0333 22.2107 31.4964 22.2107H47.8357C48.2988 22.2107 48.6866 21.823 48.6866 21.3598V19.9596C48.6758 19.4749 48.2988 19.0979 47.8357 19.0979Z" fill="#314F8F"/>
<path d="M38.1206 17.127V13.7881C37.819 13.8527 37.5066 13.9496 37.2158 14.0574L38.1206 17.127Z" fill="black"/>
<path d="M42.8596 23.3848H36.451C35.1585 23.3848 34.1138 24.4295 34.1138 25.722V29.2225C34.1138 30.515 35.1585 31.5598 36.451 31.5598H38.9714L42.0518 33.8109C42.3103 34.0048 42.6765 33.8216 42.6765 33.4985V31.5706H42.8489C44.1414 31.5706 45.1861 30.5258 45.1861 29.2333V25.7328C45.1969 24.4295 44.1521 23.3848 42.8596 23.3848Z" fill="white"/>
<path d="M37.0219 28.5335C36.4403 28.5335 35.9556 28.0596 35.9556 27.4672V26.5516C35.9556 25.97 36.4295 25.4854 37.0219 25.4854C37.6035 25.4854 38.0882 25.9593 38.0882 26.5516V27.4672C38.0774 28.0596 37.6035 28.5335 37.0219 28.5335Z" fill="black"/>
<path d="M42.2997 28.5335C42.8813 28.5335 43.366 28.0596 43.366 27.4672V26.5516C43.366 25.97 42.8921 25.4854 42.2997 25.4854C41.7181 25.4854 41.2334 25.9593 41.2334 26.5516V27.4672C41.2442 28.0596 41.7181 28.5335 42.2997 28.5335Z" fill="black"/>
<path d="M564 29C564.552 29 565 28.5523 565 28C565 27.4477 564.552 27 564 27C563.448 27 563 27.4477 563 28C563 28.5523 563.448 29 564 29Z" stroke="#212427" stroke-width="2" stroke-linecap="round" stroke-linejoin="round"/>
<path d="M571 29C571.552 29 572 28.5523 572 28C572 27.4477 571.552 27 571 27C570.448 27 570 27.4477 570 28C570 28.5523 570.448 29 571 29Z" stroke="#212427" stroke-width="2" stroke-linecap="round" stroke-linejoin="round"/>
<path d="M557 29C557.552 29 558 28.5523 558 28C558 27.4477 557.552 27 557 27C556.448 27 556 27.4477 556 28C556 28.5523 556.448 29 557 29Z" stroke="#212427" stroke-width="2" stroke-linecap="round" stroke-linejoin="round"/>
<g clip-path="url(#clip1_871_20536)">
<mask id="path-34-inside-1_871_20536" fill="white">
<path d="M24 72H564V112H24V72Z"/>
</mask>
<path d="M564 111H24V113H564V111Z" fill="black" fill-opacity="0.06" mask="url(#path-34-inside-1_871_20536)"/>
<g clip-path="url(#clip2_871_20536)">
<path d="M44.0002 98.6663C47.6821 98.6663 50.6668 95.6816 50.6668 91.9997C50.6668 88.3178 47.6821 85.333 44.0002 85.333C40.3183 85.333 37.3335 88.3178 37.3335 91.9997C37.3335 95.6816 40.3183 98.6663 44.0002 98.6663Z" stroke="#212427" stroke-width="1.33333" stroke-linecap="round" stroke-linejoin="round"/>
<path d="M42.6665 89.333L46.6665 91.9997L42.6665 94.6663V89.333Z" stroke="#212427" stroke-width="1.33333" stroke-linecap="round" stroke-linejoin="round"/>
</g>
<path d="M76.544 86.928V98H75.088V89.744L71.408 98H70.384L66.688 89.728V98H65.232V86.928H66.8L70.896 96.08L74.992 86.928H76.544ZM86.5653 89.232L81.2853 102.128H79.7812L81.5093 97.904L77.9733 89.232H79.5893L82.3413 96.336L85.0613 89.232H86.5653ZM95.8625 90.432H94.0225V98H92.5665V90.432H91.4305V89.232H92.5665V88.608C92.5665 87.6267 92.8172 86.912 93.3185 86.464C93.8305 86.0053 94.6465 85.776 95.7665 85.776V86.992C95.1265 86.992 94.6732 87.12 94.4065 87.376C94.1505 87.6213 94.0225 88.032 94.0225 88.608V89.232H95.8625V90.432ZM98.3121 87.808C98.0348 87.808 97.8001 87.712 97.6081 87.52C97.4161 87.328 97.3201 87.0933 97.3201 86.816C97.3201 86.5387 97.4161 86.304 97.6081 86.112C97.8001 85.92 98.0348 85.824 98.3121 85.824C98.5788 85.824 98.8028 85.92 98.9841 86.112C99.1761 86.304 99.2721 86.5387 99.2721 86.816C99.2721 87.0933 99.1761 87.328 98.9841 87.52C98.8028 87.712 98.5788 87.808 98.3121 87.808ZM99.0161 89.232V98H97.5601V89.232H99.0161ZM102.954 90.656C103.21 90.1547 103.572 89.7653 104.042 89.488C104.522 89.2107 105.103 89.072 105.786 89.072V90.576H105.402C103.77 90.576 102.954 91.4613 102.954 93.232V98H101.498V89.232H102.954V90.656ZM110.57 98.144C109.898 98.144 109.296 98.032 108.762 97.808C108.229 97.5733 107.808 97.2533 107.498 96.848C107.189 96.432 107.018 95.9573 106.986 95.424H108.49C108.533 95.8613 108.736 96.2187 109.098 96.496C109.472 96.7733 109.957 96.912 110.554 96.912C111.109 96.912 111.546 96.7893 111.866 96.544C112.186 96.2987 112.346 95.9893 112.346 95.616C112.346 95.232 112.176 94.9493 111.834 94.768C111.493 94.576 110.965 94.3893 110.25 94.208C109.6 94.0373 109.066 93.8667 108.65 93.696C108.245 93.5147 107.893 93.2533 107.594 92.912C107.306 92.56 107.162 92.1013 107.162 91.536C107.162 91.088 107.296 90.6773 107.562 90.304C107.829 89.9307 108.208 89.6373 108.698 89.424C109.189 89.2 109.749 89.088 110.378 89.088C111.349 89.088 112.133 89.3333 112.73 89.824C113.328 90.3147 113.648 90.9867 113.69 91.84H112.234C112.202 91.3813 112.016 91.0133 111.674 90.736C111.344 90.4587 110.896 90.32 110.33 90.32C109.808 90.32 109.392 90.432 109.082 90.656C108.773 90.88 108.618 91.1733 108.618 91.536C108.618 91.824 108.709 92.064 108.89 92.256C109.082 92.4373 109.317 92.5867 109.594 92.704C109.882 92.8107 110.277 92.9333 110.778 93.072C111.408 93.2427 111.92 93.4133 112.314 93.584C112.709 93.744 113.045 93.9893 113.322 94.32C113.61 94.6507 113.76 95.0827 113.77 95.616C113.77 96.096 113.637 96.528 113.37 96.912C113.104 97.296 112.725 97.6 112.234 97.824C111.754 98.0373 111.2 98.144 110.57 98.144ZM117.602 90.432V95.6C117.602 96.0267 117.692 96.3307 117.874 96.512C118.055 96.6827 118.37 96.768 118.818 96.768H119.89V98H118.578C117.767 98 117.159 97.8133 116.754 97.44C116.348 97.0667 116.146 96.4533 116.146 95.6V90.432H115.01V89.232H116.146V87.024H117.602V89.232H119.89V90.432H117.602ZM127.696 90.432V95.6C127.696 96.0267 127.786 96.3307 127.968 96.512C128.149 96.6827 128.464 96.768 128.911 96.768H129.984V98H128.672C127.861 98 127.253 97.8133 126.848 97.44C126.442 97.0667 126.24 96.4533 126.24 95.6V90.432H125.104V89.232H126.24V87.024H127.696V89.232H129.984V90.432H127.696ZM139.748 93.28C139.748 93.5573 139.732 93.8507 139.7 94.16H132.692C132.745 95.024 133.038 95.7013 133.572 96.192C134.116 96.672 134.772 96.912 135.54 96.912C136.169 96.912 136.692 96.768 137.108 96.48C137.534 96.1813 137.833 95.7867 138.004 95.296H139.572C139.337 96.1387 138.868 96.8267 138.164 97.36C137.46 97.8827 136.585 98.144 135.54 98.144C134.708 98.144 133.961 97.9573 133.3 97.584C132.649 97.2107 132.137 96.6827 131.764 96C131.39 95.3067 131.204 94.5067 131.204 93.6C131.204 92.6933 131.385 91.8987 131.748 91.216C132.11 90.5333 132.617 90.0107 133.268 89.648C133.929 89.2747 134.686 89.088 135.54 89.088C136.372 89.088 137.108 89.2693 137.748 89.632C138.388 89.9947 138.878 90.496 139.22 91.136C139.572 91.7653 139.748 92.48 139.748 93.28ZM138.244 92.976C138.244 92.4213 138.121 91.9467 137.876 91.552C137.63 91.1467 137.294 90.8427 136.868 90.64C136.452 90.4267 135.988 90.32 135.476 90.32C134.74 90.32 134.11 90.5547 133.588 91.024C133.076 91.4933 132.782 92.144 132.708 92.976H138.244ZM144.774 98.144C144.102 98.144 143.499 98.032 142.966 97.808C142.432 97.5733 142.011 97.2533 141.702 96.848C141.392 96.432 141.222 95.9573 141.19 95.424H142.694C142.736 95.8613 142.939 96.2187 143.302 96.496C143.675 96.7733 144.16 96.912 144.758 96.912C145.312 96.912 145.75 96.7893 146.07 96.544C146.39 96.2987 146.55 95.9893 146.55 95.616C146.55 95.232 146.379 94.9493 146.038 94.768C145.696 94.576 145.168 94.3893 144.454 94.208C143.803 94.0373 143.27 93.8667 142.854 93.696C142.448 93.5147 142.096 93.2533 141.798 92.912C141.51 92.56 141.366 92.1013 141.366 91.536C141.366 91.088 141.499 90.6773 141.766 90.304C142.032 89.9307 142.411 89.6373 142.902 89.424C143.392 89.2 143.952 89.088 144.582 89.088C145.552 89.088 146.336 89.3333 146.934 89.824C147.531 90.3147 147.851 90.9867 147.894 91.84H146.438C146.406 91.3813 146.219 91.0133 145.878 90.736C145.547 90.4587 145.099 90.32 144.534 90.32C144.011 90.32 143.595 90.432 143.286 90.656C142.976 90.88 142.822 91.1733 142.822 91.536C142.822 91.824 142.912 92.064 143.094 92.256C143.286 92.4373 143.52 92.5867 143.798 92.704C144.086 92.8107 144.48 92.9333 144.982 93.072C145.611 93.2427 146.123 93.4133 146.518 93.584C146.912 93.744 147.248 93.9893 147.526 94.32C147.814 94.6507 147.963 95.0827 147.974 95.616C147.974 96.096 147.84 96.528 147.574 96.912C147.307 97.296 146.928 97.6 146.438 97.824C145.958 98.0373 145.403 98.144 144.774 98.144ZM151.805 90.432V95.6C151.805 96.0267 151.896 96.3307 152.077 96.512C152.258 96.6827 152.573 96.768 153.021 96.768H154.093V98H152.781C151.97 98 151.362 97.8133 150.957 97.44C150.552 97.0667 150.349 96.4533 150.349 95.6V90.432H149.213V89.232H150.349V87.024H151.805V89.232H154.093V90.432H151.805Z" fill="#212427"/>
<circle cx="545" cy="92" r="6" stroke="black" stroke-opacity="0.06" stroke-width="2"/>
<path d="M545 86C546.187 86 547.347 86.3519 548.333 87.0112C549.32 87.6705 550.089 88.6075 550.543 89.7039C550.997 90.8003 551.116 92.0067 550.885 93.1705C550.653 94.3344 550.082 95.4035 549.243 96.2426C548.404 97.0818 547.334 97.6532 546.171 97.8847C545.007 98.1162 543.8 97.9974 542.704 97.5433C541.608 97.0892 540.67 96.3201 540.011 95.3334C539.352 94.3467 539 93.1867 539 92" stroke="#E7C200" stroke-width="2"/>
<mask id="path-41-inside-2_871_20536" fill="white">
<path d="M24 112H564V152H24V112Z"/>
</mask>
<path d="M24 112H564V152H24V112Z" fill="black" fill-opacity="0.04"/>
<path d="M564 151H24V153H564V151Z" fill="black" fill-opacity="0.06" mask="url(#path-41-inside-2_871_20536)"/>
<g opacity="0.25" clip-path="url(#clip3_871_20536)">
<path d="M44.0002 138.666C47.6821 138.666 50.6668 135.682 50.6668 132C50.6668 128.318 47.6821 125.333 44.0002 125.333C40.3183 125.333 37.3335 128.318 37.3335 132C37.3335 135.682 40.3183 138.666 44.0002 138.666Z" stroke="#212427" stroke-width="1.33333" stroke-linecap="round" stroke-linejoin="round"/>
<path d="M42.6665 129.333L46.6665 132L42.6665 134.666V129.333Z" stroke="#212427" stroke-width="1.33333" stroke-linecap="round" stroke-linejoin="round"/>
</g>
<path opacity="0.25" d="M76.544 126.928V138H75.088V129.744L71.408 138H70.384L66.688 129.728V138H65.232V126.928H66.8L70.896 136.08L74.992 126.928H76.544ZM86.5653 129.232L81.2853 142.128H79.7812L81.5093 137.904L77.9733 129.232H79.5893L82.3413 136.336L85.0613 129.232H86.5653ZM95.3985 138.144C94.7265 138.144 94.1238 138.032 93.5905 137.808C93.0572 137.573 92.6358 137.253 92.3265 136.848C92.0172 136.432 91.8465 135.957 91.8145 135.424H93.3185C93.3612 135.861 93.5638 136.219 93.9265 136.496C94.2998 136.773 94.7852 136.912 95.3825 136.912C95.9372 136.912 96.3745 136.789 96.6945 136.544C97.0145 136.299 97.1745 135.989 97.1745 135.616C97.1745 135.232 97.0038 134.949 96.6625 134.768C96.3212 134.576 95.7932 134.389 95.0785 134.208C94.4278 134.037 93.8945 133.867 93.4785 133.696C93.0732 133.515 92.7212 133.253 92.4225 132.912C92.1345 132.56 91.9905 132.101 91.9905 131.536C91.9905 131.088 92.1238 130.677 92.3905 130.304C92.6572 129.931 93.0358 129.637 93.5265 129.424C94.0172 129.2 94.5772 129.088 95.2065 129.088C96.1772 129.088 96.9612 129.333 97.5585 129.824C98.1558 130.315 98.4758 130.987 98.5185 131.84H97.0625C97.0305 131.381 96.8438 131.013 96.5025 130.736C96.1718 130.459 95.7238 130.32 95.1585 130.32C94.6358 130.32 94.2198 130.432 93.9105 130.656C93.6012 130.88 93.4465 131.173 93.4465 131.536C93.4465 131.824 93.5372 132.064 93.7185 132.256C93.9105 132.437 94.1452 132.587 94.4225 132.704C94.7105 132.811 95.1052 132.933 95.6065 133.072C96.2358 133.243 96.7478 133.413 97.1425 133.584C97.5372 133.744 97.8732 133.989 98.1505 134.32C98.4385 134.651 98.5878 135.083 98.5985 135.616C98.5985 136.096 98.4652 136.528 98.1985 136.912C97.9318 137.296 97.5532 137.6 97.0625 137.824C96.5825 138.037 96.0278 138.144 95.3985 138.144ZM108.654 133.28C108.654 133.557 108.638 133.851 108.606 134.16H101.598C101.651 135.024 101.945 135.701 102.478 136.192C103.022 136.672 103.678 136.912 104.446 136.912C105.075 136.912 105.598 136.768 106.014 136.48C106.441 136.181 106.739 135.787 106.91 135.296H108.478C108.243 136.139 107.774 136.827 107.07 137.36C106.366 137.883 105.491 138.144 104.446 138.144C103.614 138.144 102.867 137.957 102.206 137.584C101.555 137.211 101.043 136.683 100.67 136C100.297 135.307 100.11 134.507 100.11 133.6C100.11 132.693 100.291 131.899 100.654 131.216C101.017 130.533 101.523 130.011 102.174 129.648C102.835 129.275 103.593 129.088 104.446 129.088C105.278 129.088 106.014 129.269 106.654 129.632C107.294 129.995 107.785 130.496 108.126 131.136C108.478 131.765 108.654 132.48 108.654 133.28ZM107.15 132.976C107.15 132.421 107.027 131.947 106.782 131.552C106.537 131.147 106.201 130.843 105.774 130.64C105.358 130.427 104.894 130.32 104.382 130.32C103.646 130.32 103.017 130.555 102.494 131.024C101.982 131.493 101.689 132.144 101.614 132.976H107.15ZM110.032 133.6C110.032 132.693 110.213 131.904 110.576 131.232C110.938 130.549 111.44 130.021 112.08 129.648C112.73 129.275 113.472 129.088 114.304 129.088C115.381 129.088 116.266 129.349 116.96 129.872C117.664 130.395 118.128 131.12 118.352 132.048H116.784C116.634 131.515 116.341 131.093 115.904 130.784C115.477 130.475 114.944 130.32 114.304 130.32C113.472 130.32 112.8 130.608 112.288 131.184C111.776 131.749 111.52 132.555 111.52 133.6C111.52 134.656 111.776 135.472 112.288 136.048C112.8 136.624 113.472 136.912 114.304 136.912C114.944 136.912 115.477 136.763 115.904 136.464C116.33 136.165 116.624 135.739 116.784 135.184H118.352C118.117 136.08 117.648 136.8 116.944 137.344C116.24 137.877 115.36 138.144 114.304 138.144C113.472 138.144 112.73 137.957 112.08 137.584C111.44 137.211 110.938 136.683 110.576 136C110.213 135.317 110.032 134.517 110.032 133.6ZM124.119 138.144C123.297 138.144 122.551 137.957 121.879 137.584C121.217 137.211 120.695 136.683 120.311 136C119.937 135.307 119.751 134.507 119.751 133.6C119.751 132.704 119.943 131.915 120.327 131.232C120.721 130.539 121.255 130.011 121.927 129.648C122.599 129.275 123.351 129.088 124.183 129.088C125.015 129.088 125.767 129.275 126.439 129.648C127.111 130.011 127.639 130.533 128.023 131.216C128.417 131.899 128.615 132.693 128.615 133.6C128.615 134.507 128.412 135.307 128.007 136C127.612 136.683 127.073 137.211 126.391 137.584C125.708 137.957 124.951 138.144 124.119 138.144ZM124.119 136.864C124.641 136.864 125.132 136.741 125.591 136.496C126.049 136.251 126.417 135.883 126.695 135.392C126.983 134.901 127.127 134.304 127.127 133.6C127.127 132.896 126.988 132.299 126.711 131.808C126.433 131.317 126.071 130.955 125.623 130.72C125.175 130.475 124.689 130.352 124.167 130.352C123.633 130.352 123.143 130.475 122.695 130.72C122.257 130.955 121.905 131.317 121.639 131.808C121.372 132.299 121.239 132.896 121.239 133.6C121.239 134.315 121.367 134.917 121.623 135.408C121.889 135.899 122.241 136.267 122.679 136.512C123.116 136.747 123.596 136.864 124.119 136.864ZM134.801 129.072C135.868 129.072 136.732 129.397 137.393 130.048C138.054 130.688 138.385 131.616 138.385 132.832V138H136.945V133.04C136.945 132.165 136.726 131.499 136.289 131.04C135.852 130.571 135.254 130.336 134.497 130.336C133.729 130.336 133.116 130.576 132.657 131.056C132.209 131.536 131.985 132.235 131.985 133.152V138H130.529V129.232H131.985V130.48C132.273 130.032 132.662 129.685 133.153 129.44C133.654 129.195 134.204 129.072 134.801 129.072ZM140.219 133.584C140.219 132.688 140.401 131.904 140.763 131.232C141.126 130.549 141.622 130.021 142.251 129.648C142.891 129.275 143.606 129.088 144.395 129.088C145.078 129.088 145.713 129.248 146.299 129.568C146.886 129.877 147.334 130.288 147.643 130.8V126.16H149.115V138H147.643V136.352C147.355 136.875 146.929 137.307 146.363 137.648C145.798 137.979 145.137 138.144 144.379 138.144C143.601 138.144 142.891 137.952 142.251 137.568C141.622 137.184 141.126 136.645 140.763 135.952C140.401 135.259 140.219 134.469 140.219 133.584ZM147.643 133.6C147.643 132.939 147.51 132.363 147.243 131.872C146.977 131.381 146.614 131.008 146.155 130.752C145.707 130.485 145.211 130.352 144.667 130.352C144.123 130.352 143.627 130.48 143.179 130.736C142.731 130.992 142.374 131.365 142.107 131.856C141.841 132.347 141.707 132.923 141.707 133.584C141.707 134.256 141.841 134.843 142.107 135.344C142.374 135.835 142.731 136.213 143.179 136.48C143.627 136.736 144.123 136.864 144.667 136.864C145.211 136.864 145.707 136.736 146.155 136.48C146.614 136.213 146.977 135.835 147.243 135.344C147.51 134.843 147.643 134.261 147.643 133.6ZM157.617 130.432V135.6C157.617 136.027 157.708 136.331 157.889 136.512C158.071 136.683 158.385 136.768 158.833 136.768H159.905V138H158.593C157.783 138 157.175 137.813 156.769 137.44C156.364 137.067 156.161 136.453 156.161 135.6V130.432H155.025V129.232H156.161V127.024H157.617V129.232H159.905V130.432H157.617ZM169.67 133.28C169.67 133.557 169.654 133.851 169.622 134.16H162.614C162.667 135.024 162.96 135.701 163.494 136.192C164.038 136.672 164.694 136.912 165.462 136.912C166.091 136.912 166.614 136.768 167.03 136.48C167.456 136.181 167.755 135.787 167.926 135.296H169.494C169.259 136.139 168.79 136.827 168.086 137.36C167.382 137.883 166.507 138.144 165.462 138.144C164.63 138.144 163.883 137.957 163.222 137.584C162.571 137.211 162.059 136.683 161.686 136C161.312 135.307 161.126 134.507 161.126 133.6C161.126 132.693 161.307 131.899 161.67 131.216C162.032 130.533 162.539 130.011 163.19 129.648C163.851 129.275 164.608 129.088 165.462 129.088C166.294 129.088 167.03 129.269 167.67 129.632C168.31 129.995 168.8 130.496 169.142 131.136C169.494 131.765 169.67 132.48 169.67 133.28ZM168.166 132.976C168.166 132.421 168.043 131.947 167.798 131.552C167.552 131.147 167.216 130.843 166.79 130.64C166.374 130.427 165.91 130.32 165.398 130.32C164.662 130.32 164.032 130.555 163.51 131.024C162.998 131.493 162.704 132.144 162.63 132.976H168.166ZM174.695 138.144C174.023 138.144 173.421 138.032 172.887 137.808C172.354 137.573 171.933 137.253 171.623 136.848C171.314 136.432 171.143 135.957 171.111 135.424H172.615C172.658 135.861 172.861 136.219 173.223 136.496C173.597 136.773 174.082 136.912 174.679 136.912C175.234 136.912 175.671 136.789 175.991 136.544C176.311 136.299 176.471 135.989 176.471 135.616C176.471 135.232 176.301 134.949 175.959 134.768C175.618 134.576 175.09 134.389 174.375 134.208C173.725 134.037 173.191 133.867 172.775 133.696C172.37 133.515 172.018 133.253 171.719 132.912C171.431 132.56 171.287 132.101 171.287 131.536C171.287 131.088 171.421 130.677 171.687 130.304C171.954 129.931 172.333 129.637 172.823 129.424C173.314 129.2 173.874 129.088 174.503 129.088C175.474 129.088 176.258 129.333 176.855 129.824C177.453 130.315 177.773 130.987 177.815 131.84H176.359C176.327 131.381 176.141 131.013 175.799 130.736C175.469 130.459 175.021 130.32 174.455 130.32C173.933 130.32 173.517 130.432 173.207 130.656C172.898 130.88 172.743 131.173 172.743 131.536C172.743 131.824 172.834 132.064 173.015 132.256C173.207 132.437 173.442 132.587 173.719 132.704C174.007 132.811 174.402 132.933 174.903 133.072C175.533 133.243 176.045 133.413 176.439 133.584C176.834 133.744 177.17 133.989 177.447 134.32C177.735 134.651 177.885 135.083 177.895 135.616C177.895 136.096 177.762 136.528 177.495 136.912C177.229 137.296 176.85 137.6 176.359 137.824C175.879 138.037 175.325 138.144 174.695 138.144ZM181.727 130.432V135.6C181.727 136.027 181.817 136.331 181.999 136.512C182.18 136.683 182.495 136.768 182.943 136.768H184.015V138H182.703C181.892 138 181.284 137.813 180.879 137.44C180.473 137.067 180.271 136.453 180.271 135.6V130.432H179.135V129.232H180.271V127.024H181.727V129.232H184.015V130.432H181.727Z" fill="#212427"/>
<circle cx="545" cy="132" r="7" fill="#E1654A"/>
<mask id="path-47-inside-3_871_20536" fill="white">
<path d="M24 152H564V192H24V152Z"/>
</mask>
<path d="M564 191H24V193H564V191Z" fill="black" fill-opacity="0.06" mask="url(#path-47-inside-3_871_20536)"/>
<g clip-path="url(#clip4_871_20536)">
<path d="M44.0002 178.666C47.6821 178.666 50.6668 175.682 50.6668 172C50.6668 168.318 47.6821 165.333 44.0002 165.333C40.3183 165.333 37.3335 168.318 37.3335 172C37.3335 175.682 40.3183 178.666 44.0002 178.666Z" stroke="#212427" stroke-width="1.33333" stroke-linecap="round" stroke-linejoin="round"/>
<path d="M42.6665 169.333L46.6665 172L42.6665 174.666V169.333Z" stroke="#212427" stroke-width="1.33333" stroke-linecap="round" stroke-linejoin="round"/>
</g>
<path d="M76.544 166.928V178H75.088V169.744L71.408 178H70.384L66.688 169.728V178H65.232V166.928H66.8L70.896 176.08L74.992 166.928H76.544ZM86.5653 169.232L81.2853 182.128H79.7812L81.5093 177.904L77.9733 169.232H79.5893L82.3413 176.336L85.0613 169.232H86.5653ZM94.0705 170.432V175.6C94.0705 176.027 94.1612 176.331 94.3425 176.512C94.5238 176.683 94.8385 176.768 95.2865 176.768H96.3585V178H95.0465C94.2358 178 93.6278 177.813 93.2225 177.44C92.8172 177.067 92.6145 176.453 92.6145 175.6V170.432H91.4785V169.232H92.6145V167.024H94.0705V169.232H96.3585V170.432H94.0705ZM102.475 169.072C103.136 169.072 103.733 169.216 104.267 169.504C104.8 169.781 105.216 170.203 105.515 170.768C105.824 171.333 105.979 172.021 105.979 172.832V178H104.539V173.04C104.539 172.165 104.32 171.499 103.883 171.04C103.445 170.571 102.848 170.336 102.091 170.336C101.323 170.336 100.709 170.576 100.251 171.056C99.8026 171.536 99.5786 172.235 99.5786 173.152V178H98.1226V166.16H99.5786V170.48C99.8666 170.032 100.261 169.685 100.763 169.44C101.275 169.195 101.845 169.072 102.475 169.072ZM109.109 167.808C108.832 167.808 108.597 167.712 108.405 167.52C108.213 167.328 108.117 167.093 108.117 166.816C108.117 166.539 108.213 166.304 108.405 166.112C108.597 165.92 108.832 165.824 109.109 165.824C109.376 165.824 109.6 165.92 109.781 166.112C109.973 166.304 110.069 166.539 110.069 166.816C110.069 167.093 109.973 167.328 109.781 167.52C109.6 167.712 109.376 167.808 109.109 167.808ZM109.813 169.232V178H108.357V169.232H109.813ZM113.751 170.656C114.007 170.155 114.369 169.765 114.839 169.488C115.319 169.211 115.9 169.072 116.583 169.072V170.576H116.199C114.567 170.576 113.751 171.461 113.751 173.232V178H112.295V169.232H113.751V170.656ZM117.719 173.584C117.719 172.688 117.901 171.904 118.263 171.232C118.626 170.549 119.122 170.021 119.751 169.648C120.391 169.275 121.106 169.088 121.895 169.088C122.578 169.088 123.213 169.248 123.799 169.568C124.386 169.877 124.834 170.288 125.143 170.8V166.16H126.615V178H125.143V176.352C124.855 176.875 124.429 177.307 123.863 177.648C123.298 177.979 122.637 178.144 121.879 178.144C121.101 178.144 120.391 177.952 119.751 177.568C119.122 177.184 118.626 176.645 118.263 175.952C117.901 175.259 117.719 174.469 117.719 173.584ZM125.143 173.6C125.143 172.939 125.01 172.363 124.743 171.872C124.477 171.381 124.114 171.008 123.655 170.752C123.207 170.485 122.711 170.352 122.167 170.352C121.623 170.352 121.127 170.48 120.679 170.736C120.231 170.992 119.874 171.365 119.607 171.856C119.341 172.347 119.207 172.923 119.207 173.584C119.207 174.256 119.341 174.843 119.607 175.344C119.874 175.835 120.231 176.213 120.679 176.48C121.127 176.736 121.623 176.864 122.167 176.864C122.711 176.864 123.207 176.736 123.655 176.48C124.114 176.213 124.477 175.835 124.743 175.344C125.01 174.843 125.143 174.261 125.143 173.6ZM135.117 170.432V175.6C135.117 176.027 135.208 176.331 135.389 176.512C135.571 176.683 135.885 176.768 136.333 176.768H137.405V178H136.093C135.283 178 134.675 177.813 134.269 177.44C133.864 177.067 133.661 176.453 133.661 175.6V170.432H132.525V169.232H133.661V167.024H135.117V169.232H137.405V170.432H135.117ZM147.17 173.28C147.17 173.557 147.154 173.851 147.122 174.16H140.114C140.167 175.024 140.46 175.701 140.994 176.192C141.538 176.672 142.194 176.912 142.962 176.912C143.591 176.912 144.114 176.768 144.53 176.48C144.956 176.181 145.255 175.787 145.426 175.296H146.994C146.759 176.139 146.29 176.827 145.586 177.36C144.882 177.883 144.007 178.144 142.962 178.144C142.13 178.144 141.383 177.957 140.722 177.584C140.071 177.211 139.559 176.683 139.186 176C138.812 175.307 138.626 174.507 138.626 173.6C138.626 172.693 138.807 171.899 139.17 171.216C139.532 170.533 140.039 170.011 140.69 169.648C141.351 169.275 142.108 169.088 142.962 169.088C143.794 169.088 144.53 169.269 145.17 169.632C145.81 169.995 146.3 170.496 146.642 171.136C146.994 171.765 147.17 172.48 147.17 173.28ZM145.666 172.976C145.666 172.421 145.543 171.947 145.298 171.552C145.052 171.147 144.716 170.843 144.29 170.64C143.874 170.427 143.41 170.32 142.898 170.32C142.162 170.32 141.532 170.555 141.01 171.024C140.498 171.493 140.204 172.144 140.13 172.976H145.666ZM152.195 178.144C151.523 178.144 150.921 178.032 150.387 177.808C149.854 177.573 149.433 177.253 149.123 176.848C148.814 176.432 148.643 175.957 148.611 175.424H150.115C150.158 175.861 150.361 176.219 150.723 176.496C151.097 176.773 151.582 176.912 152.179 176.912C152.734 176.912 153.171 176.789 153.491 176.544C153.811 176.299 153.971 175.989 153.971 175.616C153.971 175.232 153.801 174.949 153.459 174.768C153.118 174.576 152.59 174.389 151.875 174.208C151.225 174.037 150.691 173.867 150.275 173.696C149.87 173.515 149.518 173.253 149.219 172.912C148.931 172.56 148.787 172.101 148.787 171.536C148.787 171.088 148.921 170.677 149.187 170.304C149.454 169.931 149.833 169.637 150.323 169.424C150.814 169.2 151.374 169.088 152.003 169.088C152.974 169.088 153.758 169.333 154.355 169.824C154.953 170.315 155.273 170.987 155.315 171.84H153.859C153.827 171.381 153.641 171.013 153.299 170.736C152.969 170.459 152.521 170.32 151.955 170.32C151.433 170.32 151.017 170.432 150.707 170.656C150.398 170.88 150.243 171.173 150.243 171.536C150.243 171.824 150.334 172.064 150.515 172.256C150.707 172.437 150.942 172.587 151.219 172.704C151.507 172.811 151.902 172.933 152.403 173.072C153.033 173.243 153.545 173.413 153.939 173.584C154.334 173.744 154.67 173.989 154.947 174.32C155.235 174.651 155.385 175.083 155.395 175.616C155.395 176.096 155.262 176.528 154.995 176.912C154.729 177.296 154.35 177.6 153.859 177.824C153.379 178.037 152.825 178.144 152.195 178.144ZM159.227 170.432V175.6C159.227 176.027 159.317 176.331 159.499 176.512C159.68 176.683 159.995 176.768 160.443 176.768H161.515V178H160.203C159.392 178 158.784 177.813 158.379 177.44C157.973 177.067 157.771 176.453 157.771 175.6V170.432H156.635V169.232H157.771V167.024H159.227V169.232H161.515V170.432H159.227Z" fill="#212427"/>
<circle cx="545" cy="172" r="7" fill="#54CA6E"/>
<mask id="path-53-inside-4_871_20536" fill="white">
<path d="M24 192H564V232H24V192Z"/>
</mask>
<path d="M564 231H24V233H564V231Z" fill="black" fill-opacity="0.06" mask="url(#path-53-inside-4_871_20536)"/>
<g clip-path="url(#clip5_871_20536)">
<path d="M44.0002 218.666C47.6821 218.666 50.6668 215.682 50.6668 212C50.6668 208.318 47.6821 205.333 44.0002 205.333C40.3183 205.333 37.3335 208.318 37.3335 212C37.3335 215.682 40.3183 218.666 44.0002 218.666Z" stroke="#212427" stroke-width="1.33333" stroke-linecap="round" stroke-linejoin="round"/>
<path d="M42.6665 209.333L46.6665 212L42.6665 214.666V209.333Z" stroke="#212427" stroke-width="1.33333" stroke-linecap="round" stroke-linejoin="round"/>
</g>
<path d="M76.544 206.928V218H75.088V209.744L71.408 218H70.384L66.688 209.728V218H65.232V206.928H66.8L70.896 216.08L74.992 206.928H76.544ZM86.5653 209.232L81.2853 222.128H79.7812L81.5093 217.904L77.9733 209.232H79.5893L82.3413 216.336L85.0613 209.232H86.5653ZM95.8625 210.432H94.0225V218H92.5665V210.432H91.4305V209.232H92.5665V208.608C92.5665 207.627 92.8172 206.912 93.3185 206.464C93.8305 206.005 94.6465 205.776 95.7665 205.776V206.992C95.1265 206.992 94.6732 207.12 94.4065 207.376C94.1505 207.621 94.0225 208.032 94.0225 208.608V209.232H95.8625V210.432ZM101.384 218.144C100.563 218.144 99.8161 217.957 99.1441 217.584C98.4828 217.211 97.9601 216.683 97.5761 216C97.2028 215.307 97.0161 214.507 97.0161 213.6C97.0161 212.704 97.2081 211.915 97.5921 211.232C97.9868 210.539 98.5201 210.011 99.1921 209.648C99.8641 209.275 100.616 209.088 101.448 209.088C102.28 209.088 103.032 209.275 103.704 209.648C104.376 210.011 104.904 210.533 105.288 211.216C105.683 211.899 105.88 212.693 105.88 213.6C105.88 214.507 105.677 215.307 105.272 216C104.877 216.683 104.339 217.211 103.656 217.584C102.973 217.957 102.216 218.144 101.384 218.144ZM101.384 216.864C101.907 216.864 102.397 216.741 102.856 216.496C103.315 216.251 103.683 215.883 103.96 215.392C104.248 214.901 104.392 214.304 104.392 213.6C104.392 212.896 104.253 212.299 103.976 211.808C103.699 211.317 103.336 210.955 102.888 210.72C102.44 210.475 101.955 210.352 101.432 210.352C100.899 210.352 100.408 210.475 99.9601 210.72C99.5228 210.955 99.1708 211.317 98.9041 211.808C98.6375 212.299 98.5041 212.896 98.5041 213.6C98.5041 214.315 98.6321 214.917 98.8881 215.408C99.1548 215.899 99.5068 216.267 99.9441 216.512C100.381 216.747 100.861 216.864 101.384 216.864ZM115.571 209.232V218H114.115V216.704C113.837 217.152 113.448 217.504 112.947 217.76C112.456 218.005 111.912 218.128 111.315 218.128C110.632 218.128 110.019 217.989 109.475 217.712C108.931 217.424 108.499 216.997 108.179 216.432C107.869 215.867 107.715 215.179 107.715 214.368V209.232H109.155V214.176C109.155 215.04 109.373 215.707 109.811 216.176C110.248 216.635 110.845 216.864 111.603 216.864C112.381 216.864 112.995 216.624 113.443 216.144C113.891 215.664 114.115 214.965 114.115 214.048V209.232H115.571ZM119.485 210.656C119.741 210.155 120.104 209.765 120.573 209.488C121.053 209.211 121.634 209.072 122.317 209.072V210.576H121.933C120.301 210.576 119.485 211.461 119.485 213.232V218H118.029V209.232H119.485V210.656ZM125.774 210.432V215.6C125.774 216.027 125.864 216.331 126.046 216.512C126.227 216.683 126.542 216.768 126.99 216.768H128.062V218H126.75C125.939 218 125.331 217.813 124.926 217.44C124.52 217.067 124.318 216.453 124.318 215.6V210.432H123.182V209.232H124.318V207.024H125.774V209.232H128.062V210.432H125.774ZM134.178 209.072C134.839 209.072 135.436 209.216 135.97 209.504C136.503 209.781 136.919 210.203 137.218 210.768C137.527 211.333 137.682 212.021 137.682 212.832V218H136.242V213.04C136.242 212.165 136.023 211.499 135.586 211.04C135.148 210.571 134.551 210.336 133.794 210.336C133.026 210.336 132.412 210.576 131.954 211.056C131.506 211.536 131.282 212.235 131.282 213.152V218H129.826V206.16H131.282V210.48C131.57 210.032 131.964 209.685 132.466 209.44C132.978 209.195 133.548 209.072 134.178 209.072ZM146.102 210.432V215.6C146.102 216.027 146.192 216.331 146.374 216.512C146.555 216.683 146.87 216.768 147.318 216.768H148.39V218H147.078C146.267 218 145.659 217.813 145.254 217.44C144.848 217.067 144.646 216.453 144.646 215.6V210.432H143.51V209.232H144.646V207.024H146.102V209.232H148.39V210.432H146.102ZM158.154 213.28C158.154 213.557 158.138 213.851 158.106 214.16H151.098C151.151 215.024 151.445 215.701 151.978 216.192C152.522 216.672 153.178 216.912 153.946 216.912C154.575 216.912 155.098 216.768 155.514 216.48C155.941 216.181 156.239 215.787 156.41 215.296H157.978C157.743 216.139 157.274 216.827 156.57 217.36C155.866 217.883 154.991 218.144 153.946 218.144C153.114 218.144 152.367 217.957 151.706 217.584C151.055 217.211 150.543 216.683 150.17 216C149.797 215.307 149.61 214.507 149.61 213.6C149.61 212.693 149.791 211.899 150.154 211.216C150.517 210.533 151.023 210.011 151.674 209.648C152.335 209.275 153.093 209.088 153.946 209.088C154.778 209.088 155.514 209.269 156.154 209.632C156.794 209.995 157.285 210.496 157.626 211.136C157.978 211.765 158.154 212.48 158.154 213.28ZM156.65 212.976C156.65 212.421 156.527 211.947 156.282 211.552C156.037 211.147 155.701 210.843 155.274 210.64C154.858 210.427 154.394 210.32 153.882 210.32C153.146 210.32 152.517 210.555 151.994 211.024C151.482 211.493 151.189 212.144 151.114 212.976H156.65ZM163.18 218.144C162.508 218.144 161.905 218.032 161.372 217.808C160.838 217.573 160.417 217.253 160.108 216.848C159.798 216.432 159.628 215.957 159.596 215.424H161.1C161.142 215.861 161.345 216.219 161.708 216.496C162.081 216.773 162.566 216.912 163.164 216.912C163.718 216.912 164.156 216.789 164.476 216.544C164.796 216.299 164.956 215.989 164.956 215.616C164.956 215.232 164.785 214.949 164.444 214.768C164.102 214.576 163.574 214.389 162.86 214.208C162.209 214.037 161.676 213.867 161.26 213.696C160.854 213.515 160.502 213.253 160.204 212.912C159.916 212.56 159.772 212.101 159.772 211.536C159.772 211.088 159.905 210.677 160.172 210.304C160.438 209.931 160.817 209.637 161.308 209.424C161.798 209.2 162.358 209.088 162.988 209.088C163.958 209.088 164.742 209.333 165.34 209.824C165.937 210.315 166.257 210.987 166.3 211.84H164.844C164.812 211.381 164.625 211.013 164.284 210.736C163.953 210.459 163.505 210.32 162.94 210.32C162.417 210.32 162.001 210.432 161.692 210.656C161.382 210.88 161.228 211.173 161.228 211.536C161.228 211.824 161.318 212.064 161.5 212.256C161.692 212.437 161.926 212.587 162.204 212.704C162.492 212.811 162.886 212.933 163.388 213.072C164.017 213.243 164.529 213.413 164.924 213.584C165.318 213.744 165.654 213.989 165.932 214.32C166.22 214.651 166.369 215.083 166.38 215.616C166.38 216.096 166.246 216.528 165.98 216.912C165.713 217.296 165.334 217.6 164.844 217.824C164.364 218.037 163.809 218.144 163.18 218.144ZM170.211 210.432V215.6C170.211 216.027 170.302 216.331 170.483 216.512C170.664 216.683 170.979 216.768 171.427 216.768H172.499V218H171.187C170.376 218 169.768 217.813 169.363 217.44C168.958 217.067 168.755 216.453 168.755 215.6V210.432H167.619V209.232H168.755V207.024H170.211V209.232H172.499V210.432H170.211Z" fill="#212427"/>
<circle cx="545" cy="212" r="7" fill="#54CA6E"/>
<mask id="path-59-inside-5_871_20536" fill="white">
<path d="M24 232H564V272H24V232Z"/>
</mask>
<path d="M564 271H24V273H564V271Z" fill="black" fill-opacity="0.06" mask="url(#path-59-inside-5_871_20536)"/>
<g clip-path="url(#clip6_871_20536)">
<path d="M44.0002 258.666C47.6821 258.666 50.6668 255.682 50.6668 252C50.6668 248.318 47.6821 245.333 44.0002 245.333C40.3183 245.333 37.3335 248.318 37.3335 252C37.3335 255.682 40.3183 258.666 44.0002 258.666Z" stroke="#212427" stroke-width="1.33333" stroke-linecap="round" stroke-linejoin="round"/>
<path d="M42.6665 249.333L46.6665 252L42.6665 254.666V249.333Z" stroke="#212427" stroke-width="1.33333" stroke-linecap="round" stroke-linejoin="round"/>
</g>
<path d="M76.544 246.928V258H75.088V249.744L71.408 258H70.384L66.688 249.728V258H65.232V246.928H66.8L70.896 256.08L74.992 246.928H76.544ZM86.5653 249.232L81.2853 262.128H79.7812L81.5093 257.904L77.9733 249.232H79.5893L82.3413 256.336L85.0613 249.232H86.5653ZM95.8625 250.432H94.0225V258H92.5665V250.432H91.4305V249.232H92.5665V248.608C92.5665 247.627 92.8172 246.912 93.3185 246.464C93.8305 246.005 94.6465 245.776 95.7665 245.776V246.992C95.1265 246.992 94.6732 247.12 94.4065 247.376C94.1505 247.621 94.0225 248.032 94.0225 248.608V249.232H95.8625V250.432ZM98.3121 247.808C98.0348 247.808 97.8001 247.712 97.6081 247.52C97.4161 247.328 97.3201 247.093 97.3201 246.816C97.3201 246.539 97.4161 246.304 97.6081 246.112C97.8001 245.92 98.0348 245.824 98.3121 245.824C98.5788 245.824 98.8028 245.92 98.9841 246.112C99.1761 246.304 99.2721 246.539 99.2721 246.816C99.2721 247.093 99.1761 247.328 98.9841 247.52C98.8028 247.712 98.5788 247.808 98.3121 247.808ZM99.0161 249.232V258H97.5601V249.232H99.0161ZM105.066 250.432H103.226V258H101.77V250.432H100.634V249.232H101.77V248.608C101.77 247.627 102.02 246.912 102.522 246.464C103.034 246.005 103.85 245.776 104.97 245.776V246.992C104.33 246.992 103.876 247.12 103.61 247.376C103.354 247.621 103.226 248.032 103.226 248.608V249.232H105.066V250.432ZM108.539 250.432V255.6C108.539 256.027 108.63 256.331 108.811 256.512C108.993 256.683 109.307 256.768 109.755 256.768H110.827V258H109.515C108.705 258 108.097 257.813 107.691 257.44C107.286 257.067 107.083 256.453 107.083 255.6V250.432H105.947V249.232H107.083V247.024H108.539V249.232H110.827V250.432H108.539ZM116.943 249.072C117.605 249.072 118.202 249.216 118.735 249.504C119.269 249.781 119.685 250.203 119.983 250.768C120.293 251.333 120.447 252.021 120.447 252.832V258H119.007V253.04C119.007 252.165 118.789 251.499 118.351 251.04C117.914 250.571 117.317 250.336 116.559 250.336C115.791 250.336 115.178 250.576 114.719 251.056C114.271 251.536 114.047 252.235 114.047 253.152V258H112.591V246.16H114.047V250.48C114.335 250.032 114.73 249.685 115.231 249.44C115.743 249.195 116.314 249.072 116.943 249.072ZM128.867 250.432V255.6C128.867 256.027 128.958 256.331 129.139 256.512C129.321 256.683 129.635 256.768 130.083 256.768H131.155V258H129.843C129.033 258 128.425 257.813 128.019 257.44C127.614 257.067 127.411 256.453 127.411 255.6V250.432H126.275V249.232H127.411V247.024H128.867V249.232H131.155V250.432H128.867ZM140.92 253.28C140.92 253.557 140.904 253.851 140.872 254.16H133.864C133.917 255.024 134.21 255.701 134.744 256.192C135.288 256.672 135.944 256.912 136.712 256.912C137.341 256.912 137.864 256.768 138.28 256.48C138.706 256.181 139.005 255.787 139.176 255.296H140.744C140.509 256.139 140.04 256.827 139.336 257.36C138.632 257.883 137.757 258.144 136.712 258.144C135.88 258.144 135.133 257.957 134.472 257.584C133.821 257.211 133.309 256.683 132.936 256C132.562 255.307 132.376 254.507 132.376 253.6C132.376 252.693 132.557 251.899 132.92 251.216C133.282 250.533 133.789 250.011 134.44 249.648C135.101 249.275 135.858 249.088 136.712 249.088C137.544 249.088 138.28 249.269 138.92 249.632C139.56 249.995 140.05 250.496 140.392 251.136C140.744 251.765 140.92 252.48 140.92 253.28ZM139.416 252.976C139.416 252.421 139.293 251.947 139.048 251.552C138.802 251.147 138.466 250.843 138.04 250.64C137.624 250.427 137.16 250.32 136.648 250.32C135.912 250.32 135.282 250.555 134.76 251.024C134.248 251.493 133.954 252.144 133.88 252.976H139.416ZM145.945 258.144C145.273 258.144 144.671 258.032 144.137 257.808C143.604 257.573 143.183 257.253 142.873 256.848C142.564 256.432 142.393 255.957 142.361 255.424H143.865C143.908 255.861 144.111 256.219 144.473 256.496C144.847 256.773 145.332 256.912 145.929 256.912C146.484 256.912 146.921 256.789 147.241 256.544C147.561 256.299 147.721 255.989 147.721 255.616C147.721 255.232 147.551 254.949 147.209 254.768C146.868 254.576 146.34 254.389 145.625 254.208C144.975 254.037 144.441 253.867 144.025 253.696C143.62 253.515 143.268 253.253 142.969 252.912C142.681 252.56 142.537 252.101 142.537 251.536C142.537 251.088 142.671 250.677 142.937 250.304C143.204 249.931 143.583 249.637 144.073 249.424C144.564 249.2 145.124 249.088 145.753 249.088C146.724 249.088 147.508 249.333 148.105 249.824C148.703 250.315 149.023 250.987 149.065 251.84H147.609C147.577 251.381 147.391 251.013 147.049 250.736C146.719 250.459 146.271 250.32 145.705 250.32C145.183 250.32 144.767 250.432 144.457 250.656C144.148 250.88 143.993 251.173 143.993 251.536C143.993 251.824 144.084 252.064 144.265 252.256C144.457 252.437 144.692 252.587 144.969 252.704C145.257 252.811 145.652 252.933 146.153 253.072C146.783 253.243 147.295 253.413 147.689 253.584C148.084 253.744 148.42 253.989 148.697 254.32C148.985 254.651 149.135 255.083 149.145 255.616C149.145 256.096 149.012 256.528 148.745 256.912C148.479 257.296 148.1 257.6 147.609 257.824C147.129 258.037 146.575 258.144 145.945 258.144ZM152.977 250.432V255.6C152.977 256.027 153.067 256.331 153.249 256.512C153.43 256.683 153.745 256.768 154.193 256.768H155.265V258H153.953C153.142 258 152.534 257.813 152.129 257.44C151.723 257.067 151.521 256.453 151.521 255.6V250.432H150.385V249.232H151.521V247.024H152.977V249.232H155.265V250.432H152.977Z" fill="#212427"/>
<circle cx="545" cy="252" r="7" fill="#54CA6E"/>
<mask id="path-65-inside-6_871_20536" fill="white">
<path d="M24 272H564V312H24V272Z"/>
</mask>
<path d="M564 311H24V313H564V311Z" fill="black" fill-opacity="0.06" mask="url(#path-65-inside-6_871_20536)"/>
<g clip-path="url(#clip7_871_20536)">
<path d="M44.0002 298.666C47.6821 298.666 50.6668 295.682 50.6668 292C50.6668 288.318 47.6821 285.333 44.0002 285.333C40.3183 285.333 37.3335 288.318 37.3335 292C37.3335 295.682 40.3183 298.666 44.0002 298.666Z" stroke="#212427" stroke-width="1.33333" stroke-linecap="round" stroke-linejoin="round"/>
<path d="M42.6665 289.333L46.6665 292L42.6665 294.666V289.333Z" stroke="#212427" stroke-width="1.33333" stroke-linecap="round" stroke-linejoin="round"/>
</g>
<path d="M76.544 286.928V298H75.088V289.744L71.408 298H70.384L66.688 289.728V298H65.232V286.928H66.8L70.896 296.08L74.992 286.928H76.544ZM86.5653 289.232L81.2853 302.128H79.7812L81.5093 297.904L77.9733 289.232H79.5893L82.3413 296.336L85.0613 289.232H86.5653ZM95.3985 298.144C94.7265 298.144 94.1238 298.032 93.5905 297.808C93.0572 297.573 92.6358 297.253 92.3265 296.848C92.0172 296.432 91.8465 295.957 91.8145 295.424H93.3185C93.3612 295.861 93.5638 296.219 93.9265 296.496C94.2998 296.773 94.7852 296.912 95.3825 296.912C95.9372 296.912 96.3745 296.789 96.6945 296.544C97.0145 296.299 97.1745 295.989 97.1745 295.616C97.1745 295.232 97.0038 294.949 96.6625 294.768C96.3212 294.576 95.7932 294.389 95.0785 294.208C94.4278 294.037 93.8945 293.867 93.4785 293.696C93.0732 293.515 92.7212 293.253 92.4225 292.912C92.1345 292.56 91.9905 292.101 91.9905 291.536C91.9905 291.088 92.1238 290.677 92.3905 290.304C92.6572 289.931 93.0358 289.637 93.5265 289.424C94.0172 289.2 94.5772 289.088 95.2065 289.088C96.1772 289.088 96.9612 289.333 97.5585 289.824C98.1558 290.315 98.4758 290.987 98.5185 291.84H97.0625C97.0305 291.381 96.8438 291.013 96.5025 290.736C96.1718 290.459 95.7238 290.32 95.1585 290.32C94.6358 290.32 94.2198 290.432 93.9105 290.656C93.6012 290.88 93.4465 291.173 93.4465 291.536C93.4465 291.824 93.5372 292.064 93.7185 292.256C93.9105 292.437 94.1452 292.587 94.4225 292.704C94.7105 292.811 95.1052 292.933 95.6065 293.072C96.2358 293.243 96.7478 293.413 97.1425 293.584C97.5372 293.744 97.8732 293.989 98.1505 294.32C98.4385 294.651 98.5878 295.083 98.5985 295.616C98.5985 296.096 98.4652 296.528 98.1985 296.912C97.9318 297.296 97.5532 297.6 97.0625 297.824C96.5825 298.037 96.0278 298.144 95.3985 298.144ZM101.406 287.808C101.129 287.808 100.894 287.712 100.702 287.52C100.51 287.328 100.414 287.093 100.414 286.816C100.414 286.539 100.51 286.304 100.702 286.112C100.894 285.92 101.129 285.824 101.406 285.824C101.673 285.824 101.897 285.92 102.078 286.112C102.27 286.304 102.366 286.539 102.366 286.816C102.366 287.093 102.27 287.328 102.078 287.52C101.897 287.712 101.673 287.808 101.406 287.808ZM102.11 289.232V298H100.654V289.232H102.11ZM109.167 298L107.087 294.736L105.087 298H103.567L106.399 293.648L103.567 289.232H105.215L107.295 292.48L109.279 289.232H110.799L107.983 293.568L110.815 298H109.167ZM114.024 290.432V295.6C114.024 296.027 114.114 296.331 114.296 296.512C114.477 296.683 114.792 296.768 115.24 296.768H116.312V298H115C114.189 298 113.581 297.813 113.176 297.44C112.77 297.067 112.568 296.453 112.568 295.6V290.432H111.432V289.232H112.568V287.024H114.024V289.232H116.312V290.432H114.024ZM122.428 289.072C123.089 289.072 123.686 289.216 124.22 289.504C124.753 289.781 125.169 290.203 125.468 290.768C125.777 291.333 125.932 292.021 125.932 292.832V298H124.492V293.04C124.492 292.165 124.273 291.499 123.836 291.04C123.398 290.571 122.801 290.336 122.044 290.336C121.276 290.336 120.662 290.576 120.204 291.056C119.756 291.536 119.532 292.235 119.532 293.152V298H118.076V286.16H119.532V290.48C119.82 290.032 120.214 289.685 120.716 289.44C121.228 289.195 121.798 289.072 122.428 289.072ZM134.352 290.432V295.6C134.352 296.027 134.442 296.331 134.624 296.512C134.805 296.683 135.12 296.768 135.568 296.768H136.64V298H135.328C134.517 298 133.909 297.813 133.504 297.44C133.098 297.067 132.896 296.453 132.896 295.6V290.432H131.76V289.232H132.896V287.024H134.352V289.232H136.64V290.432H134.352ZM146.404 293.28C146.404 293.557 146.388 293.851 146.356 294.16H139.348C139.401 295.024 139.695 295.701 140.228 296.192C140.772 296.672 141.428 296.912 142.196 296.912C142.825 296.912 143.348 296.768 143.764 296.48C144.191 296.181 144.489 295.787 144.66 295.296H146.228C145.993 296.139 145.524 296.827 144.82 297.36C144.116 297.883 143.241 298.144 142.196 298.144C141.364 298.144 140.617 297.957 139.956 297.584C139.305 297.211 138.793 296.683 138.42 296C138.047 295.307 137.86 294.507 137.86 293.6C137.86 292.693 138.041 291.899 138.404 291.216C138.767 290.533 139.273 290.011 139.924 289.648C140.585 289.275 141.343 289.088 142.196 289.088C143.028 289.088 143.764 289.269 144.404 289.632C145.044 289.995 145.535 290.496 145.876 291.136C146.228 291.765 146.404 292.48 146.404 293.28ZM144.9 292.976C144.9 292.421 144.777 291.947 144.532 291.552C144.287 291.147 143.951 290.843 143.524 290.64C143.108 290.427 142.644 290.32 142.132 290.32C141.396 290.32 140.767 290.555 140.244 291.024C139.732 291.493 139.439 292.144 139.364 292.976H144.9ZM151.43 298.144C150.758 298.144 150.155 298.032 149.622 297.808C149.088 297.573 148.667 297.253 148.358 296.848C148.048 296.432 147.878 295.957 147.846 295.424H149.35C149.392 295.861 149.595 296.219 149.958 296.496C150.331 296.773 150.816 296.912 151.414 296.912C151.968 296.912 152.406 296.789 152.726 296.544C153.046 296.299 153.206 295.989 153.206 295.616C153.206 295.232 153.035 294.949 152.694 294.768C152.352 294.576 151.824 294.389 151.11 294.208C150.459 294.037 149.926 293.867 149.51 293.696C149.104 293.515 148.752 293.253 148.454 292.912C148.166 292.56 148.022 292.101 148.022 291.536C148.022 291.088 148.155 290.677 148.422 290.304C148.688 289.931 149.067 289.637 149.558 289.424C150.048 289.2 150.608 289.088 151.238 289.088C152.208 289.088 152.992 289.333 153.59 289.824C154.187 290.315 154.507 290.987 154.55 291.84H153.094C153.062 291.381 152.875 291.013 152.534 290.736C152.203 290.459 151.755 290.32 151.19 290.32C150.667 290.32 150.251 290.432 149.942 290.656C149.632 290.88 149.478 291.173 149.478 291.536C149.478 291.824 149.568 292.064 149.75 292.256C149.942 292.437 150.176 292.587 150.454 292.704C150.742 292.811 151.136 292.933 151.638 293.072C152.267 293.243 152.779 293.413 153.174 293.584C153.568 293.744 153.904 293.989 154.182 294.32C154.47 294.651 154.619 295.083 154.63 295.616C154.63 296.096 154.496 296.528 154.23 296.912C153.963 297.296 153.584 297.6 153.094 297.824C152.614 298.037 152.059 298.144 151.43 298.144ZM158.461 290.432V295.6C158.461 296.027 158.552 296.331 158.733 296.512C158.914 296.683 159.229 296.768 159.677 296.768H160.749V298H159.437C158.626 298 158.018 297.813 157.613 297.44C157.208 297.067 157.005 296.453 157.005 295.6V290.432H155.869V289.232H157.005V287.024H158.461V289.232H160.749V290.432H158.461Z" fill="#212427"/>
<circle cx="545" cy="292" r="7" fill="#54CA6E"/>
<rect width="12" height="224" transform="translate(564 72)" fill="black" fill-opacity="0.05"/>
<rect x="567" y="75" width="6" height="100" rx="3" fill="black" fill-opacity="0.15"/>
</g>
<rect x="24.5" y="72.5" width="551" height="223" rx="5.5" stroke="black" stroke-opacity="0.06"/>
<g filter="url(#filter0_d_871_20536)">
<rect x="24" y="312" width="217" height="32" rx="6" fill="#388AEB" shape-rendering="crispEdges"/>
<rect x="24.5" y="312.5" width="216" height="31" rx="5.5" stroke="#388AEB" shape-rendering="crispEdges"/>
<g clip-path="url(#clip8_871_20536)">
<path d="M73.0002 334.666C76.6821 334.666 79.6668 331.682 79.6668 328C79.6668 324.318 76.6821 321.333 73.0002 321.333C69.3183 321.333 66.3335 324.318 66.3335 328C66.3335 331.682 69.3183 334.666 73.0002 334.666Z" stroke="#FDFCFA" stroke-width="1.33333" stroke-linecap="round" stroke-linejoin="round"/>
<path d="M71.6665 325.333L75.6665 328L71.6665 330.666V325.333Z" stroke="#FDFCFA" stroke-width="1.33333" stroke-linecap="round" stroke-linejoin="round"/>
</g>
<path d="M89.602 328.114C89.602 327.162 89.8167 326.308 90.246 325.552C90.6753 324.787 91.2587 324.189 91.996 323.76C92.7427 323.331 93.5687 323.116 94.474 323.116C95.538 323.116 96.4667 323.373 97.26 323.886C98.0533 324.399 98.632 325.127 98.996 326.07H97.47C97.1993 325.482 96.8073 325.029 96.294 324.712C95.79 324.395 95.1833 324.236 94.474 324.236C93.7927 324.236 93.1813 324.395 92.64 324.712C92.0987 325.029 91.674 325.482 91.366 326.07C91.058 326.649 90.904 327.33 90.904 328.114C90.904 328.889 91.058 329.57 91.366 330.158C91.674 330.737 92.0987 331.185 92.64 331.502C93.1813 331.819 93.7927 331.978 94.474 331.978C95.1833 331.978 95.79 331.824 96.294 331.516C96.8073 331.199 97.1993 330.746 97.47 330.158H98.996C98.632 331.091 98.0533 331.815 97.26 332.328C96.4667 332.832 95.538 333.084 94.474 333.084C93.5687 333.084 92.7427 332.874 91.996 332.454C91.2587 332.025 90.6753 331.432 90.246 330.676C89.8167 329.92 89.602 329.066 89.602 328.114ZM102.166 326.574C102.39 326.135 102.708 325.795 103.118 325.552C103.538 325.309 104.047 325.188 104.644 325.188V326.504H104.308C102.88 326.504 102.166 327.279 102.166 328.828V333H100.892V325.328H102.166V326.574ZM113.115 328.87C113.115 329.113 113.101 329.369 113.073 329.64H106.941C106.988 330.396 107.244 330.989 107.711 331.418C108.187 331.838 108.761 332.048 109.433 332.048C109.984 332.048 110.441 331.922 110.805 331.67C111.178 331.409 111.44 331.063 111.589 330.634H112.961C112.756 331.371 112.345 331.973 111.729 332.44C111.113 332.897 110.348 333.126 109.433 333.126C108.705 333.126 108.052 332.963 107.473 332.636C106.904 332.309 106.456 331.847 106.129 331.25C105.802 330.643 105.639 329.943 105.639 329.15C105.639 328.357 105.798 327.661 106.115 327.064C106.432 326.467 106.876 326.009 107.445 325.692C108.024 325.365 108.686 325.202 109.433 325.202C110.161 325.202 110.805 325.361 111.365 325.678C111.925 325.995 112.354 326.434 112.653 326.994C112.961 327.545 113.115 328.17 113.115 328.87ZM111.799 328.604C111.799 328.119 111.692 327.703 111.477 327.358C111.262 327.003 110.968 326.737 110.595 326.56C110.231 326.373 109.825 326.28 109.377 326.28C108.733 326.28 108.182 326.485 107.725 326.896C107.277 327.307 107.02 327.876 106.955 328.604H111.799ZM114.321 329.136C114.321 328.352 114.479 327.666 114.797 327.078C115.114 326.481 115.548 326.019 116.099 325.692C116.659 325.365 117.279 325.202 117.961 325.202C118.633 325.202 119.216 325.347 119.711 325.636C120.205 325.925 120.574 326.289 120.817 326.728V325.328H122.105V333H120.817V331.572C120.565 332.02 120.187 332.393 119.683 332.692C119.188 332.981 118.609 333.126 117.947 333.126C117.265 333.126 116.649 332.958 116.099 332.622C115.548 332.286 115.114 331.815 114.797 331.208C114.479 330.601 114.321 329.911 114.321 329.136ZM120.817 329.15C120.817 328.571 120.7 328.067 120.467 327.638C120.233 327.209 119.916 326.882 119.515 326.658C119.123 326.425 118.689 326.308 118.213 326.308C117.737 326.308 117.303 326.42 116.911 326.644C116.519 326.868 116.206 327.195 115.973 327.624C115.739 328.053 115.623 328.557 115.623 329.136C115.623 329.724 115.739 330.237 115.973 330.676C116.206 331.105 116.519 331.437 116.911 331.67C117.303 331.894 117.737 332.006 118.213 332.006C118.689 332.006 119.123 331.894 119.515 331.67C119.916 331.437 120.233 331.105 120.467 330.676C120.7 330.237 120.817 329.729 120.817 329.15ZM125.812 326.378V330.9C125.812 331.273 125.891 331.539 126.05 331.698C126.208 331.847 126.484 331.922 126.876 331.922H127.814V333H126.666C125.956 333 125.424 332.837 125.07 332.51C124.715 332.183 124.538 331.647 124.538 330.9V326.378H123.544V325.328H124.538V323.396H125.812V325.328H127.814V326.378H125.812ZM136.357 328.87C136.357 329.113 136.343 329.369 136.315 329.64H130.183C130.23 330.396 130.487 330.989 130.953 331.418C131.429 331.838 132.003 332.048 132.675 332.048C133.226 332.048 133.683 331.922 134.047 331.67C134.421 331.409 134.682 331.063 134.831 330.634H136.203C135.998 331.371 135.587 331.973 134.971 332.44C134.355 332.897 133.59 333.126 132.675 333.126C131.947 333.126 131.294 332.963 130.715 332.636C130.146 332.309 129.698 331.847 129.371 331.25C129.045 330.643 128.881 329.943 128.881 329.15C128.881 328.357 129.04 327.661 129.357 327.064C129.675 326.467 130.118 326.009 130.687 325.692C131.266 325.365 131.929 325.202 132.675 325.202C133.403 325.202 134.047 325.361 134.607 325.678C135.167 325.995 135.597 326.434 135.895 326.994C136.203 327.545 136.357 328.17 136.357 328.87ZM135.041 328.604C135.041 328.119 134.934 327.703 134.719 327.358C134.505 327.003 134.211 326.737 133.837 326.56C133.473 326.373 133.067 326.28 132.619 326.28C131.975 326.28 131.425 326.485 130.967 326.896C130.519 327.307 130.263 327.876 130.197 328.604H135.041ZM145.509 325.188C146.443 325.188 147.199 325.473 147.777 326.042C148.356 326.602 148.645 327.414 148.645 328.478V333H147.385V328.66C147.385 327.895 147.194 327.311 146.811 326.91C146.429 326.499 145.906 326.294 145.243 326.294C144.571 326.294 144.035 326.504 143.633 326.924C143.241 327.344 143.045 327.955 143.045 328.758V333H141.771V325.328H143.045V326.42C143.297 326.028 143.638 325.725 144.067 325.51C144.506 325.295 144.987 325.188 145.509 325.188ZM157.726 328.87C157.726 329.113 157.712 329.369 157.684 329.64H151.552C151.599 330.396 151.856 330.989 152.322 331.418C152.798 331.838 153.372 332.048 154.044 332.048C154.595 332.048 155.052 331.922 155.416 331.67C155.79 331.409 156.051 331.063 156.2 330.634H157.572C157.367 331.371 156.956 331.973 156.34 332.44C155.724 332.897 154.959 333.126 154.044 333.126C153.316 333.126 152.663 332.963 152.084 332.636C151.515 332.309 151.067 331.847 150.74 331.25C150.414 330.643 150.25 329.943 150.25 329.15C150.25 328.357 150.409 327.661 150.726 327.064C151.044 326.467 151.487 326.009 152.056 325.692C152.635 325.365 153.298 325.202 154.044 325.202C154.772 325.202 155.416 325.361 155.976 325.678C156.536 325.995 156.966 326.434 157.264 326.994C157.572 327.545 157.726 328.17 157.726 328.87ZM156.41 328.604C156.41 328.119 156.303 327.703 156.088 327.358C155.874 327.003 155.58 326.737 155.206 326.56C154.842 326.373 154.436 326.28 153.988 326.28C153.344 326.28 152.794 326.485 152.336 326.896C151.888 327.307 151.632 327.876 151.566 328.604H156.41ZM169.628 325.328L167.234 333H165.918L164.07 326.91L162.222 333H160.906L158.498 325.328H159.8L161.564 331.768L163.468 325.328H164.77L166.632 331.782L168.368 325.328H169.628ZM176.179 326.378V330.9C176.179 331.273 176.258 331.539 176.417 331.698C176.576 331.847 176.851 331.922 177.243 331.922H178.181V333H177.033C176.324 333 175.792 332.837 175.437 332.51C175.082 332.183 174.905 331.647 174.905 330.9V326.378H173.911V325.328H174.905V323.396H176.179V325.328H178.181V326.378H176.179ZM186.724 328.87C186.724 329.113 186.71 329.369 186.682 329.64H180.55C180.597 330.396 180.854 330.989 181.32 331.418C181.796 331.838 182.37 332.048 183.042 332.048C183.593 332.048 184.05 331.922 184.414 331.67C184.788 331.409 185.049 331.063 185.198 330.634H186.57C186.365 331.371 185.954 331.973 185.338 332.44C184.722 332.897 183.957 333.126 183.042 333.126C182.314 333.126 181.661 332.963 181.082 332.636C180.513 332.309 180.065 331.847 179.738 331.25C179.412 330.643 179.248 329.943 179.248 329.15C179.248 328.357 179.407 327.661 179.724 327.064C180.042 326.467 180.485 326.009 181.054 325.692C181.633 325.365 182.296 325.202 183.042 325.202C183.77 325.202 184.414 325.361 184.974 325.678C185.534 325.995 185.964 326.434 186.262 326.994C186.57 327.545 186.724 328.17 186.724 328.87ZM185.408 328.604C185.408 328.119 185.301 327.703 185.086 327.358C184.872 327.003 184.578 326.737 184.204 326.56C183.84 326.373 183.434 326.28 182.986 326.28C182.342 326.28 181.792 326.485 181.334 326.896C180.886 327.307 180.63 327.876 180.564 328.604H185.408ZM191.122 333.126C190.534 333.126 190.007 333.028 189.54 332.832C189.073 332.627 188.705 332.347 188.434 331.992C188.163 331.628 188.014 331.213 187.986 330.746H189.302C189.339 331.129 189.517 331.441 189.834 331.684C190.161 331.927 190.585 332.048 191.108 332.048C191.593 332.048 191.976 331.941 192.256 331.726C192.536 331.511 192.676 331.241 192.676 330.914C192.676 330.578 192.527 330.331 192.228 330.172C191.929 330.004 191.467 329.841 190.842 329.682C190.273 329.533 189.806 329.383 189.442 329.234C189.087 329.075 188.779 328.847 188.518 328.548C188.266 328.24 188.14 327.839 188.14 327.344C188.14 326.952 188.257 326.593 188.49 326.266C188.723 325.939 189.055 325.683 189.484 325.496C189.913 325.3 190.403 325.202 190.954 325.202C191.803 325.202 192.489 325.417 193.012 325.846C193.535 326.275 193.815 326.863 193.852 327.61H192.578C192.55 327.209 192.387 326.887 192.088 326.644C191.799 326.401 191.407 326.28 190.912 326.28C190.455 326.28 190.091 326.378 189.82 326.574C189.549 326.77 189.414 327.027 189.414 327.344C189.414 327.596 189.493 327.806 189.652 327.974C189.82 328.133 190.025 328.263 190.268 328.366C190.52 328.459 190.865 328.567 191.304 328.688C191.855 328.837 192.303 328.987 192.648 329.136C192.993 329.276 193.287 329.491 193.53 329.78C193.782 330.069 193.913 330.447 193.922 330.914C193.922 331.334 193.805 331.712 193.572 332.048C193.339 332.384 193.007 332.65 192.578 332.846C192.158 333.033 191.673 333.126 191.122 333.126ZM197.275 326.378V330.9C197.275 331.273 197.354 331.539 197.513 331.698C197.671 331.847 197.947 331.922 198.339 331.922H199.277V333H198.129C197.419 333 196.887 332.837 196.533 332.51C196.178 332.183 196.001 331.647 196.001 330.9V326.378H195.007V325.328H196.001V323.396H197.275V325.328H199.277V326.378H197.275Z" fill="#FDFCFA"/>
</g>
<g filter="url(#filter1_d_871_20536)">
<rect x="253.5" y="312.5" width="170" height="31" rx="5.5" stroke="black" stroke-opacity="0.15" shape-rendering="crispEdges"/>
<path d="M271 326L277 321.333L283 326V333.333C283 333.687 282.86 334.026 282.609 334.276C282.359 334.526 282.02 334.666 281.667 334.666H272.333C271.98 334.666 271.641 334.526 271.391 334.276C271.14 334.026 271 333.687 271 333.333V326Z" stroke="#212427" stroke-width="1.33333" stroke-linecap="round" stroke-linejoin="round"/>
<path d="M275 334.667V328H279V334.667" stroke="#212427" stroke-width="1.33333" stroke-linecap="round" stroke-linejoin="round"/>
<path d="M302.142 323.242L298.46 333H296.99L293.308 323.242H294.666L297.732 331.656L300.798 323.242H302.142ZM304.197 324.082C303.954 324.082 303.749 323.998 303.581 323.83C303.413 323.662 303.329 323.457 303.329 323.214C303.329 322.971 303.413 322.766 303.581 322.598C303.749 322.43 303.954 322.346 304.197 322.346C304.43 322.346 304.626 322.43 304.785 322.598C304.953 322.766 305.037 322.971 305.037 323.214C305.037 323.457 304.953 323.662 304.785 323.83C304.626 323.998 304.43 324.082 304.197 324.082ZM304.813 325.328V333H303.539V325.328H304.813ZM313.984 328.87C313.984 329.113 313.97 329.369 313.942 329.64H307.81C307.857 330.396 308.114 330.989 308.58 331.418C309.056 331.838 309.63 332.048 310.302 332.048C310.853 332.048 311.31 331.922 311.674 331.67C312.048 331.409 312.309 331.063 312.458 330.634H313.83C313.625 331.371 313.214 331.973 312.598 332.44C311.982 332.897 311.217 333.126 310.302 333.126C309.574 333.126 308.921 332.963 308.342 332.636C307.773 332.309 307.325 331.847 306.998 331.25C306.672 330.643 306.508 329.943 306.508 329.15C306.508 328.357 306.667 327.661 306.984 327.064C307.302 326.467 307.745 326.009 308.314 325.692C308.893 325.365 309.556 325.202 310.302 325.202C311.03 325.202 311.674 325.361 312.234 325.678C312.794 325.995 313.224 326.434 313.522 326.994C313.83 327.545 313.984 328.17 313.984 328.87ZM312.668 328.604C312.668 328.119 312.561 327.703 312.346 327.358C312.132 327.003 311.838 326.737 311.464 326.56C311.1 326.373 310.694 326.28 310.246 326.28C309.602 326.28 309.052 326.485 308.594 326.896C308.146 327.307 307.89 327.876 307.824 328.604H312.668ZM325.886 325.328L323.492 333H322.176L320.328 326.91L318.48 333H317.164L314.756 325.328H316.058L317.822 331.768L319.726 325.328H321.028L322.89 331.782L324.626 325.328H325.886ZM330.407 329.136C330.407 328.352 330.565 327.666 330.883 327.078C331.2 326.481 331.634 326.019 332.185 325.692C332.745 325.365 333.37 325.202 334.061 325.202C334.658 325.202 335.213 325.342 335.727 325.622C336.24 325.893 336.632 326.252 336.903 326.7V322.64H338.191V333H336.903V331.558C336.651 332.015 336.277 332.393 335.783 332.692C335.288 332.981 334.709 333.126 334.047 333.126C333.365 333.126 332.745 332.958 332.185 332.622C331.634 332.286 331.2 331.815 330.883 331.208C330.565 330.601 330.407 329.911 330.407 329.136ZM336.903 329.15C336.903 328.571 336.786 328.067 336.553 327.638C336.319 327.209 336.002 326.882 335.601 326.658C335.209 326.425 334.775 326.308 334.299 326.308C333.823 326.308 333.389 326.42 332.997 326.644C332.605 326.868 332.292 327.195 332.059 327.624C331.825 328.053 331.709 328.557 331.709 329.136C331.709 329.724 331.825 330.237 332.059 330.676C332.292 331.105 332.605 331.437 332.997 331.67C333.389 331.894 333.823 332.006 334.299 332.006C334.775 332.006 335.209 331.894 335.601 331.67C336.002 331.437 336.319 331.105 336.553 330.676C336.786 330.237 336.903 329.729 336.903 329.15ZM339.868 329.136C339.868 328.352 340.026 327.666 340.344 327.078C340.661 326.481 341.095 326.019 341.646 325.692C342.206 325.365 342.826 325.202 343.508 325.202C344.18 325.202 344.763 325.347 345.258 325.636C345.752 325.925 346.121 326.289 346.364 326.728V325.328H347.652V333H346.364V331.572C346.112 332.02 345.734 332.393 345.23 332.692C344.735 332.981 344.156 333.126 343.494 333.126C342.812 333.126 342.196 332.958 341.646 332.622C341.095 332.286 340.661 331.815 340.344 331.208C340.026 330.601 339.868 329.911 339.868 329.136ZM346.364 329.15C346.364 328.571 346.247 328.067 346.014 327.638C345.78 327.209 345.463 326.882 345.062 326.658C344.67 326.425 344.236 326.308 343.76 326.308C343.284 326.308 342.85 326.42 342.458 326.644C342.066 326.868 341.753 327.195 341.52 327.624C341.286 328.053 341.17 328.557 341.17 329.136C341.17 329.724 341.286 330.237 341.52 330.676C341.753 331.105 342.066 331.437 342.458 331.67C342.85 331.894 343.284 332.006 343.76 332.006C344.236 332.006 344.67 331.894 345.062 331.67C345.463 331.437 345.78 331.105 346.014 330.676C346.247 330.237 346.364 329.729 346.364 329.15ZM352.521 333.126C351.933 333.126 351.405 333.028 350.939 332.832C350.472 332.627 350.103 332.347 349.833 331.992C349.562 331.628 349.413 331.213 349.385 330.746H350.701C350.738 331.129 350.915 331.441 351.233 331.684C351.559 331.927 351.984 332.048 352.507 332.048C352.992 332.048 353.375 331.941 353.655 331.726C353.935 331.511 354.075 331.241 354.075 330.914C354.075 330.578 353.925 330.331 353.627 330.172C353.328 330.004 352.866 329.841 352.241 329.682C351.671 329.533 351.205 329.383 350.841 329.234C350.486 329.075 350.178 328.847 349.917 328.548C349.665 328.24 349.539 327.839 349.539 327.344C349.539 326.952 349.655 326.593 349.889 326.266C350.122 325.939 350.453 325.683 350.883 325.496C351.312 325.3 351.802 325.202 352.353 325.202C353.202 325.202 353.888 325.417 354.411 325.846C354.933 326.275 355.213 326.863 355.251 327.61H353.977C353.949 327.209 353.785 326.887 353.487 326.644C353.197 326.401 352.805 326.28 352.311 326.28C351.853 326.28 351.489 326.378 351.219 326.574C350.948 326.77 350.813 327.027 350.813 327.344C350.813 327.596 350.892 327.806 351.051 327.974C351.219 328.133 351.424 328.263 351.667 328.366C351.919 328.459 352.264 328.567 352.703 328.688C353.253 328.837 353.701 328.987 354.047 329.136C354.392 329.276 354.686 329.491 354.929 329.78C355.181 330.069 355.311 330.447 355.321 330.914C355.321 331.334 355.204 331.712 354.971 332.048C354.737 332.384 354.406 332.65 353.977 332.846C353.557 333.033 353.071 333.126 352.521 333.126ZM360.927 325.188C361.506 325.188 362.028 325.314 362.495 325.566C362.962 325.809 363.326 326.177 363.587 326.672C363.858 327.167 363.993 327.769 363.993 328.478V333H362.733V328.66C362.733 327.895 362.542 327.311 362.159 326.91C361.776 326.499 361.254 326.294 360.591 326.294C359.919 326.294 359.382 326.504 358.981 326.924C358.589 327.344 358.393 327.955 358.393 328.758V333H357.119V322.64H358.393V326.42C358.645 326.028 358.99 325.725 359.429 325.51C359.877 325.295 360.376 325.188 360.927 325.188ZM367.348 326.756C367.609 326.299 367.992 325.925 368.496 325.636C369 325.347 369.574 325.202 370.218 325.202C370.909 325.202 371.529 325.365 372.08 325.692C372.631 326.019 373.065 326.481 373.382 327.078C373.699 327.666 373.858 328.352 373.858 329.136C373.858 329.911 373.699 330.601 373.382 331.208C373.065 331.815 372.626 332.286 372.066 332.622C371.515 332.958 370.899 333.126 370.218 333.126C369.555 333.126 368.972 332.981 368.468 332.692C367.973 332.403 367.6 332.034 367.348 331.586V333H366.074V322.64H367.348V326.756ZM372.556 329.136C372.556 328.557 372.439 328.053 372.206 327.624C371.973 327.195 371.655 326.868 371.254 326.644C370.862 326.42 370.428 326.308 369.952 326.308C369.485 326.308 369.051 326.425 368.65 326.658C368.258 326.882 367.941 327.213 367.698 327.652C367.465 328.081 367.348 328.581 367.348 329.15C367.348 329.729 367.465 330.237 367.698 330.676C367.941 331.105 368.258 331.437 368.65 331.67C369.051 331.894 369.485 332.006 369.952 332.006C370.428 332.006 370.862 331.894 371.254 331.67C371.655 331.437 371.973 331.105 372.206 330.676C372.439 330.237 372.556 329.724 372.556 329.136ZM378.881 333.126C378.162 333.126 377.509 332.963 376.921 332.636C376.342 332.309 375.885 331.847 375.549 331.25C375.222 330.643 375.059 329.943 375.059 329.15C375.059 328.366 375.227 327.675 375.563 327.078C375.908 326.471 376.375 326.009 376.963 325.692C377.551 325.365 378.209 325.202 378.937 325.202C379.665 325.202 380.323 325.365 380.911 325.692C381.499 326.009 381.961 326.467 382.297 327.064C382.642 327.661 382.815 328.357 382.815 329.15C382.815 329.943 382.638 330.643 382.283 331.25C381.938 331.847 381.466 332.309 380.869 332.636C380.272 332.963 379.609 333.126 378.881 333.126ZM378.881 332.006C379.338 332.006 379.768 331.899 380.169 331.684C380.57 331.469 380.892 331.147 381.135 330.718C381.387 330.289 381.513 329.766 381.513 329.15C381.513 328.534 381.392 328.011 381.149 327.582C380.906 327.153 380.589 326.835 380.197 326.63C379.805 326.415 379.38 326.308 378.923 326.308C378.456 326.308 378.027 326.415 377.635 326.63C377.252 326.835 376.944 327.153 376.711 327.582C376.478 328.011 376.361 328.534 376.361 329.15C376.361 329.775 376.473 330.303 376.697 330.732C376.93 331.161 377.238 331.483 377.621 331.698C378.004 331.903 378.424 332.006 378.881 332.006ZM384.014 329.136C384.014 328.352 384.173 327.666 384.49 327.078C384.807 326.481 385.241 326.019 385.792 325.692C386.352 325.365 386.973 325.202 387.654 325.202C388.326 325.202 388.909 325.347 389.404 325.636C389.899 325.925 390.267 326.289 390.51 326.728V325.328H391.798V333H390.51V331.572C390.258 332.02 389.88 332.393 389.376 332.692C388.881 332.981 388.303 333.126 387.64 333.126C386.959 333.126 386.343 332.958 385.792 332.622C385.241 332.286 384.807 331.815 384.49 331.208C384.173 330.601 384.014 329.911 384.014 329.136ZM390.51 329.15C390.51 328.571 390.393 328.067 390.16 327.638C389.927 327.209 389.609 326.882 389.208 326.658C388.816 326.425 388.382 326.308 387.906 326.308C387.43 326.308 386.996 326.42 386.604 326.644C386.212 326.868 385.899 327.195 385.666 327.624C385.433 328.053 385.316 328.557 385.316 329.136C385.316 329.724 385.433 330.237 385.666 330.676C385.899 331.105 386.212 331.437 386.604 331.67C386.996 331.894 387.43 332.006 387.906 332.006C388.382 332.006 388.816 331.894 389.208 331.67C389.609 331.437 389.927 331.105 390.16 330.676C390.393 330.237 390.51 329.729 390.51 329.15ZM395.225 326.574C395.449 326.135 395.766 325.795 396.177 325.552C396.597 325.309 397.106 325.188 397.703 325.188V326.504H397.367C395.939 326.504 395.225 327.279 395.225 328.828V333H393.951V325.328H395.225V326.574ZM398.698 329.136C398.698 328.352 398.856 327.666 399.174 327.078C399.491 326.481 399.925 326.019 400.476 325.692C401.036 325.365 401.661 325.202 402.352 325.202C402.949 325.202 403.504 325.342 404.018 325.622C404.531 325.893 404.923 326.252 405.194 326.7V322.64H406.482V333H405.194V331.558C404.942 332.015 404.568 332.393 404.074 332.692C403.579 332.981 403 333.126 402.338 333.126C401.656 333.126 401.036 332.958 400.476 332.622C399.925 332.286 399.491 331.815 399.174 331.208C398.856 330.601 398.698 329.911 398.698 329.136ZM405.194 329.15C405.194 328.571 405.077 328.067 404.844 327.638C404.61 327.209 404.293 326.882 403.892 326.658C403.5 326.425 403.066 326.308 402.59 326.308C402.114 326.308 401.68 326.42 401.288 326.644C400.896 326.868 400.583 327.195 400.35 327.624C400.116 328.053 400 328.557 400 329.136C400 329.724 400.116 330.237 400.35 330.676C400.583 331.105 400.896 331.437 401.288 331.67C401.68 331.894 402.114 332.006 402.59 332.006C403.066 332.006 403.5 331.894 403.892 331.67C404.293 331.437 404.61 331.105 404.844 330.676C405.077 330.237 405.194 329.729 405.194 329.15Z" fill="#212427"/>
</g>
<g filter="url(#filter2_d_871_20536)">
<rect x="436.5" y="312.5" width="139" height="31" rx="5.5" stroke="black" stroke-opacity="0.15" shape-rendering="crispEdges"/>
<path d="M454 328C454 326.409 454.632 324.883 455.757 323.757C456.883 322.632 458.409 322 460 322C461.677 322.006 463.287 322.661 464.493 323.827L466 325.333" stroke="#212427" stroke-width="1.33333" stroke-linecap="round" stroke-linejoin="round"/>
<path d="M466 322V325.333H462.667" stroke="#212427" stroke-width="1.33333" stroke-linecap="round" stroke-linejoin="round"/>
<path d="M466 328C466 329.591 465.368 331.117 464.243 332.243C463.117 333.368 461.591 334 460 334C458.323 333.994 456.713 333.339 455.507 332.173L454 330.667" stroke="#212427" stroke-width="1.33333" stroke-linecap="round" stroke-linejoin="round"/>
<path d="M457.333 330.667H454V334" stroke="#212427" stroke-width="1.33333" stroke-linecap="round" stroke-linejoin="round"/>
<path d="M482.216 333L479.892 329.01H478.352V333H477.078V323.242H480.228C480.965 323.242 481.586 323.368 482.09 323.62C482.603 323.872 482.986 324.213 483.238 324.642C483.49 325.071 483.616 325.561 483.616 326.112C483.616 326.784 483.42 327.377 483.028 327.89C482.645 328.403 482.067 328.744 481.292 328.912L483.742 333H482.216ZM478.352 327.988H480.228C480.919 327.988 481.437 327.82 481.782 327.484C482.127 327.139 482.3 326.681 482.3 326.112C482.3 325.533 482.127 325.085 481.782 324.768C481.446 324.451 480.928 324.292 480.228 324.292H478.352V327.988ZM492.4 325.328V333H491.126V331.866C490.883 332.258 490.542 332.566 490.104 332.79C489.674 333.005 489.198 333.112 488.676 333.112C488.078 333.112 487.542 332.991 487.066 332.748C486.59 332.496 486.212 332.123 485.932 331.628C485.661 331.133 485.526 330.531 485.526 329.822V325.328H486.786V329.654C486.786 330.41 486.977 330.993 487.36 331.404C487.742 331.805 488.265 332.006 488.928 332.006C489.609 332.006 490.146 331.796 490.538 331.376C490.93 330.956 491.126 330.345 491.126 329.542V325.328H492.4ZM498.289 325.188C499.222 325.188 499.978 325.473 500.557 326.042C501.135 326.602 501.425 327.414 501.425 328.478V333H500.165V328.66C500.165 327.895 499.973 327.311 499.591 326.91C499.208 326.499 498.685 326.294 498.023 326.294C497.351 326.294 496.814 326.504 496.413 326.924C496.021 327.344 495.825 327.955 495.825 328.758V333H494.551V325.328H495.825V326.42C496.077 326.028 496.417 325.725 496.847 325.51C497.285 325.295 497.766 325.188 498.289 325.188ZM506.762 329.136C506.762 328.352 506.921 327.666 507.238 327.078C507.555 326.481 507.989 326.019 508.54 325.692C509.1 325.365 509.721 325.202 510.402 325.202C511.074 325.202 511.657 325.347 512.152 325.636C512.647 325.925 513.015 326.289 513.258 326.728V325.328H514.546V333H513.258V331.572C513.006 332.02 512.628 332.393 512.124 332.692C511.629 332.981 511.051 333.126 510.388 333.126C509.707 333.126 509.091 332.958 508.54 332.622C507.989 332.286 507.555 331.815 507.238 331.208C506.921 330.601 506.762 329.911 506.762 329.136ZM513.258 329.15C513.258 328.571 513.141 328.067 512.908 327.638C512.675 327.209 512.357 326.882 511.956 326.658C511.564 326.425 511.13 326.308 510.654 326.308C510.178 326.308 509.744 326.42 509.352 326.644C508.96 326.868 508.647 327.195 508.414 327.624C508.181 328.053 508.064 328.557 508.064 329.136C508.064 329.724 508.181 330.237 508.414 330.676C508.647 331.105 508.96 331.437 509.352 331.67C509.744 331.894 510.178 332.006 510.654 332.006C511.13 332.006 511.564 331.894 511.956 331.67C512.357 331.437 512.675 331.105 512.908 330.676C513.141 330.237 513.258 329.729 513.258 329.15ZM517.973 322.64V333H516.699V322.64H517.973ZM521.418 322.64V333H520.144V322.64H521.418ZM528.876 326.378V330.9C528.876 331.273 528.955 331.539 529.114 331.698C529.273 331.847 529.548 331.922 529.94 331.922H530.878V333H529.73C529.021 333 528.489 332.837 528.134 332.51C527.779 332.183 527.602 331.647 527.602 330.9V326.378H526.608V325.328H527.602V323.396H528.876V325.328H530.878V326.378H528.876ZM539.422 328.87C539.422 329.113 539.408 329.369 539.38 329.64H533.248C533.294 330.396 533.551 330.989 534.018 331.418C534.494 331.838 535.068 332.048 535.74 332.048C536.29 332.048 536.748 331.922 537.112 331.67C537.485 331.409 537.746 331.063 537.896 330.634H539.268C539.062 331.371 538.652 331.973 538.036 332.44C537.42 332.897 536.654 333.126 535.74 333.126C535.012 333.126 534.358 332.963 533.78 332.636C533.21 332.309 532.762 331.847 532.436 331.25C532.109 330.643 531.946 329.943 531.946 329.15C531.946 328.357 532.104 327.661 532.422 327.064C532.739 326.467 533.182 326.009 533.752 325.692C534.33 325.365 534.993 325.202 535.74 325.202C536.468 325.202 537.112 325.361 537.672 325.678C538.232 325.995 538.661 326.434 538.96 326.994C539.268 327.545 539.422 328.17 539.422 328.87ZM538.106 328.604C538.106 328.119 537.998 327.703 537.784 327.358C537.569 327.003 537.275 326.737 536.902 326.56C536.538 326.373 536.132 326.28 535.684 326.28C535.04 326.28 534.489 326.485 534.032 326.896C533.584 327.307 533.327 327.876 533.262 328.604H538.106ZM543.819 333.126C543.231 333.126 542.704 333.028 542.237 332.832C541.771 332.627 541.402 332.347 541.131 331.992C540.861 331.628 540.711 331.213 540.683 330.746H541.999C542.037 331.129 542.214 331.441 542.531 331.684C542.858 331.927 543.283 332.048 543.805 332.048C544.291 332.048 544.673 331.941 544.953 331.726C545.233 331.511 545.373 331.241 545.373 330.914C545.373 330.578 545.224 330.331 544.925 330.172C544.627 330.004 544.165 329.841 543.539 329.682C542.97 329.533 542.503 329.383 542.139 329.234C541.785 329.075 541.477 328.847 541.215 328.548C540.963 328.24 540.837 327.839 540.837 327.344C540.837 326.952 540.954 326.593 541.187 326.266C541.421 325.939 541.752 325.683 542.181 325.496C542.611 325.3 543.101 325.202 543.651 325.202C544.501 325.202 545.187 325.417 545.709 325.846C546.232 326.275 546.512 326.863 546.549 327.61H545.275C545.247 327.209 545.084 326.887 544.785 326.644C544.496 326.401 544.104 326.28 543.609 326.28C543.152 326.28 542.788 326.378 542.517 326.574C542.247 326.77 542.111 327.027 542.111 327.344C542.111 327.596 542.191 327.806 542.349 327.974C542.517 328.133 542.723 328.263 542.965 328.366C543.217 328.459 543.563 328.567 544.001 328.688C544.552 328.837 545 328.987 545.345 329.136C545.691 329.276 545.985 329.491 546.227 329.78C546.479 330.069 546.61 330.447 546.619 330.914C546.619 331.334 546.503 331.712 546.269 332.048C546.036 332.384 545.705 332.65 545.275 332.846C544.855 333.033 544.37 333.126 543.819 333.126ZM549.972 326.378V330.9C549.972 331.273 550.051 331.539 550.21 331.698C550.369 331.847 550.644 331.922 551.036 331.922H551.974V333H550.826C550.117 333 549.585 332.837 549.23 332.51C548.875 332.183 548.698 331.647 548.698 330.9V326.378H547.704V325.328H548.698V323.396H549.972V325.328H551.974V326.378H549.972ZM556.233 333.126C555.645 333.126 555.118 333.028 554.651 332.832C554.185 332.627 553.816 332.347 553.545 331.992C553.275 331.628 553.125 331.213 553.097 330.746H554.413C554.451 331.129 554.628 331.441 554.945 331.684C555.272 331.927 555.697 332.048 556.219 332.048C556.705 332.048 557.087 331.941 557.367 331.726C557.647 331.511 557.787 331.241 557.787 330.914C557.787 330.578 557.638 330.331 557.339 330.172C557.041 330.004 556.579 329.841 555.953 329.682C555.384 329.533 554.917 329.383 554.553 329.234C554.199 329.075 553.891 328.847 553.629 328.548C553.377 328.24 553.251 327.839 553.251 327.344C553.251 326.952 553.368 326.593 553.601 326.266C553.835 325.939 554.166 325.683 554.595 325.496C555.025 325.3 555.515 325.202 556.065 325.202C556.915 325.202 557.601 325.417 558.123 325.846C558.646 326.275 558.926 326.863 558.963 327.61H557.689C557.661 327.209 557.498 326.887 557.199 326.644C556.91 326.401 556.518 326.28 556.023 326.28C555.566 326.28 555.202 326.378 554.931 326.574C554.661 326.77 554.525 327.027 554.525 327.344C554.525 327.596 554.605 327.806 554.763 327.974C554.931 328.133 555.137 328.263 555.379 328.366C555.631 328.459 555.977 328.567 556.415 328.688C556.966 328.837 557.414 328.987 557.759 329.136C558.105 329.276 558.399 329.491 558.641 329.78C558.893 330.069 559.024 330.447 559.033 330.914C559.033 331.334 558.917 331.712 558.683 332.048C558.45 332.384 558.119 332.65 557.689 332.846C557.269 333.033 556.784 333.126 556.233 333.126Z" fill="#212427"/>
</g>
</g>
<rect x="0.5" y="0.5" width="599" height="359" rx="11.5" stroke="#388AEB" stroke-dasharray="4 4"/>
<defs>
<filter id="filter0_d_871_20536" x="24" y="312" width="217" height="34" filterUnits="userSpaceOnUse" color-interpolation-filters="sRGB">
<feFlood flood-opacity="0" result="BackgroundImageFix"/>
<feColorMatrix in="SourceAlpha" type="matrix" values="0 0 0 0 0 0 0 0 0 0 0 0 0 0 0 0 0 0 127 0" result="hardAlpha"/>
<feOffset dy="2"/>
<feComposite in2="hardAlpha" operator="out"/>
<feColorMatrix type="matrix" values="0 0 0 0 0 0 0 0 0 0 0 0 0 0 0 0 0 0 0.02 0"/>
<feBlend mode="normal" in2="BackgroundImageFix" result="effect1_dropShadow_871_20536"/>
<feBlend mode="normal" in="SourceGraphic" in2="effect1_dropShadow_871_20536" result="shape"/>
</filter>
<filter id="filter1_d_871_20536" x="253" y="312" width="171" height="34" filterUnits="userSpaceOnUse" color-interpolation-filters="sRGB">
<feFlood flood-opacity="0" result="BackgroundImageFix"/>
<feColorMatrix in="SourceAlpha" type="matrix" values="0 0 0 0 0 0 0 0 0 0 0 0 0 0 0 0 0 0 127 0" result="hardAlpha"/>
<feOffset dy="2"/>
<feComposite in2="hardAlpha" operator="out"/>
<feColorMatrix type="matrix" values="0 0 0 0 0 0 0 0 0 0 0 0 0 0 0 0 0 0 0.02 0"/>
<feBlend mode="normal" in2="BackgroundImageFix" result="effect1_dropShadow_871_20536"/>
<feBlend mode="normal" in="SourceGraphic" in2="effect1_dropShadow_871_20536" result="shape"/>
</filter>
<filter id="filter2_d_871_20536" x="436" y="312" width="140" height="34" filterUnits="userSpaceOnUse" color-interpolation-filters="sRGB">
<feFlood flood-opacity="0" result="BackgroundImageFix"/>
<feColorMatrix in="SourceAlpha" type="matrix" values="0 0 0 0 0 0 0 0 0 0 0 0 0 0 0 0 0 0 127 0" result="hardAlpha"/>
<feOffset dy="2"/>
<feComposite in2="hardAlpha" operator="out"/>
<feColorMatrix type="matrix" values="0 0 0 0 0 0 0 0 0 0 0 0 0 0 0 0 0 0 0.02 0"/>
<feBlend mode="normal" in2="BackgroundImageFix" result="effect1_dropShadow_871_20536"/>
<feBlend mode="normal" in="SourceGraphic" in2="effect1_dropShadow_871_20536" result="shape"/>
</filter>
<clipPath id="clip0_871_20536">
<rect width="600" height="360" rx="12" fill="white"/>
</clipPath>
<clipPath id="clip1_871_20536">
<rect x="24" y="72" width="552" height="224" rx="6" fill="white"/>
</clipPath>
<clipPath id="clip2_871_20536">
<rect width="16" height="16" fill="white" transform="translate(36 84)"/>
</clipPath>
<clipPath id="clip3_871_20536">
<rect width="16" height="16" fill="white" transform="translate(36 124)"/>
</clipPath>
<clipPath id="clip4_871_20536">
<rect width="16" height="16" fill="white" transform="translate(36 164)"/>
</clipPath>
<clipPath id="clip5_871_20536">
<rect width="16" height="16" fill="white" transform="translate(36 204)"/>
</clipPath>
<clipPath id="clip6_871_20536">
<rect width="16" height="16" fill="white" transform="translate(36 244)"/>
</clipPath>
<clipPath id="clip7_871_20536">
<rect width="16" height="16" fill="white" transform="translate(36 284)"/>
</clipPath>
<clipPath id="clip8_871_20536">
<rect width="16" height="16" fill="white" transform="translate(65 320)"/>
</clipPath>
</defs>
</svg>
