<svg width="24" height="24" viewBox="0 0 24 24" fill="none" xmlns="http://www.w3.org/2000/svg">
<rect width="24" height="24" rx="12" fill="#E1654A"/>
<path d="M12.975 6.185L12.754 14.43H11.139L10.918 6.185H12.975ZM12.006 18.119C11.6547 18.119 11.36 18 11.122 17.762C10.884 17.524 10.765 17.2293 10.765 16.878C10.765 16.5267 10.884 16.232 11.122 15.994C11.36 15.756 11.6547 15.637 12.006 15.637C12.346 15.637 12.635 15.756 12.873 15.994C13.111 16.232 13.23 16.5267 13.23 16.878C13.23 17.2293 13.111 17.524 12.873 17.762C12.635 18 12.346 18.119 12.006 18.119Z" fill="white"/>
</svg>
