<svg width="148" height="32" viewBox="0 0 148 32" fill="none" xmlns="http://www.w3.org/2000/svg">
<path d="M24.0296 16.07H23.3511V18.6227H24.0296V16.07Z" fill="black"/>
<path d="M18.7412 27.0024L21.3047 27.2178V25.6776H18.7412V27.0024Z" fill="black"/>
<path d="M10.0168 26.3023L12.5803 26.5069V25.7206H10.0168V26.3023Z" fill="black"/>
<path d="M11.2986 32H7.41034C7.11952 32 6.88257 31.7631 6.88257 31.4722V31.4615C6.88257 30.3521 7.78731 29.4473 8.8967 29.4473H10.0169V26.2915L12.5695 26.4854V30.7291C12.5803 31.4292 12.0095 32 11.2986 32Z" fill="#388AEB"/>
<path d="M20.0229 32H23.9112C24.202 32 24.439 31.7631 24.439 31.4722V31.4615C24.439 30.3521 23.5342 29.4473 22.4248 29.4473H21.3047V27.1424L18.752 26.9485V30.7183C18.7412 31.4292 19.3121 32 20.0229 32Z" fill="#388AEB"/>
<path d="M21.9294 25.7529H9.39217C8.58436 25.7529 7.93811 25.0959 7.93811 24.2989V13.2912C7.93811 9.70448 10.8678 6.77483 14.4544 6.77483H16.8886C20.4753 6.77483 23.405 9.70448 23.405 13.2912V24.2989C23.3942 25.0959 22.7264 25.7529 21.9294 25.7529Z" fill="#388AEB"/>
<path d="M7.14103 16.0592C3.93134 16.0592 1.31404 18.6765 1.31404 21.8862V23.9973C0.527768 24.5143 0 25.3975 0 26.41C0 27.7779 0.96937 28.9519 2.30495 29.2319C2.36957 29.2427 2.42343 29.2427 2.48805 29.2427C2.91888 29.2427 3.29586 28.9411 3.38203 28.5103C3.42511 28.2733 3.38203 28.0256 3.25278 27.8317C3.11276 27.6271 2.91888 27.487 2.68192 27.444C2.18647 27.347 1.8418 26.9054 1.8418 26.41C1.8418 25.8284 2.31572 25.3544 2.89734 25.3544C3.33894 25.3544 3.73746 25.6345 3.88825 26.033C3.97442 26.2592 4.14675 26.4423 4.36217 26.5392C4.58835 26.6362 4.82531 26.6469 5.06227 26.5608C5.52541 26.3884 5.77314 25.8499 5.59004 25.3867C5.28846 24.5897 4.65298 23.9865 3.87748 23.6957V21.8755C3.87748 20.0767 5.35308 18.6012 7.1518 18.6012H9.96298V16.0485H7.14103V16.0592Z" fill="#388AEB"/>
<path d="M31.3106 8.27197C31.3106 6.90408 30.3413 5.73006 29.0057 5.45002C28.9411 5.43924 28.8872 5.43925 28.8226 5.43925C28.3918 5.43925 28.0148 5.74083 27.9286 6.17167C27.8855 6.40862 27.9286 6.65634 28.0579 6.85022C28.1979 7.05486 28.3918 7.19489 28.6287 7.23798C29.1242 7.33491 29.4688 7.77651 29.4688 8.27197C29.4688 8.85359 28.9949 9.3275 28.4133 9.3275C27.9717 9.3275 27.5732 9.04747 27.4224 8.64895C27.3362 8.42276 27.1639 8.23965 26.9485 8.14271C26.7331 8.04577 26.4853 8.03501 26.2484 8.12118C25.7852 8.29351 25.5375 8.83205 25.7206 9.29519C26.0222 10.0922 26.6577 10.6954 27.4332 10.9862V12.8065C27.4332 14.6052 25.9576 16.0808 24.1588 16.0808H24.0081V18.6335H24.1804C27.3901 18.6335 30.0074 16.0162 30.0074 12.8065V10.6954C30.7937 10.1676 31.3106 9.28442 31.3106 8.27197Z" fill="#388AEB"/>
<path d="M15.6606 24.2127C16.0889 24.2127 16.4361 23.8655 16.4361 23.4372C16.4361 23.0089 16.0889 22.6617 15.6606 22.6617C15.2323 22.6617 14.8851 23.0089 14.8851 23.4372C14.8851 23.8655 15.2323 24.2127 15.6606 24.2127Z" fill="#314F8F"/>
<path d="M19.4951 24.2127C19.9234 24.2127 20.2706 23.8655 20.2706 23.4372C20.2706 23.0089 19.9234 22.6617 19.4951 22.6617C19.0668 22.6617 18.7196 23.0089 18.7196 23.4372C18.7196 23.8655 19.0668 24.2127 19.4951 24.2127Z" fill="#314F8F"/>
<path d="M11.8263 24.2127C12.2546 24.2127 12.6018 23.8655 12.6018 23.4372C12.6018 23.0089 12.2546 22.6617 11.8263 22.6617C11.398 22.6617 11.0508 23.0089 11.0508 23.4372C11.0508 23.8655 11.398 24.2127 11.8263 24.2127Z" fill="#314F8F"/>
<path d="M23.8358 7.09795H22.511C21.9186 4.46988 19.8506 2.39112 17.2225 1.8095V0.850895C17.2225 0.387751 16.8348 0 16.3716 0H14.9714C14.5083 0 14.1206 0.387751 14.1206 0.850895V1.8095C13.9698 1.9172 13.9267 2.01413 13.7867 2.05722C13.6143 2.1003 13.3666 2.12185 13.2158 2.07877C11.0186 2.89735 9.33833 4.78223 8.82133 7.10872H7.49652C7.03338 7.10872 6.64563 7.49647 6.64563 7.95961V9.35981C6.64563 9.82296 7.03338 10.2107 7.49652 10.2107H23.8358C24.2989 10.2107 24.6867 9.82296 24.6867 9.35981V7.95961C24.6759 7.47493 24.2989 7.09795 23.8358 7.09795Z" fill="#314F8F"/>
<path d="M14.1204 5.12689V1.78795C13.8189 1.85257 13.5065 1.94951 13.2157 2.05722L14.1204 5.12689Z" fill="black"/>
<path d="M18.8596 11.3847H12.451C11.1585 11.3847 10.1138 12.4295 10.1138 13.722V17.2225C10.1138 18.515 11.1585 19.5597 12.451 19.5597H14.9714L18.0518 21.8108C18.3103 22.0047 18.6765 21.8216 18.6765 21.4985V19.5705H18.8489C20.1414 19.5705 21.1861 18.5258 21.1861 17.2333V13.7328C21.1969 12.4295 20.1521 11.3847 18.8596 11.3847Z" fill="white"/>
<path d="M13.0219 16.5332C12.4403 16.5332 11.9556 16.0592 11.9556 15.4668V14.5513C11.9556 13.9697 12.4295 13.485 13.0219 13.485C13.6035 13.485 14.0882 13.9589 14.0882 14.5513V15.4668C14.0774 16.0592 13.6035 16.5332 13.0219 16.5332Z" fill="black"/>
<path d="M18.2996 16.5332C18.8812 16.5332 19.3659 16.0592 19.3659 15.4668V14.5513C19.3659 13.9697 18.892 13.485 18.2996 13.485C17.718 13.485 17.2333 13.9589 17.2333 14.5513V15.4668C17.244 16.0592 17.718 16.5332 18.2996 16.5332Z" fill="black"/>
<path d="M52.9142 18.375C52.9142 22.2201 50.5769 24.7836 47.0226 24.7836C45.2561 24.7836 43.8667 24.0727 42.9404 22.8017V24.6436H39.3107V7.16257H42.9404V13.8405C43.8344 12.5695 45.2238 11.8586 46.9472 11.8586C50.5015 11.8479 52.9142 14.4652 52.9142 18.375ZM49.2306 18.2565C49.2306 16.2316 47.9596 14.7667 46.0963 14.7667C44.2329 14.7667 42.9404 16.1993 42.9404 18.2565C42.9404 20.346 44.2329 21.7678 46.0963 21.7678C47.9596 21.7785 49.2306 20.3352 49.2306 18.2565Z" fill="#314F8F"/>
<path d="M68.2087 18.3103C68.2087 22.177 65.4729 24.7943 61.4231 24.7943C57.341 24.7943 54.616 22.177 54.616 18.3103C54.616 14.4221 57.3517 11.8479 61.4231 11.8479C65.4837 11.8479 68.2087 14.4221 68.2087 18.3103ZM58.2565 18.3534C58.2565 20.4214 59.5274 21.8432 61.4123 21.8432C63.2757 21.8432 64.5682 20.4322 64.5682 18.3534C64.5682 16.2854 63.2757 14.8637 61.4123 14.8637C59.5382 14.8637 58.2565 16.2854 58.2565 18.3534Z" fill="#314F8F"/>
<path d="M78.8609 23.9327C77.9131 24.482 76.7391 24.8051 75.5651 24.8051C73.3032 24.8051 71.5799 23.5126 71.5799 20.8953V15.0252H69.8135V12.5264H71.5799V9.03669H75.1881V12.5264H78.6348V15.0468H75.1881V20.2814C75.1881 21.3369 75.6297 21.7678 76.416 21.7462C76.8791 21.7462 77.45 21.5739 78.107 21.2831L78.8609 23.9327Z" fill="#314F8F"/>
<path d="M89.3087 23.9327C88.3609 24.482 87.1868 24.8051 86.0128 24.8051C83.751 24.8051 82.0276 23.5126 82.0276 20.8953V15.0252H80.2612V12.5264H82.0276V9.03669H85.6359V12.5264H89.0825V15.0468H85.6359V20.2814C85.6359 21.3369 86.0775 21.7678 86.8637 21.7462C87.3269 21.7462 87.8977 21.5739 88.5547 21.2831L89.3087 23.9327Z" fill="#314F8F"/>
<path d="M103.472 19.4089H94.3709C94.791 21.0138 96.0189 21.9509 97.6453 21.9509C98.8516 21.9509 99.9825 21.4877 100.855 20.6045L102.761 22.5325C101.49 23.9434 99.6271 24.7728 97.3329 24.7728C93.2723 24.7728 90.7089 22.177 90.7089 18.3319C90.7089 14.4221 93.3693 11.8263 97.236 11.8263C101.706 11.8479 103.785 14.7883 103.472 19.4089ZM100.079 17.2656C100.036 15.5961 98.9485 14.5082 97.2683 14.5082C95.6634 14.5082 94.5864 15.5853 94.2955 17.2656H100.079Z" fill="#314F8F"/>
<path d="M115.514 13.2157L114.265 15.693C112.875 14.9175 111.453 14.4652 110.398 14.4652C109.547 14.4652 108.933 14.7452 108.933 15.413C108.933 17.3194 115.632 16.3608 115.611 20.8415C115.611 23.4372 113.328 24.8051 110.452 24.8051C108.405 24.8051 106.391 24.1912 104.959 23.0387L106.143 20.583C107.468 21.5954 109.159 22.1663 110.559 22.1663C111.475 22.1663 112.164 21.8647 112.164 21.1754C112.164 19.1504 105.594 20.2275 105.594 15.7792C105.594 13.1619 107.834 11.8155 110.592 11.8155C112.315 11.8048 114.103 12.3218 115.514 13.2157Z" fill="#314F8F"/>
<path d="M126.296 23.9327C125.348 24.482 124.174 24.8051 123 24.8051C120.738 24.8051 119.014 23.5126 119.014 20.8953V15.0252H117.248V12.5264H119.014V9.03669H122.623V12.5264H126.069V15.0468H122.623V20.2814C122.623 21.3369 123.064 21.7678 123.851 21.7462C124.314 21.7462 124.885 21.5739 125.542 21.2831L126.296 23.9327Z" fill="#314F8F"/>
<path d="M130.087 23.965C130.087 24.4605 129.71 24.8374 129.257 24.8374C128.805 24.8374 128.46 24.4605 128.46 23.965C128.46 23.5019 128.816 23.1357 129.257 23.1357C129.699 23.1357 130.087 23.4911 130.087 23.965Z" fill="#314F8F"/>
<path d="M141.073 22.2201C140.039 23.9111 138.283 24.6759 136.172 24.6759C133.738 24.6759 132.112 23.1464 132.112 21.0677C132.112 19.0212 133.857 17.7718 136.679 17.7718H141.041V16.5655C141.019 14.4975 139.813 13.2481 137.368 13.2481C135.839 13.2481 134.535 13.862 133.243 14.8529L132.78 14.099C134.244 13.0434 135.655 12.3541 137.519 12.3541C140.416 12.3541 141.999 13.9589 142.021 16.5008L142.064 24.6543H141.095L141.073 22.2201ZM141.073 20.6368V18.6335H136.786C134.384 18.6335 133.06 19.4628 133.06 21.0353C133.06 22.6617 134.309 23.7711 136.312 23.7711C138.596 23.7711 140.319 22.791 141.073 20.6368Z" fill="#314F8F"/>
<path d="M147.223 8.83204C147.223 9.3275 146.846 9.70447 146.394 9.70447C145.952 9.70447 145.564 9.3275 145.564 8.83204C145.564 8.3689 145.941 7.98115 146.394 7.98115C146.846 7.98115 147.223 8.35813 147.223 8.83204ZM145.898 24.6543V12.3756H146.868V24.6543H145.898Z" fill="#314F8F"/>
</svg>
