<svg width="590" height="520" viewBox="0 0 590 520" fill="none" xmlns="http://www.w3.org/2000/svg">
<path d="M370.266 199.472C370.662 199.109 410.737 181.554 406.911 121.352" stroke="#388AEB" stroke-width="0.5" stroke-miterlimit="10"/>
<path d="M387.91 85.6675C387.91 85.6675 390.402 100.794 399.079 108.443" stroke="#388AEB" stroke-width="0.5" stroke-miterlimit="10"/>
<path d="M409.047 76.1771C409.047 76.1771 414.843 90.373 411.452 101.427" stroke="#388AEB" stroke-width="0.5" stroke-miterlimit="10"/>
<path d="M370.763 100.992C373.036 106.588 381.039 130.981 408.65 125.523C409.146 125.424 412.252 124.751 415.286 123.193C425.06 118.171 428.391 106.668 429.342 103.744C431.754 96.3392 431.695 88.4394 428.146 84.8954C423.949 80.698 415.226 83.7734 415.286 90.5711C415.345 97.3621 415.021 101.876 412.179 99.8568C409.338 97.8439 408.327 84.9944 400.581 86.6377C392.836 88.281 398.328 99.8304 393.834 102.926C389.333 106.021 385.606 94.4319 381.839 92.2144C376.01 88.7892 368.873 96.3392 370.763 100.992Z" fill="url(#paint0_linear_7401_65189)" stroke="#388AEB" stroke-width="0.75" stroke-miterlimit="10"/>
<path d="M407.836 82.5656C410.88 82.5656 413.347 80.1013 413.347 77.0615C413.347 74.0217 410.88 71.5574 407.836 71.5574C404.792 71.5574 402.324 74.0217 402.324 77.0615C402.324 80.1013 404.792 82.5656 407.836 82.5656Z" fill="url(#paint1_linear_7401_65189)" stroke="#388AEB" stroke-width="0.75" stroke-miterlimit="10"/>
<path d="M384.457 88.4063C387.501 88.4063 389.969 85.942 389.969 82.9022C389.969 79.8624 387.501 77.3981 384.457 77.3981C381.413 77.3981 378.945 79.8624 378.945 82.9022C378.945 85.942 381.413 88.4063 384.457 88.4063Z" fill="url(#paint2_linear_7401_65189)" stroke="#388AEB" stroke-width="0.75" stroke-miterlimit="10"/>
<path d="M391.044 167.992C391.044 167.992 389.041 152.542 378.514 141.25C367.986 129.958 360.168 128.981 360.168 128.981C360.168 128.981 362.144 152.542 372.533 161.98C382.928 171.417 391.044 167.992 391.044 167.992Z" stroke="#388AEB" stroke-width="0.5" stroke-miterlimit="10"/>
<path d="M400.733 165.451C400.733 165.451 410.19 139.824 440.26 125.153C456.193 117.379 466.978 120.916 466.978 120.916C466.978 120.916 466.76 160.422 400.727 165.451H400.733Z" stroke="#388AEB" stroke-width="0.5" stroke-miterlimit="10"/>
<path d="M400.73 165.451C401.259 164.996 453.349 129.456 458.087 128.506" stroke="#388AEB" stroke-width="0.5" stroke-miterlimit="10"/>
<path d="M388.498 165.603C387.857 164.349 372.981 143.897 367.516 140.603" stroke="#388AEB" stroke-width="0.5" stroke-miterlimit="10"/>
<path d="M251.591 373.912C251.05 373.97 210.942 392.895 167.61 348.985" stroke="#388AEB" stroke-width="0.5" stroke-miterlimit="10"/>
<path d="M153.641 309.427C153.641 309.427 163.512 321.634 163.556 333.519" stroke="#388AEB" stroke-width="0.5" stroke-miterlimit="10"/>
<path d="M132.09 318.772C132.09 318.772 138.985 333.008 149.578 337.956" stroke="#388AEB" stroke-width="0.5" stroke-miterlimit="10"/>
<path d="M176.728 306.822C179.51 312.326 192.926 334.863 170.077 352.248C169.666 352.559 167.05 354.475 163.801 355.739C153.329 359.812 142.206 354.603 139.308 353.359C131.967 350.211 125.913 344.844 125.574 339.749C125.169 333.72 133.43 329.138 138.634 333.763C143.833 338.383 147.534 341.177 147.894 337.649C148.26 334.125 139.029 324.698 145.525 319.897C152.021 315.096 157.224 327.065 162.646 325.723C168.072 324.375 161.647 313.725 162.479 309.358C163.771 302.604 174.414 302.246 176.728 306.822Z" fill="url(#paint3_linear_7401_65189)" stroke="#388AEB" stroke-width="0.75" stroke-miterlimit="10"/>
<path d="M137.918 322.192C135.871 324.521 132.318 324.744 129.982 322.69C127.646 320.636 127.411 317.083 129.458 314.754C131.505 312.425 135.058 312.202 137.394 314.256C139.73 316.31 139.964 319.863 137.918 322.192Z" fill="url(#paint4_linear_7401_65189)" stroke="#388AEB" stroke-width="0.75" stroke-miterlimit="10"/>
<path d="M158.422 308.643C156.375 310.972 152.822 311.195 150.486 309.14C148.15 307.086 147.915 303.533 149.962 301.204C152.009 298.875 155.562 298.652 157.898 300.706C160.234 302.761 160.468 306.314 158.422 308.643Z" fill="url(#paint5_linear_7401_65189)" stroke="#388AEB" stroke-width="0.75" stroke-miterlimit="10"/>
<path d="M214.179 368.527C214.179 368.527 203.684 356.526 202.091 340.804C200.498 325.082 204.992 318.425 204.992 318.425C204.992 318.425 221.72 335.9 221.985 350.259C222.245 364.624 214.179 368.527 214.179 368.527Z" stroke="#388AEB" stroke-width="0.5" stroke-miterlimit="10"/>
<path d="M205.022 373.337C205.022 373.337 178.856 363.289 147.223 376.335C130.461 383.248 125.906 393.853 125.906 393.853C125.906 393.853 156.544 420.292 205.027 373.332L205.022 373.337Z" stroke="#388AEB" stroke-width="0.5" stroke-miterlimit="10"/>
<path d="M205.022 373.456C204.313 373.552 141.658 389.325 137.721 392.296" stroke="#388AEB" stroke-width="0.5" stroke-miterlimit="10"/>
<path d="M213.949 364.961C213.418 363.621 207.717 338.377 208.859 331.96" stroke="#388AEB" stroke-width="0.5" stroke-miterlimit="10"/>
<path d="M439.88 294.991C439.88 312.885 436.139 329.878 429.394 345.286C410.032 389.544 365.846 420.47 314.452 420.47C305.085 420.47 295.937 419.432 287.17 417.492C275.4 414.869 264.259 410.607 253.99 404.925C215.267 383.561 189.023 342.336 189.023 294.964C189.023 289.39 189.406 283.899 190.089 278.517C197.243 223.987 239.38 180.44 293.233 171.261C300.115 170.086 307.242 169.458 314.452 169.458C345.966 169.458 374.749 181.068 396.787 200.247C407.246 209.371 416.204 220.19 423.195 232.293C429.093 242.537 433.599 253.684 436.439 265.459C438.706 274.911 439.907 284.801 439.907 294.936L439.88 294.991Z" fill="white" stroke="#388AEB" stroke-miterlimit="10"/>
<path d="M332.367 340.506L329.227 353.073C327.616 359.52 321.826 364.055 315.163 364.055H315.054C308.609 364.519 303.093 368.809 301.072 374.956L287.117 417.519C275.347 414.897 264.205 410.635 253.937 404.952L255.521 386.566C256.067 379.573 253.5 372.688 248.503 367.77L235.75 355.203C231.326 350.832 228.786 344.931 228.65 338.73L228.185 316.546L232.418 314.907C236.132 313.459 238.563 309.826 238.426 305.837L238.208 298.952C238.071 294.855 235.313 291.303 231.353 290.21L190.035 278.545C197.19 224.015 239.327 180.467 293.18 171.288C293.18 171.288 329.063 185.849 312.432 211.311C304.595 223.305 291.295 235.598 287.472 240.543C286.189 242.21 285.561 244.313 285.779 246.417L286.325 251.498C286.735 255.187 284.851 258.902 281.437 260.323C280.399 260.76 279.307 260.951 278.269 260.951C275.402 260.951 272.671 259.476 271.169 256.853C268.547 252.291 264.506 248.684 259.672 246.581L251.561 243.084C246.619 240.953 240.966 241.199 236.241 243.822C234.848 244.587 233.428 245.379 232.2 246.144C228.404 248.466 227.339 253.52 229.878 257.181L254.702 293.051H272.944C276.822 293.051 280.563 294.363 283.622 296.74L288.291 300.4C291.323 302.805 295.091 304.089 298.969 304.089C333.405 306.657 334.224 333.129 332.395 340.478L332.367 340.506Z" fill="url(#paint6_linear_7401_65189)" stroke="#388AEB" stroke-width="0.75" stroke-miterlimit="10"/>
<path d="M423.166 232.347L403.804 229.588C400.937 229.178 398.37 231.418 398.37 234.314C398.37 236.336 397.824 238.275 396.786 239.914C395.748 241.636 394.246 243.029 392.389 243.93C388.375 245.952 383.459 244.996 380.155 241.963L373.164 235.598C370.351 233.057 369.122 229.205 369.887 225.462L370.597 222.02C371.553 217.458 375.349 214.043 379.964 213.551L391.516 212.349L396.786 200.274C407.245 209.399 416.202 220.217 423.193 232.32L423.166 232.347Z" fill="url(#paint7_linear_7401_65189)" stroke="#388AEB" stroke-width="0.75" stroke-miterlimit="10"/>
<path d="M439.88 294.991C439.88 312.885 436.139 329.878 429.393 345.286L426.936 340.806C422.812 333.266 414.892 328.567 406.318 328.567C393.564 328.567 383.652 317.393 385.208 304.717L388.048 281.522C389.468 269.775 400.228 261.443 411.998 263L436.439 265.459C438.705 274.911 439.907 284.801 439.907 294.936L439.88 294.991Z" fill="url(#paint8_linear_7401_65189)" stroke="#388AEB" stroke-width="0.75" stroke-miterlimit="10"/>
<path opacity="0.59" d="M128.848 139.613H183.629C201.735 139.613 216.427 154.311 216.427 172.424V227.227V265.721C216.427 268.398 213.478 270.01 211.238 268.589L197.748 260.038H128.848C110.743 260.038 96.0508 245.34 96.0508 227.227V172.424C96.0508 154.311 110.743 139.613 128.848 139.613Z" fill="url(#paint9_linear_7401_65189)"/>
<path d="M120.794 129.314H175.575C193.68 129.314 208.372 144.012 208.372 162.125V216.928V255.421C208.372 258.098 205.423 259.71 203.184 258.29L189.693 249.739H120.794C102.688 249.739 87.9961 235.041 87.9961 216.928V162.125C87.9961 144.012 102.688 129.314 120.794 129.314Z" fill="white" stroke="#388AEB" stroke-width="0.5" stroke-miterlimit="10"/>
<path d="M148.183 192.914C158.379 192.914 166.644 184.646 166.644 174.446C166.644 164.246 158.379 155.978 148.183 155.978C137.988 155.978 129.723 164.246 129.723 174.446C129.723 184.646 137.988 192.914 148.183 192.914Z" fill="url(#paint10_linear_7401_65189)" stroke="#388AEB" stroke-width="0.75" stroke-miterlimit="10"/>
<path d="M122.429 223.075H119.18C122.047 209.688 133.926 199.635 148.181 199.635C162.436 199.635 174.316 209.688 177.183 223.075" fill="url(#paint11_linear_7401_65189)"/>
<path d="M122.429 223.075H119.18C122.047 209.688 133.926 199.635 148.181 199.635C162.436 199.635 174.316 209.688 177.183 223.075" stroke="#388AEB" stroke-width="0.75" stroke-miterlimit="10"/>
<path opacity="0.59" d="M501.2 185.42H446.419C428.313 185.42 413.621 200.118 413.621 218.231V311.527C413.621 314.205 416.57 315.817 418.81 314.396L432.3 305.845H501.2C519.305 305.845 533.997 291.147 533.997 273.034V218.231C533.997 200.118 519.305 185.42 501.2 185.42Z" fill="url(#paint12_linear_7401_65189)"/>
<path d="M492.047 175.203H437.266C419.161 175.203 404.469 189.9 404.469 208.013V301.31C404.469 303.987 407.418 305.599 409.657 304.178L423.148 295.627H492.047C510.153 295.627 524.845 280.929 524.845 262.816V208.013C524.845 189.9 510.153 175.203 492.047 175.203Z" fill="white" stroke="#388AEB" stroke-width="0.5" stroke-miterlimit="10"/>
<path d="M464.668 238.775C474.863 238.775 483.128 230.507 483.128 220.307C483.128 210.108 474.863 201.839 464.668 201.839C454.472 201.839 446.207 210.108 446.207 220.307C446.207 230.507 454.472 238.775 464.668 238.775Z" fill="url(#paint13_linear_7401_65189)" stroke="#388AEB" stroke-width="0.75" stroke-miterlimit="10"/>
<path d="M490.418 268.963H493.667C490.8 255.577 478.921 245.523 464.666 245.523C450.411 245.523 438.531 255.577 435.664 268.963" fill="url(#paint14_linear_7401_65189)"/>
<path d="M490.418 268.963H493.667C490.8 255.577 478.921 245.523 464.666 245.523C450.411 245.523 438.531 255.577 435.664 268.963" stroke="#388AEB" stroke-width="0.75" stroke-miterlimit="10"/>
<path d="M366.175 249.299H267.706C260.089 249.299 253.914 255.466 253.914 263.072V340.552C253.914 348.159 260.089 354.325 267.706 354.325H366.175C373.792 354.325 379.967 348.159 379.967 340.552V263.072C379.967 255.466 373.792 249.299 366.175 249.299Z" fill="url(#paint15_linear_7401_65189)"/>
<path d="M348.192 235.333H268.477C257.504 235.333 248.609 244.216 248.609 255.173V322.797C248.609 333.755 257.504 342.638 268.477 342.638H348.192C359.164 342.638 368.059 333.755 368.059 322.797V255.173C368.059 244.216 359.164 235.333 348.192 235.333Z" fill="white" stroke="#388AEB" stroke-width="2" stroke-miterlimit="10"/>
<path d="M324.887 265.144H291.773C287.67 265.144 284.344 268.466 284.344 272.564V305.633C284.344 309.73 287.67 313.052 291.773 313.052H324.887C328.991 313.052 332.317 309.73 332.317 305.633V272.564C332.317 268.466 328.991 265.144 324.887 265.144Z" fill="white" stroke="#388AEB" stroke-width="0.5" stroke-miterlimit="10"/>
<path d="M300.196 291.537L298.015 297.609H295.34L302.557 277.381H305.847L313.382 297.609H310.499L308.258 291.537H300.196ZM307.588 289.243C305.639 283.923 304.59 281.104 304.155 279.568H304.128C303.633 281.284 302.441 284.712 300.898 289.243H307.593H307.588Z" fill="#76ABEB"/>
<path d="M319.23 277.385V297.613H316.555V277.385H319.23Z" fill="#76ABEB"/>
<path d="M308.625 264.881V257.914" stroke="#388AEB" stroke-width="0.75" stroke-miterlimit="10"/>
<path d="M308.624 258.92C309.865 258.92 310.87 257.916 310.87 256.677C310.87 255.439 309.865 254.435 308.624 254.435C307.384 254.435 306.379 255.439 306.379 256.677C306.379 257.916 307.384 258.92 308.624 258.92Z" fill="url(#paint16_radial_7401_65189)" stroke="#388AEB" stroke-width="0.75" stroke-miterlimit="10"/>
<path d="M299.785 265.103V260.613" stroke="#388AEB" stroke-width="0.75" stroke-miterlimit="10"/>
<path d="M299.785 261.624C301.025 261.624 302.03 260.62 302.03 259.381C302.03 258.143 301.025 257.139 299.785 257.139C298.544 257.139 297.539 258.143 297.539 259.381C297.539 260.62 298.544 261.624 299.785 261.624Z" fill="url(#paint17_radial_7401_65189)" stroke="#388AEB" stroke-width="0.75" stroke-miterlimit="10"/>
<path d="M316.875 265.103V260.613" stroke="#388AEB" stroke-width="0.75" stroke-miterlimit="10"/>
<path d="M316.874 261.624C318.115 261.624 319.12 260.62 319.12 259.381C319.12 258.143 318.115 257.139 316.874 257.139C315.634 257.139 314.629 258.143 314.629 259.381C314.629 260.62 315.634 261.624 316.874 261.624Z" fill="url(#paint18_radial_7401_65189)" stroke="#388AEB" stroke-width="0.75" stroke-miterlimit="10"/>
<path d="M308.625 313.089V320.056" stroke="#388AEB" stroke-width="0.75" stroke-miterlimit="10"/>
<path d="M308.624 323.535C309.865 323.535 310.87 322.531 310.87 321.293C310.87 320.054 309.865 319.05 308.624 319.05C307.384 319.05 306.379 320.054 306.379 321.293C306.379 322.531 307.384 323.535 308.624 323.535Z" fill="url(#paint19_radial_7401_65189)" stroke="#388AEB" stroke-width="0.75" stroke-miterlimit="10"/>
<path d="M299.785 312.867V317.357" stroke="#388AEB" stroke-width="0.75" stroke-miterlimit="10"/>
<path d="M299.785 320.831C301.025 320.831 302.03 319.827 302.03 318.589C302.03 317.35 301.025 316.346 299.785 316.346C298.544 316.346 297.539 317.35 297.539 318.589C297.539 319.827 298.544 320.831 299.785 320.831Z" fill="url(#paint20_radial_7401_65189)" stroke="#388AEB" stroke-width="0.75" stroke-miterlimit="10"/>
<path d="M316.875 312.867V317.357" stroke="#388AEB" stroke-width="0.75" stroke-miterlimit="10"/>
<path d="M316.874 320.831C318.115 320.831 319.12 319.827 319.12 318.589C319.12 317.35 318.115 316.346 316.874 316.346C315.634 316.346 314.629 317.35 314.629 318.589C314.629 319.827 315.634 320.831 316.874 320.831Z" fill="url(#paint21_radial_7401_65189)" stroke="#388AEB" stroke-width="0.75" stroke-miterlimit="10"/>
<path d="M332.551 288.801H339.528" stroke="#388AEB" stroke-width="0.75" stroke-miterlimit="10"/>
<path d="M340.765 291.043C342.005 291.043 343.011 290.039 343.011 288.801C343.011 287.562 342.005 286.558 340.765 286.558C339.525 286.558 338.52 287.562 338.52 288.801C338.52 290.039 339.525 291.043 340.765 291.043Z" fill="url(#paint22_radial_7401_65189)" stroke="#388AEB" stroke-width="0.75" stroke-miterlimit="10"/>
<path d="M332.328 297.632H336.824" stroke="#388AEB" stroke-width="0.75" stroke-miterlimit="10"/>
<path d="M338.058 299.874C339.298 299.874 340.303 298.87 340.303 297.632C340.303 296.393 339.298 295.389 338.058 295.389C336.818 295.389 335.812 296.393 335.812 297.632C335.812 298.87 336.818 299.874 338.058 299.874Z" fill="url(#paint23_radial_7401_65189)" stroke="#388AEB" stroke-width="0.75" stroke-miterlimit="10"/>
<path d="M332.328 280.56H336.824" stroke="#388AEB" stroke-width="0.75" stroke-miterlimit="10"/>
<path d="M338.058 282.802C339.298 282.802 340.303 281.798 340.303 280.56C340.303 279.321 339.298 278.317 338.058 278.317C336.818 278.317 335.812 279.321 335.812 280.56C335.812 281.798 336.818 282.802 338.058 282.802Z" fill="url(#paint24_radial_7401_65189)" stroke="#388AEB" stroke-width="0.75" stroke-miterlimit="10"/>
<path d="M284.121 288.8H277.145" stroke="#388AEB" stroke-width="0.75" stroke-miterlimit="10"/>
<path d="M275.906 291.043C277.146 291.043 278.151 290.039 278.151 288.8C278.151 287.562 277.146 286.558 275.906 286.558C274.666 286.558 273.66 287.562 273.66 288.8C273.66 290.039 274.666 291.043 275.906 291.043Z" fill="url(#paint25_radial_7401_65189)" stroke="#388AEB" stroke-width="0.75" stroke-miterlimit="10"/>
<path d="M284.343 297.632H279.848" stroke="#388AEB" stroke-width="0.75" stroke-miterlimit="10"/>
<path d="M278.613 299.874C279.853 299.874 280.858 298.87 280.858 297.632C280.858 296.393 279.853 295.389 278.613 295.389C277.373 295.389 276.367 296.393 276.367 297.632C276.367 298.87 277.373 299.874 278.613 299.874Z" fill="url(#paint26_radial_7401_65189)" stroke="#388AEB" stroke-width="0.75" stroke-miterlimit="10"/>
<path d="M284.343 280.56H279.848" stroke="#388AEB" stroke-width="0.75" stroke-miterlimit="10"/>
<path d="M278.613 282.802C279.853 282.802 280.858 281.798 280.858 280.56C280.858 279.321 279.853 278.317 278.613 278.317C277.373 278.317 276.367 279.321 276.367 280.56C276.367 281.798 277.373 282.802 278.613 282.802Z" fill="url(#paint27_radial_7401_65189)" stroke="#388AEB" stroke-width="0.75" stroke-miterlimit="10"/>
<defs>
<linearGradient id="paint0_linear_7401_65189" x1="518.953" y1="-67.1264" x2="478.196" y2="-8.84333" gradientUnits="userSpaceOnUse">
<stop stop-color="#388AEB"/>
<stop offset="0.18" stop-color="#5D9FED"/>
<stop offset="0.45" stop-color="#90BDF1"/>
<stop offset="0.69" stop-color="#B6D3F4"/>
<stop offset="0.88" stop-color="#CDE1F6"/>
<stop offset="1" stop-color="#D6E6F7"/>
</linearGradient>
<linearGradient id="paint1_linear_7401_65189" x1="429.905" y1="42.6947" x2="422.217" y2="54.7307" gradientUnits="userSpaceOnUse">
<stop stop-color="#388AEB"/>
<stop offset="0.18" stop-color="#5D9FED"/>
<stop offset="0.45" stop-color="#90BDF1"/>
<stop offset="0.69" stop-color="#B6D3F4"/>
<stop offset="0.88" stop-color="#CDE1F6"/>
<stop offset="1" stop-color="#D6E6F7"/>
</linearGradient>
<linearGradient id="paint2_linear_7401_65189" x1="407.913" y1="49.59" x2="399.725" y2="61.3002" gradientUnits="userSpaceOnUse">
<stop stop-color="#388AEB"/>
<stop offset="0.18" stop-color="#5D9FED"/>
<stop offset="0.45" stop-color="#90BDF1"/>
<stop offset="0.69" stop-color="#B6D3F4"/>
<stop offset="0.88" stop-color="#CDE1F6"/>
<stop offset="1" stop-color="#D6E6F7"/>
</linearGradient>
<linearGradient id="paint3_linear_7401_65189" x1="-53.0041" y1="306.604" x2="19.4949" y2="314.568" gradientUnits="userSpaceOnUse">
<stop stop-color="#388AEB"/>
<stop offset="0.18" stop-color="#5D9FED"/>
<stop offset="0.45" stop-color="#90BDF1"/>
<stop offset="0.69" stop-color="#B6D3F4"/>
<stop offset="0.88" stop-color="#CDE1F6"/>
<stop offset="1" stop-color="#D6E6F7"/>
</linearGradient>
<linearGradient id="paint4_linear_7401_65189" x1="92.4377" y1="312.136" x2="106.866" y2="314.325" gradientUnits="userSpaceOnUse">
<stop stop-color="#388AEB"/>
<stop offset="0.18" stop-color="#5D9FED"/>
<stop offset="0.45" stop-color="#90BDF1"/>
<stop offset="0.69" stop-color="#B6D3F4"/>
<stop offset="0.88" stop-color="#CDE1F6"/>
<stop offset="1" stop-color="#D6E6F7"/>
</linearGradient>
<linearGradient id="paint5_linear_7401_65189" x1="112.819" y1="300.36" x2="127.332" y2="301.944" gradientUnits="userSpaceOnUse">
<stop stop-color="#388AEB"/>
<stop offset="0.18" stop-color="#5D9FED"/>
<stop offset="0.45" stop-color="#90BDF1"/>
<stop offset="0.69" stop-color="#B6D3F4"/>
<stop offset="0.88" stop-color="#CDE1F6"/>
<stop offset="1" stop-color="#D6E6F7"/>
</linearGradient>
<linearGradient id="paint6_linear_7401_65189" x1="358.474" y1="-215.612" x2="319.447" y2="-5.22933" gradientUnits="userSpaceOnUse">
<stop stop-color="#314F8F"/>
<stop offset="0.11" stop-color="#3D5E9D"/>
<stop offset="0.33" stop-color="#5D86C4"/>
<stop offset="0.55" stop-color="#83B5F2"/>
<stop offset="0.57" stop-color="#88B8F2"/>
<stop offset="0.76" stop-color="#ADCEF4"/>
<stop offset="0.91" stop-color="#C4DBF6"/>
<stop offset="1" stop-color="#CDE1F7"/>
</linearGradient>
<linearGradient id="paint7_linear_7401_65189" x1="475.107" y1="45.6724" x2="465.187" y2="68.6179" gradientUnits="userSpaceOnUse">
<stop stop-color="#314F8F"/>
<stop offset="0.11" stop-color="#3D5E9D"/>
<stop offset="0.33" stop-color="#5D86C4"/>
<stop offset="0.55" stop-color="#83B5F2"/>
<stop offset="0.57" stop-color="#88B8F2"/>
<stop offset="0.76" stop-color="#ADCEF4"/>
<stop offset="0.91" stop-color="#C4DBF6"/>
<stop offset="1" stop-color="#CDE1F7"/>
</linearGradient>
<linearGradient id="paint8_linear_7401_65189" x1="503.427" y1="-188.729" x2="464.4" y2="21.6531" gradientUnits="userSpaceOnUse">
<stop stop-color="#314F8F"/>
<stop offset="0.11" stop-color="#3D5E9D"/>
<stop offset="0.33" stop-color="#5D86C4"/>
<stop offset="0.55" stop-color="#83B5F2"/>
<stop offset="0.57" stop-color="#88B8F2"/>
<stop offset="0.76" stop-color="#ADCEF4"/>
<stop offset="0.91" stop-color="#C4DBF6"/>
<stop offset="1" stop-color="#CDE1F7"/>
</linearGradient>
<linearGradient id="paint9_linear_7401_65189" x1="216.4" y1="204.333" x2="96.0508" y2="204.333" gradientUnits="userSpaceOnUse">
<stop offset="0.14" stop-color="#1C7BEB"/>
<stop offset="0.21" stop-color="#207DEB" stop-opacity="0.97"/>
<stop offset="0.31" stop-color="#2D85EC" stop-opacity="0.9"/>
<stop offset="0.42" stop-color="#4391ED" stop-opacity="0.79"/>
<stop offset="0.55" stop-color="#62A3EF" stop-opacity="0.62"/>
<stop offset="0.68" stop-color="#89BAF2" stop-opacity="0.41"/>
<stop offset="0.82" stop-color="#B8D5F5" stop-opacity="0.16"/>
<stop offset="0.89" stop-color="#D6E6F7" stop-opacity="0"/>
</linearGradient>
<linearGradient id="paint10_linear_7401_65189" x1="166.043" y1="24.8712" x2="160.905" y2="67.7625" gradientUnits="userSpaceOnUse">
<stop stop-color="#314F8F"/>
<stop offset="0.11" stop-color="#3D5E9D"/>
<stop offset="0.33" stop-color="#5D86C4"/>
<stop offset="0.55" stop-color="#83B5F2"/>
<stop offset="0.57" stop-color="#88B8F2"/>
<stop offset="0.76" stop-color="#ADCEF4"/>
<stop offset="0.91" stop-color="#C4DBF6"/>
<stop offset="1" stop-color="#CDE1F7"/>
</linearGradient>
<linearGradient id="paint11_linear_7401_65189" x1="171.749" y1="25.5545" x2="166.638" y2="68.4458" gradientUnits="userSpaceOnUse">
<stop stop-color="#314F8F"/>
<stop offset="0.11" stop-color="#3D5E9D"/>
<stop offset="0.33" stop-color="#5D86C4"/>
<stop offset="0.55" stop-color="#83B5F2"/>
<stop offset="0.57" stop-color="#88B8F2"/>
<stop offset="0.76" stop-color="#ADCEF4"/>
<stop offset="0.91" stop-color="#C4DBF6"/>
<stop offset="1" stop-color="#CDE1F7"/>
</linearGradient>
<linearGradient id="paint12_linear_7401_65189" x1="658.006" y1="348.873" x2="190.16" y2="112.683" gradientUnits="userSpaceOnUse">
<stop offset="0.14" stop-color="#1C7BEB"/>
<stop offset="0.21" stop-color="#207DEB" stop-opacity="0.97"/>
<stop offset="0.31" stop-color="#2D85EC" stop-opacity="0.9"/>
<stop offset="0.42" stop-color="#4391ED" stop-opacity="0.79"/>
<stop offset="0.55" stop-color="#62A3EF" stop-opacity="0.62"/>
<stop offset="0.68" stop-color="#89BAF2" stop-opacity="0.41"/>
<stop offset="0.82" stop-color="#B8D5F5" stop-opacity="0.16"/>
<stop offset="0.89" stop-color="#D6E6F7" stop-opacity="0"/>
</linearGradient>
<linearGradient id="paint13_linear_7401_65189" x1="446.808" y1="70.7598" x2="451.919" y2="113.624" gradientUnits="userSpaceOnUse">
<stop stop-color="#314F8F"/>
<stop offset="0.11" stop-color="#3D5E9D"/>
<stop offset="0.33" stop-color="#5D86C4"/>
<stop offset="0.55" stop-color="#83B5F2"/>
<stop offset="0.57" stop-color="#88B8F2"/>
<stop offset="0.76" stop-color="#ADCEF4"/>
<stop offset="0.91" stop-color="#C4DBF6"/>
<stop offset="1" stop-color="#CDE1F7"/>
</linearGradient>
<linearGradient id="paint14_linear_7401_65189" x1="441.071" y1="71.4427" x2="446.209" y2="114.307" gradientUnits="userSpaceOnUse">
<stop stop-color="#314F8F"/>
<stop offset="0.11" stop-color="#3D5E9D"/>
<stop offset="0.33" stop-color="#5D86C4"/>
<stop offset="0.55" stop-color="#83B5F2"/>
<stop offset="0.57" stop-color="#88B8F2"/>
<stop offset="0.76" stop-color="#ADCEF4"/>
<stop offset="0.91" stop-color="#C4DBF6"/>
<stop offset="1" stop-color="#CDE1F7"/>
</linearGradient>
<linearGradient id="paint15_linear_7401_65189" x1="321.219" y1="171.229" x2="313.538" y2="406.271" gradientUnits="userSpaceOnUse">
<stop offset="0.03" stop-color="#1C7BEB"/>
<stop offset="0.13" stop-color="#2882EB" stop-opacity="0.93"/>
<stop offset="0.31" stop-color="#4894ED" stop-opacity="0.76"/>
<stop offset="0.56" stop-color="#7DB3F1" stop-opacity="0.48"/>
<stop offset="0.87" stop-color="#C5DCF5" stop-opacity="0.09"/>
<stop offset="0.94" stop-color="#D6E6F7" stop-opacity="0"/>
</linearGradient>
<radialGradient id="paint16_radial_7401_65189" cx="0" cy="0" r="1" gradientUnits="userSpaceOnUse" gradientTransform="translate(295.165 256.677) scale(36.1914 36.142)">
<stop offset="0.74" stop-color="white" stop-opacity="0"/>
<stop offset="0.76" stop-color="white" stop-opacity="0"/>
<stop offset="0.77" stop-color="white" stop-opacity="0.04"/>
<stop offset="0.79" stop-color="white" stop-opacity="0.18"/>
<stop offset="0.8" stop-color="white" stop-opacity="0.28"/>
<stop offset="0.81" stop-color="white" stop-opacity="0.4"/>
<stop offset="0.82" stop-color="#DBC01F"/>
<stop offset="0.83" stop-color="#F1DC3A"/>
<stop offset="0.84" stop-color="#DBC01F"/>
<stop offset="0.85" stop-color="#E1CA45"/>
<stop offset="0.87" stop-color="#E9D876"/>
<stop offset="0.89" stop-color="#EFE4A0"/>
<stop offset="0.91" stop-color="#F5EEC2"/>
<stop offset="0.93" stop-color="#F9F5DD"/>
<stop offset="0.95" stop-color="#FCFAF0"/>
<stop offset="0.98" stop-color="#FEFDFB"/>
<stop offset="1" stop-color="white"/>
</radialGradient>
<radialGradient id="paint17_radial_7401_65189" cx="0" cy="0" r="1" gradientUnits="userSpaceOnUse" gradientTransform="translate(286.321 259.381) scale(36.1914 36.142)">
<stop offset="0.74" stop-color="white" stop-opacity="0"/>
<stop offset="0.76" stop-color="white" stop-opacity="0"/>
<stop offset="0.77" stop-color="white" stop-opacity="0.04"/>
<stop offset="0.79" stop-color="white" stop-opacity="0.18"/>
<stop offset="0.8" stop-color="white" stop-opacity="0.28"/>
<stop offset="0.81" stop-color="white" stop-opacity="0.4"/>
<stop offset="0.82" stop-color="#DBC01F"/>
<stop offset="0.83" stop-color="#F1DC3A"/>
<stop offset="0.84" stop-color="#DBC01F"/>
<stop offset="0.85" stop-color="#E1CA45"/>
<stop offset="0.87" stop-color="#E9D876"/>
<stop offset="0.89" stop-color="#EFE4A0"/>
<stop offset="0.91" stop-color="#F5EEC2"/>
<stop offset="0.93" stop-color="#F9F5DD"/>
<stop offset="0.95" stop-color="#FCFAF0"/>
<stop offset="0.98" stop-color="#FEFDFB"/>
<stop offset="1" stop-color="white"/>
</radialGradient>
<radialGradient id="paint18_radial_7401_65189" cx="0" cy="0" r="1" gradientUnits="userSpaceOnUse" gradientTransform="translate(303.411 259.381) scale(36.1911 36.142)">
<stop offset="0.74" stop-color="white" stop-opacity="0"/>
<stop offset="0.76" stop-color="white" stop-opacity="0"/>
<stop offset="0.77" stop-color="white" stop-opacity="0.04"/>
<stop offset="0.79" stop-color="white" stop-opacity="0.18"/>
<stop offset="0.8" stop-color="white" stop-opacity="0.28"/>
<stop offset="0.81" stop-color="white" stop-opacity="0.4"/>
<stop offset="0.82" stop-color="#DBC01F"/>
<stop offset="0.83" stop-color="#F1DC3A"/>
<stop offset="0.84" stop-color="#DBC01F"/>
<stop offset="0.85" stop-color="#E1CA45"/>
<stop offset="0.87" stop-color="#E9D876"/>
<stop offset="0.89" stop-color="#EFE4A0"/>
<stop offset="0.91" stop-color="#F5EEC2"/>
<stop offset="0.93" stop-color="#F9F5DD"/>
<stop offset="0.95" stop-color="#FCFAF0"/>
<stop offset="0.98" stop-color="#FEFDFB"/>
<stop offset="1" stop-color="white"/>
</radialGradient>
<radialGradient id="paint19_radial_7401_65189" cx="0" cy="0" r="1" gradientUnits="userSpaceOnUse" gradientTransform="translate(-90.2982 321.288) scale(36.1914 36.142)">
<stop offset="0.74" stop-color="white" stop-opacity="0"/>
<stop offset="0.76" stop-color="white" stop-opacity="0"/>
<stop offset="0.77" stop-color="white" stop-opacity="0.04"/>
<stop offset="0.79" stop-color="white" stop-opacity="0.18"/>
<stop offset="0.8" stop-color="white" stop-opacity="0.28"/>
<stop offset="0.81" stop-color="white" stop-opacity="0.4"/>
<stop offset="0.82" stop-color="#DBC01F"/>
<stop offset="0.83" stop-color="#F1DC3A"/>
<stop offset="0.84" stop-color="#DBC01F"/>
<stop offset="0.85" stop-color="#E1CA45"/>
<stop offset="0.87" stop-color="#E9D876"/>
<stop offset="0.89" stop-color="#EFE4A0"/>
<stop offset="0.91" stop-color="#F5EEC2"/>
<stop offset="0.93" stop-color="#F9F5DD"/>
<stop offset="0.95" stop-color="#FCFAF0"/>
<stop offset="0.98" stop-color="#FEFDFB"/>
<stop offset="1" stop-color="white"/>
</radialGradient>
<radialGradient id="paint20_radial_7401_65189" cx="0" cy="0" r="1" gradientUnits="userSpaceOnUse" gradientTransform="translate(286.321 318.589) scale(36.1914 36.142)">
<stop offset="0.74" stop-color="white" stop-opacity="0"/>
<stop offset="0.76" stop-color="white" stop-opacity="0"/>
<stop offset="0.77" stop-color="white" stop-opacity="0.04"/>
<stop offset="0.79" stop-color="white" stop-opacity="0.18"/>
<stop offset="0.8" stop-color="white" stop-opacity="0.28"/>
<stop offset="0.81" stop-color="white" stop-opacity="0.4"/>
<stop offset="0.82" stop-color="#DBC01F"/>
<stop offset="0.83" stop-color="#F1DC3A"/>
<stop offset="0.84" stop-color="#DBC01F"/>
<stop offset="0.85" stop-color="#E1CA45"/>
<stop offset="0.87" stop-color="#E9D876"/>
<stop offset="0.89" stop-color="#EFE4A0"/>
<stop offset="0.91" stop-color="#F5EEC2"/>
<stop offset="0.93" stop-color="#F9F5DD"/>
<stop offset="0.95" stop-color="#FCFAF0"/>
<stop offset="0.98" stop-color="#FEFDFB"/>
<stop offset="1" stop-color="white"/>
</radialGradient>
<radialGradient id="paint21_radial_7401_65189" cx="0" cy="0" r="1" gradientUnits="userSpaceOnUse" gradientTransform="translate(303.411 318.589) scale(36.1911 36.142)">
<stop offset="0.74" stop-color="white" stop-opacity="0"/>
<stop offset="0.76" stop-color="white" stop-opacity="0"/>
<stop offset="0.77" stop-color="white" stop-opacity="0.04"/>
<stop offset="0.79" stop-color="white" stop-opacity="0.18"/>
<stop offset="0.8" stop-color="white" stop-opacity="0.28"/>
<stop offset="0.81" stop-color="white" stop-opacity="0.4"/>
<stop offset="0.82" stop-color="#DBC01F"/>
<stop offset="0.83" stop-color="#F1DC3A"/>
<stop offset="0.84" stop-color="#DBC01F"/>
<stop offset="0.85" stop-color="#E1CA45"/>
<stop offset="0.87" stop-color="#E9D876"/>
<stop offset="0.89" stop-color="#EFE4A0"/>
<stop offset="0.91" stop-color="#F5EEC2"/>
<stop offset="0.93" stop-color="#F9F5DD"/>
<stop offset="0.95" stop-color="#FCFAF0"/>
<stop offset="0.98" stop-color="#FEFDFB"/>
<stop offset="1" stop-color="white"/>
</radialGradient>
<radialGradient id="paint22_radial_7401_65189" cx="0" cy="0" r="1" gradientUnits="userSpaceOnUse" gradientTransform="translate(340.765 302.246) rotate(-90) scale(36.142 36.1914)">
<stop offset="0.74" stop-color="white" stop-opacity="0"/>
<stop offset="0.76" stop-color="white" stop-opacity="0"/>
<stop offset="0.77" stop-color="white" stop-opacity="0.04"/>
<stop offset="0.79" stop-color="white" stop-opacity="0.18"/>
<stop offset="0.8" stop-color="white" stop-opacity="0.28"/>
<stop offset="0.81" stop-color="white" stop-opacity="0.4"/>
<stop offset="0.82" stop-color="#DBC01F"/>
<stop offset="0.83" stop-color="#F1DC3A"/>
<stop offset="0.84" stop-color="#DBC01F"/>
<stop offset="0.85" stop-color="#E1CA45"/>
<stop offset="0.87" stop-color="#E9D876"/>
<stop offset="0.89" stop-color="#EFE4A0"/>
<stop offset="0.91" stop-color="#F5EEC2"/>
<stop offset="0.93" stop-color="#F9F5DD"/>
<stop offset="0.95" stop-color="#FCFAF0"/>
<stop offset="0.98" stop-color="#FEFDFB"/>
<stop offset="1" stop-color="white"/>
</radialGradient>
<radialGradient id="paint23_radial_7401_65189" cx="0" cy="0" r="1" gradientUnits="userSpaceOnUse" gradientTransform="translate(338.058 311.073) rotate(-90) scale(36.1419 36.1914)">
<stop offset="0.74" stop-color="white" stop-opacity="0"/>
<stop offset="0.76" stop-color="white" stop-opacity="0"/>
<stop offset="0.77" stop-color="white" stop-opacity="0.04"/>
<stop offset="0.79" stop-color="white" stop-opacity="0.18"/>
<stop offset="0.8" stop-color="white" stop-opacity="0.28"/>
<stop offset="0.81" stop-color="white" stop-opacity="0.4"/>
<stop offset="0.82" stop-color="#DBC01F"/>
<stop offset="0.83" stop-color="#F1DC3A"/>
<stop offset="0.84" stop-color="#DBC01F"/>
<stop offset="0.85" stop-color="#E1CA45"/>
<stop offset="0.87" stop-color="#E9D876"/>
<stop offset="0.89" stop-color="#EFE4A0"/>
<stop offset="0.91" stop-color="#F5EEC2"/>
<stop offset="0.93" stop-color="#F9F5DD"/>
<stop offset="0.95" stop-color="#FCFAF0"/>
<stop offset="0.98" stop-color="#FEFDFB"/>
<stop offset="1" stop-color="white"/>
</radialGradient>
<radialGradient id="paint24_radial_7401_65189" cx="0" cy="0" r="1" gradientUnits="userSpaceOnUse" gradientTransform="translate(338.058 294.005) rotate(-90) scale(36.1419 36.1914)">
<stop offset="0.74" stop-color="white" stop-opacity="0"/>
<stop offset="0.76" stop-color="white" stop-opacity="0"/>
<stop offset="0.77" stop-color="white" stop-opacity="0.04"/>
<stop offset="0.79" stop-color="white" stop-opacity="0.18"/>
<stop offset="0.8" stop-color="white" stop-opacity="0.28"/>
<stop offset="0.81" stop-color="white" stop-opacity="0.4"/>
<stop offset="0.82" stop-color="#DBC01F"/>
<stop offset="0.83" stop-color="#F1DC3A"/>
<stop offset="0.84" stop-color="#DBC01F"/>
<stop offset="0.85" stop-color="#E1CA45"/>
<stop offset="0.87" stop-color="#E9D876"/>
<stop offset="0.89" stop-color="#EFE4A0"/>
<stop offset="0.91" stop-color="#F5EEC2"/>
<stop offset="0.93" stop-color="#F9F5DD"/>
<stop offset="0.95" stop-color="#FCFAF0"/>
<stop offset="0.98" stop-color="#FEFDFB"/>
<stop offset="1" stop-color="white"/>
</radialGradient>
<radialGradient id="paint25_radial_7401_65189" cx="0" cy="0" r="1" gradientUnits="userSpaceOnUse" gradientTransform="translate(275.906 302.246) rotate(-90) scale(36.142 36.1914)">
<stop offset="0.74" stop-color="white" stop-opacity="0"/>
<stop offset="0.76" stop-color="white" stop-opacity="0"/>
<stop offset="0.77" stop-color="white" stop-opacity="0.04"/>
<stop offset="0.79" stop-color="white" stop-opacity="0.18"/>
<stop offset="0.8" stop-color="white" stop-opacity="0.28"/>
<stop offset="0.81" stop-color="white" stop-opacity="0.4"/>
<stop offset="0.82" stop-color="#DBC01F"/>
<stop offset="0.83" stop-color="#F1DC3A"/>
<stop offset="0.84" stop-color="#DBC01F"/>
<stop offset="0.85" stop-color="#E1CA45"/>
<stop offset="0.87" stop-color="#E9D876"/>
<stop offset="0.89" stop-color="#EFE4A0"/>
<stop offset="0.91" stop-color="#F5EEC2"/>
<stop offset="0.93" stop-color="#F9F5DD"/>
<stop offset="0.95" stop-color="#FCFAF0"/>
<stop offset="0.98" stop-color="#FEFDFB"/>
<stop offset="1" stop-color="white"/>
</radialGradient>
<radialGradient id="paint26_radial_7401_65189" cx="0" cy="0" r="1" gradientUnits="userSpaceOnUse" gradientTransform="translate(278.613 311.072) rotate(-90) scale(36.1419 36.1911)">
<stop offset="0.74" stop-color="white" stop-opacity="0"/>
<stop offset="0.76" stop-color="white" stop-opacity="0"/>
<stop offset="0.77" stop-color="white" stop-opacity="0.04"/>
<stop offset="0.79" stop-color="white" stop-opacity="0.18"/>
<stop offset="0.8" stop-color="white" stop-opacity="0.28"/>
<stop offset="0.81" stop-color="white" stop-opacity="0.4"/>
<stop offset="0.82" stop-color="#DBC01F"/>
<stop offset="0.83" stop-color="#F1DC3A"/>
<stop offset="0.84" stop-color="#DBC01F"/>
<stop offset="0.85" stop-color="#E1CA45"/>
<stop offset="0.87" stop-color="#E9D876"/>
<stop offset="0.89" stop-color="#EFE4A0"/>
<stop offset="0.91" stop-color="#F5EEC2"/>
<stop offset="0.93" stop-color="#F9F5DD"/>
<stop offset="0.95" stop-color="#FCFAF0"/>
<stop offset="0.98" stop-color="#FEFDFB"/>
<stop offset="1" stop-color="white"/>
</radialGradient>
<radialGradient id="paint27_radial_7401_65189" cx="0" cy="0" r="1" gradientUnits="userSpaceOnUse" gradientTransform="translate(278.613 294.005) rotate(-90) scale(36.1419 36.1911)">
<stop offset="0.74" stop-color="white" stop-opacity="0"/>
<stop offset="0.76" stop-color="white" stop-opacity="0"/>
<stop offset="0.77" stop-color="white" stop-opacity="0.04"/>
<stop offset="0.79" stop-color="white" stop-opacity="0.18"/>
<stop offset="0.8" stop-color="white" stop-opacity="0.28"/>
<stop offset="0.81" stop-color="white" stop-opacity="0.4"/>
<stop offset="0.82" stop-color="#DBC01F"/>
<stop offset="0.83" stop-color="#F1DC3A"/>
<stop offset="0.84" stop-color="#DBC01F"/>
<stop offset="0.85" stop-color="#E1CA45"/>
<stop offset="0.87" stop-color="#E9D876"/>
<stop offset="0.89" stop-color="#EFE4A0"/>
<stop offset="0.91" stop-color="#F5EEC2"/>
<stop offset="0.93" stop-color="#F9F5DD"/>
<stop offset="0.95" stop-color="#FCFAF0"/>
<stop offset="0.98" stop-color="#FEFDFB"/>
<stop offset="1" stop-color="white"/>
</radialGradient>
</defs>
</svg>
