<svg width="586" height="398" viewBox="0 0 586 398" fill="none" xmlns="http://www.w3.org/2000/svg">
<g clip-path="url(#clip0_7401_65278)">
<path d="M408.228 327H42.6523V110.249H409.618L408.228 327Z" fill="white" stroke="#388AEB" stroke-width="0.5" stroke-miterlimit="10"/>
<path d="M132.433 223.261H225.532C230.913 223.261 235.286 227.64 235.286 233.029V259.835C235.286 265.224 230.913 269.603 225.532 269.603H122.68V233.029C122.68 227.64 127.053 223.261 132.433 223.261Z" fill="url(#paint0_linear_7401_65278)"/>
<path d="M282.511 186.898H375.61C380.991 186.898 385.364 191.278 385.364 196.667V245.826H282.511C277.131 245.826 272.758 241.446 272.758 236.057V196.667C272.758 191.278 277.131 186.898 282.511 186.898Z" fill="url(#paint1_linear_7401_65278)"/>
<path d="M400.011 337.974H52.1544C46.9036 337.974 42.6445 333.708 42.6445 328.449V308.424H408.447V329.516C408.447 334.18 404.668 337.965 400.011 337.965V337.974Z" fill="white" stroke="#388AEB" stroke-width="0.5" stroke-miterlimit="10"/>
<path d="M42.6523 118.292H96.3462V337.974H52.406C47.0252 337.974 42.6523 333.594 42.6523 328.205V118.292Z" fill="url(#paint2_linear_7401_65278)" stroke="#388AEB" stroke-width="0.75" stroke-miterlimit="10"/>
<g opacity="0.37">
<mask id="mask0_7401_65278" style="mask-type:luminance" maskUnits="userSpaceOnUse" x="42" y="118" width="55" height="220">
<path d="M42.6797 118.129H96.3736V337.811H52.4333C47.0526 337.811 42.6797 333.431 42.6797 328.042V118.129Z" fill="white"/>
</mask>
<g mask="url(#mask0_7401_65278)">
<mask id="mask1_7401_65278" style="mask-type:luminance" maskUnits="userSpaceOnUse" x="-328" y="-76" width="839" height="879">
<path d="M510.081 490.905L-2.43317 802.189L-327.945 241.389L161.867 -75.5769L510.081 490.905Z" fill="white"/>
</mask>
<g mask="url(#mask1_7401_65278)">
<g opacity="0.85">
<path d="M44.1926 127.034C43.2822 126.88 42.4369 127.49 42.2825 128.386C42.1281 129.297 42.7133 130.16 43.6236 130.315C44.534 130.47 45.3955 129.859 45.55 128.956C45.7044 128.06 45.0948 127.197 44.1845 127.043L44.1926 127.034Z" fill="white"/>
<path d="M50.3108 119.033C49.3598 118.87 48.4495 119.529 48.2869 120.498C48.1243 121.45 48.7664 122.362 49.7093 122.525C50.6765 122.696 51.5869 122.053 51.7494 121.1C51.912 120.148 51.278 119.203 50.3108 119.041V119.033Z" fill="white"/>
<path d="M45.9182 141.321C45.1623 141.19 44.4632 141.687 44.3332 142.444C44.2031 143.201 44.699 143.901 45.4549 144.031C46.2108 144.161 46.9342 143.649 47.0642 142.916C47.1943 142.183 46.6822 141.451 45.9263 141.321H45.9182Z" fill="white"/>
<path d="M52.0441 133.278C51.2313 133.14 50.4185 133.677 50.2803 134.507C50.134 135.338 50.7192 136.143 51.532 136.282C52.3855 136.428 53.1576 135.867 53.3039 135.028C53.4502 134.198 52.9056 133.425 52.0522 133.278H52.0441Z" fill="white"/>
<path d="M58.1885 125.26C57.2782 125.105 56.4166 125.716 56.2622 126.619C56.1078 127.523 56.7174 128.378 57.6277 128.532C58.538 128.687 59.3752 128.101 59.5297 127.189C59.6841 126.277 59.0745 125.414 58.1885 125.26Z" fill="white"/>
<path d="M64.3079 117.258C63.3407 117.087 62.4141 117.73 62.2434 118.715C62.0809 119.667 62.7392 120.595 63.7065 120.758C64.6737 120.929 65.584 120.262 65.7466 119.317C65.9173 118.332 65.2752 117.421 64.3079 117.25V117.258Z" fill="white"/>
<path d="M47.663 155.436C46.9884 155.322 46.3463 155.786 46.2325 156.462C46.1187 157.137 46.5658 157.772 47.2404 157.894C47.8988 158.008 48.549 157.561 48.6709 156.885C48.7929 156.209 48.3214 155.55 47.663 155.436Z" fill="white"/>
<path d="M53.7809 147.434C53.0494 147.304 52.326 147.8 52.196 148.557C52.0659 149.314 52.578 150.023 53.3177 150.145C54.0736 150.275 54.7807 149.762 54.9026 149.021C55.0245 148.281 54.5369 147.564 53.7809 147.426V147.434Z" fill="white"/>
<path d="M59.9132 139.391C59.1004 139.253 58.3039 139.815 58.1657 140.645C58.0275 141.475 58.5802 142.273 59.3931 142.411C60.2221 142.558 61.0024 141.988 61.1406 141.158C61.2788 140.327 60.7423 139.53 59.9132 139.391Z" fill="white"/>
<path d="M66.04 131.365C65.1297 131.21 64.2843 131.821 64.1299 132.733C63.9755 133.644 64.5688 134.483 65.471 134.637C66.3732 134.792 67.2429 134.206 67.3974 133.294C67.5518 132.383 66.9422 131.52 66.04 131.365Z" fill="white"/>
<path d="M72.1647 123.388C71.2137 123.225 70.3115 123.868 70.1408 124.837C69.9701 125.805 70.6122 126.717 71.5632 126.88C72.5304 127.051 73.457 126.408 73.6277 125.439C73.7984 124.47 73.1319 123.559 72.1647 123.388Z" fill="white"/>
<path d="M76.2403 116.949C76.0777 117.901 76.7117 118.829 77.6627 118.992C78.6137 119.155 79.5646 118.504 79.7272 117.551C79.8979 116.582 79.2558 115.654 78.2723 115.484C77.2888 115.313 76.411 115.98 76.2484 116.949H76.2403Z" fill="white"/>
<path d="M42.1507 178.391C42.0613 178.912 42.4108 179.417 42.931 179.507C43.4512 179.596 43.9714 179.246 44.0608 178.725C44.1502 178.204 43.8007 177.699 43.2561 177.61C42.7359 177.52 42.232 177.87 42.1426 178.391H42.1507Z" fill="white"/>
<path d="M48.1178 170.479C48.0121 171.081 48.4348 171.651 49.0119 171.749C49.6296 171.855 50.1986 171.456 50.3043 170.853C50.4099 170.251 50.0116 169.665 49.3939 169.559C48.8168 169.461 48.2235 169.877 48.1178 170.479Z" fill="white"/>
<path d="M55.5401 161.566C54.8655 161.452 54.2315 161.899 54.1096 162.575C53.9877 163.251 54.4428 163.886 55.1175 164.008C55.7921 164.13 56.4261 163.674 56.548 162.998C56.6699 162.323 56.2148 161.688 55.5401 161.566Z" fill="white"/>
<path d="M61.6357 153.678C60.9611 153.564 60.3271 154.011 60.2052 154.687C60.0914 155.363 60.5384 155.998 61.2131 156.12C61.8877 156.242 62.5217 155.786 62.6436 155.11C62.7655 154.435 62.3103 153.8 61.6357 153.678Z" fill="white"/>
<path d="M67.7661 145.635C67.0102 145.505 66.3031 146.018 66.1731 146.775C66.043 147.532 66.5388 148.256 67.2866 148.386C68.0425 148.517 68.7659 148.004 68.8959 147.247C69.026 146.49 68.5139 145.765 67.758 145.635H67.7661Z" fill="white"/>
<path d="M73.9078 137.633C73.0788 137.487 72.2822 138.032 72.1441 138.862C71.9977 139.693 72.5667 140.474 73.3958 140.612C74.2248 140.751 74.997 140.214 75.1433 139.375C75.2896 138.537 74.745 137.772 73.9078 137.625V137.633Z" fill="white"/>
<path d="M80.0362 129.599C79.1259 129.444 78.2643 130.071 78.1099 130.958C77.9554 131.845 78.565 132.733 79.4672 132.887C80.3694 133.042 81.2229 132.432 81.3773 131.52C81.5318 130.608 80.9222 129.745 80.0362 129.591V129.599Z" fill="white"/>
<path d="M86.1576 121.597C85.1904 121.426 84.2557 122.11 84.0931 123.054C83.9224 124.023 84.5889 124.934 85.5561 125.105C86.5234 125.276 87.4094 124.625 87.58 123.656C87.7507 122.688 87.133 121.76 86.1657 121.597H86.1576Z" fill="white"/>
<path d="M44.1782 192.433C44.1131 192.824 44.3651 193.182 44.7715 193.256C45.1779 193.329 45.503 193.06 45.568 192.678C45.6331 192.295 45.3974 191.912 45.0153 191.847C44.6089 191.774 44.2432 192.035 44.1782 192.442V192.433Z" fill="white"/>
<path d="M50.1672 184.521C50.094 184.969 50.3948 185.4 50.8581 185.482C51.3051 185.555 51.7359 185.254 51.809 184.806C51.8822 184.358 51.5815 183.927 51.1344 183.853C50.6874 183.78 50.2403 184.057 50.1591 184.521H50.1672Z" fill="white"/>
<path d="M56.135 176.617C56.0456 177.138 56.3951 177.643 56.9397 177.732C57.4599 177.822 57.9638 177.472 58.0532 176.943C58.1426 176.397 57.7931 175.901 57.2729 175.811C56.7527 175.722 56.2326 176.072 56.135 176.609V176.617Z" fill="white"/>
<path d="M62.099 168.704C61.9933 169.307 62.3916 169.877 63.0175 169.983C63.6189 170.088 64.1879 169.689 64.2854 169.087C64.3911 168.485 63.9928 167.915 63.3913 167.817C62.7899 167.72 62.2046 168.11 62.099 168.713V168.704Z" fill="white"/>
<path d="M69.5107 159.791C68.8361 159.677 68.194 160.141 68.0802 160.8C67.9664 161.46 68.4134 162.111 69.0881 162.233C69.7627 162.355 70.3967 161.899 70.5186 161.224C70.6405 160.548 70.1854 159.913 69.5107 159.791Z" fill="white"/>
<path d="M75.6404 151.765C74.9088 151.634 74.1854 152.131 74.0554 152.888C73.9253 153.645 74.4374 154.37 75.1689 154.5C75.9248 154.63 76.632 154.109 76.762 153.36C76.8921 152.603 76.3963 151.903 75.6404 151.773V151.765Z" fill="white"/>
<path d="M81.7595 143.746C80.9305 143.6 80.1583 144.145 80.012 144.984C79.8657 145.822 80.4103 146.587 81.2475 146.734C82.0847 146.88 82.8487 146.335 82.995 145.497C83.1413 144.666 82.5967 143.893 81.7595 143.746Z" fill="white"/>
<path d="M87.8894 135.72C86.9791 135.565 86.1338 136.176 85.9875 137.063C85.8412 137.95 86.4183 138.838 87.3286 138.992C88.2389 139.147 89.1005 138.537 89.2549 137.633C89.4094 136.746 88.7998 135.875 87.8894 135.72Z" fill="white"/>
<path d="M93.9923 127.84C93.0982 127.686 92.2448 128.272 92.0903 129.184C91.9359 130.095 92.5455 130.958 93.4315 131.113C94.3174 131.267 95.2034 130.657 95.3578 129.753C95.5123 128.842 94.9026 127.995 93.9923 127.84Z" fill="white"/>
<path d="M46.0879 206.451C46.031 206.76 46.2261 207.053 46.5512 207.11C46.8601 207.167 47.1771 206.956 47.2259 206.646C47.2747 206.337 47.0552 206.02 46.7463 205.963C46.4212 205.906 46.1367 206.134 46.0879 206.451Z" fill="white"/>
<path d="M52.0532 198.539C51.9882 198.929 52.2401 199.312 52.6222 199.377C53.0286 199.45 53.3943 199.174 53.4593 198.783C53.5244 198.392 53.2724 198.009 52.866 197.944C52.4596 197.879 52.1101 198.156 52.0451 198.539H52.0532Z" fill="white"/>
<path d="M58.0422 190.635C57.9691 191.082 58.2698 191.514 58.7168 191.587C59.1639 191.66 59.6109 191.359 59.6922 190.911C59.7735 190.464 59.4484 190.032 59.0013 189.951C58.5543 189.869 58.1235 190.179 58.0503 190.626L58.0422 190.635Z" fill="white"/>
<path d="M64.0061 182.722C63.9167 183.243 64.2662 183.748 64.7864 183.837C65.3066 183.927 65.8268 183.577 65.9162 183.056C66.0057 182.51 65.6561 182.014 65.1115 181.916C64.567 181.819 64.0874 182.177 63.998 182.722H64.0061Z" fill="white"/>
<path d="M69.9732 174.818C69.8676 175.42 70.2902 175.99 70.8917 176.096C71.4932 176.202 72.0622 175.803 72.1597 175.2C72.2654 174.598 71.859 174.036 71.2656 173.931C70.6641 173.825 70.0789 174.224 69.9732 174.826V174.818Z" fill="white"/>
<path d="M76.0709 166.93C75.9652 167.549 76.3879 168.102 76.9894 168.208C77.5909 168.314 78.1517 167.931 78.2574 167.313C78.363 166.71 77.9566 166.148 77.3633 166.043C76.7618 165.937 76.1766 166.336 76.0709 166.938V166.93Z" fill="white"/>
<path d="M83.4951 158.016C82.8205 157.903 82.1783 158.35 82.0646 159.042C81.9508 159.702 82.3978 160.353 83.0724 160.475C83.7471 160.597 84.3892 160.125 84.503 159.465C84.6249 158.765 84.1779 158.13 83.4951 158.016Z" fill="white"/>
<path d="M89.6091 149.99C88.8776 149.86 88.146 150.373 88.0241 151.113C87.8941 151.87 88.4061 152.579 89.1458 152.709C89.9017 152.839 90.6251 152.342 90.7552 151.585C90.8852 150.853 90.3731 150.12 89.6172 149.99H89.6091Z" fill="white"/>
<path d="M95.7566 141.972C94.9031 141.825 94.131 142.387 93.9846 143.217C93.8383 144.048 94.3829 144.821 95.2364 144.968C96.0898 145.114 96.8376 144.569 96.9839 143.73C97.1302 142.892 96.5694 142.102 95.7566 141.964V141.972Z" fill="white"/>
<path d="M47.975 220.469C47.9343 220.705 48.0969 220.933 48.3488 220.973C48.5846 221.014 48.804 220.851 48.8447 220.623C48.8853 220.371 48.7228 220.159 48.4952 220.127C48.2432 220.086 48.0237 220.224 47.975 220.477V220.469Z" fill="white"/>
<path d="M53.9402 212.581C53.8914 212.874 54.119 213.175 54.4279 213.224C54.7367 213.273 55.0294 213.069 55.0862 212.776C55.1431 212.45 54.9399 212.133 54.6311 212.076C54.3222 212.019 54.0052 212.247 53.9483 212.572L53.9402 212.581Z" fill="white"/>
<path d="M60.04 204.676C59.9831 204.986 60.2107 205.287 60.5439 205.344C60.8365 205.393 61.1291 205.189 61.186 204.88C61.2429 204.554 61.0316 204.269 60.739 204.221C60.4139 204.164 60.0969 204.351 60.04 204.676Z" fill="white"/>
<path d="M66.0056 196.78C65.9405 197.147 66.2169 197.513 66.6233 197.586C67.0297 197.66 67.3548 197.391 67.4198 197.025C67.493 196.618 67.2573 196.235 66.8671 196.17C66.4607 196.097 66.0787 196.373 66.0056 196.78Z" fill="white"/>
<path d="M72.0148 188.86C71.9417 189.308 72.2424 189.755 72.7057 189.837C73.169 189.918 73.5836 189.584 73.6648 189.145C73.738 188.697 73.4372 188.266 72.9902 188.192C72.5269 188.111 72.0961 188.412 72.0148 188.86Z" fill="white"/>
<path d="M77.9827 180.972C77.8933 181.493 78.2428 181.998 78.7873 182.087C79.3075 182.177 79.8115 181.827 79.9009 181.298C79.9903 180.768 79.6408 180.256 79.1206 180.166C78.6004 180.077 78.0802 180.427 77.9827 180.964V180.972Z" fill="white"/>
<path d="M83.9459 173.043C83.8402 173.662 84.2629 174.232 84.8563 174.338C85.4496 174.443 86.0267 174.045 86.1324 173.418C86.238 172.815 85.8397 172.246 85.2383 172.148C84.6368 172.042 84.0516 172.441 83.9459 173.043Z" fill="white"/>
<path d="M91.3579 164.146C90.6995 164.032 90.0493 164.455 89.9274 165.155C89.8136 165.815 90.2769 166.474 90.9353 166.588C91.5936 166.702 92.252 166.238 92.3658 165.579C92.4877 164.879 92.0325 164.268 91.3579 164.146Z" fill="white"/>
<path d="M97.4903 156.103C96.7344 155.973 96.0273 156.494 95.9054 157.227C95.7834 157.959 96.2711 158.684 97.027 158.814C97.7829 158.944 98.482 158.448 98.612 157.691C98.7421 156.958 98.2463 156.234 97.4903 156.095V156.103Z" fill="white"/>
<path d="M50.022 234.511C50.0057 234.608 50.0709 234.698 50.1685 234.714C50.2499 234.73 50.3394 234.665 50.3557 234.568C50.372 234.47 50.3069 234.397 50.2255 234.388C50.1278 234.372 50.0383 234.413 50.022 234.511Z" fill="white"/>
<path d="M56.0042 226.606C55.9717 226.777 56.0694 226.932 56.2403 226.964C56.3949 226.989 56.5577 226.883 56.5821 226.704C56.6065 226.549 56.5007 226.386 56.3379 226.362C56.167 226.329 56.0205 226.452 55.9961 226.606H56.0042Z" fill="white"/>
<path d="M61.968 218.718C61.9273 218.954 62.0655 219.174 62.3175 219.215C62.5532 219.256 62.7726 219.093 62.8133 218.865C62.8539 218.612 62.6995 218.368 62.4719 218.328C62.2199 218.287 62.0086 218.466 61.968 218.718Z" fill="white"/>
<path d="M67.932 210.79C67.8751 211.099 68.062 211.408 68.3953 211.465C68.7042 211.522 69.0212 211.294 69.0781 210.985C69.1349 210.66 68.9074 210.375 68.5904 210.326C68.2652 210.269 67.9889 210.464 67.932 210.79Z" fill="white"/>
<path d="M73.9006 202.894C73.8356 203.284 74.0957 203.626 74.4777 203.691C74.8841 203.765 75.2417 203.529 75.3068 203.138C75.3799 202.731 75.1198 202.365 74.7134 202.3C74.3233 202.234 73.9656 202.487 73.8925 202.894H73.9006Z" fill="white"/>
<path d="M79.9062 194.973C79.8331 195.421 80.1094 195.869 80.5565 195.942C81.0035 196.015 81.4587 195.698 81.5318 195.25C81.605 194.802 81.288 194.371 80.8409 194.289C80.3939 194.208 79.9875 194.517 79.9062 194.965V194.973Z" fill="white"/>
<path d="M85.8492 187.077C85.7598 187.598 86.1337 188.103 86.6538 188.192C87.174 188.282 87.678 187.932 87.7674 187.411C87.8568 186.89 87.5073 186.369 86.9871 186.279C86.4669 186.19 85.9467 186.54 85.8492 187.085V187.077Z" fill="white"/>
<path d="M91.8251 179.148C91.7194 179.767 92.1339 180.337 92.7354 180.443C93.3369 180.549 93.9058 180.142 94.0115 179.523C94.109 178.945 93.7189 178.351 93.1174 178.253C92.5159 178.155 91.9307 178.571 91.8251 179.148Z" fill="white"/>
<path d="M57.8892 240.64C57.8729 240.722 57.938 240.811 58.0357 240.827C58.1171 240.844 58.2066 240.779 58.2148 240.697C58.231 240.583 58.1659 240.51 58.0927 240.494C57.995 240.477 57.9055 240.518 57.8892 240.64Z" fill="white"/>
<path d="M63.8649 232.711C63.8324 232.882 63.9463 233.045 64.1253 233.078C64.3044 233.11 64.4428 232.996 64.4672 232.817C64.4916 232.663 64.4021 232.508 64.223 232.475C64.044 232.443 63.8893 232.557 63.8649 232.711Z" fill="white"/>
<path d="M69.8187 224.823C69.7781 225.06 69.9406 225.287 70.1926 225.328C70.4446 225.369 70.6478 225.206 70.6884 224.978C70.7291 224.726 70.5909 224.498 70.3389 224.457C70.0869 224.416 69.8594 224.571 69.8187 224.823Z" fill="white"/>
<path d="M75.7939 216.895C75.737 217.221 75.9646 217.522 76.2735 217.579C76.5823 217.636 76.8749 217.424 76.9318 217.09C76.9887 216.781 76.7774 216.488 76.4685 216.431C76.1597 216.374 75.8427 216.586 75.7939 216.895Z" fill="white"/>
<path d="M81.8915 209.023C81.8346 209.332 82.0622 209.634 82.3955 209.691C82.6881 209.74 82.9807 209.536 83.0376 209.227C83.0945 208.901 82.8832 208.6 82.5987 208.551C82.2735 208.494 81.9565 208.698 81.8996 209.031L81.8915 209.023Z" fill="white"/>
<path d="M87.8555 201.095C87.7823 201.502 88.0587 201.868 88.4651 201.941C88.8715 202.015 89.2129 201.754 89.286 201.347C89.3592 200.94 89.0991 200.598 88.7089 200.533C88.3025 200.46 87.9205 200.712 87.8555 201.103V201.095Z" fill="white"/>
<path d="M93.8664 193.215C93.7933 193.663 94.094 194.094 94.5573 194.175C95.0206 194.257 95.4351 193.948 95.5083 193.5C95.5814 193.052 95.2807 192.604 94.8418 192.523C94.4029 192.442 93.9396 192.767 93.8664 193.215Z" fill="white"/>
<path d="M71.8658 238.849C71.8495 238.947 71.9146 239.036 72.0123 239.053C72.0937 239.069 72.1832 239.004 72.1995 238.906C72.2157 238.825 72.1506 238.735 72.0692 238.727C71.9716 238.711 71.8821 238.776 71.8658 238.849Z" fill="white"/>
<path d="M77.8355 230.953C77.8111 231.108 77.9169 231.271 78.096 231.295C78.2506 231.32 78.4134 231.206 78.4378 231.051C78.4704 230.88 78.3564 230.717 78.2018 230.693C78.0309 230.66 77.8681 230.774 77.8355 230.945V230.953Z" fill="white"/>
<path d="M83.8234 223.033C83.7828 223.285 83.921 223.513 84.1729 223.554C84.4086 223.594 84.6362 223.432 84.6769 223.179C84.7175 222.943 84.555 222.715 84.3274 222.683C84.0754 222.642 83.8722 222.805 83.8315 223.033H83.8234Z" fill="white"/>
<path d="M89.7827 215.145C89.7258 215.454 89.9371 215.747 90.246 215.804C90.5549 215.861 90.8719 215.65 90.9206 215.34C90.9775 215.015 90.7499 214.713 90.4411 214.656C90.1322 214.599 89.8396 214.811 89.7827 215.145Z" fill="white"/>
<path d="M95.7579 207.208C95.6847 207.615 95.9611 207.981 96.3268 208.047C96.717 208.112 97.099 207.859 97.164 207.452C97.2291 207.086 96.9527 206.695 96.5707 206.63C96.2049 206.565 95.8148 206.842 95.7579 207.208Z" fill="white"/>
<path d="M79.7369 244.979C79.7206 245.077 79.7857 245.15 79.8671 245.158C79.9648 245.174 80.0543 245.134 80.0706 245.036C80.0868 244.938 80.0217 244.849 79.9241 244.832C79.8427 244.816 79.7532 244.881 79.7369 244.979Z" fill="white"/>
<path d="M85.7027 237.066C85.6783 237.221 85.7841 237.384 85.9631 237.408C86.1178 237.433 86.2806 237.319 86.305 237.164C86.3294 237.009 86.2154 236.855 86.0608 236.822C85.8899 236.79 85.7271 236.904 85.7027 237.058V237.066Z" fill="white"/>
<path d="M91.6777 229.154C91.637 229.39 91.8158 229.634 92.0434 229.675C92.2954 229.716 92.5067 229.537 92.5474 229.301C92.588 229.048 92.4498 228.829 92.1979 228.78C91.9622 228.739 91.7183 228.894 91.6777 229.146V229.154Z" fill="white"/>
<path d="M93.7174 243.204C93.7011 243.286 93.7662 243.375 93.8476 243.383C93.9452 243.4 94.0348 243.335 94.051 243.261C94.0673 243.164 94.0022 243.09 93.9046 243.074C93.8232 243.058 93.7418 243.107 93.7255 243.204H93.7174Z" fill="white"/>
</g>
</g>
</g>
</g>
<path d="M55.8848 70.6794H396.385C403.692 70.6794 409.618 76.6218 409.618 83.9318V118.3H42.6523V83.9318C42.6523 76.6137 48.5858 70.6794 55.8848 70.6794Z" fill="url(#paint3_linear_7401_65278)" stroke="#388AEB" stroke-width="0.75" stroke-miterlimit="10"/>
<path d="M285.606 105.902C291.9 105.902 297.002 100.793 297.002 94.4898C297.002 88.1868 291.9 83.0771 285.606 83.0771C279.313 83.0771 274.211 88.1868 274.211 94.4898C274.211 100.793 279.313 105.902 285.606 105.902Z" fill="white" stroke="#388AEB" stroke-width="0.5" stroke-miterlimit="10"/>
<path d="M78.3409 105.902C84.6344 105.902 89.7364 100.793 89.7364 94.4898C89.7364 88.1868 84.6344 83.0771 78.3409 83.0771C72.0473 83.0771 66.9453 88.1868 66.9453 94.4898C66.9453 100.793 72.0473 105.902 78.3409 105.902Z" fill="white" stroke="#388AEB" stroke-width="0.5" stroke-miterlimit="10"/>
<path d="M123.062 290.507C127.004 290.507 130.199 287.308 130.199 283.36C130.199 279.413 127.004 276.213 123.062 276.213C119.121 276.213 115.926 279.413 115.926 283.36C115.926 287.308 119.121 290.507 123.062 290.507Z" fill="url(#paint4_linear_7401_65278)" stroke="#388AEB" stroke-width="0.5" stroke-miterlimit="10"/>
<path d="M387.379 263.938C391.32 263.938 394.515 260.738 394.515 256.79C394.515 252.843 391.32 249.643 387.379 249.643C383.437 249.643 380.242 252.843 380.242 256.79C380.242 260.738 383.437 263.938 387.379 263.938Z" fill="url(#paint5_linear_7401_65278)" stroke="#388AEB" stroke-width="0.5" stroke-miterlimit="10"/>
<path d="M373.665 105.902C379.959 105.902 385.061 100.793 385.061 94.4898C385.061 88.1868 379.959 83.0771 373.665 83.0771C367.371 83.0771 362.27 88.1868 362.27 94.4898C362.27 100.793 367.371 105.902 373.665 105.902Z" fill="white" stroke="#388AEB" stroke-width="0.5" stroke-miterlimit="10"/>
<path d="M329.368 105.902C335.662 105.902 340.764 100.793 340.764 94.4898C340.764 88.1868 335.662 83.0771 329.368 83.0771C323.075 83.0771 317.973 88.1868 317.973 94.4898C317.973 100.793 323.075 105.902 329.368 105.902Z" fill="white" stroke="#388AEB" stroke-width="0.5" stroke-miterlimit="10"/>
<path d="M137.109 214.787H230.208C235.589 214.787 239.961 219.166 239.961 224.555V253.998C239.961 259.387 235.589 263.767 230.208 263.767H127.355V224.555C127.355 219.166 131.728 214.787 137.109 214.787Z" fill="white" stroke="#388AEB" stroke-width="0.5" stroke-miterlimit="10"/>
<path d="M277.39 182.803H370.489C375.87 182.803 380.243 187.183 380.243 192.572V238.988H277.39C272.01 238.988 267.637 234.608 267.637 229.219V192.572C267.637 187.183 272.01 182.803 277.39 182.803Z" fill="white" stroke="#388AEB" stroke-width="0.5" stroke-miterlimit="10"/>
<path d="M224.736 227.021H147.511C145.684 227.021 144.203 228.505 144.203 230.335V230.847C144.203 232.677 145.684 234.16 147.511 234.16H224.736C226.563 234.16 228.044 232.677 228.044 230.847V230.335C228.044 228.505 226.563 227.021 224.736 227.021Z" fill="url(#paint6_linear_7401_65278)" stroke="#388AEB" stroke-width="0.5" stroke-miterlimit="10"/>
<path d="M381.253 139.074H346.945C344.844 139.074 343.141 140.78 343.141 142.884V143.47C343.141 145.574 344.844 147.279 346.945 147.279H381.253C383.354 147.279 385.057 145.574 385.057 143.47V142.884C385.057 140.78 383.354 139.074 381.253 139.074Z" fill="url(#paint7_linear_7401_65278)" stroke="#388AEB" stroke-width="0.5" stroke-miterlimit="10"/>
<path d="M196.41 244.963H147.511C145.684 244.963 144.203 246.446 144.203 248.276V248.789C144.203 250.618 145.684 252.102 147.511 252.102H196.41C198.237 252.102 199.718 250.618 199.718 248.789V248.276C199.718 246.446 198.237 244.963 196.41 244.963Z" fill="url(#paint8_linear_7401_65278)" stroke="#388AEB" stroke-width="0.5" stroke-miterlimit="10"/>
<path d="M132.433 141.606H225.532C230.913 141.606 235.286 145.985 235.286 151.374V178.18C235.286 183.569 230.913 187.948 225.532 187.948H122.68V151.374C122.68 145.985 127.053 141.606 132.433 141.606Z" fill="url(#paint9_linear_7401_65278)"/>
<path d="M123.062 208.852C127.004 208.852 130.199 205.653 130.199 201.705C130.199 197.758 127.004 194.558 123.062 194.558C119.121 194.558 115.926 197.758 115.926 201.705C115.926 205.653 119.121 208.852 123.062 208.852Z" fill="url(#paint10_linear_7401_65278)" stroke="#388AEB" stroke-width="0.5" stroke-miterlimit="10"/>
<path d="M137.109 133.506H230.208C235.589 133.506 239.961 137.886 239.961 143.274V172.718C239.961 178.107 235.589 182.486 230.208 182.486H127.355V143.274C127.355 137.886 131.728 133.506 137.109 133.506Z" fill="white" stroke="#388AEB" stroke-width="0.5" stroke-miterlimit="10"/>
<path d="M224.736 145.749H147.511C145.684 145.749 144.203 147.232 144.203 149.062V149.575C144.203 151.405 145.684 152.888 147.511 152.888H224.736C226.563 152.888 228.044 151.405 228.044 149.575V149.062C228.044 147.232 226.563 145.749 224.736 145.749Z" fill="url(#paint11_linear_7401_65278)" stroke="#388AEB" stroke-width="0.5" stroke-miterlimit="10"/>
<path d="M210.244 161.916H147.308C145.481 161.916 144 163.399 144 165.229V165.741C144 167.571 145.481 169.055 147.308 169.055H210.244C212.071 169.055 213.552 167.571 213.552 165.741V165.229C213.552 163.399 212.071 161.916 210.244 161.916Z" fill="url(#paint12_linear_7401_65278)" stroke="#388AEB" stroke-width="0.5" stroke-miterlimit="10"/>
<path opacity="0.39" d="M85.6505 321.905H54.7801C53.8509 321.905 53.0977 322.659 53.0977 323.59V323.85C53.0977 324.781 53.8509 325.535 54.7801 325.535H85.6505C86.5797 325.535 87.333 324.781 87.333 323.85V323.59C87.333 322.659 86.5797 321.905 85.6505 321.905Z" fill="white" stroke="#388AEB" stroke-width="0.5" stroke-miterlimit="10"/>
<path d="M363.799 197.725H287.566C285.465 197.725 283.762 199.43 283.762 201.534V202.12C283.762 204.224 285.465 205.93 287.566 205.93H363.799C365.9 205.93 367.603 204.224 367.603 202.12V201.534C367.603 199.43 365.9 197.725 363.799 197.725Z" fill="url(#paint13_linear_7401_65278)" stroke="#388AEB" stroke-width="0.5" stroke-miterlimit="10"/>
<path d="M363.802 215.853H301.273C299.172 215.853 297.469 217.559 297.469 219.663V220.249C297.469 222.353 299.172 224.058 301.273 224.058H363.802C365.903 224.058 367.606 222.353 367.606 220.249V219.663C367.606 217.559 365.903 215.853 363.802 215.853Z" fill="url(#paint14_linear_7401_65278)" stroke="#388AEB" stroke-width="0.5" stroke-miterlimit="10"/>
<path opacity="0.39" d="M73.6293 178.082C79.4695 178.082 84.2039 173.341 84.2039 167.492C84.2039 161.643 79.4695 156.901 73.6293 156.901C67.7891 156.901 63.0547 161.643 63.0547 167.492C63.0547 173.341 67.7891 178.082 73.6293 178.082Z" fill="white" stroke="#388AEB" stroke-width="0.5" stroke-miterlimit="10"/>
<path opacity="0.39" d="M84.3996 197.073H58.3574C57.1633 197.073 56.1953 198.043 56.1953 199.239V199.581C56.1953 200.777 57.1633 201.746 58.3574 201.746H84.3996C85.5937 201.746 86.5617 200.777 86.5617 199.581V199.239C86.5617 198.043 85.5937 197.073 84.3996 197.073Z" fill="white" stroke="#388AEB" stroke-width="0.5" stroke-miterlimit="10"/>
<path opacity="0.39" d="M84.3996 217.644H58.3574C57.1633 217.644 56.1953 218.613 56.1953 219.809V220.151C56.1953 221.347 57.1633 222.317 58.3574 222.317H84.3996C85.5937 222.317 86.5617 221.347 86.5617 220.151V219.809C86.5617 218.613 85.5937 217.644 84.3996 217.644Z" fill="white" stroke="#388AEB" stroke-width="0.5" stroke-miterlimit="10"/>
<path opacity="0.39" d="M84.3996 235.504H58.3574C57.1633 235.504 56.1953 236.473 56.1953 237.669V238.011C56.1953 239.207 57.1633 240.176 58.3574 240.176H84.3996C85.5937 240.176 86.5617 239.207 86.5617 238.011V237.669C86.5617 236.473 85.5937 235.504 84.3996 235.504Z" fill="white" stroke="#388AEB" stroke-width="0.5" stroke-miterlimit="10"/>
<path d="M156.246 16.7585H79.064C74.7614 16.7585 71.2734 20.2411 71.2734 24.537V101.599C71.2734 105.895 74.7614 109.377 79.064 109.377H156.246C160.549 109.377 164.036 105.895 164.036 101.599V24.537C164.036 20.2411 160.549 16.7585 156.246 16.7585Z" fill="url(#paint15_linear_7401_65278)"/>
<path d="M141.379 4.04565H64.1968C59.8942 4.04565 56.4062 7.52819 56.4062 11.8241V88.886C56.4062 93.1819 59.8942 96.6645 64.1968 96.6645H141.379C145.681 96.6645 149.169 93.1819 149.169 88.886V11.8241C149.169 7.52819 145.681 4.04565 141.379 4.04565Z" fill="white" stroke="#88B6EB" stroke-width="2" stroke-miterlimit="10"/>
<path d="M102.899 68.7133C97.7622 68.7133 93.3961 66.9338 89.8004 63.3748C86.197 59.8158 84.3992 55.4798 84.3992 50.3512V49.9471L82.3289 52.0141C81.4417 52.8999 80.0019 52.8999 79.1146 52.0141C78.2274 51.1282 78.2274 49.6906 79.1146 48.8048L85.0918 42.8369C85.9791 41.951 87.4189 41.951 88.3061 42.8369L94.2833 48.8048C95.1705 49.6906 95.1705 51.1282 94.2833 52.0141C93.3961 52.8999 91.9562 52.8999 91.069 52.0141L88.9988 49.9471V50.3512C88.9988 54.1743 90.3452 57.4302 93.0458 60.1034C95.7465 62.7765 99.0308 64.1208 102.899 64.1208C103.895 64.1208 104.868 64.0042 105.833 63.7789C106.323 63.6623 106.806 63.5147 107.288 63.336C108.144 63.0174 109.102 63.1961 109.74 63.8411L109.802 63.9032C110.977 65.0766 110.534 67.0814 108.969 67.6487C108.518 67.8119 108.067 67.9518 107.607 68.0839C106.074 68.5035 104.502 68.7133 102.899 68.7133ZM117.266 57.8654L111.289 51.8975C110.401 51.0117 110.401 49.5741 111.289 48.6882C112.176 47.8024 113.616 47.8024 114.503 48.6882L116.573 50.7552V50.3512C116.573 46.528 115.227 43.2721 112.526 40.5989C109.826 37.918 106.541 36.5815 102.673 36.5815C101.677 36.5815 100.704 36.698 99.739 36.9234C99.2487 37.04 98.7662 37.1876 98.2837 37.3663C97.4275 37.6849 96.4703 37.5062 95.8321 36.8612L95.7698 36.7991C94.5946 35.6257 95.0382 33.6209 96.6026 33.0536C97.054 32.8904 97.5054 32.7505 97.9646 32.6184C99.4978 32.1988 101.07 31.989 102.673 31.989C107.81 31.989 112.176 33.7685 115.772 37.3275C119.375 40.8865 121.173 45.2225 121.173 50.3512V50.7552L123.243 48.6882C124.13 47.8024 125.57 47.8024 126.457 48.6882C127.345 49.5741 127.345 51.0117 126.457 51.8975L120.48 57.8654C119.593 58.7513 118.153 58.7513 117.266 57.8654Z" fill="url(#paint16_linear_7401_65278)" stroke="#388AEB" stroke-width="0.5" stroke-miterlimit="10"/>
<path d="M440.148 267.291H362.966C358.664 267.291 355.176 270.774 355.176 275.07V352.132C355.176 356.428 358.664 359.91 362.966 359.91H440.148C444.451 359.91 447.939 356.428 447.939 352.132V275.07C447.939 270.774 444.451 267.291 440.148 267.291Z" fill="url(#paint17_linear_7401_65278)"/>
<path d="M428.918 258.992H351.736C347.433 258.992 343.945 262.475 343.945 266.771V343.833C343.945 348.128 347.433 351.611 351.736 351.611H428.918C433.22 351.611 436.708 348.128 436.708 343.833V266.771C436.708 262.475 433.22 258.992 428.918 258.992Z" fill="white" stroke="#88B6EB" stroke-width="2" stroke-miterlimit="10"/>
<path d="M390.328 293.999V323.178" stroke="#388AEB" stroke-width="0.5" stroke-miterlimit="10"/>
<path d="M406.318 282.522H374.346C372.429 282.522 370.875 284.073 370.875 285.987V290.533C370.875 292.447 372.429 293.999 374.346 293.999H406.318C408.235 293.999 409.789 292.447 409.789 290.533V285.987C409.789 284.073 408.235 282.522 406.318 282.522Z" fill="url(#paint18_linear_7401_65278)" stroke="#388AEB" stroke-width="0.5" stroke-miterlimit="10"/>
<path d="M380.891 288.264H387.708" stroke="#388AEB" stroke-width="0.5" stroke-miterlimit="10" stroke-linecap="round"/>
<path d="M389.582 288.264H401.077" stroke="#388AEB" stroke-width="0.5" stroke-miterlimit="10" stroke-linecap="round"/>
<path d="M406.318 300.021H374.346C372.429 300.021 370.875 301.573 370.875 303.487V308.033C370.875 309.947 372.429 311.499 374.346 311.499H406.318C408.235 311.499 409.789 309.947 409.789 308.033V303.487C409.789 301.573 408.235 300.021 406.318 300.021Z" fill="url(#paint19_linear_7401_65278)" stroke="#388AEB" stroke-width="0.5" stroke-miterlimit="10"/>
<path d="M380.891 305.764H387.708" stroke="#388AEB" stroke-width="0.5" stroke-miterlimit="10" stroke-linecap="round"/>
<path d="M389.582 305.764H401.077" stroke="#388AEB" stroke-width="0.5" stroke-miterlimit="10" stroke-linecap="round"/>
<path d="M406.318 316.604H374.346C372.429 316.604 370.875 318.156 370.875 320.07V324.616C370.875 326.53 372.429 328.081 374.346 328.081H406.318C408.235 328.081 409.789 326.53 409.789 324.616V320.07C409.789 318.156 408.235 316.604 406.318 316.604Z" fill="url(#paint20_linear_7401_65278)" stroke="#388AEB" stroke-width="0.5" stroke-miterlimit="10"/>
<path d="M380.891 322.339H387.708" stroke="#388AEB" stroke-width="0.5" stroke-miterlimit="10" stroke-linecap="round"/>
<path d="M389.582 322.339H401.077" stroke="#388AEB" stroke-width="0.5" stroke-miterlimit="10" stroke-linecap="round"/>
<path d="M409.789 287.899H416.755C418.265 287.899 419.486 289.119 419.486 290.626V301.21C419.486 302.718 418.265 303.938 416.755 303.938H409.789" stroke="#388AEB" stroke-width="0.5" stroke-miterlimit="10"/>
<path d="M415.523 293.882L419.485 297.13L423.361 293.75" stroke="#388AEB" stroke-width="0.75" stroke-miterlimit="10"/>
<path d="M370.873 305.966H363.908C362.398 305.966 361.176 307.186 361.176 308.693V319.277C361.176 320.785 362.398 322.005 363.908 322.005H370.873" stroke="#388AEB" stroke-width="0.5" stroke-miterlimit="10"/>
<path d="M365.13 311.941L361.177 315.197L357.301 311.817" stroke="#388AEB" stroke-width="0.75" stroke-miterlimit="10"/>
<path d="M246.949 305.381H169.767C165.465 305.381 161.977 308.864 161.977 313.16V390.222C161.977 394.518 165.465 398 169.767 398H246.949C251.252 398 254.74 394.518 254.74 390.222V313.16C254.74 308.864 251.252 305.381 246.949 305.381Z" fill="url(#paint21_linear_7401_65278)"/>
<path d="M234.086 296.655H156.904C152.601 296.655 149.113 300.137 149.113 304.433V381.495C149.113 385.791 152.601 389.274 156.904 389.274H234.086C238.388 389.274 241.876 385.791 241.876 381.495V304.433C241.876 300.137 238.388 296.655 234.086 296.655Z" fill="white" stroke="#88B6EB" stroke-width="2" stroke-miterlimit="10"/>
<path d="M217.858 321.366H192.696C191.08 321.366 189.77 322.674 189.77 324.287C189.77 325.901 191.08 327.209 192.696 327.209H217.858C219.474 327.209 220.784 325.901 220.784 324.287C220.784 322.674 219.474 321.366 217.858 321.366Z" fill="url(#paint22_linear_7401_65278)" stroke="#388AEB" stroke-width="0.5" stroke-miterlimit="10"/>
<path d="M177.367 331.444C181.326 331.444 184.535 328.24 184.535 324.287C184.535 320.335 181.326 317.131 177.367 317.131C173.408 317.131 170.199 320.335 170.199 324.287C170.199 328.24 173.408 331.444 177.367 331.444Z" fill="white" stroke="#388AEB" stroke-width="0.75" stroke-miterlimit="10"/>
<path d="M174.191 324.357L176.044 326.253C176.176 326.393 176.402 326.393 176.534 326.253L180.55 322.213" stroke="#5C9DEB" stroke-width="2" stroke-miterlimit="10" stroke-linecap="round"/>
<path d="M217.858 358.727H192.696C191.08 358.727 189.77 360.035 189.77 361.649C189.77 363.262 191.08 364.571 192.696 364.571H217.858C219.474 364.571 220.784 363.262 220.784 361.649C220.784 360.035 219.474 358.727 217.858 358.727Z" fill="url(#paint23_linear_7401_65278)" stroke="#388AEB" stroke-width="0.5" stroke-miterlimit="10"/>
<path d="M177.367 368.806C181.326 368.806 184.535 365.601 184.535 361.649C184.535 357.696 181.326 354.492 177.367 354.492C173.408 354.492 170.199 357.696 170.199 361.649C170.199 365.601 173.408 368.806 177.367 368.806Z" fill="white" stroke="#388AEB" stroke-width="0.75" stroke-miterlimit="10"/>
<path d="M217.858 340.07H192.696C191.08 340.07 189.77 341.378 189.77 342.992C189.77 344.605 191.08 345.913 192.696 345.913H217.858C219.474 345.913 220.784 344.605 220.784 342.992C220.784 341.378 219.474 340.07 217.858 340.07Z" fill="url(#paint24_linear_7401_65278)" stroke="#388AEB" stroke-width="0.5" stroke-miterlimit="10"/>
<path d="M177.367 350.148C181.326 350.148 184.535 346.944 184.535 342.992C184.535 339.039 181.326 335.835 177.367 335.835C173.408 335.835 170.199 339.039 170.199 342.992C170.199 346.944 173.408 350.148 177.367 350.148Z" fill="white" stroke="#388AEB" stroke-width="0.75" stroke-miterlimit="10"/>
</g>
<defs>
<linearGradient id="paint0_linear_7401_65278" x1="134.904" y1="-101.3" x2="226.893" y2="631.722" gradientUnits="userSpaceOnUse">
<stop offset="0.03" stop-color="#388AEB"/>
<stop offset="0.13" stop-color="#4290EB" stop-opacity="0.93"/>
<stop offset="0.31" stop-color="#5EA0ED" stop-opacity="0.76"/>
<stop offset="0.56" stop-color="#8ABAF1" stop-opacity="0.48"/>
<stop offset="0.87" stop-color="#C7DDF5" stop-opacity="0.09"/>
<stop offset="0.94" stop-color="#D6E6F7" stop-opacity="0"/>
</linearGradient>
<linearGradient id="paint1_linear_7401_65278" x1="286.893" y1="-120.707" x2="378.971" y2="613.048" gradientUnits="userSpaceOnUse">
<stop offset="0.03" stop-color="#388AEB"/>
<stop offset="0.13" stop-color="#4290EB" stop-opacity="0.93"/>
<stop offset="0.31" stop-color="#5EA0ED" stop-opacity="0.76"/>
<stop offset="0.56" stop-color="#8ABAF1" stop-opacity="0.48"/>
<stop offset="0.87" stop-color="#C7DDF5" stop-opacity="0.09"/>
<stop offset="0.94" stop-color="#D6E6F7" stop-opacity="0"/>
</linearGradient>
<linearGradient id="paint2_linear_7401_65278" x1="-277.95" y1="6.04575" x2="256.227" y2="343.11" gradientUnits="userSpaceOnUse">
<stop stop-color="#388AEB"/>
<stop offset="0.29" stop-color="#74ADEF" stop-opacity="0.81"/>
<stop offset="0.6" stop-color="#A9CCF3" stop-opacity="0.64"/>
<stop offset="0.85" stop-color="#CADFF6" stop-opacity="0.54"/>
<stop offset="1" stop-color="#D6E6F7" stop-opacity="0.5"/>
</linearGradient>
<linearGradient id="paint3_linear_7401_65278" x1="225.078" y1="-68.6088" x2="226.701" y2="191.676" gradientUnits="userSpaceOnUse">
<stop stop-color="white"/>
<stop offset="0.77" stop-color="#FF915B"/>
</linearGradient>
<linearGradient id="paint4_linear_7401_65278" x1="83.8931" y1="47.211" x2="123.503" y2="285.303" gradientUnits="userSpaceOnUse">
<stop stop-color="#388AEB"/>
<stop offset="0.18" stop-color="#5D9FED"/>
<stop offset="0.45" stop-color="#90BDF1"/>
<stop offset="0.69" stop-color="#B6D3F4"/>
<stop offset="0.88" stop-color="#CDE1F6"/>
<stop offset="1" stop-color="#D6E6F7"/>
</linearGradient>
<linearGradient id="paint5_linear_7401_65278" x1="356.069" y1="232.28" x2="455.849" y2="310.159" gradientUnits="userSpaceOnUse">
<stop stop-color="white"/>
<stop offset="0.77" stop-color="#FF915B"/>
</linearGradient>
<linearGradient id="paint6_linear_7401_65278" x1="153.656" y1="34.8217" x2="193.421" y2="273.841" gradientUnits="userSpaceOnUse">
<stop stop-color="#388AEB"/>
<stop offset="0.18" stop-color="#5D9FED"/>
<stop offset="0.45" stop-color="#90BDF1"/>
<stop offset="0.69" stop-color="#B6D3F4"/>
<stop offset="0.88" stop-color="#CDE1F6"/>
<stop offset="1" stop-color="#D6E6F7"/>
</linearGradient>
<linearGradient id="paint7_linear_7401_65278" x1="285.594" y1="86.2517" x2="475.426" y2="223.494" gradientUnits="userSpaceOnUse">
<stop stop-color="white"/>
<stop offset="0.77" stop-color="#FF915B"/>
</linearGradient>
<linearGradient id="paint8_linear_7401_65278" x1="136.92" y1="37.2801" x2="176.734" y2="276.593" gradientUnits="userSpaceOnUse">
<stop stop-color="#388AEB"/>
<stop offset="0.18" stop-color="#5D9FED"/>
<stop offset="0.45" stop-color="#90BDF1"/>
<stop offset="0.69" stop-color="#B6D3F4"/>
<stop offset="0.88" stop-color="#CDE1F6"/>
<stop offset="1" stop-color="#D6E6F7"/>
</linearGradient>
<linearGradient id="paint9_linear_7401_65278" x1="144.942" y1="-102.692" x2="236.939" y2="630.322" gradientUnits="userSpaceOnUse">
<stop offset="0.03" stop-color="#388AEB"/>
<stop offset="0.13" stop-color="#4290EB" stop-opacity="0.93"/>
<stop offset="0.31" stop-color="#5EA0ED" stop-opacity="0.76"/>
<stop offset="0.56" stop-color="#8ABAF1" stop-opacity="0.48"/>
<stop offset="0.87" stop-color="#C7DDF5" stop-opacity="0.09"/>
<stop offset="0.94" stop-color="#D6E6F7" stop-opacity="0"/>
</linearGradient>
<linearGradient id="paint10_linear_7401_65278" x1="97.0768" y1="45.0213" x2="136.679" y2="283.105" gradientUnits="userSpaceOnUse">
<stop stop-color="#388AEB"/>
<stop offset="0.18" stop-color="#5D9FED"/>
<stop offset="0.45" stop-color="#90BDF1"/>
<stop offset="0.69" stop-color="#B6D3F4"/>
<stop offset="0.88" stop-color="#CDE1F6"/>
<stop offset="1" stop-color="#D6E6F7"/>
</linearGradient>
<linearGradient id="paint11_linear_7401_65278" x1="-74.222" y1="330.11" x2="251.624" y2="104.521" gradientUnits="userSpaceOnUse">
<stop stop-color="#388AEB"/>
<stop offset="0.18" stop-color="#5D9FED"/>
<stop offset="0.45" stop-color="#90BDF1"/>
<stop offset="0.69" stop-color="#B6D3F4"/>
<stop offset="0.88" stop-color="#CDE1F6"/>
<stop offset="1" stop-color="#D6E6F7"/>
</linearGradient>
<linearGradient id="paint12_linear_7401_65278" x1="-69.1581" y1="337.656" x2="256.875" y2="111.937" gradientUnits="userSpaceOnUse">
<stop stop-color="#388AEB"/>
<stop offset="0.18" stop-color="#5D9FED"/>
<stop offset="0.45" stop-color="#90BDF1"/>
<stop offset="0.69" stop-color="#B6D3F4"/>
<stop offset="0.88" stop-color="#CDE1F6"/>
<stop offset="1" stop-color="#D6E6F7"/>
</linearGradient>
<linearGradient id="paint13_linear_7401_65278" x1="200.449" y1="98.8367" x2="548.075" y2="383.877" gradientUnits="userSpaceOnUse">
<stop stop-color="white"/>
<stop offset="0.77" stop-color="#FF915B"/>
</linearGradient>
<linearGradient id="paint14_linear_7401_65278" x1="194.194" y1="106.179" x2="542.056" y2="391.414" gradientUnits="userSpaceOnUse">
<stop stop-color="white"/>
<stop offset="0.77" stop-color="#FF915B"/>
</linearGradient>
<linearGradient id="paint15_linear_7401_65278" x1="107.635" y1="-65.9837" x2="125.519" y2="165.059" gradientUnits="userSpaceOnUse">
<stop offset="0.03" stop-color="#1C7BEB"/>
<stop offset="0.63" stop-color="#63A7F2" stop-opacity="0.35"/>
<stop offset="0.97" stop-color="#8ABFF7" stop-opacity="0"/>
</linearGradient>
<linearGradient id="paint16_linear_7401_65278" x1="98.0502" y1="-91.9302" x2="102.123" y2="31.0336" gradientUnits="userSpaceOnUse">
<stop stop-color="#314F8F"/>
<stop offset="0.06" stop-color="#3B5A97"/>
<stop offset="0.37" stop-color="#6E8DC0"/>
<stop offset="0.65" stop-color="#93B3DE"/>
<stop offset="0.86" stop-color="#A9CAF0"/>
<stop offset="1" stop-color="#B2D3F7"/>
</linearGradient>
<linearGradient id="paint17_linear_7401_65278" x1="388.875" y1="22.7866" x2="410.638" y2="523.393" gradientUnits="userSpaceOnUse">
<stop offset="0.03" stop-color="#1C7BEB"/>
<stop offset="0.63" stop-color="#63A7F2" stop-opacity="0.35"/>
<stop offset="0.97" stop-color="#8ABFF7" stop-opacity="0"/>
</linearGradient>
<linearGradient id="paint18_linear_7401_65278" x1="386.666" y1="254.874" x2="389.785" y2="283.401" gradientUnits="userSpaceOnUse">
<stop stop-color="#314F8F"/>
<stop offset="0.11" stop-color="#3D5E9D"/>
<stop offset="0.33" stop-color="#5D86C4"/>
<stop offset="0.55" stop-color="#83B5F2"/>
<stop offset="0.57" stop-color="#88B8F2"/>
<stop offset="0.76" stop-color="#ADCEF4"/>
<stop offset="0.91" stop-color="#C4DBF6"/>
<stop offset="1" stop-color="#CDE1F7"/>
</linearGradient>
<linearGradient id="paint19_linear_7401_65278" x1="386.666" y1="272.373" x2="389.785" y2="300.9" gradientUnits="userSpaceOnUse">
<stop stop-color="#314F8F"/>
<stop offset="0.11" stop-color="#3D5E9D"/>
<stop offset="0.33" stop-color="#5D86C4"/>
<stop offset="0.55" stop-color="#83B5F2"/>
<stop offset="0.57" stop-color="#88B8F2"/>
<stop offset="0.76" stop-color="#ADCEF4"/>
<stop offset="0.91" stop-color="#C4DBF6"/>
<stop offset="1" stop-color="#CDE1F7"/>
</linearGradient>
<linearGradient id="paint20_linear_7401_65278" x1="386.666" y1="288.956" x2="389.785" y2="317.483" gradientUnits="userSpaceOnUse">
<stop stop-color="#314F8F"/>
<stop offset="0.11" stop-color="#3D5E9D"/>
<stop offset="0.33" stop-color="#5D86C4"/>
<stop offset="0.55" stop-color="#83B5F2"/>
<stop offset="0.57" stop-color="#88B8F2"/>
<stop offset="0.76" stop-color="#ADCEF4"/>
<stop offset="0.91" stop-color="#C4DBF6"/>
<stop offset="1" stop-color="#CDE1F7"/>
</linearGradient>
<linearGradient id="paint21_linear_7401_65278" x1="217.071" y1="241.398" x2="201.53" y2="438.637" gradientUnits="userSpaceOnUse">
<stop offset="0.03" stop-color="#1C7BEB"/>
<stop offset="0.63" stop-color="#63A7F2" stop-opacity="0.35"/>
<stop offset="0.97" stop-color="#8ABFF7" stop-opacity="0"/>
</linearGradient>
<linearGradient id="paint22_linear_7401_65278" x1="213.382" y1="216.345" x2="212.87" y2="223.261" gradientUnits="userSpaceOnUse">
<stop stop-color="#314F8F"/>
<stop offset="0.11" stop-color="#3D5E9D"/>
<stop offset="0.33" stop-color="#5D86C4"/>
<stop offset="0.55" stop-color="#83B5F2"/>
<stop offset="0.57" stop-color="#88B8F2"/>
<stop offset="0.76" stop-color="#ADCEF4"/>
<stop offset="0.91" stop-color="#C4DBF6"/>
<stop offset="1" stop-color="#CDE1F7"/>
</linearGradient>
<linearGradient id="paint23_linear_7401_65278" x1="213.382" y1="253.714" x2="212.87" y2="260.63" gradientUnits="userSpaceOnUse">
<stop stop-color="#314F8F"/>
<stop offset="0.11" stop-color="#3D5E9D"/>
<stop offset="0.33" stop-color="#5D86C4"/>
<stop offset="0.55" stop-color="#83B5F2"/>
<stop offset="0.57" stop-color="#88B8F2"/>
<stop offset="0.76" stop-color="#ADCEF4"/>
<stop offset="0.91" stop-color="#C4DBF6"/>
<stop offset="1" stop-color="#CDE1F7"/>
</linearGradient>
<linearGradient id="paint24_linear_7401_65278" x1="213.382" y1="235.049" x2="212.87" y2="241.965" gradientUnits="userSpaceOnUse">
<stop stop-color="#314F8F"/>
<stop offset="0.11" stop-color="#3D5E9D"/>
<stop offset="0.33" stop-color="#5D86C4"/>
<stop offset="0.55" stop-color="#83B5F2"/>
<stop offset="0.57" stop-color="#88B8F2"/>
<stop offset="0.76" stop-color="#ADCEF4"/>
<stop offset="0.91" stop-color="#C4DBF6"/>
<stop offset="1" stop-color="#CDE1F7"/>
</linearGradient>
<clipPath id="clip0_7401_65278">
<rect width="586" height="397.326" fill="white" transform="translate(0 0.337158)"/>
</clipPath>
</defs>
</svg>
